G04*
G04 #@! TF.GenerationSoftware,Altium Limited,Altium Designer,18.0.12 (696)*
G04*
G04 Layer_Color=278392*
%FSLAX44Y44*%
%MOMM*%
G71*
G01*
G75*
%ADD10C,0.2500*%
%ADD11C,0.3000*%
%ADD12C,0.2000*%
%ADD13C,0.2540*%
%ADD14C,0.1500*%
%ADD15C,0.1270*%
G36*
X500000Y796000D02*
X510500Y801000D01*
Y791000D01*
X500000Y796000D01*
D02*
G37*
G36*
X511000Y850000D02*
X506000Y860500D01*
X516000D01*
X511000Y850000D01*
D02*
G37*
G36*
X511000Y900000D02*
X516000Y889500D01*
X506000D01*
X511000Y900000D01*
D02*
G37*
G36*
X575000Y796000D02*
X564500Y791000D01*
Y801000D01*
X575000Y796000D01*
D02*
G37*
G36*
X585500Y791000D02*
X575000Y796000D01*
X585500Y801000D01*
Y791000D01*
D02*
G37*
G36*
X650000Y796000D02*
X639500Y791000D01*
Y801000D01*
X650000Y796000D01*
D02*
G37*
D10*
X631750Y593000D02*
G03*
X631750Y593000I-1250J0D01*
G01*
X615250Y835000D02*
G03*
X615250Y835000I-1250J0D01*
G01*
X586750Y593000D02*
G03*
X586750Y593000I-1250J0D01*
G01*
X541750D02*
G03*
X541750Y593000I-1250J0D01*
G01*
D11*
X683100Y524900D02*
G03*
X683100Y524900I-1500J0D01*
G01*
D12*
X618148Y449189D02*
G03*
X633388Y449189I7620J0D01*
G01*
X491148D02*
G03*
X506388Y449189I7620J0D01*
G01*
X595923Y468747D02*
G03*
X589573Y475097I-6350J0D01*
G01*
X560363D02*
G03*
X554013Y468747I0J-6350D01*
G01*
X695618Y493385D02*
G03*
X690538Y493385I-2540J0D01*
G01*
X459398D02*
G03*
X454318Y493385I-2540J0D01*
G01*
X595923Y412105D02*
G03*
X608623Y399405I12700J0D01*
G01*
X541313D02*
G03*
X554013Y412105I0J12700D01*
G01*
X567000Y754500D02*
Y765500D01*
X583000Y754500D02*
Y765500D01*
X630000Y550500D02*
Y587500D01*
X600000Y550500D02*
Y587500D01*
X644500Y560000D02*
X655500D01*
X550000Y875000D02*
X555000D01*
X550000Y870000D02*
Y875000D01*
X595000D02*
X600000D01*
Y870000D02*
Y875000D01*
X550000Y825000D02*
X555000D01*
X550000D02*
Y830000D01*
X595000Y825000D02*
X596000D01*
X600000Y829000D01*
Y830000D01*
X713144Y399405D02*
Y493385D01*
X436792Y399405D02*
X713144D01*
X436792D02*
Y493385D01*
X454318D01*
X459398Y487543D02*
Y493385D01*
Y487543D02*
X690538D01*
Y493385D01*
X695618D02*
X713144D01*
X663868Y424805D02*
X674028Y399405D01*
X653708D02*
X663868Y424805D01*
X636182Y399405D02*
Y411597D01*
X615354D02*
X636182D01*
X615354Y399405D02*
Y411597D01*
X646088Y399405D02*
Y487543D01*
X633388Y472049D02*
X646088D01*
X633388Y449189D02*
Y472049D01*
X618148Y463667D02*
X633388Y463664D01*
X605448Y472049D02*
X618148D01*
Y449189D02*
Y472049D01*
X595923Y412105D02*
Y468747D01*
X554013Y463667D02*
X595923D01*
X554013Y412105D02*
Y468747D01*
X590843Y406007D02*
Y463667D01*
X588232Y402664D02*
X590843Y406007D01*
X587105Y402664D02*
X588232D01*
X584557Y405925D02*
X587105Y402664D01*
X584557Y405925D02*
Y463667D01*
X565380Y405925D02*
X565443Y463667D01*
X562832Y402664D02*
X565380Y405925D01*
X561705Y402664D02*
X562832D01*
X559157Y406007D02*
X561705Y402664D01*
X559157Y406007D02*
X565380Y405925D01*
X559157Y406007D02*
Y463667D01*
X509182Y399405D02*
Y411597D01*
X488354D02*
X509182D01*
X488354Y399405D02*
Y411597D01*
X519088Y399405D02*
Y487543D01*
X478448Y399405D02*
Y487543D01*
X506388Y472049D02*
X519088D01*
X506388Y449189D02*
Y472049D01*
X478448D02*
X491148D01*
Y449189D02*
Y472049D01*
Y463667D02*
X506388D01*
X560363Y475097D02*
X589573D01*
X605448Y399808D02*
Y487543D01*
X544000Y754500D02*
Y765500D01*
X560000Y754500D02*
Y765500D01*
X585000Y550500D02*
Y587500D01*
X555000Y550500D02*
Y587500D01*
X629000Y754500D02*
Y765500D01*
X613000Y754500D02*
Y765500D01*
X510000Y550500D02*
Y587500D01*
X540000Y550500D02*
Y587500D01*
X521000Y754500D02*
Y765500D01*
X537000Y754500D02*
Y765500D01*
X606000Y754500D02*
Y765500D01*
X590000Y754500D02*
Y765500D01*
X522664Y880997D02*
X516000D01*
Y875998D01*
X519332Y877664D01*
X520998D01*
X522664Y875998D01*
Y872666D01*
X520998Y871000D01*
X517666D01*
X516000Y872666D01*
X527663Y869334D02*
X529329Y871000D01*
Y872666D01*
X527663D01*
Y871000D01*
X529329D01*
X527663Y869334D01*
X525997Y867668D01*
X535993Y879331D02*
X537660Y880997D01*
X540992D01*
X542658Y879331D01*
Y872666D01*
X540992Y871000D01*
X537660D01*
X535993Y872666D01*
Y879331D01*
X605000Y812997D02*
X611665D01*
Y811331D01*
X605000Y804666D01*
Y803000D01*
X616663Y801334D02*
X618329Y803000D01*
Y804666D01*
X616663D01*
Y803000D01*
X618329D01*
X616663Y801334D01*
X614997Y799668D01*
X631658Y812997D02*
X624994D01*
Y807998D01*
X628326Y809665D01*
X629992D01*
X631658Y807998D01*
Y804666D01*
X629992Y803000D01*
X626660D01*
X624994Y804666D01*
X521000Y812997D02*
X527664D01*
Y811331D01*
X521000Y804666D01*
Y803000D01*
X532663Y801334D02*
X534329Y803000D01*
Y804666D01*
X532663D01*
Y803000D01*
X534329D01*
X532663Y801334D01*
X530997Y799668D01*
X547658Y812997D02*
X540994D01*
Y807998D01*
X544326Y809665D01*
X545992D01*
X547658Y807998D01*
Y804666D01*
X545992Y803000D01*
X542660D01*
X540994Y804666D01*
D13*
X576200Y660000D02*
G03*
X576200Y660000I-1200J0D01*
G01*
X582403D02*
G03*
X582403Y660000I-7404J0D01*
G01*
X571500Y613500D02*
X575000Y610000D01*
X575000D02*
X578500Y613500D01*
X621404Y663500D02*
X624903Y660000D01*
X621404Y656500D02*
X624903Y660000D01*
X575000Y610000D02*
Y652500D01*
X582403Y660000D02*
X624903D01*
D14*
X500000Y850000D02*
X535000D01*
X575000Y790000D02*
Y813000D01*
Y886000D02*
Y900000D01*
X629000Y850000D02*
X650000D01*
X511000D02*
Y900000D01*
X506000Y860000D02*
X511000Y850000D01*
X511000D02*
X516000Y860000D01*
X511000Y900000D02*
X516000Y890000D01*
X506000D02*
X511000Y900000D01*
X500000Y796000D02*
X575000D01*
X500000Y796000D02*
X510000Y801000D01*
X500000Y796000D02*
X510000Y791000D01*
X565000Y791000D02*
X575000Y796000D01*
X565000Y801000D02*
X575000Y796000D01*
X650000D01*
X575000Y796000D02*
X585000Y801000D01*
X575000Y796000D02*
X585000Y791000D01*
X640000Y791000D02*
X650000Y796000D01*
X640000Y801000D02*
X650000Y796000D01*
X567000Y682997D02*
Y673000D01*
X571998D01*
X573665Y674666D01*
Y676332D01*
X571998Y677998D01*
X567000D01*
X571998D01*
X573665Y679665D01*
Y681331D01*
X571998Y682997D01*
X567000D01*
X576997Y679665D02*
X583661D01*
X576997Y673000D01*
X583661D01*
X584000Y625997D02*
Y616000D01*
X588998D01*
X590664Y617666D01*
Y619332D01*
X588998Y620998D01*
X584000D01*
X588998D01*
X590664Y622664D01*
Y624331D01*
X588998Y625997D01*
X584000D01*
X593997Y622664D02*
X600661Y616000D01*
X597329Y619332D01*
X600661Y622664D01*
X593997Y616000D01*
X609000Y653997D02*
Y644000D01*
X613998D01*
X615664Y645666D01*
Y647332D01*
X613998Y648998D01*
X609000D01*
X613998D01*
X615664Y650665D01*
Y652331D01*
X613998Y653997D01*
X609000D01*
X618997Y650665D02*
Y645666D01*
X620663Y644000D01*
X625661D01*
Y642334D01*
X623995Y640668D01*
X622329D01*
X625661Y644000D02*
Y650665D01*
D15*
X460000Y505223D02*
X460967Y505707D01*
X462419Y507158D01*
Y497000D01*
X473254Y505707D02*
X472770Y506674D01*
X471319Y507158D01*
X470351D01*
X468900Y506674D01*
X467933Y505223D01*
X467449Y502804D01*
Y500386D01*
X467933Y498451D01*
X468900Y497484D01*
X470351Y497000D01*
X470835D01*
X472286Y497484D01*
X473254Y498451D01*
X473737Y499902D01*
Y500386D01*
X473254Y501837D01*
X472286Y502804D01*
X470835Y503288D01*
X470351D01*
X468900Y502804D01*
X467933Y501837D01*
X467449Y500386D01*
M02*
