G04*
G04 #@! TF.GenerationSoftware,Altium Limited,Altium Designer,18.0.12 (696)*
G04*
G04 Layer_Physical_Order=4*
G04 Layer_Color=16711680*
%FSLAX44Y44*%
%MOMM*%
G71*
G01*
G75*
%ADD31C,1.6000*%
%ADD32C,2.0000*%
%ADD33C,0.7000*%
G36*
X645000Y595000D02*
X651689Y588311D01*
X650704Y586468D01*
X650000Y586608D01*
X647854Y586181D01*
X646035Y584965D01*
X644819Y583146D01*
X644392Y581000D01*
X644819Y578854D01*
X646035Y577034D01*
X647854Y575819D01*
X650000Y575392D01*
X652146Y575819D01*
X653966Y577034D01*
X655181Y578854D01*
X655608Y581000D01*
X655468Y581704D01*
X657311Y582689D01*
X710000Y530000D01*
Y420000D01*
X440000D01*
X440000Y530000D01*
X505000Y595000D01*
X505000Y895000D01*
X568480D01*
X569087Y893000D01*
X569035Y892965D01*
X567819Y891146D01*
X567392Y889000D01*
X567819Y886854D01*
X569035Y885035D01*
X570854Y883819D01*
X573000Y883392D01*
X575146Y883819D01*
X576965Y885035D01*
X577889Y886417D01*
X578568Y886571D01*
X579432D01*
X580111Y886417D01*
X581035Y885035D01*
X582854Y883819D01*
X585000Y883392D01*
X587146Y883819D01*
X588965Y885035D01*
X590181Y886854D01*
X590608Y889000D01*
X590181Y891146D01*
X588965Y892965D01*
X588913Y893000D01*
X589520Y895000D01*
X645000D01*
X645000Y595000D01*
D02*
G37*
%LPC*%
G36*
X622000Y873608D02*
X619854Y873181D01*
X618035Y871965D01*
X616819Y870146D01*
X616392Y868000D01*
X616819Y865854D01*
X618035Y864035D01*
Y862965D01*
X616819Y861146D01*
X616392Y859000D01*
X616819Y856854D01*
X618035Y855035D01*
X619854Y853819D01*
X622000Y853392D01*
X624146Y853819D01*
X625965Y855035D01*
X627181Y856854D01*
X627608Y859000D01*
X627181Y861146D01*
X625965Y862965D01*
Y864035D01*
X627181Y865854D01*
X627608Y868000D01*
X627181Y870146D01*
X625965Y871965D01*
X624146Y873181D01*
X622000Y873608D01*
D02*
G37*
G36*
X626000Y851608D02*
X623854Y851181D01*
X622035Y849965D01*
X620819Y848146D01*
X620392Y846000D01*
X620819Y843854D01*
X622035Y842035D01*
X623854Y840819D01*
X626000Y840392D01*
X628146Y840819D01*
X629965Y842035D01*
X631181Y843854D01*
X631608Y846000D01*
X631181Y848146D01*
X629965Y849965D01*
X628146Y851181D01*
X626000Y851608D01*
D02*
G37*
G36*
X585000Y815608D02*
X582854Y815181D01*
X581035Y813965D01*
X579819Y812146D01*
X579436Y810222D01*
X577500Y810608D01*
X575354Y810181D01*
X573767Y809120D01*
X573000Y808913D01*
X572000D01*
X571233Y809120D01*
X569646Y810181D01*
X567500Y810608D01*
X565564Y810222D01*
X565181Y812146D01*
X563965Y813965D01*
X562146Y815181D01*
X560000Y815608D01*
X557854Y815181D01*
X556035Y813965D01*
X554819Y812146D01*
X554392Y810000D01*
X554819Y807854D01*
X556035Y806035D01*
X557854Y804819D01*
X560000Y804392D01*
X561936Y804778D01*
X562319Y802854D01*
X563535Y801035D01*
X565354Y799819D01*
X567500Y799392D01*
X569646Y799819D01*
X571233Y800880D01*
X572000Y801087D01*
X573000D01*
X573767Y800880D01*
X575354Y799819D01*
X577500Y799392D01*
X579646Y799819D01*
X581465Y801035D01*
X582681Y802854D01*
X583063Y804778D01*
X585000Y804392D01*
X587146Y804819D01*
X588965Y806035D01*
X590181Y807854D01*
X590608Y810000D01*
X590181Y812146D01*
X588965Y813965D01*
X587146Y815181D01*
X585000Y815608D01*
D02*
G37*
G36*
X600000Y818608D02*
X597854Y818181D01*
X596035Y816965D01*
X594819Y815146D01*
X594392Y813000D01*
X594819Y810854D01*
X596035Y809035D01*
X597854Y807819D01*
X600000Y807392D01*
X602146Y807819D01*
X603965Y809035D01*
X605181Y810854D01*
X605608Y813000D01*
X605181Y815146D01*
X603965Y816965D01*
X602146Y818181D01*
X600000Y818608D01*
D02*
G37*
G36*
X598000Y803608D02*
X595854Y803181D01*
X594034Y801965D01*
X592819Y800146D01*
X592392Y798000D01*
X592819Y795854D01*
X594034Y794035D01*
X595854Y792819D01*
X598000Y792392D01*
X600146Y792819D01*
X601965Y794035D01*
X603181Y795854D01*
X603607Y798000D01*
X603181Y800146D01*
X601965Y801965D01*
X600146Y803181D01*
X598000Y803608D01*
D02*
G37*
G36*
X552000Y803608D02*
X549854Y803181D01*
X548035Y801965D01*
X546819Y800146D01*
X546393Y798000D01*
X546819Y795854D01*
X548035Y794035D01*
X549854Y792819D01*
X552000Y792392D01*
X554146Y792819D01*
X555965Y794035D01*
X557181Y795854D01*
X557608Y798000D01*
X557181Y800146D01*
X555965Y801965D01*
X554146Y803181D01*
X552000Y803608D01*
D02*
G37*
G36*
X610000Y714625D02*
X606215Y714127D01*
X602687Y712666D01*
X599659Y710341D01*
X597334Y707313D01*
X595873Y703785D01*
X595375Y700000D01*
X595873Y696215D01*
X597334Y692687D01*
X599659Y689659D01*
X602687Y687334D01*
X606215Y685873D01*
X610000Y685375D01*
X613785Y685873D01*
X617313Y687334D01*
X620341Y689659D01*
X622666Y692687D01*
X624127Y696215D01*
X624625Y700000D01*
X624127Y703785D01*
X622666Y707313D01*
X620341Y710341D01*
X617313Y712666D01*
X613785Y714127D01*
X610000Y714625D01*
D02*
G37*
G36*
X540000D02*
X536215Y714127D01*
X532687Y712666D01*
X529659Y710341D01*
X527334Y707313D01*
X525873Y703785D01*
X525375Y700000D01*
X525873Y696215D01*
X527334Y692687D01*
X529659Y689659D01*
X532687Y687334D01*
X536215Y685873D01*
X540000Y685375D01*
X543785Y685873D01*
X547313Y687334D01*
X550341Y689659D01*
X552666Y692687D01*
X554127Y696215D01*
X554625Y700000D01*
X554127Y703785D01*
X552666Y707313D01*
X550341Y710341D01*
X547313Y712666D01*
X543785Y714127D01*
X540000Y714625D01*
D02*
G37*
G36*
X615000Y606608D02*
X612854Y606181D01*
X611035Y604965D01*
X609819Y603146D01*
X609392Y601000D01*
X609819Y598854D01*
X611035Y597035D01*
X612854Y595819D01*
X615000Y595392D01*
X617146Y595819D01*
X618965Y597035D01*
X620181Y598854D01*
X620608Y601000D01*
X620181Y603146D01*
X618965Y604965D01*
X617146Y606181D01*
X615000Y606608D01*
D02*
G37*
G36*
X525000D02*
X522854Y606181D01*
X521035Y604965D01*
X519819Y603146D01*
X519392Y601000D01*
X519819Y598854D01*
X521035Y597035D01*
X522854Y595819D01*
X525000Y595392D01*
X527146Y595819D01*
X528965Y597035D01*
X530181Y598854D01*
X530608Y601000D01*
X530181Y603146D01*
X528965Y604965D01*
X527146Y606181D01*
X525000Y606608D01*
D02*
G37*
G36*
X487350Y535326D02*
Y526150D01*
X496526D01*
X496330Y527641D01*
X495272Y530195D01*
X493589Y532389D01*
X491396Y534072D01*
X488841Y535130D01*
X487350Y535326D01*
D02*
G37*
G36*
X484850D02*
X483359Y535130D01*
X480805Y534072D01*
X478612Y532389D01*
X476929Y530195D01*
X475871Y527641D01*
X475674Y526150D01*
X484850D01*
Y535326D01*
D02*
G37*
G36*
X663900Y534986D02*
X661290Y534643D01*
X658857Y533635D01*
X656768Y532032D01*
X655165Y529943D01*
X654158Y527510D01*
X653814Y524900D01*
X654158Y522290D01*
X655165Y519857D01*
X656768Y517768D01*
X658857Y516165D01*
X661290Y515157D01*
X663900Y514814D01*
X666511Y515157D01*
X668943Y516165D01*
X671032Y517768D01*
X672635Y519857D01*
X673643Y522290D01*
X673987Y524900D01*
X673643Y527510D01*
X672635Y529943D01*
X671032Y532032D01*
X668943Y533635D01*
X666511Y534643D01*
X663900Y534986D01*
D02*
G37*
G36*
X638500D02*
X635890Y534643D01*
X633457Y533635D01*
X631368Y532032D01*
X629765Y529943D01*
X628758Y527510D01*
X628414Y524900D01*
X628758Y522290D01*
X629765Y519857D01*
X631368Y517768D01*
X633457Y516165D01*
X635890Y515157D01*
X638500Y514814D01*
X641111Y515157D01*
X643543Y516165D01*
X645632Y517768D01*
X647235Y519857D01*
X648243Y522290D01*
X648587Y524900D01*
X648243Y527510D01*
X647235Y529943D01*
X645632Y532032D01*
X643543Y533635D01*
X641111Y534643D01*
X638500Y534986D01*
D02*
G37*
G36*
X613100D02*
X610490Y534643D01*
X608057Y533635D01*
X605968Y532032D01*
X604365Y529943D01*
X603358Y527510D01*
X603014Y524900D01*
X603358Y522290D01*
X604365Y519857D01*
X605968Y517768D01*
X608057Y516165D01*
X610490Y515157D01*
X613100Y514814D01*
X615711Y515157D01*
X618143Y516165D01*
X620232Y517768D01*
X621835Y519857D01*
X622843Y522290D01*
X623186Y524900D01*
X622843Y527510D01*
X621835Y529943D01*
X620232Y532032D01*
X618143Y533635D01*
X615711Y534643D01*
X613100Y534986D01*
D02*
G37*
G36*
X587700D02*
X585090Y534643D01*
X582657Y533635D01*
X580568Y532032D01*
X578965Y529943D01*
X577958Y527510D01*
X577614Y524900D01*
X577958Y522290D01*
X578965Y519857D01*
X580568Y517768D01*
X582657Y516165D01*
X585090Y515157D01*
X587700Y514814D01*
X590311Y515157D01*
X592743Y516165D01*
X594832Y517768D01*
X596435Y519857D01*
X597443Y522290D01*
X597786Y524900D01*
X597443Y527510D01*
X596435Y529943D01*
X594832Y532032D01*
X592743Y533635D01*
X590311Y534643D01*
X587700Y534986D01*
D02*
G37*
G36*
X562300D02*
X559690Y534643D01*
X557257Y533635D01*
X555168Y532032D01*
X553565Y529943D01*
X552558Y527510D01*
X552214Y524900D01*
X552558Y522290D01*
X553565Y519857D01*
X555168Y517768D01*
X557257Y516165D01*
X559690Y515157D01*
X562300Y514814D01*
X564911Y515157D01*
X567343Y516165D01*
X569432Y517768D01*
X571035Y519857D01*
X572043Y522290D01*
X572387Y524900D01*
X572043Y527510D01*
X571035Y529943D01*
X569432Y532032D01*
X567343Y533635D01*
X564911Y534643D01*
X562300Y534986D01*
D02*
G37*
G36*
X536900D02*
X534290Y534643D01*
X531857Y533635D01*
X529768Y532032D01*
X528165Y529943D01*
X527158Y527510D01*
X526814Y524900D01*
X527158Y522290D01*
X528165Y519857D01*
X529768Y517768D01*
X531857Y516165D01*
X534290Y515157D01*
X536900Y514814D01*
X539511Y515157D01*
X541943Y516165D01*
X544032Y517768D01*
X545635Y519857D01*
X546643Y522290D01*
X546987Y524900D01*
X546643Y527510D01*
X545635Y529943D01*
X544032Y532032D01*
X541943Y533635D01*
X539511Y534643D01*
X536900Y534986D01*
D02*
G37*
G36*
X511500D02*
X508890Y534643D01*
X506457Y533635D01*
X504368Y532032D01*
X502765Y529943D01*
X501758Y527510D01*
X501414Y524900D01*
X501758Y522290D01*
X502765Y519857D01*
X504368Y517768D01*
X506457Y516165D01*
X508890Y515157D01*
X511500Y514814D01*
X514111Y515157D01*
X516543Y516165D01*
X518632Y517768D01*
X520235Y519857D01*
X521243Y522290D01*
X521586Y524900D01*
X521243Y527510D01*
X520235Y529943D01*
X518632Y532032D01*
X516543Y533635D01*
X514111Y534643D01*
X511500Y534986D01*
D02*
G37*
G36*
X496526Y523650D02*
X487350D01*
Y514474D01*
X488841Y514670D01*
X491396Y515728D01*
X493589Y517411D01*
X495272Y519605D01*
X496330Y522159D01*
X496526Y523650D01*
D02*
G37*
G36*
X484850D02*
X475674D01*
X475871Y522159D01*
X476929Y519605D01*
X478612Y517411D01*
X480805Y515728D01*
X483359Y514670D01*
X484850Y514474D01*
Y523650D01*
D02*
G37*
G36*
X512750Y509926D02*
Y500750D01*
X521926D01*
X521730Y502241D01*
X520672Y504795D01*
X518989Y506989D01*
X516796Y508672D01*
X514241Y509730D01*
X512750Y509926D01*
D02*
G37*
G36*
X614350D02*
Y500750D01*
X623526D01*
X623330Y502241D01*
X622272Y504795D01*
X620589Y506989D01*
X618396Y508672D01*
X615841Y509730D01*
X614350Y509926D01*
D02*
G37*
G36*
X487350D02*
Y500750D01*
X496526D01*
X496330Y502241D01*
X495272Y504795D01*
X493589Y506989D01*
X491396Y508672D01*
X488841Y509730D01*
X487350Y509926D01*
D02*
G37*
G36*
X510250D02*
X508759Y509730D01*
X506205Y508672D01*
X504012Y506989D01*
X502329Y504795D01*
X501270Y502241D01*
X501074Y500750D01*
X510250D01*
Y509926D01*
D02*
G37*
G36*
X484850D02*
X483359Y509730D01*
X480805Y508672D01*
X478612Y506989D01*
X476929Y504795D01*
X475871Y502241D01*
X475674Y500750D01*
X484850D01*
Y509926D01*
D02*
G37*
G36*
X611850D02*
X610359Y509730D01*
X607805Y508672D01*
X605612Y506989D01*
X603929Y504795D01*
X602870Y502241D01*
X602674Y500750D01*
X611850D01*
Y509926D01*
D02*
G37*
G36*
X663900Y509586D02*
X661290Y509243D01*
X658857Y508235D01*
X656768Y506632D01*
X655165Y504543D01*
X654158Y502110D01*
X653814Y499500D01*
X654158Y496889D01*
X655165Y494457D01*
X656768Y492368D01*
X658857Y490765D01*
X661290Y489757D01*
X663900Y489414D01*
X666511Y489757D01*
X668943Y490765D01*
X671032Y492368D01*
X672635Y494457D01*
X673643Y496889D01*
X673987Y499500D01*
X673643Y502110D01*
X672635Y504543D01*
X671032Y506632D01*
X668943Y508235D01*
X666511Y509243D01*
X663900Y509586D01*
D02*
G37*
G36*
X638500D02*
X635890Y509243D01*
X633457Y508235D01*
X631368Y506632D01*
X629765Y504543D01*
X628758Y502110D01*
X628414Y499500D01*
X628758Y496889D01*
X629765Y494457D01*
X631368Y492368D01*
X633457Y490765D01*
X635890Y489757D01*
X638500Y489414D01*
X641111Y489757D01*
X643543Y490765D01*
X645632Y492368D01*
X647235Y494457D01*
X648243Y496889D01*
X648587Y499500D01*
X648243Y502110D01*
X647235Y504543D01*
X645632Y506632D01*
X643543Y508235D01*
X641111Y509243D01*
X638500Y509586D01*
D02*
G37*
G36*
X587700D02*
X585090Y509243D01*
X582657Y508235D01*
X580568Y506632D01*
X578965Y504543D01*
X577958Y502110D01*
X577614Y499500D01*
X577958Y496889D01*
X578965Y494457D01*
X580568Y492368D01*
X582657Y490765D01*
X585090Y489757D01*
X587700Y489414D01*
X590311Y489757D01*
X592743Y490765D01*
X594832Y492368D01*
X596435Y494457D01*
X597443Y496889D01*
X597786Y499500D01*
X597443Y502110D01*
X596435Y504543D01*
X594832Y506632D01*
X592743Y508235D01*
X590311Y509243D01*
X587700Y509586D01*
D02*
G37*
G36*
X562300D02*
X559690Y509243D01*
X557257Y508235D01*
X555168Y506632D01*
X553565Y504543D01*
X552558Y502110D01*
X552214Y499500D01*
X552558Y496889D01*
X553565Y494457D01*
X555168Y492368D01*
X557257Y490765D01*
X559690Y489757D01*
X562300Y489414D01*
X564911Y489757D01*
X567343Y490765D01*
X569432Y492368D01*
X571035Y494457D01*
X572043Y496889D01*
X572387Y499500D01*
X572043Y502110D01*
X571035Y504543D01*
X569432Y506632D01*
X567343Y508235D01*
X564911Y509243D01*
X562300Y509586D01*
D02*
G37*
G36*
X536900D02*
X534290Y509243D01*
X531857Y508235D01*
X529768Y506632D01*
X528165Y504543D01*
X527158Y502110D01*
X526814Y499500D01*
X527158Y496889D01*
X528165Y494457D01*
X529768Y492368D01*
X531857Y490765D01*
X534290Y489757D01*
X536900Y489414D01*
X539511Y489757D01*
X541943Y490765D01*
X544032Y492368D01*
X545635Y494457D01*
X546643Y496889D01*
X546987Y499500D01*
X546643Y502110D01*
X545635Y504543D01*
X544032Y506632D01*
X541943Y508235D01*
X539511Y509243D01*
X536900Y509586D01*
D02*
G37*
G36*
X623526Y498250D02*
X614350D01*
Y489074D01*
X615841Y489270D01*
X618396Y490328D01*
X620589Y492011D01*
X622272Y494205D01*
X623330Y496759D01*
X623526Y498250D01*
D02*
G37*
G36*
X521926D02*
X512750D01*
Y489074D01*
X514241Y489270D01*
X516796Y490328D01*
X518989Y492011D01*
X520672Y494205D01*
X521730Y496759D01*
X521926Y498250D01*
D02*
G37*
G36*
X496526D02*
X487350D01*
Y489074D01*
X488841Y489270D01*
X491396Y490328D01*
X493589Y492011D01*
X495272Y494205D01*
X496330Y496759D01*
X496526Y498250D01*
D02*
G37*
G36*
X611850D02*
X602674D01*
X602870Y496759D01*
X603929Y494205D01*
X605612Y492011D01*
X607805Y490328D01*
X610359Y489270D01*
X611850Y489074D01*
Y498250D01*
D02*
G37*
G36*
X510250D02*
X501074D01*
X501270Y496759D01*
X502329Y494205D01*
X504012Y492011D01*
X506205Y490328D01*
X508759Y489270D01*
X510250Y489074D01*
Y498250D01*
D02*
G37*
G36*
X484850D02*
X475674D01*
X475871Y496759D01*
X476929Y494205D01*
X478612Y492011D01*
X480805Y490328D01*
X483359Y489270D01*
X484850Y489074D01*
Y498250D01*
D02*
G37*
G36*
X616250Y452443D02*
Y441250D01*
X627443D01*
X627178Y443263D01*
X625919Y446304D01*
X623915Y448915D01*
X621304Y450919D01*
X618263Y452178D01*
X616250Y452443D01*
D02*
G37*
G36*
X613750D02*
X611737Y452178D01*
X608696Y450919D01*
X606085Y448915D01*
X604081Y446304D01*
X602822Y443263D01*
X602557Y441250D01*
X613750D01*
Y452443D01*
D02*
G37*
G36*
X536250D02*
Y441250D01*
X547443D01*
X547178Y443263D01*
X545919Y446304D01*
X543915Y448915D01*
X541304Y450919D01*
X538263Y452178D01*
X536250Y452443D01*
D02*
G37*
G36*
X533750D02*
X531737Y452178D01*
X528696Y450919D01*
X526085Y448915D01*
X524081Y446304D01*
X522822Y443263D01*
X522557Y441250D01*
X533750D01*
Y452443D01*
D02*
G37*
G36*
X627443Y438750D02*
X616250D01*
Y427557D01*
X618263Y427822D01*
X621304Y429081D01*
X623915Y431085D01*
X625919Y433696D01*
X627178Y436737D01*
X627443Y438750D01*
D02*
G37*
G36*
X613750D02*
X602557D01*
X602822Y436737D01*
X604081Y433696D01*
X606085Y431085D01*
X608696Y429081D01*
X611737Y427822D01*
X613750Y427557D01*
Y438750D01*
D02*
G37*
G36*
X547443D02*
X536250D01*
Y427557D01*
X538263Y427822D01*
X541304Y429081D01*
X543915Y431085D01*
X545919Y433696D01*
X547178Y436737D01*
X547443Y438750D01*
D02*
G37*
G36*
X533750D02*
X522557D01*
X522822Y436737D01*
X524081Y433696D01*
X526085Y431085D01*
X528696Y429081D01*
X531737Y427822D01*
X533750Y427557D01*
Y438750D01*
D02*
G37*
%LPD*%
D31*
X562300Y524900D02*
D03*
Y499500D02*
D03*
X587700Y524900D02*
D03*
Y499500D02*
D03*
X613100Y524900D02*
D03*
Y499500D02*
D03*
X638500D02*
D03*
Y524900D02*
D03*
X663900Y499500D02*
D03*
Y524900D02*
D03*
X486100D02*
D03*
Y499500D02*
D03*
X511500D02*
D03*
Y524900D02*
D03*
X536900Y499500D02*
D03*
Y524900D02*
D03*
D32*
X615000Y440000D02*
D03*
X535000D02*
D03*
D33*
X626000Y846000D02*
D03*
X635929Y554500D02*
D03*
X619000Y731000D02*
D03*
X585000Y889000D02*
D03*
X573000D02*
D03*
X615000Y601000D02*
D03*
X545000Y554500D02*
D03*
X598000Y731000D02*
D03*
X529000Y731000D02*
D03*
X552000Y731000D02*
D03*
X622000Y859000D02*
D03*
X650000Y581000D02*
D03*
X622000Y868000D02*
D03*
X525000Y601000D02*
D03*
X600000Y813000D02*
D03*
X585000Y810000D02*
D03*
X577500Y805000D02*
D03*
X598000Y798000D02*
D03*
X560000Y810000D02*
D03*
X567500Y805000D02*
D03*
X552000Y798000D02*
D03*
X565000Y840000D02*
D03*
X585000D02*
D03*
Y860000D02*
D03*
X565000D02*
D03*
X575000Y850000D02*
D03*
M02*
