M48
;Layer_Color=9474304
;FILE_FORMAT=4:4
METRIC,TZ
;TYPE=PLATED
T1F00S00C0.3000
T2F00S00C1.0000
T3F00S00C1.5000
;TYPE=NON_PLATED
T4F00S00C2.5000
%
T01
X545000Y554500
X525000Y601000
X615000
X650000Y581000
X635929Y554500
X619000Y731000
X598000Y731000
X552000Y731000
X529000Y731000
X552000Y798000
X560000Y810000
X567500Y805000
X577500
X585000Y810000
X600000Y813000
X598000Y798000
X585000Y840000
X565000
Y860000
X585000
X575000Y850000
X573000Y889000
X585000
X622000Y868000
Y859000
X626000Y846000
T02
X486100Y499500
Y524900
X511500
Y499500
X536900
X562300
Y524900
X587700
Y499500
X613100
Y524900
X638500
Y499500
X663900
Y524900
X536900
T03
X535000Y440000
X615000
T04
X540000Y700000
X610000
M30
