G04*
G04 #@! TF.GenerationSoftware,Altium Limited,Altium Designer,18.0.12 (696)*
G04*
G04 Layer_Color=278392*
%FSLAX44Y44*%
%MOMM*%
G71*
G01*
G75*
%ADD10C,0.2500*%
%ADD11C,0.6000*%
%ADD12C,0.5000*%
%ADD13C,0.2000*%
%ADD14C,0.1524*%
%ADD15C,0.3000*%
%ADD16C,0.1500*%
%ADD17C,0.1500*%
%ADD18C,0.1727*%
%ADD19C,0.2560*%
%ADD20C,0.1600*%
%ADD21C,0.1700*%
G36*
X363450Y834050D02*
X369800D01*
Y840400D01*
X363450D01*
Y834050D01*
D02*
G37*
G36*
X348450Y924250D02*
X354800D01*
Y930600D01*
X348450D01*
Y924250D01*
D02*
G37*
D10*
X539650Y912000D02*
G03*
X539650Y912000I-1250J0D01*
G01*
X1423250Y735500D02*
G03*
X1423250Y735500I-1250J0D01*
G01*
X1025250Y484000D02*
G03*
X1025250Y484000I-1250J0D01*
G01*
X839750Y929000D02*
G03*
X839750Y929000I-1250J0D01*
G01*
X1377250Y1101600D02*
G03*
X1377250Y1101600I-1250J0D01*
G01*
X1111750Y1012500D02*
G03*
X1111750Y1012500I-1250J0D01*
G01*
D11*
X554000Y930500D02*
G03*
X554000Y930500I-3000J0D01*
G01*
X1397500Y1089000D02*
G03*
X1397500Y1089000I-3000J0D01*
G01*
D12*
X1455250Y724000D02*
G03*
X1455250Y724000I-2500J0D01*
G01*
X1057250Y472500D02*
G03*
X1057250Y472500I-2500J0D01*
G01*
X829500Y898250D02*
G03*
X829500Y898250I-2500J0D01*
G01*
X360550Y462550D02*
G03*
X360550Y462550I-2500J0D01*
G01*
X934601Y1009250D02*
G03*
X934601Y1009250I-2500J0D01*
G01*
D13*
X852008Y280667D02*
G03*
X852008Y251333I22992J-14667D01*
G01*
X848733Y280434D02*
G03*
X848733Y251566I26267J-14434D01*
G01*
X897992Y251333D02*
G03*
X897992Y280667I-22992J14667D01*
G01*
X901267Y251566D02*
G03*
X901267Y280434I-26267J14434D01*
G01*
X866600Y256475D02*
G03*
X866600Y275525I8400J9525D01*
G01*
X861510Y256482D02*
G03*
X861510Y275518I13490J9518D01*
G01*
X871389Y266000D02*
G03*
X871389Y266000I-9525J0D01*
G01*
X877857Y256475D02*
G03*
X877857Y275525I233J9525D01*
G01*
X831000Y224540D02*
G03*
X833540Y222000I2540J0D01*
G01*
Y310000D02*
G03*
X831000Y307460I0J-2540D01*
G01*
X919000D02*
G03*
X916460Y310000I-2540J0D01*
G01*
Y222000D02*
G03*
X919000Y224540I0J2540D01*
G01*
X1784732Y738096D02*
G03*
X1781732Y741096I-3000J0D01*
G01*
Y579104D02*
G03*
X1784732Y582104I0J3000D01*
G01*
X140500Y374448D02*
G03*
X143500Y368325I9323J770D01*
G01*
X143500Y380572D02*
G03*
X140500Y374448I6323J-6894D01*
G01*
X143500Y407047D02*
G03*
X143500Y382552I24326J-12247D01*
G01*
X140500Y415151D02*
G03*
X143500Y409028I9323J770D01*
G01*
X143500Y421275D02*
G03*
X140500Y415151I6323J-6894D01*
G01*
Y844848D02*
G03*
X143500Y838725I9323J770D01*
G01*
X143500Y850972D02*
G03*
X140500Y844848I6323J-6894D01*
G01*
X143500Y877448D02*
G03*
X143500Y852953I24326J-12247D01*
G01*
X140500Y885552D02*
G03*
X143500Y879428I9323J770D01*
G01*
X143500Y891675D02*
G03*
X140500Y885552I6323J-6894D01*
G01*
X145700Y821099D02*
G03*
X139000Y814501I-50J-6650D01*
G01*
Y445499D02*
G03*
X145700Y438901I6650J51D01*
G01*
X1593135Y873496D02*
G03*
X1593135Y864352I0J-4572D01*
G01*
Y1051297D02*
G03*
X1593135Y1042153I0J-4572D01*
G01*
X511432Y1227300D02*
G03*
X505309Y1224300I770J-9323D01*
G01*
X517556Y1224300D02*
G03*
X511432Y1227300I-6894J-6323D01*
G01*
X544031Y1224300D02*
G03*
X519537Y1224300I-12247J-24326D01*
G01*
X552136Y1227300D02*
G03*
X546012Y1224300I770J-9323D01*
G01*
X558259Y1224300D02*
G03*
X552136Y1227300I-6894J-6323D01*
G01*
X982433Y1227391D02*
G03*
X976309Y1224391I770J-9323D01*
G01*
X988556Y1224391D02*
G03*
X982433Y1227391I-6894J-6323D01*
G01*
X1015032Y1224391D02*
G03*
X990537Y1224391I-12247J-24326D01*
G01*
X1023136Y1227391D02*
G03*
X1017012Y1224391I770J-9323D01*
G01*
X1029260Y1224391D02*
G03*
X1023136Y1227391I-6894J-6323D01*
G01*
X965784Y1224300D02*
G03*
X959784Y1230300I-6000J0D01*
G01*
X574210D02*
G03*
X568210Y1224300I0J-6000D01*
G01*
X1485000Y210500D02*
G03*
X1486047Y231175I-1859422J104566D01*
G01*
X1503952D02*
G03*
X1505000Y210500I1860469J83890D01*
G01*
X1503311Y243825D02*
G03*
X1502955Y250881I-646707J-29103D01*
G01*
X1487045D02*
G03*
X1486689Y243825I646351J-36159D01*
G01*
X1505919Y251652D02*
G03*
X1502923Y254500I-2996J-152D01*
G01*
X1487077D02*
G03*
X1484081Y251652I0J-3000D01*
G01*
X1465500Y212500D02*
G03*
X1467500Y210500I2000J0D01*
G01*
X1475500D02*
G03*
X1477500Y212500I0J2000D01*
G01*
X1512500D02*
G03*
X1514500Y210500I2000J0D01*
G01*
X1522500D02*
G03*
X1524500Y212500I0J2000D01*
G01*
X1506427Y210500D02*
G03*
X1507925Y212076I0J1500D01*
G01*
X1482075D02*
G03*
X1483573Y210500I1498J-76D01*
G01*
X1467000Y244500D02*
G03*
X1465500Y243000I0J-1500D01*
G01*
X1477500D02*
G03*
X1476000Y244500I-1500J0D01*
G01*
X1514000D02*
G03*
X1512500Y243000I0J-1500D01*
G01*
X1524500D02*
G03*
X1523000Y244500I-1500J0D01*
G01*
X310000Y914500D02*
Y925500D01*
X640500Y956000D02*
X651500D01*
X625000Y984500D02*
Y995500D01*
X541000Y950500D02*
X629000D01*
X541000Y923500D02*
X629000D01*
Y923750D02*
Y950500D01*
X541000Y923500D02*
Y950250D01*
X271325Y1037670D02*
X281325D01*
X271325Y966930D02*
X281325D01*
X271325Y964200D02*
Y1040400D01*
X266025D02*
X281325D01*
X266025Y964200D02*
Y1040400D01*
Y964200D02*
X281325D01*
Y951500D02*
Y1053100D01*
X223325D02*
X281325D01*
X223325Y951500D02*
Y1053100D01*
Y951500D02*
X281325D01*
X1143700Y218500D02*
Y276500D01*
X991300D02*
X1143700D01*
X991300Y218500D02*
Y276500D01*
Y218500D02*
X1143700D01*
X1128270D02*
Y228500D01*
X1006730Y218500D02*
Y228500D01*
X1004000D02*
X1131000D01*
X1004000Y218500D02*
Y233800D01*
X1131000D01*
Y218500D02*
Y233800D01*
X1509000Y784500D02*
Y795500D01*
X1442750Y606000D02*
Y734000D01*
X1509250D01*
Y606000D02*
Y734000D01*
X1442750Y606000D02*
X1509250D01*
X1044750Y303500D02*
X1111250D01*
Y482500D01*
X1044750D02*
X1111250D01*
X1044750Y303500D02*
Y482500D01*
X451000Y1018500D02*
Y1029500D01*
X849500Y937500D02*
X860500D01*
X1482500Y1101000D02*
X1493500D01*
X620000Y878500D02*
Y889500D01*
X608500Y843000D02*
X619500D01*
X584500Y842500D02*
X595500D01*
X1460500Y1090000D02*
X1471500D01*
X857000Y860000D02*
X868000D01*
X1284500Y1110500D02*
X1295500D01*
X1517500Y1054000D02*
X1528500D01*
X1457500Y1029600D02*
X1468500D01*
X1491500Y1016900D02*
X1502500D01*
X1517500D02*
X1528500D01*
X1505500Y1101000D02*
X1516500D01*
X1514000Y542500D02*
Y553500D01*
X799500Y234500D02*
Y245500D01*
X750000Y242500D02*
Y245000D01*
Y235000D02*
Y237500D01*
Y242500D01*
X845028Y301405D02*
Y305878D01*
Y250605D02*
Y281395D01*
X904972Y250605D02*
Y281395D01*
Y301405D02*
Y305878D01*
X835122Y226122D02*
X837662Y228662D01*
X912338Y303338D02*
X914878Y305878D01*
X912338Y228662D02*
X914878Y226122D01*
X904972D02*
Y230595D01*
X845028Y226122D02*
Y230595D01*
X837662Y228662D02*
X912338D01*
Y303338D01*
X837662D02*
X912338D01*
X837662Y228662D02*
Y303338D01*
X831058Y299782D02*
X835122D01*
X841218Y305878D02*
Y309942D01*
X908782Y305878D02*
Y309942D01*
X914878Y299782D02*
X918942D01*
X914878Y232218D02*
X918942D01*
X908782Y222058D02*
Y226122D01*
X841218Y222058D02*
Y226122D01*
X831058Y232218D02*
X835122D01*
X861864Y275525D02*
X877857D01*
X861864Y256475D02*
X877857D01*
X835122Y226122D02*
X914878D01*
Y305878D01*
X835122D02*
X914878D01*
X835122Y226122D02*
Y305878D01*
X831000Y224540D02*
Y307460D01*
X833540Y310000D02*
X916460D01*
X919000Y224540D02*
Y307460D01*
X833540Y222000D02*
X916460D01*
X898000Y264000D02*
X902000D01*
Y268000D01*
X898000D02*
X902000D01*
X898000Y264000D02*
Y268000D01*
X1724026Y804118D02*
X1782852D01*
Y766018D02*
Y804118D01*
X1724026Y766018D02*
X1782852D01*
X1724026Y505160D02*
Y815040D01*
X1596924Y505160D02*
X1724026D01*
X1596924D02*
Y581106D01*
X1607084D01*
Y578566D02*
Y595276D01*
X1596924Y739094D02*
X1607084D01*
X1596924D02*
Y815040D01*
X1724026D01*
Y741096D02*
X1781732D01*
X1784732Y582104D02*
Y738096D01*
X1724026Y579104D02*
X1781732D01*
X1685570Y505160D02*
Y815040D01*
X1719860Y505160D02*
Y815040D01*
X1695222Y505160D02*
Y815040D01*
X1676680Y810214D02*
X1685570D01*
X1676680Y759922D02*
Y810214D01*
Y759922D02*
X1685570D01*
X1676680Y560278D02*
X1685570D01*
X1676680Y509986D02*
Y560278D01*
Y509986D02*
X1685570D01*
X1607084Y578566D02*
X1685570D01*
X1607084Y741634D02*
X1685570D01*
X1695222Y800943D02*
X1707160D01*
X1695222Y769193D02*
X1707160D01*
X1702995Y774273D02*
X1719860D01*
X1702995D02*
Y795863D01*
X1719860D01*
X1707160D02*
Y800943D01*
Y769193D02*
Y774273D01*
X1695222Y551007D02*
X1707160D01*
Y545927D02*
Y551007D01*
X1695222Y519257D02*
X1707160D01*
Y524337D01*
X1702995D02*
X1719860D01*
X1702995D02*
Y545927D01*
X1719860D01*
X1724026Y554182D02*
X1782852D01*
X1724026Y516082D02*
X1782852D01*
Y554182D01*
X1607084Y724924D02*
Y741634D01*
Y697524D02*
Y704876D01*
Y670124D02*
Y677476D01*
Y642724D02*
Y650076D01*
Y615324D02*
Y622676D01*
X658000Y841750D02*
Y908250D01*
Y841750D02*
X837000D01*
Y908250D01*
X658000D02*
X837000D01*
X1387500Y1099000D02*
X1414250D01*
X1387750Y1011000D02*
X1414500D01*
X1387500D02*
Y1099000D01*
X1414500Y1011000D02*
Y1099000D01*
X1123500Y980500D02*
X1131500D01*
Y1009500D01*
X1123500D02*
X1131500D01*
X1123500Y980500D02*
Y1009500D01*
X198000Y364500D02*
X326500D01*
X198000D02*
Y895500D01*
X326500D01*
Y885694D02*
Y895500D01*
X330572Y847600D02*
X347800D01*
Y412400D02*
Y847600D01*
X330572Y412400D02*
X347800D01*
X326500Y364500D02*
Y374306D01*
X202700Y364500D02*
Y895500D01*
X223000Y364915D02*
Y895500D01*
X244900Y364500D02*
Y895500D01*
X247400Y851800D02*
X267400D01*
X247400Y878600D02*
X267400D01*
X270400Y854800D02*
Y875600D01*
X247400Y408200D02*
X267400D01*
X270400Y384400D02*
Y405200D01*
X247400Y381400D02*
X267400D01*
X244900Y431100D02*
X347800D01*
X244900Y829300D02*
X347800D01*
X288800Y364500D02*
Y380900D01*
Y408700D02*
Y425100D01*
X244900D02*
X288800D01*
X267400Y381400D02*
X270400Y384400D01*
X267400Y408200D02*
X270400Y405200D01*
X267400Y851800D02*
X270400Y854800D01*
X267400Y878600D02*
X270400Y875600D01*
X288800Y834900D02*
Y851300D01*
X244900Y834900D02*
X288800D01*
Y879100D02*
Y895500D01*
X143500Y368300D02*
X198000D01*
X140500Y371300D02*
X143500Y368300D01*
X140500Y371300D02*
Y418300D01*
X143500Y421275D01*
X198000D01*
X143500Y408050D02*
X198000D01*
X143500Y381550D02*
X198000D01*
X143500Y407047D02*
Y409028D01*
Y380572D02*
Y382552D01*
Y838700D02*
X198000D01*
X140500Y841700D02*
X143500Y838700D01*
X140500Y841700D02*
Y888700D01*
X143500Y891675D01*
X198000D01*
X143500Y878450D02*
X198000D01*
X143500Y851950D02*
X198000D01*
X143500Y877448D02*
Y879428D01*
Y850972D02*
Y852953D01*
X145700Y438901D02*
X198000D01*
X139000Y445499D02*
Y814501D01*
X145700Y821099D02*
X198000D01*
X267400Y381400D02*
Y408200D01*
Y851800D02*
Y878600D01*
X244900Y369800D02*
X247400D01*
Y419800D01*
X244900D02*
X247400D01*
X244900Y840200D02*
X247400D01*
Y890200D01*
X244900D02*
X247400D01*
X1602279Y867908D02*
Y999100D01*
X1665779Y907025D02*
X1674415Y915660D01*
X1665779Y907025D02*
X1674415Y898389D01*
X1665779Y867908D02*
Y936870D01*
X1664792Y975605D02*
Y978780D01*
X1665779Y1006339D02*
X1672130D01*
X1665779Y985511D02*
X1672130D01*
X1649807Y867908D02*
Y892038D01*
X1617744Y867908D02*
Y892038D01*
X1649015Y864861D02*
Y867908D01*
X1618535Y864861D02*
X1649015D01*
X1618535D02*
Y867908D01*
X1649807Y1023611D02*
Y1047741D01*
X1617744Y1023611D02*
Y1047741D01*
X1618535D02*
Y1050789D01*
X1649015Y1047741D02*
Y1050789D01*
X1618535D02*
X1649015D01*
X1617744Y1023611D02*
X1649807D01*
X1672130Y978780D02*
Y1016245D01*
X1602279Y1020054D02*
Y1047741D01*
X1665779D01*
Y978780D02*
Y1047741D01*
X1617744Y892038D02*
X1649807D01*
X1658158Y978780D02*
X1672130D01*
X1658158Y936870D02*
X1674415D01*
X1602279Y867908D02*
X1665779D01*
X1593135Y1051297D02*
Y1057901D01*
Y873496D02*
Y1042153D01*
Y857748D02*
Y864352D01*
Y857748D02*
X1674415D01*
Y975605D01*
X1664792D02*
X1674415D01*
X1672130Y1016245D02*
X1674415D01*
Y1057901D01*
X1593135D02*
X1674415D01*
X501484Y1040800D02*
X511456D01*
X501484D02*
Y1169300D01*
X1032484D01*
Y1040800D02*
Y1169300D01*
X1022844Y1040800D02*
X1032484D01*
X984584Y1021500D02*
Y1036918D01*
X549384Y1021500D02*
X984584D01*
X549384D02*
Y1036542D01*
X501484Y1164600D02*
X1032484D01*
X501900Y1144300D02*
X1032484D01*
X501484Y1130800D02*
X1032484D01*
X501484Y1078500D02*
X517884D01*
X545684D02*
X562084D01*
Y1124400D01*
X501484D02*
X569434D01*
X506784Y1121900D02*
Y1124400D01*
Y1121900D02*
X556784D01*
Y1124400D01*
X518384Y1100300D02*
Y1121900D01*
Y1100300D02*
X521384Y1097300D01*
X542184D01*
X545184Y1100300D01*
Y1121900D01*
X518384Y1100300D02*
X545184D01*
X977184Y1121900D02*
Y1124400D01*
Y1121900D02*
X1027184D01*
Y1124400D01*
X989384Y1100300D02*
Y1121900D01*
Y1100300D02*
X992384Y1097300D01*
X1013184D01*
X1016184Y1100300D01*
X989384D02*
X1016184D01*
Y1121900D01*
X964534Y1124400D02*
X1032484D01*
X569434Y1021500D02*
Y1130800D01*
X964534Y1021500D02*
Y1130800D01*
X971884Y1078500D02*
Y1124400D01*
Y1078500D02*
X988284D01*
X1016084D02*
X1032484D01*
X505284Y1169300D02*
Y1224300D01*
X508284Y1227300D01*
X555284D01*
X558259Y1224300D01*
Y1169300D02*
Y1224300D01*
X545034Y1169300D02*
Y1224300D01*
X518534Y1169300D02*
Y1224300D01*
X544031D02*
X546012D01*
X517556D02*
X519537D01*
X976284Y1169300D02*
Y1224391D01*
X979284Y1227391D01*
X1026284D01*
X1029260Y1224391D01*
Y1169300D02*
Y1224391D01*
X1016034Y1169300D02*
Y1224391D01*
X989534Y1169300D02*
Y1224391D01*
X1015032D02*
X1017012D01*
X988556D02*
X990537D01*
X568210Y1169300D02*
Y1224300D01*
X574210Y1230300D02*
X959784D01*
X965784Y1169300D02*
Y1224300D01*
X1456500Y200000D02*
X1533500D01*
X1451500Y266000D02*
Y268500D01*
X1456500Y200000D02*
Y213500D01*
X1467500Y210500D02*
X1475500D01*
X1483573D02*
X1485000D01*
X1505000D02*
X1506427D01*
X1514500D02*
X1522500D01*
X1463500Y200000D02*
Y292000D01*
X1465500Y212500D02*
Y243000D01*
X1465668Y211742D02*
Y218000D01*
X1467170D02*
Y244500D01*
X1468500Y215350D02*
Y244500D01*
X1515500Y215350D02*
X1521500D01*
X1468500D02*
X1474500D01*
X1465500Y218000D02*
X1468500D01*
X1521500D02*
X1524500D01*
X1468500Y219092D02*
X1474500D01*
X1515500D02*
X1521500D01*
X1468668Y210500D02*
Y215350D01*
X1472000Y210500D02*
Y215350D01*
X1472866Y210500D02*
Y215350D01*
X1474500D02*
Y244500D01*
X1477500Y212500D02*
Y243000D01*
X1485500Y224485D02*
X1485733D01*
X1504267D02*
X1504500D01*
X1468500Y225317D02*
X1474500D01*
X1515500D02*
X1521500D01*
X1485500Y228472D02*
X1485921D01*
X1504079D02*
X1504500D01*
X1486047Y231175D02*
X1503952D01*
X1485500Y219864D02*
Y240150D01*
X1486414Y238403D02*
Y242017D01*
X1482075Y212076D02*
X1484081Y251652D01*
X1486322Y236596D02*
X1503678D01*
X1486414Y238403D02*
X1503586D01*
X1485500Y240150D02*
X1486359D01*
X1503641D02*
X1504500D01*
X1486689Y243825D02*
X1503311D01*
X1467000Y244500D02*
X1476000D01*
X1514000D02*
X1523000D01*
X1487045Y250881D02*
X1502955D01*
X1503586Y238403D02*
Y242017D01*
X1504500Y219864D02*
Y240150D01*
X1487077Y254500D02*
X1502923D01*
X1505919Y251652D02*
X1507925Y212076D01*
X1512500Y212500D02*
Y243000D01*
X1515500Y215350D02*
Y244500D01*
X1516500Y210500D02*
Y215350D01*
X1518000Y210500D02*
Y215350D01*
X1533500Y266000D02*
X1538500D01*
X1451500D02*
X1456500D01*
X1533500Y268000D02*
X1538500D01*
X1451500D02*
X1456500D01*
X1521332Y210500D02*
Y215350D01*
X1521500D02*
Y244500D01*
X1522830Y218000D02*
Y244500D01*
X1524332Y211742D02*
Y218000D01*
X1524500Y212500D02*
Y243000D01*
X1526500Y200000D02*
Y292000D01*
X1533500Y200000D02*
Y213500D01*
X1463500Y285000D02*
X1473500D01*
X1538500Y266000D02*
Y268500D01*
X1463500Y292000D02*
X1473500D01*
X1486368Y237548D02*
X1486368Y237501D01*
X1486367Y237594D02*
X1486368Y237548D01*
X1486367Y237638D02*
X1486367Y237594D01*
X1486367Y237680D02*
X1486367Y237638D01*
X1486366Y237721D02*
X1486367Y237680D01*
X1486366Y237760D02*
X1486366Y237721D01*
X1486366Y237798D02*
X1486366Y237760D01*
X1486366Y237834D02*
X1486366Y237798D01*
X1486365Y237869D02*
X1486366Y237834D01*
X1486365Y237902D02*
X1486365Y237869D01*
X1486365Y237934D02*
X1486365Y237902D01*
X1486365Y237965D02*
X1486365Y237934D01*
X1486364Y237994D02*
X1486365Y237965D01*
X1486364Y238023D02*
X1486364Y237994D01*
X1486364Y238050D02*
X1486364Y238023D01*
X1486364Y238075D02*
X1486364Y238050D01*
X1486364Y238100D02*
X1486364Y238075D01*
X1486363Y238124D02*
X1486364Y238100D01*
X1486363Y238146D02*
X1486363Y238124D01*
X1486363Y238168D02*
X1486363Y238146D01*
X1486363Y238188D02*
X1486363Y238168D01*
X1486363Y238208D02*
X1486363Y238188D01*
X1486363Y238226D02*
X1486363Y238208D01*
X1486362Y238244D02*
X1486363Y238226D01*
X1486362Y238261D02*
X1486362Y238244D01*
X1486362Y238277D02*
X1486362Y238261D01*
X1486362Y238292D02*
X1486362Y238277D01*
X1486362Y238307D02*
X1486362Y238292D01*
X1486362Y238320D02*
X1486362Y238307D01*
X1486362Y238333D02*
X1486362Y238320D01*
X1486362Y238346D02*
X1486362Y238333D01*
X1486362Y238358D02*
X1486362Y238346D01*
X1486362Y238369D02*
X1486362Y238358D01*
X1486361Y238380D02*
X1486362Y238369D01*
X1486361Y238390D02*
X1486361Y238380D01*
X1486361Y238399D02*
X1486361Y238390D01*
X1486361Y238409D02*
X1486361Y238399D01*
X1486361Y238418D02*
X1486361Y238409D01*
X1486361Y238426D02*
X1486361Y238418D01*
X1486361Y238434D02*
X1486361Y238426D01*
X1486361Y238442D02*
X1486361Y238434D01*
X1486361Y238450D02*
X1486361Y238442D01*
X1486361Y238457D02*
X1486361Y238450D01*
X1486361Y238464D02*
X1486361Y238457D01*
X1486361Y238471D02*
X1486361Y238464D01*
X1486361Y238478D02*
X1486361Y238471D01*
X1486361Y238485D02*
X1486361Y238478D01*
X1486361Y238492D02*
X1486361Y238485D01*
X1486361Y238498D02*
X1486361Y238492D01*
X1486361Y238505D02*
X1486361Y238498D01*
X1486361Y238512D02*
X1486361Y238505D01*
X1486361Y238519D02*
X1486361Y238512D01*
X1486361Y238526D02*
X1486361Y238519D01*
X1486361Y238533D02*
X1486361Y238526D01*
X1486361Y238540D02*
X1486361Y238533D01*
X1486360Y238548D02*
X1486361Y238540D01*
X1486360Y238556D02*
X1486360Y238548D01*
X1486360Y238564D02*
X1486360Y238556D01*
X1486360Y238572D02*
X1486360Y238564D01*
X1486360Y238581D02*
X1486360Y238572D01*
X1486360Y238590D02*
X1486360Y238581D01*
X1486360Y238600D02*
X1486360Y238590D01*
X1486360Y238610D02*
X1486360Y238600D01*
X1486360Y238621D02*
X1486360Y238610D01*
X1486360Y238632D02*
X1486360Y238621D01*
X1486360Y238643D02*
X1486360Y238632D01*
X1486360Y238655D02*
X1486360Y238643D01*
X1486360Y238668D02*
X1486360Y238655D01*
X1486360Y238680D02*
X1486360Y238668D01*
X1486360Y238694D02*
X1486360Y238680D01*
X1486360Y238707D02*
X1486360Y238694D01*
X1486360Y238721D02*
X1486360Y238707D01*
X1486360Y238736D02*
X1486360Y238721D01*
X1486360Y238750D02*
X1486360Y238736D01*
X1486360Y238765D02*
X1486360Y238750D01*
X1486360Y238781D02*
X1486360Y238765D01*
X1486360Y238796D02*
X1486360Y238781D01*
X1486360Y238812D02*
X1486360Y238796D01*
X1486360Y238829D02*
X1486360Y238812D01*
X1486360Y238845D02*
X1486360Y238829D01*
X1486360Y238862D02*
X1486360Y238845D01*
X1486360Y238879D02*
X1486360Y238862D01*
X1486360Y238897D02*
X1486360Y238879D01*
X1486359Y238914D02*
X1486360Y238897D01*
X1486359Y238932D02*
X1486359Y238914D01*
X1486359Y238950D02*
X1486359Y238932D01*
X1486359Y238969D02*
X1486359Y238950D01*
X1486359Y238987D02*
X1486359Y238969D01*
X1486359Y239006D02*
X1486359Y238987D01*
X1486359Y239025D02*
X1486359Y239006D01*
X1486359Y239044D02*
X1486359Y239025D01*
X1486359Y239063D02*
X1486359Y239044D01*
X1486359Y239083D02*
X1486359Y239063D01*
X1486359Y239102D02*
X1486359Y239083D01*
X1486359Y239122D02*
X1486359Y239102D01*
X1486359Y239142D02*
X1486359Y239122D01*
X1486359Y239161D02*
X1486359Y239142D01*
X1486358Y239181D02*
X1486359Y239161D01*
X1486358Y239202D02*
X1486358Y239181D01*
X1486358Y239222D02*
X1486358Y239202D01*
X1486358Y239242D02*
X1486358Y239222D01*
X1486358Y239262D02*
X1486358Y239242D01*
X1486358Y239283D02*
X1486358Y239262D01*
X1486358Y239303D02*
X1486358Y239283D01*
X1486358Y239323D02*
X1486358Y239303D01*
X1486358Y239344D02*
X1486358Y239323D01*
X1486358Y239364D02*
X1486358Y239344D01*
X1486358Y239384D02*
X1486358Y239364D01*
X1486358Y239405D02*
X1486358Y239384D01*
X1486358Y239425D02*
X1486358Y239405D01*
X1486358Y239445D02*
X1486358Y239425D01*
X1486357Y239466D02*
X1486358Y239445D01*
X1486357Y239486D02*
X1486357Y239466D01*
X1486357Y239506D02*
X1486357Y239486D01*
X1486357Y239526D02*
X1486357Y239506D01*
X1486357Y239546D02*
X1486357Y239526D01*
X1486357Y239566D02*
X1486357Y239546D01*
X1486357Y239585D02*
X1486357Y239566D01*
X1486357Y239605D02*
X1486357Y239585D01*
X1486357Y239624D02*
X1486357Y239605D01*
X1486357Y239643D02*
X1486357Y239624D01*
X1486357Y239662D02*
X1486357Y239643D01*
X1486356Y239681D02*
X1486357Y239662D01*
X1486356Y239700D02*
X1486356Y239681D01*
X1486356Y239719D02*
X1486356Y239700D01*
X1486356Y239737D02*
X1486356Y239719D01*
X1486356Y239755D02*
X1486356Y239737D01*
X1486356Y239774D02*
X1486356Y239755D01*
X1486356Y239792D02*
X1486356Y239774D01*
X1486356Y239809D02*
X1486356Y239792D01*
X1486356Y239827D02*
X1486356Y239809D01*
X1486356Y239845D02*
X1486356Y239827D01*
X1486355Y239862D02*
X1486356Y239845D01*
X1486355Y239880D02*
X1486355Y239862D01*
X1486355Y239897D02*
X1486355Y239880D01*
X1486355Y239914D02*
X1486355Y239897D01*
X1486355Y239932D02*
X1486355Y239914D01*
X1486355Y239949D02*
X1486355Y239932D01*
X1486355Y239966D02*
X1486355Y239949D01*
X1486355Y239983D02*
X1486355Y239966D01*
X1486355Y240000D02*
X1486355Y239983D01*
X1486355Y240017D02*
X1486355Y240000D01*
X1486355Y240034D02*
X1486355Y240017D01*
X1486355Y240034D02*
Y240050D01*
X1486355Y240067D02*
X1486355Y240050D01*
X1486355Y240067D02*
Y240084D01*
X1486355Y240101D01*
Y240118D01*
X1486355Y240135D01*
X1486355Y240152D01*
X1486355Y240168D01*
X1486355Y240185D01*
X1486355Y240202D01*
X1486355Y240219D01*
X1486355Y240236D01*
X1486355Y240253D01*
X1486356Y240271D01*
X1486356Y240288D01*
X1486356Y240305D01*
X1486356Y240322D01*
X1486356Y240340D01*
X1486356Y240358D01*
X1486357Y240375D01*
X1486357Y240393D01*
X1486357Y240411D01*
X1486357Y240429D01*
X1486358Y240447D01*
X1486358Y240466D01*
X1486358Y240484D01*
X1486359Y240503D01*
X1486359Y240522D01*
X1486359Y240541D01*
X1486360Y240560D01*
X1486360Y240579D01*
X1486361Y240599D01*
X1486361Y240619D01*
X1486362Y240639D01*
X1486362Y240659D01*
X1486362Y240679D01*
X1486363Y240700D01*
X1486364Y240720D01*
X1486364Y240741D01*
X1486365Y240762D01*
X1486365Y240783D01*
X1486366Y240804D01*
X1486366Y240825D01*
X1486367Y240846D01*
X1486368Y240867D01*
X1486368Y240888D01*
X1486369Y240908D01*
X1486369Y240929D01*
X1486370Y240950D01*
X1486371Y240970D01*
X1486371Y240991D01*
X1486372Y241011D01*
X1486372Y241031D01*
X1486373Y241051D01*
X1486373Y241071D01*
X1486374Y241091D01*
X1486375Y241110D01*
X1486375Y241129D01*
X1486375Y241147D01*
X1486376Y241166D01*
X1486376Y241184D01*
X1486377Y241201D01*
X1486377Y241219D01*
X1486378Y241236D01*
X1486378Y241252D01*
X1486378Y241268D01*
X1486378Y241284D01*
X1486379Y241299D01*
X1486379Y241313D01*
X1486379Y241327D01*
X1486379Y241341D01*
X1486379Y241354D01*
X1486379Y241366D01*
X1486379Y241378D02*
X1486379Y241366D01*
X1486379Y241389D02*
X1486379Y241378D01*
X1486379Y241400D02*
X1486379Y241389D01*
X1486379Y241410D02*
X1486379Y241400D01*
X1486379Y241419D02*
X1486379Y241410D01*
X1486378Y241427D02*
X1486379Y241419D01*
X1486378Y241435D02*
X1486378Y241427D01*
X1486378Y241442D02*
X1486378Y241435D01*
X1486378Y241449D02*
X1486378Y241442D01*
X1486377Y241456D02*
X1486378Y241449D01*
X1486377Y241462D02*
X1486377Y241456D01*
X1486376Y241469D02*
X1486377Y241462D01*
X1486376Y241475D02*
X1486376Y241469D01*
X1486376Y241482D02*
X1486376Y241475D01*
X1486376Y241488D02*
X1486376Y241482D01*
X1486375Y241495D02*
X1486376Y241488D01*
X1486375Y241503D02*
X1486375Y241495D01*
X1486375Y241511D02*
X1486375Y241503D01*
X1486375Y241511D02*
X1486375Y241520D01*
X1486375Y241530D01*
X1486376Y241541D01*
X1486376Y241552D01*
X1486377Y241565D01*
X1486377Y241579D01*
X1486378Y241595D01*
X1486379Y241612D01*
X1486381Y241630D01*
X1486382Y241651D01*
X1486384Y241673D01*
X1486385Y241697D01*
X1486388Y241723D01*
X1486390Y241751D01*
X1486393Y241781D01*
X1486395Y241814D01*
X1486398Y241849D01*
X1486402Y241887D01*
X1486406Y241928D01*
X1486410Y241971D01*
X1486414Y242017D01*
X1503632Y237501D02*
X1503632Y237548D01*
X1503633Y237594D01*
X1503633Y237638D01*
X1503633Y237680D01*
X1503633Y237721D01*
X1503634Y237760D01*
X1503634Y237798D01*
X1503634Y237834D01*
X1503635Y237869D01*
X1503635Y237902D01*
X1503635Y237934D01*
X1503635Y237965D01*
X1503636Y237994D01*
X1503636Y238023D01*
X1503636Y238050D01*
X1503636Y238075D01*
X1503636Y238100D01*
X1503637Y238124D01*
X1503637Y238146D01*
X1503637Y238168D01*
X1503637Y238188D01*
X1503637Y238208D01*
X1503637Y238226D01*
X1503638Y238244D01*
X1503638Y238261D01*
X1503638Y238277D01*
X1503638Y238292D01*
X1503638Y238307D01*
X1503638Y238320D01*
X1503638Y238333D01*
X1503638Y238346D01*
X1503638Y238358D01*
X1503638Y238369D01*
X1503638Y238380D01*
X1503639Y238390D01*
X1503639Y238399D01*
X1503639Y238409D01*
X1503639Y238418D01*
X1503639Y238426D01*
X1503639Y238434D01*
X1503639Y238442D01*
X1503639Y238450D01*
X1503639Y238457D01*
X1503639Y238464D01*
X1503639Y238471D01*
X1503639Y238478D01*
X1503639Y238485D01*
X1503639Y238492D01*
X1503639Y238498D01*
X1503639Y238505D01*
X1503639Y238512D01*
X1503639Y238519D01*
X1503639Y238526D01*
X1503639Y238533D01*
X1503639Y238540D01*
X1503639Y238548D01*
X1503640Y238556D01*
X1503640Y238564D01*
X1503640Y238572D01*
X1503640Y238581D01*
X1503640Y238590D01*
X1503640Y238600D01*
X1503640Y238610D01*
X1503640Y238621D01*
X1503640Y238632D01*
X1503640Y238643D01*
X1503640Y238655D01*
X1503640Y238668D01*
X1503640Y238680D01*
X1503640Y238694D01*
X1503640Y238707D01*
X1503640Y238721D01*
X1503640Y238736D01*
X1503640Y238750D01*
X1503640Y238765D01*
X1503640Y238781D01*
X1503640Y238796D01*
X1503640Y238812D01*
X1503640Y238829D01*
X1503640Y238845D01*
X1503640Y238862D01*
X1503640Y238879D01*
X1503640Y238897D01*
X1503640Y238914D01*
X1503641Y238932D01*
X1503641Y238950D01*
X1503641Y238969D01*
X1503641Y238987D01*
X1503641Y239006D01*
X1503641Y239025D01*
X1503641Y239044D01*
X1503641Y239063D01*
X1503641Y239083D01*
X1503641Y239102D01*
X1503641Y239122D01*
X1503641Y239142D01*
X1503641Y239161D01*
X1503641Y239181D01*
X1503642Y239202D01*
X1503642Y239222D01*
X1503642Y239242D01*
X1503642Y239262D01*
X1503642Y239283D01*
X1503642Y239303D01*
X1503642Y239323D01*
X1503642Y239344D01*
X1503642Y239364D01*
X1503642Y239384D01*
X1503642Y239405D01*
X1503642Y239425D01*
X1503642Y239445D01*
X1503642Y239466D01*
X1503643Y239486D01*
X1503643Y239506D01*
X1503643Y239526D01*
X1503643Y239546D01*
X1503643Y239566D01*
X1503643Y239585D01*
X1503643Y239605D01*
X1503643Y239624D01*
X1503643Y239643D01*
X1503643Y239662D01*
X1503643Y239681D01*
X1503644Y239700D01*
X1503644Y239719D01*
X1503644Y239737D01*
X1503644Y239755D01*
X1503644Y239774D01*
X1503644Y239792D01*
X1503644Y239809D01*
X1503644Y239827D01*
X1503644Y239845D01*
X1503644Y239862D01*
X1503645Y239880D01*
X1503645Y239897D01*
X1503645Y239914D01*
X1503645Y239932D01*
X1503645Y239949D01*
X1503645Y239966D01*
X1503645Y239983D01*
X1503645Y240000D01*
X1503645Y240017D01*
X1503645Y240034D01*
Y240050D01*
X1503645Y240067D01*
Y240084D01*
X1503645Y240101D02*
X1503645Y240084D01*
X1503645Y240101D02*
Y240118D01*
X1503645Y240135D02*
X1503645Y240118D01*
X1503645Y240152D02*
X1503645Y240135D01*
X1503645Y240168D02*
X1503645Y240152D01*
X1503645Y240185D02*
X1503645Y240168D01*
X1503645Y240202D02*
X1503645Y240185D01*
X1503645Y240219D02*
X1503645Y240202D01*
X1503645Y240236D02*
X1503645Y240219D01*
X1503645Y240253D02*
X1503645Y240236D01*
X1503644Y240271D02*
X1503645Y240253D01*
X1503644Y240288D02*
X1503644Y240271D01*
X1503644Y240305D02*
X1503644Y240288D01*
X1503644Y240322D02*
X1503644Y240305D01*
X1503644Y240340D02*
X1503644Y240322D01*
X1503643Y240358D02*
X1503644Y240340D01*
X1503643Y240375D02*
X1503643Y240358D01*
X1503643Y240393D02*
X1503643Y240375D01*
X1503643Y240411D02*
X1503643Y240393D01*
X1503643Y240429D02*
X1503643Y240411D01*
X1503642Y240447D02*
X1503643Y240429D01*
X1503642Y240466D02*
X1503642Y240447D01*
X1503642Y240484D02*
X1503642Y240466D01*
X1503641Y240503D02*
X1503642Y240484D01*
X1503641Y240522D02*
X1503641Y240503D01*
X1503641Y240541D02*
X1503641Y240522D01*
X1503640Y240560D02*
X1503641Y240541D01*
X1503640Y240579D02*
X1503640Y240560D01*
X1503639Y240599D02*
X1503640Y240579D01*
X1503639Y240619D02*
X1503639Y240599D01*
X1503638Y240639D02*
X1503639Y240619D01*
X1503638Y240659D02*
X1503638Y240639D01*
X1503638Y240679D02*
X1503638Y240659D01*
X1503637Y240700D02*
X1503638Y240679D01*
X1503636Y240720D02*
X1503637Y240700D01*
X1503636Y240741D02*
X1503636Y240720D01*
X1503635Y240762D02*
X1503636Y240741D01*
X1503635Y240783D02*
X1503635Y240762D01*
X1503634Y240804D02*
X1503635Y240783D01*
X1503634Y240825D02*
X1503634Y240804D01*
X1503633Y240846D02*
X1503634Y240825D01*
X1503632Y240867D02*
X1503633Y240846D01*
X1503632Y240888D02*
X1503632Y240867D01*
X1503631Y240908D02*
X1503632Y240888D01*
X1503631Y240929D02*
X1503631Y240908D01*
X1503630Y240950D02*
X1503631Y240929D01*
X1503629Y240970D02*
X1503630Y240950D01*
X1503629Y240991D02*
X1503629Y240970D01*
X1503628Y241011D02*
X1503629Y240991D01*
X1503628Y241031D02*
X1503628Y241011D01*
X1503627Y241051D02*
X1503628Y241031D01*
X1503627Y241071D02*
X1503627Y241051D01*
X1503626Y241091D02*
X1503627Y241071D01*
X1503625Y241110D02*
X1503626Y241091D01*
X1503625Y241129D02*
X1503625Y241110D01*
X1503624Y241147D02*
X1503625Y241129D01*
X1503624Y241166D02*
X1503624Y241147D01*
X1503624Y241184D02*
X1503624Y241166D01*
X1503623Y241201D02*
X1503624Y241184D01*
X1503623Y241219D02*
X1503623Y241201D01*
X1503622Y241236D02*
X1503623Y241219D01*
X1503622Y241252D02*
X1503622Y241236D01*
X1503622Y241268D02*
X1503622Y241252D01*
X1503622Y241284D02*
X1503622Y241268D01*
X1503621Y241299D02*
X1503622Y241284D01*
X1503621Y241313D02*
X1503621Y241299D01*
X1503621Y241327D02*
X1503621Y241313D01*
X1503621Y241341D02*
X1503621Y241327D01*
X1503621Y241354D02*
X1503621Y241341D01*
X1503621Y241366D02*
X1503621Y241354D01*
X1503621Y241366D02*
X1503621Y241378D01*
X1503621Y241389D01*
X1503621Y241400D01*
X1503621Y241410D01*
X1503621Y241419D01*
X1503622Y241427D01*
X1503622Y241435D01*
X1503622Y241442D01*
X1503622Y241449D01*
X1503623Y241456D01*
X1503623Y241462D01*
X1503624Y241469D01*
X1503624Y241475D01*
X1503624Y241482D01*
X1503624Y241488D01*
X1503625Y241495D01*
X1503625Y241503D01*
X1503625Y241511D01*
X1503625Y241520D02*
X1503625Y241511D01*
X1503625Y241530D02*
X1503625Y241520D01*
X1503624Y241541D02*
X1503625Y241530D01*
X1503624Y241552D02*
X1503624Y241541D01*
X1503623Y241565D02*
X1503624Y241552D01*
X1503622Y241579D02*
X1503623Y241565D01*
X1503622Y241595D02*
X1503622Y241579D01*
X1503621Y241612D02*
X1503622Y241595D01*
X1503619Y241630D02*
X1503621Y241612D01*
X1503618Y241651D02*
X1503619Y241630D01*
X1503616Y241673D02*
X1503618Y241651D01*
X1503615Y241697D02*
X1503616Y241673D01*
X1503612Y241723D02*
X1503615Y241697D01*
X1503610Y241751D02*
X1503612Y241723D01*
X1503607Y241781D02*
X1503610Y241751D01*
X1503605Y241814D02*
X1503607Y241781D01*
X1503601Y241849D02*
X1503605Y241814D01*
X1503598Y241887D02*
X1503601Y241849D01*
X1503594Y241928D02*
X1503598Y241887D01*
X1503590Y241971D02*
X1503594Y241928D01*
X1503586Y242017D02*
X1503590Y241971D01*
X1486414Y242017D02*
X1486415Y242026D01*
X1486416Y242035D01*
X1486417Y242044D01*
X1486418Y242053D01*
X1486419Y242061D01*
X1486420Y242070D01*
X1486421Y242078D01*
X1486422Y242087D01*
X1486423Y242095D01*
X1486424Y242104D01*
X1486425Y242112D01*
X1486427Y242120D01*
X1486428Y242128D01*
X1486429Y242137D01*
X1486431Y242145D01*
X1486432Y242153D01*
X1486433Y242161D01*
X1486434Y242169D01*
X1486436Y242177D01*
X1486437Y242185D01*
X1486439Y242193D01*
X1486440Y242200D01*
X1486442Y242208D01*
X1486443Y242216D01*
X1486445Y242224D01*
X1486446Y242232D01*
X1486447Y242239D01*
X1486449Y242247D01*
X1486451Y242255D01*
X1486452Y242263D01*
X1486454Y242271D01*
X1486455Y242278D01*
X1486457Y242286D01*
X1486458Y242294D01*
X1486460Y242302D01*
X1486461Y242309D01*
X1486463Y242317D01*
X1486465Y242325D01*
X1486466Y242333D01*
X1486468Y242341D01*
X1486470Y242348D01*
X1486471Y242356D01*
X1486473Y242364D01*
X1486474Y242372D01*
X1486476Y242380D01*
X1486478Y242388D01*
X1486479Y242396D01*
X1486481Y242404D01*
X1486482Y242411D01*
X1486484Y242419D01*
X1486485Y242427D01*
X1486487Y242435D01*
X1486489Y242443D01*
X1486490Y242451D01*
X1486492Y242459D01*
X1486494Y242467D01*
X1486495Y242475D01*
X1486497Y242483D01*
X1486499Y242491D01*
X1486500Y242499D01*
X1486502Y242507D01*
X1486503Y242516D01*
X1486505Y242524D01*
X1486507Y242532D01*
X1486508Y242540D01*
X1486510Y242548D01*
X1486511Y242556D01*
X1486513Y242564D01*
X1486515Y242572D01*
X1486516Y242580D01*
X1486518Y242588D01*
X1486519Y242596D01*
X1486521Y242605D01*
X1486523Y242613D01*
X1486524Y242621D01*
X1486526Y242629D01*
X1486528Y242637D01*
X1486529Y242645D01*
X1486531Y242653D01*
X1486532Y242661D01*
X1486534Y242670D01*
X1486535Y242678D01*
X1486537Y242686D01*
X1486539Y242694D01*
X1486540Y242702D01*
X1486542Y242710D01*
X1486543Y242719D01*
X1486545Y242727D01*
X1486546Y242735D01*
X1486548Y242743D01*
X1486550Y242751D01*
X1486551Y242760D01*
X1486552Y242768D01*
X1486554Y242776D01*
X1486556Y242784D01*
X1486557Y242792D01*
X1486559Y242801D01*
X1486560Y242809D01*
X1486562Y242817D01*
X1486563Y242825D01*
X1486565Y242833D01*
X1486566Y242841D01*
X1486568Y242850D01*
X1486569Y242858D01*
X1486571Y242866D01*
X1486572Y242874D01*
X1486574Y242882D01*
X1486575Y242890D01*
X1486577Y242899D01*
X1486578Y242907D01*
X1486579Y242915D01*
X1486581Y242923D01*
X1486582Y242931D01*
X1486584Y242939D01*
X1486585Y242948D01*
X1486586Y242956D01*
X1486588Y242964D01*
X1486589Y242972D01*
X1486591Y242980D01*
X1486592Y242988D01*
X1486593Y242996D01*
X1486595Y243004D01*
X1486596Y243013D01*
X1486598Y243021D01*
X1486599Y243029D01*
X1486600Y243037D01*
X1486602Y243045D01*
X1486603Y243053D01*
X1486604Y243061D01*
X1486606Y243069D01*
X1486607Y243077D01*
X1486608Y243085D01*
X1486609Y243093D01*
X1486611Y243102D01*
X1486612Y243110D01*
X1486613Y243118D01*
X1486615Y243126D01*
X1486616Y243134D01*
X1486617Y243142D01*
X1486618Y243150D01*
X1486620Y243158D01*
X1486621Y243166D01*
X1486622Y243174D01*
X1486623Y243182D01*
X1486624Y243190D01*
X1486626Y243198D01*
X1486627Y243206D01*
X1486628Y243214D01*
X1486629Y243222D01*
X1486630Y243230D01*
X1486632Y243238D01*
X1486633Y243246D01*
X1486634Y243254D01*
X1486635Y243262D01*
X1486636Y243269D01*
X1486637Y243277D01*
X1486638Y243285D01*
X1486639Y243293D01*
X1486640Y243301D01*
X1486642Y243309D01*
X1486643Y243317D01*
X1486644Y243325D01*
X1486645Y243332D01*
X1486646Y243340D01*
X1486647Y243348D01*
X1486648Y243356D01*
X1486649Y243364D01*
X1486650Y243372D01*
X1486651Y243379D01*
X1486652Y243387D01*
X1486653Y243395D01*
X1486654Y243403D01*
X1486655Y243411D01*
X1486656Y243419D01*
X1486656Y243427D01*
X1486658Y243435D01*
X1486658Y243442D01*
X1486659Y243450D01*
X1486660Y243458D01*
X1486661Y243466D01*
X1486662Y243474D01*
X1486663Y243482D01*
X1486664Y243490D01*
X1486664Y243498D01*
X1486665Y243506D01*
X1486666Y243514D01*
X1486667Y243522D01*
X1486668Y243530D01*
X1486669Y243538D01*
X1486669Y243546D01*
X1486670Y243554D01*
X1486671Y243562D01*
X1486672Y243570D01*
X1486672Y243578D01*
X1486673Y243586D01*
X1486674Y243594D01*
X1486674Y243603D01*
X1486675Y243611D01*
X1486676Y243619D01*
X1486676Y243627D01*
X1486677Y243635D01*
X1486678Y243644D01*
X1486678Y243652D01*
X1486679Y243660D01*
X1486680Y243669D01*
X1486680Y243677D01*
X1486681Y243685D01*
X1486682Y243694D01*
X1486682Y243702D01*
X1486683Y243711D01*
X1486683Y243719D01*
X1486684Y243728D01*
X1486684Y243736D01*
X1486685Y243745D01*
X1486685Y243754D01*
X1486686Y243762D01*
X1486686Y243771D01*
X1486687Y243780D01*
X1486687Y243789D01*
X1486688Y243798D01*
X1486688Y243807D01*
X1486688Y243815D01*
X1486689Y243825D01*
X1503585Y242026D02*
X1503586Y242017D01*
X1503584Y242035D02*
X1503585Y242026D01*
X1503583Y242044D02*
X1503584Y242035D01*
X1503582Y242053D02*
X1503583Y242044D01*
X1503581Y242061D02*
X1503582Y242053D01*
X1503580Y242070D02*
X1503581Y242061D01*
X1503579Y242078D02*
X1503580Y242070D01*
X1503578Y242087D02*
X1503579Y242078D01*
X1503577Y242095D02*
X1503578Y242087D01*
X1503576Y242104D02*
X1503577Y242095D01*
X1503575Y242112D02*
X1503576Y242104D01*
X1503573Y242120D02*
X1503575Y242112D01*
X1503572Y242128D02*
X1503573Y242120D01*
X1503571Y242137D02*
X1503572Y242128D01*
X1503569Y242145D02*
X1503571Y242137D01*
X1503568Y242153D02*
X1503569Y242145D01*
X1503567Y242161D02*
X1503568Y242153D01*
X1503566Y242169D02*
X1503567Y242161D01*
X1503564Y242177D02*
X1503566Y242169D01*
X1503563Y242185D02*
X1503564Y242177D01*
X1503561Y242193D02*
X1503563Y242185D01*
X1503560Y242200D02*
X1503561Y242193D01*
X1503558Y242208D02*
X1503560Y242200D01*
X1503557Y242216D02*
X1503558Y242208D01*
X1503555Y242224D02*
X1503557Y242216D01*
X1503554Y242232D02*
X1503555Y242224D01*
X1503553Y242239D02*
X1503554Y242232D01*
X1503551Y242247D02*
X1503553Y242239D01*
X1503549Y242255D02*
X1503551Y242247D01*
X1503548Y242263D02*
X1503549Y242255D01*
X1503546Y242271D02*
X1503548Y242263D01*
X1503545Y242278D02*
X1503546Y242271D01*
X1503543Y242286D02*
X1503545Y242278D01*
X1503542Y242294D02*
X1503543Y242286D01*
X1503540Y242302D02*
X1503542Y242294D01*
X1503539Y242309D02*
X1503540Y242302D01*
X1503537Y242317D02*
X1503539Y242309D01*
X1503535Y242325D02*
X1503537Y242317D01*
X1503534Y242333D02*
X1503535Y242325D01*
X1503532Y242341D02*
X1503534Y242333D01*
X1503530Y242348D02*
X1503532Y242341D01*
X1503529Y242356D02*
X1503530Y242348D01*
X1503527Y242364D02*
X1503529Y242356D01*
X1503526Y242372D02*
X1503527Y242364D01*
X1503524Y242380D02*
X1503526Y242372D01*
X1503522Y242388D02*
X1503524Y242380D01*
X1503521Y242396D02*
X1503522Y242388D01*
X1503519Y242404D02*
X1503521Y242396D01*
X1503518Y242411D02*
X1503519Y242404D01*
X1503516Y242419D02*
X1503518Y242411D01*
X1503514Y242427D02*
X1503516Y242419D01*
X1503513Y242435D02*
X1503514Y242427D01*
X1503511Y242443D02*
X1503513Y242435D01*
X1503510Y242451D02*
X1503511Y242443D01*
X1503508Y242459D02*
X1503510Y242451D01*
X1503506Y242467D02*
X1503508Y242459D01*
X1503505Y242475D02*
X1503506Y242467D01*
X1503503Y242483D02*
X1503505Y242475D01*
X1503501Y242491D02*
X1503503Y242483D01*
X1503500Y242499D02*
X1503501Y242491D01*
X1503498Y242507D02*
X1503500Y242499D01*
X1503497Y242516D02*
X1503498Y242507D01*
X1503495Y242524D02*
X1503497Y242516D01*
X1503493Y242532D02*
X1503495Y242524D01*
X1503492Y242540D02*
X1503493Y242532D01*
X1503490Y242548D02*
X1503492Y242540D01*
X1503488Y242556D02*
X1503490Y242548D01*
X1503487Y242564D02*
X1503488Y242556D01*
X1503485Y242572D02*
X1503487Y242564D01*
X1503484Y242580D02*
X1503485Y242572D01*
X1503482Y242588D02*
X1503484Y242580D01*
X1503481Y242596D02*
X1503482Y242588D01*
X1503479Y242605D02*
X1503481Y242596D01*
X1503477Y242613D02*
X1503479Y242605D01*
X1503476Y242621D02*
X1503477Y242613D01*
X1503474Y242629D02*
X1503476Y242621D01*
X1503472Y242637D02*
X1503474Y242629D01*
X1503471Y242645D02*
X1503472Y242637D01*
X1503469Y242653D02*
X1503471Y242645D01*
X1503468Y242661D02*
X1503469Y242653D01*
X1503466Y242670D02*
X1503468Y242661D01*
X1503465Y242678D02*
X1503466Y242670D01*
X1503463Y242686D02*
X1503465Y242678D01*
X1503461Y242694D02*
X1503463Y242686D01*
X1503460Y242702D02*
X1503461Y242694D01*
X1503458Y242710D02*
X1503460Y242702D01*
X1503457Y242719D02*
X1503458Y242710D01*
X1503455Y242727D02*
X1503457Y242719D01*
X1503454Y242735D02*
X1503455Y242727D01*
X1503452Y242743D02*
X1503454Y242735D01*
X1503450Y242751D02*
X1503452Y242743D01*
X1503449Y242760D02*
X1503450Y242751D01*
X1503447Y242768D02*
X1503449Y242760D01*
X1503446Y242776D02*
X1503447Y242768D01*
X1503444Y242784D02*
X1503446Y242776D01*
X1503443Y242792D02*
X1503444Y242784D01*
X1503441Y242801D02*
X1503443Y242792D01*
X1503440Y242809D02*
X1503441Y242801D01*
X1503438Y242817D02*
X1503440Y242809D01*
X1503437Y242825D02*
X1503438Y242817D01*
X1503435Y242833D02*
X1503437Y242825D01*
X1503434Y242841D02*
X1503435Y242833D01*
X1503432Y242850D02*
X1503434Y242841D01*
X1503431Y242858D02*
X1503432Y242850D01*
X1503429Y242866D02*
X1503431Y242858D01*
X1503428Y242874D02*
X1503429Y242866D01*
X1503426Y242882D02*
X1503428Y242874D01*
X1503425Y242890D02*
X1503426Y242882D01*
X1503423Y242899D02*
X1503425Y242890D01*
X1503422Y242907D02*
X1503423Y242899D01*
X1503421Y242915D02*
X1503422Y242907D01*
X1503419Y242923D02*
X1503421Y242915D01*
X1503418Y242931D02*
X1503419Y242923D01*
X1503416Y242939D02*
X1503418Y242931D01*
X1503415Y242948D02*
X1503416Y242939D01*
X1503414Y242956D02*
X1503415Y242948D01*
X1503412Y242964D02*
X1503414Y242956D01*
X1503411Y242972D02*
X1503412Y242964D01*
X1503409Y242980D02*
X1503411Y242972D01*
X1503408Y242988D02*
X1503409Y242980D01*
X1503407Y242996D02*
X1503408Y242988D01*
X1503405Y243004D02*
X1503407Y242996D01*
X1503404Y243013D02*
X1503405Y243004D01*
X1503402Y243021D02*
X1503404Y243013D01*
X1503401Y243029D02*
X1503402Y243021D01*
X1503400Y243037D02*
X1503401Y243029D01*
X1503398Y243045D02*
X1503400Y243037D01*
X1503397Y243053D02*
X1503398Y243045D01*
X1503396Y243061D02*
X1503397Y243053D01*
X1503394Y243069D02*
X1503396Y243061D01*
X1503393Y243077D02*
X1503394Y243069D01*
X1503392Y243085D02*
X1503393Y243077D01*
X1503390Y243093D02*
X1503392Y243085D01*
X1503389Y243102D02*
X1503390Y243093D01*
X1503388Y243110D02*
X1503389Y243102D01*
X1503387Y243118D02*
X1503388Y243110D01*
X1503385Y243126D02*
X1503387Y243118D01*
X1503384Y243134D02*
X1503385Y243126D01*
X1503383Y243142D02*
X1503384Y243134D01*
X1503382Y243150D02*
X1503383Y243142D01*
X1503380Y243158D02*
X1503382Y243150D01*
X1503379Y243166D02*
X1503380Y243158D01*
X1503378Y243174D02*
X1503379Y243166D01*
X1503377Y243182D02*
X1503378Y243174D01*
X1503375Y243190D02*
X1503377Y243182D01*
X1503374Y243198D02*
X1503375Y243190D01*
X1503373Y243206D02*
X1503374Y243198D01*
X1503372Y243214D02*
X1503373Y243206D01*
X1503371Y243222D02*
X1503372Y243214D01*
X1503369Y243230D02*
X1503371Y243222D01*
X1503368Y243238D02*
X1503369Y243230D01*
X1503367Y243246D02*
X1503368Y243238D01*
X1503366Y243254D02*
X1503367Y243246D01*
X1503365Y243262D02*
X1503366Y243254D01*
X1503364Y243269D02*
X1503365Y243262D01*
X1503363Y243277D02*
X1503364Y243269D01*
X1503362Y243285D02*
X1503363Y243277D01*
X1503360Y243293D02*
X1503362Y243285D01*
X1503360Y243301D02*
X1503360Y243293D01*
X1503358Y243309D02*
X1503360Y243301D01*
X1503357Y243317D02*
X1503358Y243309D01*
X1503356Y243325D02*
X1503357Y243317D01*
X1503355Y243332D02*
X1503356Y243325D01*
X1503354Y243340D02*
X1503355Y243332D01*
X1503353Y243348D02*
X1503354Y243340D01*
X1503352Y243356D02*
X1503353Y243348D01*
X1503351Y243364D02*
X1503352Y243356D01*
X1503350Y243372D02*
X1503351Y243364D01*
X1503349Y243379D02*
X1503350Y243372D01*
X1503348Y243387D02*
X1503349Y243379D01*
X1503347Y243395D02*
X1503348Y243387D01*
X1503346Y243403D02*
X1503347Y243395D01*
X1503345Y243411D02*
X1503346Y243403D01*
X1503344Y243419D02*
X1503345Y243411D01*
X1503343Y243427D02*
X1503344Y243419D01*
X1503342Y243435D02*
X1503343Y243427D01*
X1503342Y243442D02*
X1503342Y243435D01*
X1503341Y243450D02*
X1503342Y243442D01*
X1503340Y243458D02*
X1503341Y243450D01*
X1503339Y243466D02*
X1503340Y243458D01*
X1503338Y243474D02*
X1503339Y243466D01*
X1503337Y243482D02*
X1503338Y243474D01*
X1503336Y243490D02*
X1503337Y243482D01*
X1503336Y243498D02*
X1503336Y243490D01*
X1503335Y243506D02*
X1503336Y243498D01*
X1503334Y243514D02*
X1503335Y243506D01*
X1503333Y243522D02*
X1503334Y243514D01*
X1503332Y243530D02*
X1503333Y243522D01*
X1503331Y243538D02*
X1503332Y243530D01*
X1503331Y243546D02*
X1503331Y243538D01*
X1503330Y243554D02*
X1503331Y243546D01*
X1503329Y243562D02*
X1503330Y243554D01*
X1503328Y243570D02*
X1503329Y243562D01*
X1503328Y243578D02*
X1503328Y243570D01*
X1503327Y243586D02*
X1503328Y243578D01*
X1503326Y243594D02*
X1503327Y243586D01*
X1503326Y243603D02*
X1503326Y243594D01*
X1503325Y243611D02*
X1503326Y243603D01*
X1503324Y243619D02*
X1503325Y243611D01*
X1503324Y243627D02*
X1503324Y243619D01*
X1503323Y243635D02*
X1503324Y243627D01*
X1503322Y243644D02*
X1503323Y243635D01*
X1503322Y243652D02*
X1503322Y243644D01*
X1503321Y243660D02*
X1503322Y243652D01*
X1503320Y243669D02*
X1503321Y243660D01*
X1503320Y243677D02*
X1503320Y243669D01*
X1503319Y243685D02*
X1503320Y243677D01*
X1503318Y243694D02*
X1503319Y243685D01*
X1503318Y243702D02*
X1503318Y243694D01*
X1503317Y243711D02*
X1503318Y243702D01*
X1503317Y243719D02*
X1503317Y243711D01*
X1503316Y243728D02*
X1503317Y243719D01*
X1503316Y243736D02*
X1503316Y243728D01*
X1503315Y243745D02*
X1503316Y243736D01*
X1503315Y243754D02*
X1503315Y243745D01*
X1503314Y243762D02*
X1503315Y243754D01*
X1503314Y243771D02*
X1503314Y243762D01*
X1503313Y243780D02*
X1503314Y243771D01*
X1503313Y243789D02*
X1503313Y243780D01*
X1503312Y243798D02*
X1503313Y243789D01*
X1503312Y243807D02*
X1503312Y243798D01*
X1503311Y243815D02*
X1503312Y243807D01*
X1503311Y243825D02*
X1503311Y243815D01*
X1486322Y236596D02*
X1486322Y236599D01*
X1486323Y236601D01*
X1486323Y236604D01*
X1486323Y236606D01*
X1486324Y236609D01*
X1486324Y236612D01*
X1486324Y236615D01*
X1486324Y236618D01*
X1486324Y236621D01*
X1486325Y236625D01*
X1486325Y236628D01*
X1486325Y236632D01*
X1486326Y236635D01*
X1486326Y236639D01*
X1486326Y236643D01*
X1486326Y236647D01*
X1486327Y236651D01*
X1486327Y236655D01*
X1486327Y236659D01*
X1486328Y236663D01*
X1486328Y236667D01*
X1486328Y236672D01*
X1486329Y236676D01*
X1486329Y236680D01*
X1486329Y236685D01*
X1486329Y236689D01*
X1486330Y236694D01*
X1486330Y236698D01*
X1486331Y236703D01*
X1486331Y236708D01*
X1486331Y236712D01*
X1486331Y236717D01*
X1486332Y236722D01*
X1486332Y236726D01*
X1486332Y236731D01*
X1486333Y236736D01*
X1486333Y236741D01*
X1486333Y236745D01*
X1486334Y236750D01*
X1486334Y236755D01*
X1486334Y236760D01*
X1486335Y236765D01*
X1486335Y236769D01*
X1486335Y236774D01*
X1486335Y236779D01*
X1486336Y236783D01*
X1486336Y236788D01*
X1486336Y236792D01*
X1486337Y236797D01*
X1486337Y236801D01*
X1486337Y236806D01*
X1486337Y236810D01*
X1486338Y236815D01*
X1486338Y236819D01*
X1486338Y236824D01*
X1486338Y236828D01*
X1486339Y236833D01*
X1486339Y236837D01*
X1486339Y236841D01*
X1486339Y236845D01*
X1486340Y236850D01*
X1486340Y236854D01*
X1486340Y236858D01*
X1486340Y236862D01*
X1486340Y236867D01*
X1486341Y236871D01*
X1486341Y236875D01*
X1486341Y236879D01*
X1486341Y236883D01*
X1486342Y236887D01*
X1486342Y236891D01*
X1486342Y236895D01*
X1486342Y236899D01*
X1486342Y236903D01*
X1486343Y236908D01*
X1486343Y236912D01*
X1486343Y236915D01*
X1486343Y236919D01*
X1486343Y236923D01*
X1486344Y236927D01*
X1486344Y236931D01*
X1486344Y236935D01*
X1486344Y236939D01*
X1486344Y236943D01*
X1486344Y236947D01*
X1486345Y236951D01*
X1486345Y236955D01*
X1486345Y236958D01*
X1486345Y236962D01*
X1486345Y236966D01*
X1486346Y236970D01*
X1486346Y236974D01*
X1486346Y236978D01*
X1486346Y236981D01*
X1486346Y236985D01*
X1486346Y236989D01*
X1486347Y236993D01*
X1486347Y236996D01*
X1486347Y237000D01*
X1486347Y237004D01*
X1486347Y237008D01*
X1486348Y237012D01*
X1486348Y237015D01*
X1486348Y237019D01*
X1486348Y237023D01*
X1486348Y237027D01*
X1486348Y237030D01*
X1486349Y237034D01*
X1486349Y237038D01*
X1486349Y237041D01*
X1486349Y237045D01*
X1486349Y237049D01*
X1486349Y237053D01*
X1486349Y237056D01*
X1486350Y237060D01*
X1486350Y237064D01*
X1486350Y237068D01*
X1486350Y237071D01*
X1486350Y237075D01*
X1486351Y237079D01*
X1486351Y237083D01*
X1486351Y237086D01*
X1486351Y237090D01*
X1486351Y237094D01*
X1486351Y237098D01*
X1486351Y237101D01*
X1486352Y237105D01*
X1486352Y237109D01*
X1486352Y237113D01*
X1486352Y237117D01*
X1486352Y237120D01*
X1486353Y237124D01*
X1486353Y237128D01*
X1486353Y237132D01*
X1486353Y237136D01*
X1486353Y237140D01*
X1486353Y237143D01*
X1486353Y237147D01*
X1486354Y237151D01*
X1486354Y237155D01*
X1486354Y237159D01*
X1486354Y237163D01*
X1486354Y237167D01*
X1486355Y237171D01*
X1486355Y237175D01*
X1486355Y237179D01*
X1486355Y237183D01*
X1486355Y237187D01*
X1486355Y237191D01*
X1486355Y237195D01*
X1486356Y237199D01*
X1486356Y237203D01*
X1486356Y237207D01*
X1486356Y237211D01*
X1486356Y237215D01*
X1486357Y237219D01*
X1486357Y237223D01*
X1486357Y237227D01*
X1486357Y237232D01*
X1486357Y237236D01*
X1486358Y237240D01*
X1486358Y237244D01*
X1486358Y237248D01*
X1486358Y237253D01*
X1486358Y237257D01*
X1486358Y237261D01*
X1486358Y237265D01*
X1486359Y237270D01*
X1486359Y237274D01*
X1486359Y237278D01*
X1486359Y237283D01*
X1486360Y237287D01*
X1486360Y237292D01*
X1486360Y237296D01*
X1486360Y237301D01*
X1486360Y237305D01*
X1486360Y237310D01*
X1486361Y237314D01*
X1486361Y237319D01*
X1486361Y237324D01*
X1486361Y237328D01*
X1486361Y237333D01*
X1486362Y237338D01*
X1486362Y237342D01*
X1486362Y237347D01*
X1486362Y237352D01*
X1486362Y237357D01*
X1486363Y237361D01*
X1486363Y237366D01*
X1486363Y237371D01*
X1486363Y237376D01*
X1486363Y237381D01*
X1486364Y237385D01*
X1486364Y237390D01*
X1486364Y237395D01*
X1486364Y237400D01*
X1486364Y237404D01*
X1486364Y237409D01*
X1486365Y237413D01*
X1486365Y237418D01*
X1486365Y237423D01*
X1486365Y237427D01*
X1486365Y237431D01*
X1486366Y237436D01*
X1486366Y237440D01*
X1486366Y237444D01*
X1486366Y237448D01*
X1486366Y237452D01*
X1486366Y237456D01*
X1486367Y237460D01*
X1486367Y237464D01*
X1486367Y237467D01*
X1486367Y237471D01*
X1486367Y237474D01*
X1486367Y237478D01*
X1486367Y237481D01*
X1486368Y237484D01*
X1486368Y237487D01*
X1486368Y237490D01*
X1486368Y237493D01*
X1486368Y237495D01*
X1486368Y237498D01*
X1486368Y237500D01*
X1503677Y236599D02*
X1503678Y236596D01*
X1503677Y236601D02*
X1503677Y236599D01*
X1503677Y236604D02*
X1503677Y236601D01*
X1503677Y236606D02*
X1503677Y236604D01*
X1503676Y236609D02*
X1503677Y236606D01*
X1503676Y236612D02*
X1503676Y236609D01*
X1503676Y236615D02*
X1503676Y236612D01*
X1503676Y236618D02*
X1503676Y236615D01*
X1503676Y236621D02*
X1503676Y236618D01*
X1503675Y236625D02*
X1503676Y236621D01*
X1503675Y236628D02*
X1503675Y236625D01*
X1503675Y236632D02*
X1503675Y236628D01*
X1503674Y236635D02*
X1503675Y236632D01*
X1503674Y236639D02*
X1503674Y236635D01*
X1503674Y236643D02*
X1503674Y236639D01*
X1503674Y236647D02*
X1503674Y236643D01*
X1503673Y236651D02*
X1503674Y236647D01*
X1503673Y236655D02*
X1503673Y236651D01*
X1503673Y236659D02*
X1503673Y236655D01*
X1503672Y236663D02*
X1503673Y236659D01*
X1503672Y236667D02*
X1503672Y236663D01*
X1503672Y236672D02*
X1503672Y236667D01*
X1503671Y236676D02*
X1503672Y236672D01*
X1503671Y236680D02*
X1503671Y236676D01*
X1503671Y236685D02*
X1503671Y236680D01*
X1503670Y236689D02*
X1503671Y236685D01*
X1503670Y236694D02*
X1503670Y236689D01*
X1503670Y236698D02*
X1503670Y236694D01*
X1503669Y236703D02*
X1503670Y236698D01*
X1503669Y236708D02*
X1503669Y236703D01*
X1503669Y236712D02*
X1503669Y236708D01*
X1503669Y236717D02*
X1503669Y236712D01*
X1503668Y236722D02*
X1503669Y236717D01*
X1503668Y236726D02*
X1503668Y236722D01*
X1503668Y236731D02*
X1503668Y236726D01*
X1503667Y236736D02*
X1503668Y236731D01*
X1503667Y236741D02*
X1503667Y236736D01*
X1503667Y236745D02*
X1503667Y236741D01*
X1503666Y236750D02*
X1503667Y236745D01*
X1503666Y236755D02*
X1503666Y236750D01*
X1503666Y236760D02*
X1503666Y236755D01*
X1503665Y236765D02*
X1503666Y236760D01*
X1503665Y236769D02*
X1503665Y236765D01*
X1503665Y236774D02*
X1503665Y236769D01*
X1503665Y236779D02*
X1503665Y236774D01*
X1503664Y236783D02*
X1503665Y236779D01*
X1503664Y236788D02*
X1503664Y236783D01*
X1503664Y236792D02*
X1503664Y236788D01*
X1503663Y236797D02*
X1503664Y236792D01*
X1503663Y236801D02*
X1503663Y236797D01*
X1503663Y236806D02*
X1503663Y236801D01*
X1503663Y236810D02*
X1503663Y236806D01*
X1503662Y236815D02*
X1503663Y236810D01*
X1503662Y236819D02*
X1503662Y236815D01*
X1503662Y236824D02*
X1503662Y236819D01*
X1503662Y236828D02*
X1503662Y236824D01*
X1503661Y236833D02*
X1503662Y236828D01*
X1503661Y236837D02*
X1503661Y236833D01*
X1503661Y236841D02*
X1503661Y236837D01*
X1503661Y236845D02*
X1503661Y236841D01*
X1503660Y236850D02*
X1503661Y236845D01*
X1503660Y236854D02*
X1503660Y236850D01*
X1503660Y236858D02*
X1503660Y236854D01*
X1503660Y236862D02*
X1503660Y236858D01*
X1503660Y236867D02*
X1503660Y236862D01*
X1503659Y236871D02*
X1503660Y236867D01*
X1503659Y236875D02*
X1503659Y236871D01*
X1503659Y236879D02*
X1503659Y236875D01*
X1503659Y236883D02*
X1503659Y236879D01*
X1503658Y236887D02*
X1503659Y236883D01*
X1503658Y236891D02*
X1503658Y236887D01*
X1503658Y236895D02*
X1503658Y236891D01*
X1503658Y236899D02*
X1503658Y236895D01*
X1503658Y236903D02*
X1503658Y236899D01*
X1503657Y236908D02*
X1503658Y236903D01*
X1503657Y236912D02*
X1503657Y236908D01*
X1503657Y236915D02*
X1503657Y236912D01*
X1503657Y236919D02*
X1503657Y236915D01*
X1503657Y236923D02*
X1503657Y236919D01*
X1503656Y236927D02*
X1503657Y236923D01*
X1503656Y236931D02*
X1503656Y236927D01*
X1503656Y236935D02*
X1503656Y236931D01*
X1503656Y236939D02*
X1503656Y236935D01*
X1503656Y236943D02*
X1503656Y236939D01*
X1503655Y236947D02*
X1503656Y236943D01*
X1503655Y236951D02*
X1503655Y236947D01*
X1503655Y236955D02*
X1503655Y236951D01*
X1503655Y236958D02*
X1503655Y236955D01*
X1503655Y236962D02*
X1503655Y236958D01*
X1503654Y236966D02*
X1503655Y236962D01*
X1503654Y236970D02*
X1503654Y236966D01*
X1503654Y236974D02*
X1503654Y236970D01*
X1503654Y236978D02*
X1503654Y236974D01*
X1503654Y236981D02*
X1503654Y236978D01*
X1503654Y236985D02*
X1503654Y236981D01*
X1503654Y236989D02*
X1503654Y236985D01*
X1503653Y236993D02*
X1503654Y236989D01*
X1503653Y236996D02*
X1503653Y236993D01*
X1503653Y237000D02*
X1503653Y236996D01*
X1503653Y237004D02*
X1503653Y237000D01*
X1503653Y237008D02*
X1503653Y237004D01*
X1503652Y237012D02*
X1503653Y237008D01*
X1503652Y237015D02*
X1503652Y237012D01*
X1503652Y237019D02*
X1503652Y237015D01*
X1503652Y237023D02*
X1503652Y237019D01*
X1503652Y237027D02*
X1503652Y237023D01*
X1503652Y237030D02*
X1503652Y237027D01*
X1503651Y237034D02*
X1503652Y237030D01*
X1503651Y237038D02*
X1503651Y237034D01*
X1503651Y237041D02*
X1503651Y237038D01*
X1503651Y237045D02*
X1503651Y237041D01*
X1503651Y237049D02*
X1503651Y237045D01*
X1503651Y237053D02*
X1503651Y237049D01*
X1503651Y237056D02*
X1503651Y237053D01*
X1503650Y237060D02*
X1503651Y237056D01*
X1503650Y237064D02*
X1503650Y237060D01*
X1503650Y237068D02*
X1503650Y237064D01*
X1503650Y237071D02*
X1503650Y237068D01*
X1503650Y237075D02*
X1503650Y237071D01*
X1503649Y237079D02*
X1503650Y237075D01*
X1503649Y237083D02*
X1503649Y237079D01*
X1503649Y237086D02*
X1503649Y237083D01*
X1503649Y237090D02*
X1503649Y237086D01*
X1503649Y237094D02*
X1503649Y237090D01*
X1503649Y237098D02*
X1503649Y237094D01*
X1503649Y237101D02*
X1503649Y237098D01*
X1503648Y237105D02*
X1503649Y237101D01*
X1503648Y237109D02*
X1503648Y237105D01*
X1503648Y237113D02*
X1503648Y237109D01*
X1503648Y237117D02*
X1503648Y237113D01*
X1503648Y237120D02*
X1503648Y237117D01*
X1503647Y237124D02*
X1503648Y237120D01*
X1503647Y237128D02*
X1503647Y237124D01*
X1503647Y237132D02*
X1503647Y237128D01*
X1503647Y237136D02*
X1503647Y237132D01*
X1503647Y237140D02*
X1503647Y237136D01*
X1503647Y237143D02*
X1503647Y237140D01*
X1503647Y237147D02*
X1503647Y237143D01*
X1503646Y237151D02*
X1503647Y237147D01*
X1503646Y237155D02*
X1503646Y237151D01*
X1503646Y237159D02*
X1503646Y237155D01*
X1503646Y237163D02*
X1503646Y237159D01*
X1503646Y237167D02*
X1503646Y237163D01*
X1503645Y237171D02*
X1503646Y237167D01*
X1503645Y237175D02*
X1503645Y237171D01*
X1503645Y237179D02*
X1503645Y237175D01*
X1503645Y237183D02*
X1503645Y237179D01*
X1503645Y237187D02*
X1503645Y237183D01*
X1503645Y237191D02*
X1503645Y237187D01*
X1503644Y237195D02*
X1503645Y237191D01*
X1503644Y237199D02*
X1503644Y237195D01*
X1503644Y237203D02*
X1503644Y237199D01*
X1503644Y237207D02*
X1503644Y237203D01*
X1503644Y237211D02*
X1503644Y237207D01*
X1503644Y237215D02*
X1503644Y237211D01*
X1503643Y237219D02*
X1503644Y237215D01*
X1503643Y237223D02*
X1503643Y237219D01*
X1503643Y237227D02*
X1503643Y237223D01*
X1503643Y237232D02*
X1503643Y237227D01*
X1503643Y237236D02*
X1503643Y237232D01*
X1503642Y237240D02*
X1503643Y237236D01*
X1503642Y237244D02*
X1503642Y237240D01*
X1503642Y237248D02*
X1503642Y237244D01*
X1503642Y237253D02*
X1503642Y237248D01*
X1503642Y237257D02*
X1503642Y237253D01*
X1503642Y237261D02*
X1503642Y237257D01*
X1503641Y237265D02*
X1503642Y237261D01*
X1503641Y237270D02*
X1503641Y237265D01*
X1503641Y237274D02*
X1503641Y237270D01*
X1503641Y237278D02*
X1503641Y237274D01*
X1503641Y237283D02*
X1503641Y237278D01*
X1503640Y237287D02*
X1503641Y237283D01*
X1503640Y237292D02*
X1503640Y237287D01*
X1503640Y237296D02*
X1503640Y237292D01*
X1503640Y237301D02*
X1503640Y237296D01*
X1503640Y237305D02*
X1503640Y237301D01*
X1503640Y237310D02*
X1503640Y237305D01*
X1503639Y237314D02*
X1503640Y237310D01*
X1503639Y237319D02*
X1503639Y237314D01*
X1503639Y237324D02*
X1503639Y237319D01*
X1503639Y237328D02*
X1503639Y237324D01*
X1503639Y237333D02*
X1503639Y237328D01*
X1503638Y237338D02*
X1503639Y237333D01*
X1503638Y237342D02*
X1503638Y237338D01*
X1503638Y237347D02*
X1503638Y237342D01*
X1503638Y237352D02*
X1503638Y237347D01*
X1503638Y237357D02*
X1503638Y237352D01*
X1503637Y237361D02*
X1503638Y237357D01*
X1503637Y237366D02*
X1503637Y237361D01*
X1503637Y237371D02*
X1503637Y237366D01*
X1503637Y237376D02*
X1503637Y237371D01*
X1503637Y237381D02*
X1503637Y237376D01*
X1503636Y237385D02*
X1503637Y237381D01*
X1503636Y237390D02*
X1503636Y237385D01*
X1503636Y237395D02*
X1503636Y237390D01*
X1503636Y237400D02*
X1503636Y237395D01*
X1503636Y237404D02*
X1503636Y237400D01*
X1503636Y237409D02*
X1503636Y237404D01*
X1503635Y237413D02*
X1503636Y237409D01*
X1503635Y237418D02*
X1503635Y237413D01*
X1503635Y237423D02*
X1503635Y237418D01*
X1503635Y237427D02*
X1503635Y237423D01*
X1503634Y237431D02*
X1503635Y237427D01*
X1503634Y237436D02*
X1503634Y237431D01*
X1503634Y237440D02*
X1503634Y237436D01*
X1503634Y237444D02*
X1503634Y237440D01*
X1503634Y237448D02*
X1503634Y237444D01*
X1503634Y237452D02*
X1503634Y237448D01*
X1503634Y237456D02*
X1503634Y237452D01*
X1503633Y237460D02*
X1503634Y237456D01*
X1503633Y237464D02*
X1503633Y237460D01*
X1503633Y237467D02*
X1503633Y237464D01*
X1503633Y237471D02*
X1503633Y237467D01*
X1503633Y237474D02*
X1503633Y237471D01*
X1503633Y237478D02*
X1503633Y237474D01*
X1503633Y237481D02*
X1503633Y237478D01*
X1503632Y237484D02*
X1503633Y237481D01*
X1503632Y237487D02*
X1503632Y237484D01*
X1503632Y237490D02*
X1503632Y237487D01*
X1503632Y237493D02*
X1503632Y237490D01*
X1503632Y237495D02*
X1503632Y237493D01*
X1503632Y237498D02*
X1503632Y237495D01*
X1503632Y237500D02*
X1503632Y237498D01*
X1486047Y231175D02*
X1486051Y231243D01*
X1486053Y231309D01*
X1486056Y231371D01*
X1486059Y231432D01*
X1486062Y231490D01*
X1486064Y231545D01*
X1486066Y231598D01*
X1486069Y231649D01*
X1486071Y231698D01*
X1486073Y231744D01*
X1486075Y231789D01*
X1486077Y231831D01*
X1486079Y231871D01*
X1486080Y231910D01*
X1486082Y231946D01*
X1486084Y231980D01*
X1486085Y232013D01*
X1486086Y232044D01*
X1486088Y232074D01*
X1486089Y232101D01*
X1486090Y232127D01*
X1486091Y232152D01*
X1486092Y232175D01*
X1486093Y232197D01*
X1486094Y232218D01*
X1486095Y232236D01*
X1486096Y232254D01*
X1486096Y232271D01*
X1486097Y232286D01*
X1486098Y232301D01*
X1486098Y232314D01*
X1486099Y232327D01*
X1486099Y232338D01*
X1486100Y232349D01*
X1486100Y232358D01*
X1486100Y232367D01*
X1486101Y232376D01*
X1486101Y232383D01*
X1486101Y232390D01*
X1486102Y232397D01*
X1486102Y232402D01*
X1486102Y232408D01*
X1486102Y232413D01*
X1486102Y232418D01*
X1486103Y232422D01*
X1486103Y232427D01*
X1486103Y232431D01*
X1486103Y232435D01*
X1486103Y232439D01*
X1486103Y232442D01*
X1486103Y232446D01*
X1486104Y232451D01*
X1486104Y232455D01*
X1486104Y232459D01*
X1486104Y232464D01*
X1486104Y232469D01*
X1486104Y232474D01*
X1486105Y232480D01*
X1486105Y232486D01*
X1486105Y232493D01*
X1486105Y232500D01*
X1486106Y232508D01*
X1486106Y232516D01*
X1486107Y232526D01*
X1486107Y232536D01*
X1486107Y232547D01*
X1486108Y232558D01*
X1486109Y232570D01*
X1486109Y232583D01*
X1486110Y232597D01*
X1486110Y232611D01*
X1486111Y232626D01*
X1486112Y232641D01*
X1486112Y232657D01*
X1486113Y232674D01*
X1486114Y232691D01*
X1486115Y232708D01*
X1486115Y232726D01*
X1486116Y232745D01*
X1486117Y232764D01*
X1486118Y232783D01*
X1486119Y232803D01*
X1486120Y232824D01*
X1486121Y232845D01*
X1486122Y232866D01*
X1486122Y232887D01*
X1486123Y232909D01*
X1486124Y232931D01*
X1486125Y232954D01*
X1486126Y232977D01*
X1486127Y233000D01*
X1486128Y233023D01*
X1486129Y233047D01*
X1486131Y233071D01*
X1486132Y233095D01*
X1486133Y233120D01*
X1486134Y233144D01*
X1486135Y233169D01*
X1486136Y233194D01*
X1486137Y233219D01*
X1486138Y233244D01*
X1486139Y233269D01*
X1486140Y233294D01*
X1486142Y233319D01*
X1486143Y233345D01*
X1486144Y233370D01*
X1486145Y233396D01*
X1486146Y233421D01*
X1486147Y233447D01*
X1486148Y233472D01*
X1486149Y233498D01*
X1486150Y233523D01*
X1486151Y233548D01*
X1486152Y233573D01*
X1486154Y233598D01*
X1486155Y233623D01*
X1486156Y233647D01*
X1486157Y233672D01*
X1486158Y233696D01*
X1486159Y233720D01*
X1486160Y233744D01*
X1486161Y233768D01*
X1486162Y233791D01*
X1486163Y233814D01*
X1486164Y233837D01*
X1486165Y233860D01*
X1486165Y233882D01*
X1486166Y233904D01*
X1486167Y233926D01*
X1486168Y233948D01*
X1486169Y233969D01*
X1486170Y233990D01*
X1486171Y234012D01*
X1486172Y234033D01*
X1486173Y234053D01*
X1486174Y234074D01*
X1486174Y234095D01*
X1486175Y234115D01*
X1486176Y234135D01*
X1486177Y234156D01*
X1486178Y234176D01*
X1486179Y234196D01*
X1486179Y234216D01*
X1486180Y234236D01*
X1486181Y234256D01*
X1486182Y234275D01*
X1486183Y234295D01*
X1486184Y234315D01*
X1486185Y234335D01*
X1486185Y234355D01*
X1486186Y234375D01*
X1486187Y234395D01*
X1486188Y234415D01*
X1486189Y234435D01*
X1486190Y234455D01*
X1486191Y234475D01*
X1486192Y234496D01*
X1486193Y234516D01*
X1486194Y234537D01*
X1486195Y234557D01*
X1486196Y234578D01*
X1486197Y234599D01*
X1486198Y234620D01*
X1486199Y234642D01*
X1486200Y234663D01*
X1486201Y234685D01*
X1486203Y234707D01*
X1486204Y234729D01*
X1486205Y234751D01*
X1486206Y234774D01*
X1486208Y234797D01*
X1486209Y234820D01*
X1486210Y234844D01*
X1486212Y234867D01*
X1486213Y234892D01*
X1486214Y234916D01*
X1486216Y234941D01*
X1486217Y234966D01*
X1486219Y234991D01*
X1486220Y235016D01*
X1486222Y235042D01*
X1486223Y235068D01*
X1486225Y235094D01*
X1486226Y235121D01*
X1486228Y235147D01*
X1486230Y235173D01*
X1486231Y235200D01*
X1486233Y235226D01*
X1486234Y235253D01*
X1486236Y235279D01*
X1486238Y235305D01*
X1486239Y235331D01*
X1486241Y235357D01*
X1486242Y235383D01*
X1486244Y235408D01*
X1486246Y235434D01*
X1486247Y235458D01*
X1486248Y235483D01*
X1486250Y235507D01*
X1486251Y235531D01*
X1486253Y235554D01*
X1486254Y235577D01*
X1486255Y235600D01*
X1486257Y235621D01*
X1486258Y235643D01*
X1486259Y235664D01*
X1486260Y235684D01*
X1486261Y235703D01*
X1486262Y235722D01*
X1486263Y235740D01*
X1486264Y235757D01*
X1486265Y235774D01*
X1486265Y235789D01*
X1486266Y235804D01*
X1486267Y235818D01*
X1486267Y235831D01*
X1486268Y235843D01*
X1486268Y235854D01*
X1486268Y235864D01*
X1486268Y235873D01*
X1486268Y235881D01*
X1486268Y235888D02*
X1486268Y235881D01*
X1486268Y235893D02*
X1486268Y235888D01*
X1486268Y235898D02*
X1486268Y235893D01*
X1486268Y235903D02*
X1486268Y235898D01*
X1486267Y235906D02*
X1486268Y235903D01*
X1486267Y235910D02*
X1486267Y235906D01*
X1486267Y235913D02*
X1486267Y235910D01*
X1486266Y235916D02*
X1486267Y235913D01*
X1486266Y235920D02*
X1486266Y235916D01*
X1486266Y235924D02*
X1486266Y235920D01*
X1486266Y235928D02*
X1486266Y235924D01*
X1486266Y235933D02*
X1486266Y235928D01*
X1486266Y235933D02*
X1486266Y235939D01*
X1486266Y235947D01*
X1486266Y235955D01*
X1486267Y235965D01*
X1486268Y235977D01*
X1486268Y235990D01*
X1486269Y236005D01*
X1486271Y236023D01*
X1486272Y236043D01*
X1486274Y236065D01*
X1486276Y236091D01*
X1486279Y236119D01*
X1486281Y236150D01*
X1486284Y236184D01*
X1486288Y236222D01*
X1486291Y236263D01*
X1486295Y236308D01*
X1486300Y236357D01*
X1486305Y236410D01*
X1486310Y236468D01*
X1486316Y236530D01*
X1486322Y236596D01*
X1503949Y231243D02*
X1503952Y231175D01*
X1503947Y231309D02*
X1503949Y231243D01*
X1503944Y231371D02*
X1503947Y231309D01*
X1503941Y231432D02*
X1503944Y231371D01*
X1503938Y231490D02*
X1503941Y231432D01*
X1503936Y231545D02*
X1503938Y231490D01*
X1503934Y231598D02*
X1503936Y231545D01*
X1503931Y231649D02*
X1503934Y231598D01*
X1503929Y231698D02*
X1503931Y231649D01*
X1503927Y231744D02*
X1503929Y231698D01*
X1503925Y231789D02*
X1503927Y231744D01*
X1503923Y231831D02*
X1503925Y231789D01*
X1503921Y231871D02*
X1503923Y231831D01*
X1503920Y231910D02*
X1503921Y231871D01*
X1503918Y231946D02*
X1503920Y231910D01*
X1503916Y231980D02*
X1503918Y231946D01*
X1503915Y232013D02*
X1503916Y231980D01*
X1503914Y232044D02*
X1503915Y232013D01*
X1503912Y232074D02*
X1503914Y232044D01*
X1503911Y232101D02*
X1503912Y232074D01*
X1503910Y232127D02*
X1503911Y232101D01*
X1503909Y232152D02*
X1503910Y232127D01*
X1503908Y232175D02*
X1503909Y232152D01*
X1503907Y232197D02*
X1503908Y232175D01*
X1503906Y232218D02*
X1503907Y232197D01*
X1503905Y232236D02*
X1503906Y232218D01*
X1503904Y232254D02*
X1503905Y232236D01*
X1503904Y232271D02*
X1503904Y232254D01*
X1503903Y232286D02*
X1503904Y232271D01*
X1503902Y232301D02*
X1503903Y232286D01*
X1503902Y232314D02*
X1503902Y232301D01*
X1503901Y232327D02*
X1503902Y232314D01*
X1503901Y232338D02*
X1503901Y232327D01*
X1503900Y232349D02*
X1503901Y232338D01*
X1503900Y232358D02*
X1503900Y232349D01*
X1503900Y232367D02*
X1503900Y232358D01*
X1503899Y232376D02*
X1503900Y232367D01*
X1503899Y232383D02*
X1503899Y232376D01*
X1503899Y232390D02*
X1503899Y232383D01*
X1503898Y232397D02*
X1503899Y232390D01*
X1503898Y232402D02*
X1503898Y232397D01*
X1503898Y232408D02*
X1503898Y232402D01*
X1503898Y232413D02*
X1503898Y232408D01*
X1503898Y232418D02*
X1503898Y232413D01*
X1503897Y232422D02*
X1503898Y232418D01*
X1503897Y232427D02*
X1503897Y232422D01*
X1503897Y232431D02*
X1503897Y232427D01*
X1503897Y232435D02*
X1503897Y232431D01*
X1503897Y232439D02*
X1503897Y232435D01*
X1503897Y232442D02*
X1503897Y232439D01*
X1503896Y232446D02*
X1503897Y232442D01*
X1503896Y232451D02*
X1503896Y232446D01*
X1503896Y232455D02*
X1503896Y232451D01*
X1503896Y232459D02*
X1503896Y232455D01*
X1503896Y232464D02*
X1503896Y232459D01*
X1503896Y232469D02*
X1503896Y232464D01*
X1503896Y232474D02*
X1503896Y232469D01*
X1503895Y232480D02*
X1503896Y232474D01*
X1503895Y232486D02*
X1503895Y232480D01*
X1503895Y232493D02*
X1503895Y232486D01*
X1503894Y232500D02*
X1503895Y232493D01*
X1503894Y232508D02*
X1503894Y232500D01*
X1503894Y232516D02*
X1503894Y232508D01*
X1503893Y232526D02*
X1503894Y232516D01*
X1503893Y232536D02*
X1503893Y232526D01*
X1503892Y232547D02*
X1503893Y232536D01*
X1503892Y232558D02*
X1503892Y232547D01*
X1503891Y232570D02*
X1503892Y232558D01*
X1503891Y232583D02*
X1503891Y232570D01*
X1503890Y232597D02*
X1503891Y232583D01*
X1503890Y232611D02*
X1503890Y232597D01*
X1503889Y232626D02*
X1503890Y232611D01*
X1503888Y232641D02*
X1503889Y232626D01*
X1503888Y232657D02*
X1503888Y232641D01*
X1503887Y232674D02*
X1503888Y232657D01*
X1503886Y232691D02*
X1503887Y232674D01*
X1503885Y232708D02*
X1503886Y232691D01*
X1503885Y232726D02*
X1503885Y232708D01*
X1503884Y232745D02*
X1503885Y232726D01*
X1503883Y232764D02*
X1503884Y232745D01*
X1503882Y232783D02*
X1503883Y232764D01*
X1503881Y232803D02*
X1503882Y232783D01*
X1503880Y232824D02*
X1503881Y232803D01*
X1503879Y232845D02*
X1503880Y232824D01*
X1503878Y232866D02*
X1503879Y232845D01*
X1503878Y232887D02*
X1503878Y232866D01*
X1503876Y232909D02*
X1503878Y232887D01*
X1503876Y232931D02*
X1503876Y232909D01*
X1503875Y232954D02*
X1503876Y232931D01*
X1503873Y232977D02*
X1503875Y232954D01*
X1503873Y233000D02*
X1503873Y232977D01*
X1503871Y233023D02*
X1503873Y233000D01*
X1503870Y233047D02*
X1503871Y233023D01*
X1503869Y233071D02*
X1503870Y233047D01*
X1503868Y233095D02*
X1503869Y233071D01*
X1503867Y233120D02*
X1503868Y233095D01*
X1503866Y233144D02*
X1503867Y233120D01*
X1503865Y233169D02*
X1503866Y233144D01*
X1503864Y233194D02*
X1503865Y233169D01*
X1503863Y233219D02*
X1503864Y233194D01*
X1503862Y233244D02*
X1503863Y233219D01*
X1503861Y233269D02*
X1503862Y233244D01*
X1503860Y233294D02*
X1503861Y233269D01*
X1503858Y233319D02*
X1503860Y233294D01*
X1503857Y233345D02*
X1503858Y233319D01*
X1503856Y233370D02*
X1503857Y233345D01*
X1503855Y233396D02*
X1503856Y233370D01*
X1503854Y233421D02*
X1503855Y233396D01*
X1503853Y233447D02*
X1503854Y233421D01*
X1503852Y233472D02*
X1503853Y233447D01*
X1503851Y233498D02*
X1503852Y233472D01*
X1503850Y233523D02*
X1503851Y233498D01*
X1503849Y233548D02*
X1503850Y233523D01*
X1503848Y233573D02*
X1503849Y233548D01*
X1503846Y233598D02*
X1503848Y233573D01*
X1503845Y233623D02*
X1503846Y233598D01*
X1503844Y233647D02*
X1503845Y233623D01*
X1503843Y233672D02*
X1503844Y233647D01*
X1503842Y233696D02*
X1503843Y233672D01*
X1503841Y233720D02*
X1503842Y233696D01*
X1503840Y233744D02*
X1503841Y233720D01*
X1503839Y233768D02*
X1503840Y233744D01*
X1503838Y233791D02*
X1503839Y233768D01*
X1503837Y233814D02*
X1503838Y233791D01*
X1503836Y233837D02*
X1503837Y233814D01*
X1503835Y233860D02*
X1503836Y233837D01*
X1503835Y233882D02*
X1503835Y233860D01*
X1503833Y233904D02*
X1503835Y233882D01*
X1503833Y233926D02*
X1503833Y233904D01*
X1503832Y233948D02*
X1503833Y233926D01*
X1503831Y233969D02*
X1503832Y233948D01*
X1503830Y233990D02*
X1503831Y233969D01*
X1503829Y234012D02*
X1503830Y233990D01*
X1503828Y234033D02*
X1503829Y234012D01*
X1503827Y234053D02*
X1503828Y234033D01*
X1503826Y234074D02*
X1503827Y234053D01*
X1503826Y234095D02*
X1503826Y234074D01*
X1503825Y234115D02*
X1503826Y234095D01*
X1503824Y234135D02*
X1503825Y234115D01*
X1503823Y234156D02*
X1503824Y234135D01*
X1503822Y234176D02*
X1503823Y234156D01*
X1503821Y234196D02*
X1503822Y234176D01*
X1503820Y234216D02*
X1503821Y234196D01*
X1503820Y234236D02*
X1503820Y234216D01*
X1503819Y234256D02*
X1503820Y234236D01*
X1503818Y234275D02*
X1503819Y234256D01*
X1503817Y234295D02*
X1503818Y234275D01*
X1503816Y234315D02*
X1503817Y234295D01*
X1503815Y234335D02*
X1503816Y234315D01*
X1503814Y234355D02*
X1503815Y234335D01*
X1503814Y234375D02*
X1503814Y234355D01*
X1503813Y234395D02*
X1503814Y234375D01*
X1503812Y234415D02*
X1503813Y234395D01*
X1503811Y234435D02*
X1503812Y234415D01*
X1503810Y234455D02*
X1503811Y234435D01*
X1503809Y234475D02*
X1503810Y234455D01*
X1503808Y234496D02*
X1503809Y234475D01*
X1503807Y234516D02*
X1503808Y234496D01*
X1503806Y234537D02*
X1503807Y234516D01*
X1503805Y234557D02*
X1503806Y234537D01*
X1503804Y234578D02*
X1503805Y234557D01*
X1503803Y234599D02*
X1503804Y234578D01*
X1503802Y234620D02*
X1503803Y234599D01*
X1503801Y234642D02*
X1503802Y234620D01*
X1503800Y234663D02*
X1503801Y234642D01*
X1503798Y234685D02*
X1503800Y234663D01*
X1503797Y234707D02*
X1503798Y234685D01*
X1503796Y234729D02*
X1503797Y234707D01*
X1503795Y234751D02*
X1503796Y234729D01*
X1503794Y234774D02*
X1503795Y234751D01*
X1503792Y234797D02*
X1503794Y234774D01*
X1503791Y234820D02*
X1503792Y234797D01*
X1503790Y234844D02*
X1503791Y234820D01*
X1503788Y234867D02*
X1503790Y234844D01*
X1503787Y234892D02*
X1503788Y234867D01*
X1503786Y234916D02*
X1503787Y234892D01*
X1503784Y234941D02*
X1503786Y234916D01*
X1503783Y234966D02*
X1503784Y234941D01*
X1503781Y234991D02*
X1503783Y234966D01*
X1503780Y235016D02*
X1503781Y234991D01*
X1503778Y235042D02*
X1503780Y235016D01*
X1503777Y235068D02*
X1503778Y235042D01*
X1503775Y235094D02*
X1503777Y235068D01*
X1503773Y235121D02*
X1503775Y235094D01*
X1503772Y235147D02*
X1503773Y235121D01*
X1503770Y235173D02*
X1503772Y235147D01*
X1503769Y235200D02*
X1503770Y235173D01*
X1503767Y235226D02*
X1503769Y235200D01*
X1503766Y235253D02*
X1503767Y235226D01*
X1503764Y235279D02*
X1503766Y235253D01*
X1503762Y235305D02*
X1503764Y235279D01*
X1503761Y235331D02*
X1503762Y235305D01*
X1503759Y235357D02*
X1503761Y235331D01*
X1503757Y235383D02*
X1503759Y235357D01*
X1503756Y235408D02*
X1503757Y235383D01*
X1503754Y235434D02*
X1503756Y235408D01*
X1503753Y235458D02*
X1503754Y235434D01*
X1503752Y235483D02*
X1503753Y235458D01*
X1503750Y235507D02*
X1503752Y235483D01*
X1503749Y235531D02*
X1503750Y235507D01*
X1503747Y235554D02*
X1503749Y235531D01*
X1503746Y235577D02*
X1503747Y235554D01*
X1503745Y235600D02*
X1503746Y235577D01*
X1503743Y235621D02*
X1503745Y235600D01*
X1503742Y235643D02*
X1503743Y235621D01*
X1503741Y235664D02*
X1503742Y235643D01*
X1503740Y235684D02*
X1503741Y235664D01*
X1503739Y235703D02*
X1503740Y235684D01*
X1503738Y235722D02*
X1503739Y235703D01*
X1503737Y235740D02*
X1503738Y235722D01*
X1503736Y235757D02*
X1503737Y235740D01*
X1503735Y235774D02*
X1503736Y235757D01*
X1503735Y235789D02*
X1503735Y235774D01*
X1503734Y235804D02*
X1503735Y235789D01*
X1503733Y235818D02*
X1503734Y235804D01*
X1503733Y235831D02*
X1503733Y235818D01*
X1503732Y235843D02*
X1503733Y235831D01*
X1503732Y235854D02*
X1503732Y235843D01*
X1503732Y235864D02*
X1503732Y235854D01*
X1503732Y235873D02*
X1503732Y235864D01*
X1503732Y235881D02*
X1503732Y235873D01*
X1503732Y235881D02*
X1503732Y235888D01*
X1503732Y235893D01*
X1503732Y235898D01*
X1503732Y235903D01*
X1503733Y235906D01*
X1503733Y235910D01*
X1503733Y235913D01*
X1503734Y235916D01*
X1503734Y235920D01*
X1503734Y235924D01*
X1503734Y235928D01*
X1503734Y235933D01*
X1503734Y235939D02*
X1503734Y235933D01*
X1503734Y235947D02*
X1503734Y235939D01*
X1503734Y235955D02*
X1503734Y235947D01*
X1503733Y235965D02*
X1503734Y235955D01*
X1503732Y235977D02*
X1503733Y235965D01*
X1503732Y235990D02*
X1503732Y235977D01*
X1503730Y236005D02*
X1503732Y235990D01*
X1503729Y236023D02*
X1503730Y236005D01*
X1503728Y236043D02*
X1503729Y236023D01*
X1503726Y236065D02*
X1503728Y236043D01*
X1503724Y236091D02*
X1503726Y236065D01*
X1503721Y236119D02*
X1503724Y236091D01*
X1503719Y236150D02*
X1503721Y236119D01*
X1503716Y236184D02*
X1503719Y236150D01*
X1503712Y236222D02*
X1503716Y236184D01*
X1503709Y236263D02*
X1503712Y236222D01*
X1503705Y236308D02*
X1503709Y236263D01*
X1503700Y236357D02*
X1503705Y236308D01*
X1503695Y236410D02*
X1503700Y236357D01*
X1503690Y236468D02*
X1503695Y236410D01*
X1503684Y236530D02*
X1503690Y236468D01*
X1503678Y236596D02*
X1503684Y236530D01*
X1503580Y238470D02*
X1503586Y238403D01*
X1503574Y238532D02*
X1503580Y238470D01*
X1503568Y238590D02*
X1503574Y238532D01*
X1503563Y238643D02*
X1503568Y238590D01*
X1503559Y238692D02*
X1503563Y238643D01*
X1503555Y238737D02*
X1503559Y238692D01*
X1503551Y238778D02*
X1503555Y238737D01*
X1503548Y238816D02*
X1503551Y238778D01*
X1503545Y238850D02*
X1503548Y238816D01*
X1503542Y238881D02*
X1503545Y238850D01*
X1503540Y238909D02*
X1503542Y238881D01*
X1503538Y238935D02*
X1503540Y238909D01*
X1503536Y238957D02*
X1503538Y238935D01*
X1503534Y238977D02*
X1503536Y238957D01*
X1503533Y238995D02*
X1503534Y238977D01*
X1503532Y239010D02*
X1503533Y238995D01*
X1503531Y239023D02*
X1503532Y239010D01*
X1503530Y239035D02*
X1503531Y239023D01*
X1503530Y239045D02*
X1503530Y239035D01*
X1503530Y239053D02*
X1503530Y239045D01*
X1503530Y239061D02*
X1503530Y239053D01*
X1503529Y239067D02*
X1503530Y239061D01*
X1503529Y239067D02*
X1503530Y239072D01*
X1503530Y239076D01*
X1503530Y239080D01*
X1503530Y239084D01*
X1503530Y239087D01*
X1503531Y239090D01*
X1503531Y239094D01*
X1503531Y239097D01*
X1503531Y239102D01*
X1503532Y239107D01*
X1503532Y239112D01*
X1503532Y239119D01*
X1503532Y239127D02*
X1503532Y239119D01*
X1503532Y239136D02*
X1503532Y239127D01*
X1503531Y239146D02*
X1503532Y239136D01*
X1503531Y239157D02*
X1503531Y239146D01*
X1503531Y239169D02*
X1503531Y239157D01*
X1503530Y239182D02*
X1503531Y239169D01*
X1503530Y239196D02*
X1503530Y239182D01*
X1503529Y239211D02*
X1503530Y239196D01*
X1503528Y239226D02*
X1503529Y239211D01*
X1503527Y239243D02*
X1503528Y239226D01*
X1503527Y239260D02*
X1503527Y239243D01*
X1503526Y239278D02*
X1503527Y239260D01*
X1503525Y239297D02*
X1503526Y239278D01*
X1503524Y239316D02*
X1503525Y239297D01*
X1503522Y239336D02*
X1503524Y239316D01*
X1503521Y239357D02*
X1503522Y239336D01*
X1503520Y239378D02*
X1503521Y239357D01*
X1503519Y239400D02*
X1503520Y239378D01*
X1503518Y239423D02*
X1503519Y239400D01*
X1503516Y239446D02*
X1503518Y239423D01*
X1503515Y239469D02*
X1503516Y239446D01*
X1503513Y239493D02*
X1503515Y239469D01*
X1503512Y239517D02*
X1503513Y239493D01*
X1503511Y239541D02*
X1503512Y239517D01*
X1503509Y239566D02*
X1503511Y239541D01*
X1503508Y239592D02*
X1503509Y239566D01*
X1503506Y239617D02*
X1503508Y239592D01*
X1503504Y239643D02*
X1503506Y239617D01*
X1503503Y239669D02*
X1503504Y239643D01*
X1503501Y239695D02*
X1503503Y239669D01*
X1503500Y239721D02*
X1503501Y239695D01*
X1503498Y239747D02*
X1503500Y239721D01*
X1503496Y239774D02*
X1503498Y239747D01*
X1503495Y239800D02*
X1503496Y239774D01*
X1503493Y239827D02*
X1503495Y239800D01*
X1503492Y239853D02*
X1503493Y239827D01*
X1503490Y239879D02*
X1503492Y239853D01*
X1503488Y239906D02*
X1503490Y239879D01*
X1503487Y239932D02*
X1503488Y239906D01*
X1503485Y239958D02*
X1503487Y239932D01*
X1503484Y239983D02*
X1503485Y239958D01*
X1503482Y240009D02*
X1503484Y239983D01*
X1503481Y240034D02*
X1503482Y240009D01*
X1503479Y240059D02*
X1503481Y240034D01*
X1503478Y240084D02*
X1503479Y240059D01*
X1503476Y240108D02*
X1503478Y240084D01*
X1503475Y240132D02*
X1503476Y240108D01*
X1503474Y240156D02*
X1503475Y240132D01*
X1503472Y240180D02*
X1503474Y240156D01*
X1503471Y240203D02*
X1503472Y240180D01*
X1503470Y240226D02*
X1503471Y240203D01*
X1503469Y240248D02*
X1503470Y240226D01*
X1503467Y240271D02*
X1503469Y240248D01*
X1503466Y240293D02*
X1503467Y240271D01*
X1503465Y240315D02*
X1503466Y240293D01*
X1503464Y240336D02*
X1503465Y240315D01*
X1503463Y240358D02*
X1503464Y240336D01*
X1503462Y240379D02*
X1503463Y240358D01*
X1503461Y240401D02*
X1503462Y240379D01*
X1503460Y240422D02*
X1503461Y240401D01*
X1503459Y240442D02*
X1503460Y240422D01*
X1503458Y240463D02*
X1503459Y240442D01*
X1503457Y240484D02*
X1503458Y240463D01*
X1503456Y240504D02*
X1503457Y240484D01*
X1503455Y240525D02*
X1503456Y240504D01*
X1503454Y240545D02*
X1503455Y240525D01*
X1503453Y240565D02*
X1503454Y240545D01*
X1503452Y240585D02*
X1503453Y240565D01*
X1503451Y240605D02*
X1503452Y240585D01*
X1503450Y240625D02*
X1503451Y240605D01*
X1503449Y240645D02*
X1503450Y240625D01*
X1503448Y240665D02*
X1503449Y240645D01*
X1503447Y240685D02*
X1503448Y240665D01*
X1503446Y240704D02*
X1503447Y240685D01*
X1503446Y240724D02*
X1503446Y240704D01*
X1503445Y240744D02*
X1503446Y240724D01*
X1503444Y240764D02*
X1503445Y240744D01*
X1503443Y240784D02*
X1503444Y240764D01*
X1503442Y240804D02*
X1503443Y240784D01*
X1503441Y240824D02*
X1503442Y240804D01*
X1503441Y240844D02*
X1503441Y240824D01*
X1503440Y240865D02*
X1503441Y240844D01*
X1503439Y240885D02*
X1503440Y240865D01*
X1503438Y240905D02*
X1503439Y240885D01*
X1503437Y240926D02*
X1503438Y240905D01*
X1503436Y240947D02*
X1503437Y240926D01*
X1503435Y240967D02*
X1503436Y240947D01*
X1503434Y240988D02*
X1503435Y240967D01*
X1503434Y241009D02*
X1503434Y240988D01*
X1503433Y241031D02*
X1503434Y241009D01*
X1503432Y241052D02*
X1503433Y241031D01*
X1503431Y241074D02*
X1503432Y241052D01*
X1503430Y241096D02*
X1503431Y241074D01*
X1503429Y241118D02*
X1503430Y241096D01*
X1503428Y241140D02*
X1503429Y241118D01*
X1503427Y241163D02*
X1503428Y241140D01*
X1503426Y241186D02*
X1503427Y241163D01*
X1503425Y241209D02*
X1503426Y241186D01*
X1503424Y241232D02*
X1503425Y241209D01*
X1503423Y241256D02*
X1503424Y241232D01*
X1503422Y241280D02*
X1503423Y241256D01*
X1503421Y241304D02*
X1503422Y241280D01*
X1503420Y241328D02*
X1503421Y241304D01*
X1503419Y241352D02*
X1503420Y241328D01*
X1503418Y241377D02*
X1503419Y241352D01*
X1503417Y241402D02*
X1503418Y241377D01*
X1503416Y241427D02*
X1503417Y241402D01*
X1503415Y241452D02*
X1503416Y241427D01*
X1503414Y241477D02*
X1503415Y241452D01*
X1503413Y241502D02*
X1503414Y241477D01*
X1503412Y241528D02*
X1503413Y241502D01*
X1503411Y241553D02*
X1503412Y241528D01*
X1503409Y241579D02*
X1503411Y241553D01*
X1503408Y241604D02*
X1503409Y241579D01*
X1503407Y241629D02*
X1503408Y241604D01*
X1503406Y241655D02*
X1503407Y241629D01*
X1503405Y241680D02*
X1503406Y241655D01*
X1503404Y241706D02*
X1503405Y241680D01*
X1503403Y241731D02*
X1503404Y241706D01*
X1503402Y241756D02*
X1503403Y241731D01*
X1503401Y241781D02*
X1503402Y241756D01*
X1503400Y241806D02*
X1503401Y241781D01*
X1503398Y241831D02*
X1503400Y241806D01*
X1503397Y241856D02*
X1503398Y241831D01*
X1503396Y241880D02*
X1503397Y241856D01*
X1503395Y241905D02*
X1503396Y241880D01*
X1503394Y241929D02*
X1503395Y241905D01*
X1503393Y241953D02*
X1503394Y241929D01*
X1503392Y241976D02*
X1503393Y241953D01*
X1503391Y242000D02*
X1503392Y241976D01*
X1503390Y242023D02*
X1503391Y242000D01*
X1503389Y242046D02*
X1503390Y242023D01*
X1503388Y242069D02*
X1503389Y242046D01*
X1503387Y242091D02*
X1503388Y242069D01*
X1503386Y242113D02*
X1503387Y242091D01*
X1503385Y242134D02*
X1503386Y242113D01*
X1503384Y242155D02*
X1503385Y242134D01*
X1503383Y242176D02*
X1503384Y242155D01*
X1503382Y242197D02*
X1503383Y242176D01*
X1503382Y242216D02*
X1503382Y242197D01*
X1503381Y242236D02*
X1503382Y242216D01*
X1503380Y242255D02*
X1503381Y242236D01*
X1503379Y242274D02*
X1503380Y242255D01*
X1503378Y242292D02*
X1503379Y242274D01*
X1503377Y242309D02*
X1503378Y242292D01*
X1503377Y242326D02*
X1503377Y242309D01*
X1503376Y242343D02*
X1503377Y242326D01*
X1503375Y242359D02*
X1503376Y242343D01*
X1503375Y242374D02*
X1503375Y242359D01*
X1503374Y242389D02*
X1503375Y242374D01*
X1503373Y242403D02*
X1503374Y242389D01*
X1503373Y242416D02*
X1503373Y242403D01*
X1503372Y242429D02*
X1503373Y242416D01*
X1503372Y242442D02*
X1503372Y242429D01*
X1503371Y242453D02*
X1503372Y242442D01*
X1503371Y242464D02*
X1503371Y242453D01*
X1503370Y242474D02*
X1503371Y242464D01*
X1503370Y242483D02*
X1503370Y242474D01*
X1503369Y242492D02*
X1503370Y242483D01*
X1503369Y242500D02*
X1503369Y242492D01*
X1503369Y242507D02*
X1503369Y242500D01*
X1503369Y242514D02*
X1503369Y242507D01*
X1503368Y242520D02*
X1503369Y242514D01*
X1503368Y242526D02*
X1503368Y242520D01*
X1503368Y242531D02*
X1503368Y242526D01*
X1503368Y242536D02*
X1503368Y242531D01*
X1503367Y242541D02*
X1503368Y242536D01*
X1503367Y242545D02*
X1503367Y242541D01*
X1503367Y242549D02*
X1503367Y242545D01*
X1503367Y242554D02*
X1503367Y242549D01*
X1503367Y242557D02*
X1503367Y242554D01*
X1503367Y242561D02*
X1503367Y242557D01*
X1503367Y242565D02*
X1503367Y242561D01*
X1503367Y242569D02*
X1503367Y242565D01*
X1503366Y242573D02*
X1503367Y242569D01*
X1503366Y242577D02*
X1503366Y242573D01*
X1503366Y242582D02*
X1503366Y242577D01*
X1503366Y242587D02*
X1503366Y242582D01*
X1503366Y242592D02*
X1503366Y242587D01*
X1503365Y242597D02*
X1503366Y242592D01*
X1503365Y242603D02*
X1503365Y242597D01*
X1503365Y242610D02*
X1503365Y242603D01*
X1503365Y242617D02*
X1503365Y242610D01*
X1503364Y242624D02*
X1503365Y242617D01*
X1503364Y242633D02*
X1503364Y242624D01*
X1503364Y242642D02*
X1503364Y242633D01*
X1503363Y242651D02*
X1503364Y242642D01*
X1503363Y242662D02*
X1503363Y242651D01*
X1503362Y242673D02*
X1503363Y242662D01*
X1503362Y242686D02*
X1503362Y242673D01*
X1503361Y242699D02*
X1503362Y242686D01*
X1503361Y242714D02*
X1503361Y242699D01*
X1503360Y242729D02*
X1503361Y242714D01*
X1503359Y242746D02*
X1503360Y242729D01*
X1503358Y242763D02*
X1503359Y242746D01*
X1503358Y242782D02*
X1503358Y242763D01*
X1503357Y242803D02*
X1503358Y242782D01*
X1503356Y242825D02*
X1503357Y242803D01*
X1503355Y242848D02*
X1503356Y242825D01*
X1503354Y242872D02*
X1503355Y242848D01*
X1503353Y242899D02*
X1503354Y242872D01*
X1503351Y242926D02*
X1503353Y242899D01*
X1503350Y242956D02*
X1503351Y242926D01*
X1503349Y242987D02*
X1503350Y242956D01*
X1503347Y243019D02*
X1503349Y242987D01*
X1503346Y243054D02*
X1503347Y243019D01*
X1503344Y243090D02*
X1503346Y243054D01*
X1503342Y243129D02*
X1503344Y243090D01*
X1503340Y243169D02*
X1503342Y243129D01*
X1503339Y243211D02*
X1503340Y243169D01*
X1503337Y243256D02*
X1503339Y243211D01*
X1503335Y243302D02*
X1503337Y243256D01*
X1503332Y243351D02*
X1503335Y243302D01*
X1503330Y243402D02*
X1503332Y243351D01*
X1503328Y243455D02*
X1503330Y243402D01*
X1503325Y243510D02*
X1503328Y243455D01*
X1503323Y243568D02*
X1503325Y243510D01*
X1503320Y243628D02*
X1503323Y243568D01*
X1503317Y243691D02*
X1503320Y243628D01*
X1503314Y243757D02*
X1503317Y243691D01*
X1503311Y243825D02*
X1503314Y243757D01*
X1503632Y237502D02*
X1503632Y237500D01*
X1503632Y237505D02*
X1503632Y237502D01*
X1503631Y237507D02*
X1503632Y237505D01*
X1503631Y237510D02*
X1503631Y237507D01*
X1503631Y237513D02*
X1503631Y237510D01*
X1503631Y237516D02*
X1503631Y237513D01*
X1503631Y237519D02*
X1503631Y237516D01*
X1503631Y237522D02*
X1503631Y237519D01*
X1503631Y237526D02*
X1503631Y237522D01*
X1503631Y237529D02*
X1503631Y237526D01*
X1503630Y237533D02*
X1503631Y237529D01*
X1503630Y237536D02*
X1503630Y237533D01*
X1503630Y237540D02*
X1503630Y237536D01*
X1503630Y237544D02*
X1503630Y237540D01*
X1503630Y237548D02*
X1503630Y237544D01*
X1503630Y237552D02*
X1503630Y237548D01*
X1503629Y237556D02*
X1503630Y237552D01*
X1503629Y237560D02*
X1503629Y237556D01*
X1503629Y237564D02*
X1503629Y237560D01*
X1503629Y237569D02*
X1503629Y237564D01*
X1503629Y237573D02*
X1503629Y237569D01*
X1503629Y237578D02*
X1503629Y237573D01*
X1503628Y237582D02*
X1503629Y237578D01*
X1503628Y237587D02*
X1503628Y237582D01*
X1503628Y237591D02*
X1503628Y237587D01*
X1503628Y237596D02*
X1503628Y237591D01*
X1503628Y237600D02*
X1503628Y237596D01*
X1503627Y237605D02*
X1503628Y237600D01*
X1503627Y237610D02*
X1503627Y237605D01*
X1503627Y237615D02*
X1503627Y237610D01*
X1503627Y237619D02*
X1503627Y237615D01*
X1503627Y237624D02*
X1503627Y237619D01*
X1503627Y237629D02*
X1503627Y237624D01*
X1503626Y237634D02*
X1503627Y237629D01*
X1503626Y237639D02*
X1503626Y237634D01*
X1503626Y237643D02*
X1503626Y237639D01*
X1503626Y237648D02*
X1503626Y237643D01*
X1503625Y237653D02*
X1503626Y237648D01*
X1503625Y237658D02*
X1503625Y237653D01*
X1503625Y237662D02*
X1503625Y237658D01*
X1503625Y237667D02*
X1503625Y237662D01*
X1503625Y237672D02*
X1503625Y237667D01*
X1503625Y237676D02*
X1503625Y237672D01*
X1503624Y237681D02*
X1503625Y237676D01*
X1503624Y237686D02*
X1503624Y237681D01*
X1503624Y237690D02*
X1503624Y237686D01*
X1503624Y237695D02*
X1503624Y237690D01*
X1503624Y237699D02*
X1503624Y237695D01*
X1503623Y237704D02*
X1503624Y237699D01*
X1503623Y237708D02*
X1503623Y237704D01*
X1503623Y237713D02*
X1503623Y237708D01*
X1503623Y237717D02*
X1503623Y237713D01*
X1503623Y237722D02*
X1503623Y237717D01*
X1503622Y237726D02*
X1503623Y237722D01*
X1503622Y237730D02*
X1503622Y237726D01*
X1503622Y237735D02*
X1503622Y237730D01*
X1503622Y237739D02*
X1503622Y237735D01*
X1503622Y237743D02*
X1503622Y237739D01*
X1503622Y237747D02*
X1503622Y237743D01*
X1503621Y237752D02*
X1503622Y237747D01*
X1503621Y237756D02*
X1503621Y237752D01*
X1503621Y237760D02*
X1503621Y237756D01*
X1503621Y237764D02*
X1503621Y237760D01*
X1503621Y237768D02*
X1503621Y237764D01*
X1503620Y237773D02*
X1503621Y237768D01*
X1503620Y237777D02*
X1503620Y237773D01*
X1503620Y237781D02*
X1503620Y237777D01*
X1503620Y237785D02*
X1503620Y237781D01*
X1503620Y237789D02*
X1503620Y237785D01*
X1503620Y237793D02*
X1503620Y237789D01*
X1503619Y237797D02*
X1503620Y237793D01*
X1503619Y237801D02*
X1503619Y237797D01*
X1503619Y237805D02*
X1503619Y237801D01*
X1503619Y237809D02*
X1503619Y237805D01*
X1503619Y237813D02*
X1503619Y237809D01*
X1503619Y237817D02*
X1503619Y237813D01*
X1503618Y237821D02*
X1503619Y237817D01*
X1503618Y237825D02*
X1503618Y237821D01*
X1503618Y237829D02*
X1503618Y237825D01*
X1503618Y237833D02*
X1503618Y237829D01*
X1503618Y237837D02*
X1503618Y237833D01*
X1503618Y237841D02*
X1503618Y237837D01*
X1503617Y237845D02*
X1503618Y237841D01*
X1503617Y237849D02*
X1503617Y237845D01*
X1503617Y237853D02*
X1503617Y237849D01*
X1503617Y237857D02*
X1503617Y237853D01*
X1503617Y237860D02*
X1503617Y237857D01*
X1503616Y237864D02*
X1503617Y237860D01*
X1503616Y237868D02*
X1503616Y237864D01*
X1503616Y237872D02*
X1503616Y237868D01*
X1503616Y237876D02*
X1503616Y237872D01*
X1503616Y237880D02*
X1503616Y237876D01*
X1503616Y237883D02*
X1503616Y237880D01*
X1503616Y237887D02*
X1503616Y237883D01*
X1503615Y237891D02*
X1503616Y237887D01*
X1503615Y237895D02*
X1503615Y237891D01*
X1503615Y237899D02*
X1503615Y237895D01*
X1503615Y237902D02*
X1503615Y237899D01*
X1503615Y237906D02*
X1503615Y237902D01*
X1503615Y237910D02*
X1503615Y237906D01*
X1503614Y237914D02*
X1503615Y237910D01*
X1503614Y237917D02*
X1503614Y237914D01*
X1503614Y237921D02*
X1503614Y237917D01*
X1503614Y237925D02*
X1503614Y237921D01*
X1503614Y237929D02*
X1503614Y237925D01*
X1503613Y237932D02*
X1503614Y237929D01*
X1503613Y237936D02*
X1503613Y237932D01*
X1503613Y237940D02*
X1503613Y237936D01*
X1503613Y237944D02*
X1503613Y237940D01*
X1503613Y237947D02*
X1503613Y237944D01*
X1503613Y237951D02*
X1503613Y237947D01*
X1503613Y237955D02*
X1503613Y237951D01*
X1503612Y237959D02*
X1503613Y237955D01*
X1503612Y237962D02*
X1503612Y237959D01*
X1503612Y237966D02*
X1503612Y237962D01*
X1503612Y237970D02*
X1503612Y237966D01*
X1503612Y237973D02*
X1503612Y237970D01*
X1503611Y237977D02*
X1503612Y237973D01*
X1503611Y237981D02*
X1503611Y237977D01*
X1503611Y237985D02*
X1503611Y237981D01*
X1503611Y237988D02*
X1503611Y237985D01*
X1503611Y237992D02*
X1503611Y237988D01*
X1503611Y237996D02*
X1503611Y237992D01*
X1503611Y238000D02*
X1503611Y237996D01*
X1503610Y238004D02*
X1503611Y238000D01*
X1503610Y238007D02*
X1503610Y238004D01*
X1503610Y238011D02*
X1503610Y238007D01*
X1503610Y238015D02*
X1503610Y238011D01*
X1503610Y238019D02*
X1503610Y238015D01*
X1503609Y238022D02*
X1503610Y238019D01*
X1503609Y238026D02*
X1503609Y238022D01*
X1503609Y238030D02*
X1503609Y238026D01*
X1503609Y238034D02*
X1503609Y238030D01*
X1503609Y238038D02*
X1503609Y238034D01*
X1503609Y238041D02*
X1503609Y238038D01*
X1503608Y238045D02*
X1503609Y238041D01*
X1503608Y238049D02*
X1503608Y238045D01*
X1503608Y238053D02*
X1503608Y238049D01*
X1503608Y238057D02*
X1503608Y238053D01*
X1503608Y238061D02*
X1503608Y238057D01*
X1503607Y238065D02*
X1503608Y238061D01*
X1503607Y238069D02*
X1503607Y238065D01*
X1503607Y238073D02*
X1503607Y238069D01*
X1503607Y238077D02*
X1503607Y238073D01*
X1503607Y238081D02*
X1503607Y238077D01*
X1503607Y238085D02*
X1503607Y238081D01*
X1503606Y238088D02*
X1503607Y238085D01*
X1503606Y238092D02*
X1503606Y238088D01*
X1503606Y238097D02*
X1503606Y238092D01*
X1503606Y238100D02*
X1503606Y238097D01*
X1503606Y238104D02*
X1503606Y238100D01*
X1503605Y238109D02*
X1503606Y238104D01*
X1503605Y238113D02*
X1503605Y238109D01*
X1503605Y238117D02*
X1503605Y238113D01*
X1503605Y238121D02*
X1503605Y238117D01*
X1503604Y238125D02*
X1503605Y238121D01*
X1503604Y238129D02*
X1503604Y238125D01*
X1503604Y238133D02*
X1503604Y238129D01*
X1503604Y238137D02*
X1503604Y238133D01*
X1503604Y238142D02*
X1503604Y238137D01*
X1503603Y238146D02*
X1503604Y238142D01*
X1503603Y238150D02*
X1503603Y238146D01*
X1503603Y238155D02*
X1503603Y238150D01*
X1503603Y238159D02*
X1503603Y238155D01*
X1503602Y238163D02*
X1503603Y238159D01*
X1503602Y238167D02*
X1503602Y238163D01*
X1503602Y238172D02*
X1503602Y238167D01*
X1503602Y238176D02*
X1503602Y238172D01*
X1503601Y238181D02*
X1503602Y238176D01*
X1503601Y238185D02*
X1503601Y238181D01*
X1503601Y238190D02*
X1503601Y238185D01*
X1503601Y238194D02*
X1503601Y238190D01*
X1503600Y238199D02*
X1503601Y238194D01*
X1503600Y238203D02*
X1503600Y238199D01*
X1503600Y238208D02*
X1503600Y238203D01*
X1503600Y238212D02*
X1503600Y238208D01*
X1503599Y238217D02*
X1503600Y238212D01*
X1503599Y238221D02*
X1503599Y238217D01*
X1503599Y238226D02*
X1503599Y238221D01*
X1503598Y238231D02*
X1503599Y238226D01*
X1503598Y238235D02*
X1503598Y238231D01*
X1503598Y238240D02*
X1503598Y238235D01*
X1503598Y238245D02*
X1503598Y238240D01*
X1503597Y238250D02*
X1503598Y238245D01*
X1503597Y238255D02*
X1503597Y238250D01*
X1503597Y238259D02*
X1503597Y238255D01*
X1503596Y238264D02*
X1503597Y238259D01*
X1503596Y238269D02*
X1503596Y238264D01*
X1503596Y238274D02*
X1503596Y238269D01*
X1503595Y238278D02*
X1503596Y238274D01*
X1503595Y238283D02*
X1503595Y238278D01*
X1503595Y238288D02*
X1503595Y238283D01*
X1503594Y238292D02*
X1503595Y238288D01*
X1503594Y238297D02*
X1503594Y238292D01*
X1503594Y238302D02*
X1503594Y238297D01*
X1503593Y238306D02*
X1503594Y238302D01*
X1503593Y238311D02*
X1503593Y238306D01*
X1503593Y238315D02*
X1503593Y238311D01*
X1503592Y238320D02*
X1503593Y238315D01*
X1503592Y238324D02*
X1503592Y238320D01*
X1503592Y238328D02*
X1503592Y238324D01*
X1503591Y238333D02*
X1503592Y238328D01*
X1503591Y238337D02*
X1503591Y238333D01*
X1503591Y238341D02*
X1503591Y238337D01*
X1503591Y238345D02*
X1503591Y238341D01*
X1503590Y238349D02*
X1503591Y238345D01*
X1503590Y238353D02*
X1503590Y238349D01*
X1503590Y238357D02*
X1503590Y238353D01*
X1503589Y238361D02*
X1503590Y238357D01*
X1503589Y238365D02*
X1503589Y238361D01*
X1503589Y238368D02*
X1503589Y238365D01*
X1503589Y238372D02*
X1503589Y238368D01*
X1503588Y238375D02*
X1503589Y238372D01*
X1503588Y238379D02*
X1503588Y238375D01*
X1503588Y238382D02*
X1503588Y238379D01*
X1503587Y238385D02*
X1503588Y238382D01*
X1503587Y238388D02*
X1503587Y238385D01*
X1503587Y238391D02*
X1503587Y238388D01*
X1503587Y238394D02*
X1503587Y238391D01*
X1503587Y238396D02*
X1503587Y238394D01*
X1503586Y238399D02*
X1503587Y238396D01*
X1503586Y238401D02*
X1503586Y238399D01*
X1503586Y238403D02*
X1503586Y238401D01*
X1486414Y238403D02*
X1486420Y238470D01*
X1486426Y238532D01*
X1486432Y238590D01*
X1486436Y238643D01*
X1486441Y238692D01*
X1486445Y238737D01*
X1486449Y238778D01*
X1486452Y238816D01*
X1486455Y238850D01*
X1486458Y238881D01*
X1486460Y238909D01*
X1486462Y238935D01*
X1486464Y238957D01*
X1486466Y238977D01*
X1486467Y238995D01*
X1486468Y239010D01*
X1486469Y239023D01*
X1486470Y239035D01*
X1486470Y239045D01*
X1486470Y239053D01*
X1486470Y239061D01*
X1486471Y239067D01*
X1486470Y239072D02*
X1486471Y239067D01*
X1486470Y239076D02*
X1486470Y239072D01*
X1486470Y239080D02*
X1486470Y239076D01*
X1486470Y239084D02*
X1486470Y239080D01*
X1486470Y239087D02*
X1486470Y239084D01*
X1486469Y239090D02*
X1486470Y239087D01*
X1486469Y239094D02*
X1486469Y239090D01*
X1486469Y239097D02*
X1486469Y239094D01*
X1486469Y239102D02*
X1486469Y239097D01*
X1486468Y239107D02*
X1486469Y239102D01*
X1486468Y239112D02*
X1486468Y239107D01*
X1486468Y239119D02*
X1486468Y239112D01*
X1486468Y239119D02*
X1486468Y239127D01*
X1486468Y239136D01*
X1486469Y239146D01*
X1486469Y239157D01*
X1486469Y239169D01*
X1486470Y239182D01*
X1486470Y239196D01*
X1486471Y239211D01*
X1486472Y239226D01*
X1486472Y239243D01*
X1486473Y239260D01*
X1486474Y239278D01*
X1486475Y239297D01*
X1486476Y239316D01*
X1486477Y239336D01*
X1486479Y239357D01*
X1486480Y239378D01*
X1486481Y239400D01*
X1486482Y239423D01*
X1486484Y239446D01*
X1486485Y239469D01*
X1486487Y239493D01*
X1486488Y239517D01*
X1486489Y239541D01*
X1486491Y239566D01*
X1486492Y239592D01*
X1486494Y239617D01*
X1486496Y239643D01*
X1486497Y239669D01*
X1486499Y239695D01*
X1486500Y239721D01*
X1486502Y239747D01*
X1486503Y239774D01*
X1486505Y239800D01*
X1486507Y239827D01*
X1486508Y239853D01*
X1486510Y239879D01*
X1486512Y239906D01*
X1486513Y239932D01*
X1486515Y239958D01*
X1486516Y239983D01*
X1486518Y240009D01*
X1486519Y240034D01*
X1486521Y240059D01*
X1486522Y240084D01*
X1486523Y240108D01*
X1486525Y240132D01*
X1486526Y240156D01*
X1486528Y240180D01*
X1486529Y240203D01*
X1486530Y240226D01*
X1486531Y240248D01*
X1486532Y240271D01*
X1486534Y240293D01*
X1486535Y240315D01*
X1486536Y240336D01*
X1486537Y240358D01*
X1486538Y240379D01*
X1486539Y240401D01*
X1486540Y240422D01*
X1486541Y240442D01*
X1486542Y240463D01*
X1486543Y240484D01*
X1486544Y240504D01*
X1486545Y240525D01*
X1486546Y240545D01*
X1486547Y240565D01*
X1486548Y240585D01*
X1486549Y240605D01*
X1486550Y240625D01*
X1486551Y240645D01*
X1486552Y240665D01*
X1486553Y240685D01*
X1486553Y240704D01*
X1486554Y240724D01*
X1486555Y240744D01*
X1486556Y240764D01*
X1486557Y240784D01*
X1486558Y240804D01*
X1486559Y240824D01*
X1486559Y240844D01*
X1486560Y240865D01*
X1486561Y240885D01*
X1486562Y240905D01*
X1486563Y240926D01*
X1486564Y240947D01*
X1486565Y240967D01*
X1486566Y240988D01*
X1486566Y241009D01*
X1486567Y241031D01*
X1486568Y241052D01*
X1486569Y241074D01*
X1486570Y241096D01*
X1486571Y241118D01*
X1486572Y241140D01*
X1486573Y241163D01*
X1486574Y241186D01*
X1486575Y241209D01*
X1486576Y241232D01*
X1486577Y241256D01*
X1486578Y241280D01*
X1486579Y241304D01*
X1486580Y241328D01*
X1486581Y241352D01*
X1486582Y241377D01*
X1486583Y241402D01*
X1486584Y241427D01*
X1486585Y241452D01*
X1486586Y241477D01*
X1486587Y241502D01*
X1486588Y241528D01*
X1486589Y241553D01*
X1486591Y241579D01*
X1486592Y241604D01*
X1486593Y241629D01*
X1486594Y241655D01*
X1486595Y241680D01*
X1486596Y241706D01*
X1486597Y241731D01*
X1486598Y241756D01*
X1486599Y241781D01*
X1486600Y241806D01*
X1486602Y241831D01*
X1486603Y241856D01*
X1486604Y241880D01*
X1486605Y241905D01*
X1486606Y241929D01*
X1486607Y241953D01*
X1486608Y241976D01*
X1486609Y242000D01*
X1486610Y242023D01*
X1486611Y242046D01*
X1486612Y242069D01*
X1486613Y242091D01*
X1486614Y242113D01*
X1486615Y242134D01*
X1486616Y242155D01*
X1486617Y242176D01*
X1486618Y242197D01*
X1486618Y242216D01*
X1486619Y242236D01*
X1486620Y242255D01*
X1486621Y242274D01*
X1486622Y242292D01*
X1486623Y242309D01*
X1486623Y242326D01*
X1486624Y242343D01*
X1486625Y242359D01*
X1486625Y242374D01*
X1486626Y242389D01*
X1486627Y242403D01*
X1486627Y242416D01*
X1486628Y242429D01*
X1486628Y242442D01*
X1486629Y242453D01*
X1486629Y242464D01*
X1486630Y242474D01*
X1486630Y242483D01*
X1486631Y242492D01*
X1486631Y242500D01*
X1486631Y242507D01*
X1486631Y242514D01*
X1486632Y242520D01*
X1486632Y242526D01*
X1486632Y242531D01*
X1486632Y242536D01*
X1486632Y242541D01*
X1486633Y242545D01*
X1486633Y242549D01*
X1486633Y242554D01*
X1486633Y242557D01*
X1486633Y242561D01*
X1486633Y242565D01*
X1486633Y242569D01*
X1486634Y242573D01*
X1486634Y242577D01*
X1486634Y242582D01*
X1486634Y242587D01*
X1486634Y242592D01*
X1486635Y242597D01*
X1486635Y242603D01*
X1486635Y242610D01*
X1486635Y242617D01*
X1486636Y242624D01*
X1486636Y242633D01*
X1486636Y242642D01*
X1486637Y242651D01*
X1486637Y242662D01*
X1486638Y242673D01*
X1486638Y242686D01*
X1486639Y242699D01*
X1486639Y242714D01*
X1486640Y242729D01*
X1486641Y242746D01*
X1486642Y242763D01*
X1486642Y242782D01*
X1486643Y242803D01*
X1486644Y242825D01*
X1486645Y242848D01*
X1486646Y242872D01*
X1486647Y242899D01*
X1486649Y242926D01*
X1486650Y242956D01*
X1486651Y242987D01*
X1486653Y243019D01*
X1486654Y243054D01*
X1486656Y243090D01*
X1486658Y243129D01*
X1486659Y243169D01*
X1486661Y243211D01*
X1486663Y243256D01*
X1486665Y243302D01*
X1486668Y243351D01*
X1486670Y243402D01*
X1486672Y243455D01*
X1486675Y243510D01*
X1486677Y243568D01*
X1486680Y243628D01*
X1486683Y243691D01*
X1486686Y243757D01*
X1486689Y243825D01*
X1486368Y237500D02*
X1486368Y237502D01*
X1486368Y237505D01*
X1486369Y237507D01*
X1486369Y237510D01*
X1486369Y237513D01*
X1486369Y237516D01*
X1486369Y237519D01*
X1486369Y237522D01*
X1486369Y237526D01*
X1486369Y237529D01*
X1486369Y237533D01*
X1486370Y237536D01*
X1486370Y237540D01*
X1486370Y237544D01*
X1486370Y237548D01*
X1486370Y237552D01*
X1486371Y237556D01*
X1486371Y237560D01*
X1486371Y237564D01*
X1486371Y237569D01*
X1486371Y237573D01*
X1486371Y237578D01*
X1486372Y237582D01*
X1486372Y237587D01*
X1486372Y237591D01*
X1486372Y237596D01*
X1486372Y237600D01*
X1486373Y237605D01*
X1486373Y237610D01*
X1486373Y237615D01*
X1486373Y237619D01*
X1486373Y237624D01*
X1486373Y237629D01*
X1486374Y237634D01*
X1486374Y237639D01*
X1486374Y237643D01*
X1486374Y237648D01*
X1486374Y237653D01*
X1486375Y237658D01*
X1486375Y237662D01*
X1486375Y237667D01*
X1486375Y237672D01*
X1486375Y237676D01*
X1486376Y237681D01*
X1486376Y237686D01*
X1486376Y237690D01*
X1486376Y237695D01*
X1486376Y237699D01*
X1486377Y237704D01*
X1486377Y237708D01*
X1486377Y237713D01*
X1486377Y237717D01*
X1486377Y237722D01*
X1486378Y237726D01*
X1486378Y237730D01*
X1486378Y237735D01*
X1486378Y237739D01*
X1486378Y237743D01*
X1486378Y237747D01*
X1486379Y237752D01*
X1486379Y237756D01*
X1486379Y237760D01*
X1486379Y237764D01*
X1486379Y237768D01*
X1486380Y237773D01*
X1486380Y237777D01*
X1486380Y237781D01*
X1486380Y237785D01*
X1486380Y237789D01*
X1486380Y237793D01*
X1486380Y237797D01*
X1486381Y237801D01*
X1486381Y237805D01*
X1486381Y237809D01*
X1486381Y237813D01*
X1486381Y237817D01*
X1486382Y237821D01*
X1486382Y237825D01*
X1486382Y237829D01*
X1486382Y237833D01*
X1486382Y237837D01*
X1486382Y237841D01*
X1486383Y237845D01*
X1486383Y237849D01*
X1486383Y237853D01*
X1486383Y237857D01*
X1486383Y237860D01*
X1486383Y237864D01*
X1486384Y237868D01*
X1486384Y237872D01*
X1486384Y237876D01*
X1486384Y237880D01*
X1486384Y237883D01*
X1486384Y237887D01*
X1486385Y237891D01*
X1486385Y237895D01*
X1486385Y237899D01*
X1486385Y237902D01*
X1486385Y237906D01*
X1486385Y237910D01*
X1486386Y237914D01*
X1486386Y237917D01*
X1486386Y237921D01*
X1486386Y237925D01*
X1486386Y237929D01*
X1486386Y237932D01*
X1486387Y237936D01*
X1486387Y237940D01*
X1486387Y237944D01*
X1486387Y237947D01*
X1486387Y237951D01*
X1486387Y237955D01*
X1486388Y237959D01*
X1486388Y237962D01*
X1486388Y237966D01*
X1486388Y237970D01*
X1486388Y237973D01*
X1486388Y237977D01*
X1486389Y237981D01*
X1486389Y237985D01*
X1486389Y237988D01*
X1486389Y237992D01*
X1486389Y237996D01*
X1486389Y238000D01*
X1486390Y238004D01*
X1486390Y238007D01*
X1486390Y238011D01*
X1486390Y238015D01*
X1486390Y238019D01*
X1486390Y238022D01*
X1486391Y238026D01*
X1486391Y238030D01*
X1486391Y238034D01*
X1486391Y238038D01*
X1486391Y238041D01*
X1486391Y238045D01*
X1486392Y238049D01*
X1486392Y238053D01*
X1486392Y238057D01*
X1486392Y238061D01*
X1486392Y238065D01*
X1486393Y238069D01*
X1486393Y238073D01*
X1486393Y238077D01*
X1486393Y238081D01*
X1486393Y238085D01*
X1486394Y238088D01*
X1486394Y238092D01*
X1486394Y238097D01*
X1486394Y238100D01*
X1486394Y238104D01*
X1486395Y238109D01*
X1486395Y238113D01*
X1486395Y238117D01*
X1486395Y238121D01*
X1486396Y238125D01*
X1486396Y238129D01*
X1486396Y238133D01*
X1486396Y238137D01*
X1486396Y238142D01*
X1486397Y238146D01*
X1486397Y238150D01*
X1486397Y238155D01*
X1486397Y238159D01*
X1486398Y238163D01*
X1486398Y238167D01*
X1486398Y238172D01*
X1486398Y238176D01*
X1486398Y238181D01*
X1486399Y238185D01*
X1486399Y238190D01*
X1486399Y238194D01*
X1486400Y238199D01*
X1486400Y238203D01*
X1486400Y238208D01*
X1486400Y238212D01*
X1486401Y238217D01*
X1486401Y238221D01*
X1486401Y238226D01*
X1486402Y238231D01*
X1486402Y238235D01*
X1486402Y238240D01*
X1486402Y238245D01*
X1486403Y238250D01*
X1486403Y238255D01*
X1486403Y238259D01*
X1486404Y238264D01*
X1486404Y238269D01*
X1486404Y238274D01*
X1486405Y238278D01*
X1486405Y238283D01*
X1486405Y238288D01*
X1486406Y238292D01*
X1486406Y238297D01*
X1486406Y238302D01*
X1486407Y238306D01*
X1486407Y238311D01*
X1486407Y238315D01*
X1486407Y238320D01*
X1486408Y238324D01*
X1486408Y238328D01*
X1486409Y238333D01*
X1486409Y238337D01*
X1486409Y238341D01*
X1486409Y238345D01*
X1486410Y238349D01*
X1486410Y238353D01*
X1486410Y238357D01*
X1486411Y238361D01*
X1486411Y238365D01*
X1486411Y238368D01*
X1486411Y238372D01*
X1486412Y238375D01*
X1486412Y238379D01*
X1486412Y238382D01*
X1486412Y238385D01*
X1486413Y238388D01*
X1486413Y238391D01*
X1486413Y238394D01*
X1486413Y238396D01*
X1486414Y238399D01*
X1486414Y238401D01*
X1486414Y238403D01*
X1456500Y244500D02*
Y268500D01*
X1533500Y244500D02*
Y268500D01*
X1516500Y292000D02*
X1526500D01*
X1516500Y285000D02*
X1526500D01*
X708000Y418500D02*
Y463500D01*
X740000Y418500D02*
Y463500D01*
X690500Y358000D02*
X735500D01*
X690500Y390000D02*
X735500D01*
X932000Y316500D02*
Y361500D01*
X964000Y316500D02*
Y361500D01*
X1443750Y363250D02*
X1454750D01*
X542500Y819500D02*
Y830500D01*
X530500Y384500D02*
Y395500D01*
X1630000Y409500D02*
Y420500D01*
X410000Y459500D02*
Y470500D01*
Y591500D02*
Y602500D01*
Y624500D02*
Y635500D01*
Y492500D02*
Y503500D01*
Y525500D02*
Y536500D01*
Y558500D02*
Y569500D01*
X369500Y710000D02*
X380500D01*
X410000Y693929D02*
Y704929D01*
X662500Y767750D02*
X673500D01*
X817000Y995000D02*
X828000D01*
X1084500D02*
X1095500D01*
X844500D02*
X855500D01*
X872000D02*
X883000D01*
X927000D02*
X938000D01*
X899500D02*
X910500D01*
X1162000D02*
X1173000D01*
X1197500Y969500D02*
Y980500D01*
X1499500Y362500D02*
X1510500D01*
X1471500D02*
X1482500D01*
X1581500Y224500D02*
Y235500D01*
X657000Y506500D02*
Y517500D01*
X540000Y719500D02*
Y730500D01*
X642000Y442500D02*
X653000D01*
X942500Y438000D02*
X953500D01*
X475500Y289500D02*
Y300500D01*
X1672000Y416500D02*
Y427500D01*
X408500Y989000D02*
Y1000000D01*
X865000Y819500D02*
Y830500D01*
X789500Y995000D02*
X800500D01*
X762000D02*
X773000D01*
X734500D02*
X745500D01*
X709500D02*
X720500D01*
X684500D02*
X695500D01*
X657000D02*
X668000D01*
X637500Y916000D02*
X648500D01*
X802000Y772500D02*
X813000D01*
X779500D02*
X790500D01*
X967500Y879500D02*
Y890500D01*
X759500Y772500D02*
X770500D01*
X737000Y772500D02*
X748000D01*
X714500Y772500D02*
X725500D01*
X692000Y772500D02*
X703000D01*
X450000Y1044500D02*
Y1055500D01*
X1157200Y838700D02*
X1397200D01*
X1157200Y298700D02*
X1397200D01*
X1397200Y838700D02*
X1397200Y298700D01*
X1157200D02*
X1157200Y838700D01*
X1648309Y716994D02*
X1649452Y717566D01*
X1650023Y719280D01*
Y720422D01*
X1649452Y722136D01*
X1647738Y723279D01*
X1644882Y723850D01*
X1642025D01*
X1639740Y723279D01*
X1638597Y722136D01*
X1638026Y720422D01*
Y719851D01*
X1638597Y718137D01*
X1639740Y716994D01*
X1641454Y716423D01*
X1642025D01*
X1643739Y716994D01*
X1644882Y718137D01*
X1645453Y719851D01*
Y720422D01*
X1644882Y722136D01*
X1643739Y723279D01*
X1642025Y723850D01*
X1625023Y584744D02*
Y590457D01*
X1619882Y591029D01*
X1620453Y590457D01*
X1621024Y588744D01*
Y587030D01*
X1620453Y585316D01*
X1619310Y584173D01*
X1617596Y583602D01*
X1616454D01*
X1614740Y584173D01*
X1613597Y585316D01*
X1613026Y587030D01*
Y588744D01*
X1613597Y590457D01*
X1614169Y591029D01*
X1615311Y591600D01*
X1622738Y733600D02*
X1623309Y732457D01*
X1625023Y730743D01*
X1613026D01*
X1646024Y595173D02*
X1644310Y595744D01*
X1643168Y596887D01*
X1642596Y598601D01*
Y599172D01*
X1643168Y600886D01*
X1644310Y602029D01*
X1646024Y602600D01*
X1646596D01*
X1648309Y602029D01*
X1649452Y600886D01*
X1650023Y599172D01*
Y598601D01*
X1649452Y596887D01*
X1648309Y595744D01*
X1646024Y595173D01*
X1643168D01*
X1640311Y595744D01*
X1638597Y596887D01*
X1638026Y598601D01*
Y599743D01*
X1638597Y601457D01*
X1639740Y602029D01*
X937550Y1069712D02*
X938693Y1070284D01*
X940407Y1071997D01*
Y1060000D01*
X952061Y1071997D02*
X946348Y1063999D01*
X954918D01*
X952061Y1071997D02*
Y1060000D01*
X579122Y1068641D02*
Y1069212D01*
X579693Y1070355D01*
X580264Y1070926D01*
X581407Y1071497D01*
X583692D01*
X584835Y1070926D01*
X585406Y1070355D01*
X585977Y1069212D01*
Y1068070D01*
X585406Y1066927D01*
X584263Y1065213D01*
X578550Y1059500D01*
X586549D01*
X596089Y1071497D02*
X590376D01*
X589805Y1066356D01*
X590376Y1066927D01*
X592090Y1067498D01*
X593804D01*
X595518Y1066927D01*
X596661Y1065784D01*
X597232Y1064070D01*
Y1062928D01*
X596661Y1061214D01*
X595518Y1060071D01*
X593804Y1059500D01*
X592090D01*
X590376Y1060071D01*
X589805Y1060643D01*
X589234Y1061785D01*
X951400Y1044312D02*
X952543Y1044883D01*
X954257Y1046597D01*
Y1034600D01*
D14*
X842052Y547825D02*
G03*
X848148Y547825I3048J0D01*
G01*
X536171Y742300D02*
G03*
X536171Y742300I-1270J0D01*
G01*
X477770Y322500D02*
G03*
X477770Y322500I-1270J0D01*
G01*
X1636130Y329000D02*
G03*
X1636130Y329000I-1270J0D01*
G01*
X880660Y536249D02*
Y547825D01*
X809540Y350975D02*
X880660D01*
Y362551D01*
X809540Y547825D02*
X880660D01*
X809540Y536547D02*
Y547825D01*
Y510849D02*
Y514653D01*
Y434649D02*
Y489551D01*
Y409249D02*
Y413351D01*
Y383849D02*
Y387951D01*
Y350975D02*
Y362551D01*
X880660Y383849D02*
Y514951D01*
X490851Y740764D02*
Y755725D01*
X528951Y740764D02*
Y743025D01*
X490851Y808836D02*
X528951D01*
X490851Y793875D02*
Y808836D01*
Y740764D02*
X528951D01*
Y806575D02*
Y808836D01*
X432450Y320964D02*
Y335925D01*
X470550Y320964D02*
Y323225D01*
X432450Y389036D02*
X470550D01*
X432450Y374076D02*
Y389036D01*
Y320964D02*
X470550D01*
Y386776D02*
Y389036D01*
X1590810Y327464D02*
Y342425D01*
X1628910Y327464D02*
Y329725D01*
X1590810Y395536D02*
X1628910D01*
X1590810Y380575D02*
Y395536D01*
Y327464D02*
X1628910D01*
Y393275D02*
Y395536D01*
D15*
X1682264Y907024D02*
G03*
X1682264Y907024I-1500J0D01*
G01*
D16*
X1183220Y810000D02*
G03*
X1183220Y810000I-7620J0D01*
G01*
D17*
X1485750Y460500D02*
X1490000D01*
X1450250Y429000D02*
X1454250D01*
X1486500D02*
X1489500D01*
X1490500Y433500D02*
X1496500D01*
X1454250Y422500D02*
Y429000D01*
X1455000Y422500D02*
X1480500D01*
X1485000Y427000D01*
X1485750Y421800D02*
Y428500D01*
Y460500D02*
Y467500D01*
X1454250Y461000D02*
Y467500D01*
X1455000D02*
X1485000D01*
X1449450Y460500D02*
X1452000D01*
X1453750D01*
X1454250Y461000D01*
X1171600Y1046000D02*
Y1085000D01*
X1106600Y1046000D02*
Y1085000D01*
X1171600D01*
X1106600Y1046000D02*
X1171600D01*
X230457Y962100D02*
X229980Y963052D01*
X228552Y964481D01*
X238550D01*
X1001800Y269543D02*
X1002752Y270020D01*
X1004180Y271448D01*
Y261450D01*
D18*
X703700Y402000D02*
Y524700D01*
X678300Y402000D02*
X703700D01*
X678300D02*
Y524700D01*
X703700D01*
X482500Y682300D02*
X605200D01*
X482500D02*
Y707700D01*
X605200D01*
Y682300D02*
Y707700D01*
X602300Y362300D02*
Y485000D01*
X627700D01*
Y362300D02*
Y485000D01*
X602300Y362300D02*
X627700D01*
X367300Y282300D02*
X392700D01*
Y405000D01*
X367300D02*
X392700D01*
X367300Y282300D02*
Y405000D01*
X907300Y394800D02*
X932700D01*
Y517500D01*
X907300D02*
X932700D01*
X907300Y394800D02*
Y517500D01*
X1691700Y451300D02*
Y476700D01*
X1569000D02*
X1691700D01*
X1569000Y451300D02*
Y476700D01*
Y451300D02*
X1691700D01*
X507300Y880000D02*
Y1002700D01*
X532700D01*
Y880000D02*
Y1002700D01*
X507300Y880000D02*
X532700D01*
X1476700Y960300D02*
Y985700D01*
X1354000D02*
X1476700D01*
X1354000Y960300D02*
Y985700D01*
Y960300D02*
X1476700D01*
X1320000Y1114800D02*
X1442700D01*
X1320000D02*
Y1140200D01*
X1442700D01*
Y1114800D02*
Y1140200D01*
X940200Y805000D02*
Y927700D01*
X914800Y805000D02*
X940200D01*
X914800D02*
Y927700D01*
X940200D01*
X1172700Y1017300D02*
Y1042700D01*
X1050000D02*
X1172700D01*
X1050000Y1017300D02*
Y1042700D01*
Y1017300D02*
X1172700D01*
X502700Y880000D02*
Y1002700D01*
X477300Y880000D02*
X502700D01*
X477300D02*
Y1002700D01*
X502700D01*
D19*
X971000Y265248D02*
X980997D01*
X975998Y270246D02*
Y260249D01*
X735432Y277470D02*
Y289466D01*
X741430D01*
X743429Y287467D01*
Y283468D01*
X741430Y281469D01*
X735432D01*
X753426Y289466D02*
X749427D01*
X747428Y287467D01*
Y279469D01*
X749427Y277470D01*
X753426D01*
X755425Y279469D01*
Y287467D01*
X753426Y289466D01*
X759424D02*
Y277470D01*
X763423Y281469D01*
X767422Y277470D01*
Y289466D01*
X779418D02*
X771420D01*
Y277470D01*
X779418D01*
X771420Y283468D02*
X775419D01*
X783417Y277470D02*
Y289466D01*
X789415D01*
X791414Y287467D01*
Y283468D01*
X789415Y281469D01*
X783417D01*
X787415D02*
X791414Y277470D01*
X813407Y289466D02*
X809408D01*
X807409Y287467D01*
Y279469D01*
X809408Y277470D01*
X813407D01*
X815406Y279469D01*
Y287467D01*
X813407Y289466D01*
X819405Y277470D02*
Y289466D01*
X827402Y277470D01*
Y289466D01*
X1633000Y821000D02*
Y832996D01*
X1638998D01*
X1640997Y830997D01*
Y826998D01*
X1638998Y824999D01*
X1633000D01*
X1636999D02*
X1640997Y821000D01*
X1652993Y830997D02*
X1650994Y832996D01*
X1646996D01*
X1644996Y830997D01*
Y828997D01*
X1646996Y826998D01*
X1650994D01*
X1652993Y824999D01*
Y822999D01*
X1650994Y821000D01*
X1646996D01*
X1644996Y822999D01*
X1664990Y821000D02*
X1656992D01*
X1664990Y828997D01*
Y830997D01*
X1662990Y832996D01*
X1658992D01*
X1656992Y830997D01*
X1668988D02*
X1670988Y832996D01*
X1674986D01*
X1676986Y830997D01*
Y828997D01*
X1674986Y826998D01*
X1672987D01*
X1674986D01*
X1676986Y824999D01*
Y822999D01*
X1674986Y821000D01*
X1670988D01*
X1668988Y822999D01*
X1688982Y821000D02*
X1680984D01*
X1688982Y828997D01*
Y830997D01*
X1686983Y832996D01*
X1682984D01*
X1680984Y830997D01*
X1337412Y233332D02*
Y223335D01*
X1339411Y221336D01*
X1343410D01*
X1345409Y223335D01*
Y233332D01*
X1349408Y221336D02*
Y229333D01*
X1353407Y233332D01*
X1357406Y229333D01*
Y221336D01*
Y227334D01*
X1349408D01*
X1361404Y221336D02*
Y233332D01*
X1367402D01*
X1369402Y231333D01*
Y227334D01*
X1367402Y225335D01*
X1361404D01*
X1365403D02*
X1369402Y221336D01*
X1373400Y233332D02*
X1381398D01*
X1377399D01*
Y221336D01*
X1397393Y233332D02*
Y223335D01*
X1399392Y221336D01*
X1403391D01*
X1405390Y223335D01*
Y233332D01*
X1417386Y231333D02*
X1415387Y233332D01*
X1411388D01*
X1409389Y231333D01*
Y229333D01*
X1411388Y227334D01*
X1415387D01*
X1417386Y225335D01*
Y223335D01*
X1415387Y221336D01*
X1411388D01*
X1409389Y223335D01*
X1421385Y233332D02*
Y221336D01*
X1427383D01*
X1429382Y223335D01*
Y225335D01*
X1427383Y227334D01*
X1421385D01*
X1427383D01*
X1429382Y229333D01*
Y231333D01*
X1427383Y233332D01*
X1421385D01*
X1164247Y233246D02*
X1156250D01*
Y227248D01*
X1160249Y229247D01*
X1162248D01*
X1164247Y227248D01*
Y223249D01*
X1162248Y221250D01*
X1158249D01*
X1156250Y223249D01*
X1168246Y233246D02*
Y225249D01*
X1172245Y221250D01*
X1176244Y225249D01*
Y233246D01*
X1192238D02*
X1196237D01*
X1194238D01*
Y221250D01*
X1192238D01*
X1196237D01*
X1202235D02*
Y233246D01*
X1210233Y221250D01*
Y233246D01*
X1044000Y1154996D02*
Y1143000D01*
Y1148998D01*
X1051997D01*
Y1154996D01*
Y1143000D01*
X1055996D02*
Y1150997D01*
X1059995Y1154996D01*
X1063994Y1150997D01*
Y1143000D01*
Y1148998D01*
X1055996D01*
X1067992Y1154996D02*
Y1143000D01*
X1075990D01*
X1079988Y1154996D02*
Y1143000D01*
X1087986D01*
X1556868Y1063092D02*
Y1071089D01*
X1560867Y1075088D01*
X1564865Y1071089D01*
Y1063092D01*
Y1069090D01*
X1556868D01*
X1568864Y1075088D02*
Y1063092D01*
X1574862D01*
X1576862Y1065091D01*
Y1073089D01*
X1574862Y1075088D01*
X1568864D01*
X1588858Y1073089D02*
X1586858Y1075088D01*
X1582860D01*
X1580860Y1073089D01*
Y1071089D01*
X1582860Y1069090D01*
X1586858D01*
X1588858Y1067091D01*
Y1065091D01*
X1586858Y1063092D01*
X1582860D01*
X1580860Y1065091D01*
X1592856Y1063092D02*
X1596855D01*
X1594856D01*
Y1075088D01*
X1592856Y1073089D01*
X1610851Y1063092D02*
X1602853D01*
X1610851Y1071089D01*
Y1073089D01*
X1608851Y1075088D01*
X1604852D01*
X1602853Y1073089D01*
X1614849Y1063092D02*
X1618848D01*
X1616849D01*
Y1075088D01*
X1614849Y1073089D01*
X1632843Y1075088D02*
X1628845Y1073089D01*
X1624846Y1069090D01*
Y1065091D01*
X1626845Y1063092D01*
X1630844D01*
X1632843Y1065091D01*
Y1067091D01*
X1630844Y1069090D01*
X1624846D01*
X1648838Y1075088D02*
X1652837D01*
X1650838D01*
Y1063092D01*
X1648838D01*
X1652837D01*
X1658835D02*
Y1075088D01*
X1666832Y1063092D01*
Y1075088D01*
X1670831Y1063092D02*
Y1075088D01*
X1676829D01*
X1678829Y1073089D01*
Y1069090D01*
X1676829Y1067091D01*
X1670831D01*
X1682827Y1075088D02*
Y1065091D01*
X1684827Y1063092D01*
X1688825D01*
X1690825Y1065091D01*
Y1075088D01*
X1694823D02*
X1702821D01*
X1698822D01*
Y1063092D01*
X256134Y1062330D02*
Y1073326D01*
X261632D01*
X263465Y1071494D01*
Y1067828D01*
X261632Y1065995D01*
X256134D01*
X259799D02*
X263465Y1062330D01*
X274461Y1073326D02*
X267131D01*
Y1062330D01*
X274461D01*
X267131Y1067828D02*
X270796D01*
X285458Y1073326D02*
X278127D01*
Y1067828D01*
X281792D01*
X278127D01*
Y1062330D01*
X300120D02*
Y1069661D01*
X303785Y1073326D01*
X307451Y1069661D01*
Y1062330D01*
Y1067828D01*
X300120D01*
X311116Y1073326D02*
Y1062330D01*
X316614D01*
X318447Y1064163D01*
Y1071494D01*
X316614Y1073326D01*
X311116D01*
X329444Y1071494D02*
X327611Y1073326D01*
X323945D01*
X322113Y1071494D01*
Y1069661D01*
X323945Y1067828D01*
X327611D01*
X329444Y1065995D01*
Y1064163D01*
X327611Y1062330D01*
X323945D01*
X322113Y1064163D01*
X333109Y1062330D02*
X336775D01*
X334942D01*
Y1073326D01*
X333109Y1071494D01*
X349604Y1062330D02*
X342273D01*
X349604Y1069661D01*
Y1071494D01*
X347771Y1073326D01*
X344106D01*
X342273Y1071494D01*
X353269Y1062330D02*
X356935D01*
X355102D01*
Y1073326D01*
X353269Y1071494D01*
X369764Y1073326D02*
X366099Y1071494D01*
X362433Y1067828D01*
Y1064163D01*
X364266Y1062330D01*
X367931D01*
X369764Y1064163D01*
Y1065995D01*
X367931Y1067828D01*
X362433D01*
X217780Y338176D02*
Y346173D01*
X221779Y350172D01*
X225777Y346173D01*
Y338176D01*
Y344174D01*
X217780D01*
X229776Y350172D02*
Y338176D01*
X235774D01*
X237773Y340175D01*
Y348173D01*
X235774Y350172D01*
X229776D01*
X249770Y348173D02*
X247770Y350172D01*
X243772D01*
X241772Y348173D01*
Y346173D01*
X243772Y344174D01*
X247770D01*
X249770Y342175D01*
Y340175D01*
X247770Y338176D01*
X243772D01*
X241772Y340175D01*
X253768Y338176D02*
X257767D01*
X255768D01*
Y350172D01*
X253768Y348173D01*
X271763Y338176D02*
X263765D01*
X271763Y346173D01*
Y348173D01*
X269763Y350172D01*
X265765D01*
X263765Y348173D01*
X275761Y338176D02*
X279760D01*
X277761D01*
Y350172D01*
X275761Y348173D01*
X293755Y350172D02*
X289757Y348173D01*
X285758Y344174D01*
Y340175D01*
X287757Y338176D01*
X291756D01*
X293755Y340175D01*
Y342175D01*
X291756Y344174D01*
X285758D01*
D20*
X803825Y543654D02*
X811156Y536323D01*
X803825D02*
X811156Y543654D01*
X803825Y539988D02*
X811156D01*
X807490Y536323D02*
Y543654D01*
X324897Y441150D02*
X324373Y442197D01*
X322802Y443769D01*
X333800D01*
X298897Y441400D02*
X298374Y442447D01*
X296802Y444019D01*
X307800D01*
X296802Y454702D02*
X304134Y449465D01*
Y457320D01*
X296802Y454702D02*
X307800D01*
X298921Y800924D02*
X298397D01*
X297350Y801447D01*
X296826Y801971D01*
X296302Y803018D01*
Y805113D01*
X296826Y806161D01*
X297350Y806684D01*
X298397Y807208D01*
X299445D01*
X300492Y806684D01*
X302063Y805637D01*
X307300Y800400D01*
Y807732D01*
X296302Y816478D02*
Y811240D01*
X301016Y810717D01*
X300492Y811240D01*
X299968Y812812D01*
Y814383D01*
X300492Y815954D01*
X301539Y817001D01*
X303110Y817525D01*
X304158D01*
X305729Y817001D01*
X306776Y815954D01*
X307300Y814383D01*
Y812812D01*
X306776Y811240D01*
X306253Y810717D01*
X305205Y810193D01*
X1599471Y1002274D02*
X1598947Y1003322D01*
X1597376Y1004893D01*
X1608374D01*
X1597376Y1013481D02*
X1597900Y1011910D01*
X1599471Y1010863D01*
X1602089Y1010339D01*
X1603660D01*
X1606279Y1010863D01*
X1607850Y1011910D01*
X1608374Y1013481D01*
Y1014529D01*
X1607850Y1016100D01*
X1606279Y1017147D01*
X1603660Y1017671D01*
X1602089D01*
X1599471Y1017147D01*
X1597900Y1016100D01*
X1597376Y1014529D01*
Y1013481D01*
D21*
X503276Y977298D02*
Y965302D01*
X509274D01*
X511273Y967301D01*
Y975299D01*
X509274Y977298D01*
X503276D01*
X515272Y965302D02*
Y973299D01*
X519271Y977298D01*
X523270Y973299D01*
Y965302D01*
Y971300D01*
X515272D01*
X527268Y967301D02*
X529268Y965302D01*
X533266D01*
X535266Y967301D01*
Y975299D01*
X533266Y977298D01*
X529268D01*
X527268Y975299D01*
Y973299D01*
X529268Y971300D01*
X535266D01*
X437359Y869381D02*
X435360Y871380D01*
X431361D01*
X429362Y869381D01*
Y861383D01*
X431361Y859384D01*
X435360D01*
X437359Y861383D01*
X449356Y871380D02*
X445357Y869381D01*
X441358Y865382D01*
Y861383D01*
X443358Y859384D01*
X447356D01*
X449356Y861383D01*
Y863383D01*
X447356Y865382D01*
X441358D01*
X453354Y869381D02*
X455354Y871380D01*
X459352D01*
X461352Y869381D01*
Y867381D01*
X459352Y865382D01*
X457353D01*
X459352D01*
X461352Y863383D01*
Y861383D01*
X459352Y859384D01*
X455354D01*
X453354Y861383D01*
X451329Y927039D02*
X449330Y929038D01*
X445331D01*
X443332Y927039D01*
Y919041D01*
X445331Y917042D01*
X449330D01*
X451329Y919041D01*
X463326Y929038D02*
X459327Y927039D01*
X455328Y923040D01*
Y919041D01*
X457327Y917042D01*
X461326D01*
X463326Y919041D01*
Y921041D01*
X461326Y923040D01*
X455328D01*
X467324Y917042D02*
X471323D01*
X469324D01*
Y929038D01*
X467324Y927039D01*
X232025Y1072954D02*
X228027D01*
X230026D01*
Y1062957D01*
X228027Y1060958D01*
X226027D01*
X224028Y1062957D01*
X244021Y1060958D02*
X236024D01*
X244021Y1068955D01*
Y1070955D01*
X242022Y1072954D01*
X238023D01*
X236024Y1070955D01*
X1000121Y296222D02*
X996123D01*
X998122D01*
Y286225D01*
X996123Y284226D01*
X994123D01*
X992124Y286225D01*
X1004120Y284226D02*
X1008119D01*
X1006120D01*
Y296222D01*
X1004120Y294223D01*
X352146Y853600D02*
Y841604D01*
X358144D01*
X360143Y843603D01*
Y851601D01*
X358144Y853600D01*
X352146D01*
X364142Y841604D02*
Y849601D01*
X368141Y853600D01*
X372140Y849601D01*
Y841604D01*
Y847602D01*
X364142D01*
X376138Y841604D02*
X380137D01*
X378138D01*
Y853600D01*
X376138Y851601D01*
X386135Y841604D02*
X390134D01*
X388134D01*
Y853600D01*
X386135Y851601D01*
X327508Y944532D02*
Y932536D01*
X333506D01*
X335505Y934535D01*
Y942533D01*
X333506Y944532D01*
X327508D01*
X339504Y932536D02*
Y940533D01*
X343503Y944532D01*
X347501Y940533D01*
Y932536D01*
Y938534D01*
X339504D01*
X359498Y944532D02*
X355499Y942533D01*
X351500Y938534D01*
Y934535D01*
X353500Y932536D01*
X357498D01*
X359498Y934535D01*
Y936535D01*
X357498Y938534D01*
X351500D01*
X740664Y264726D02*
Y256729D01*
X744663Y252730D01*
X748661Y256729D01*
Y264726D01*
X752660D02*
Y252730D01*
X758658D01*
X760658Y254729D01*
Y262727D01*
X758658Y264726D01*
X752660D01*
X764656Y252730D02*
X768655D01*
X766656D01*
Y264726D01*
X764656Y262727D01*
X783946Y255626D02*
Y267622D01*
X789944D01*
X791943Y265623D01*
Y261624D01*
X789944Y259625D01*
X783946D01*
X787945D02*
X791943Y255626D01*
X803940Y267622D02*
X795942D01*
Y261624D01*
X799941Y263623D01*
X801940D01*
X803940Y261624D01*
Y257625D01*
X801940Y255626D01*
X797942D01*
X795942Y257625D01*
X807938Y265623D02*
X809938Y267622D01*
X813936D01*
X815936Y265623D01*
Y257625D01*
X813936Y255626D01*
X809938D01*
X807938Y257625D01*
Y265623D01*
X831596Y329750D02*
Y317754D01*
Y321753D01*
X839593Y329750D01*
X833595Y323752D01*
X839593Y317754D01*
X843592D02*
X847591D01*
X845592D01*
Y329750D01*
X843592Y327751D01*
X1500000Y561000D02*
Y572996D01*
X1505998D01*
X1507997Y570997D01*
Y566998D01*
X1505998Y564999D01*
X1500000D01*
X1503999D02*
X1507997Y561000D01*
X1517994D02*
Y572996D01*
X1511996Y566998D01*
X1519993D01*
X1523992Y562999D02*
X1525992Y561000D01*
X1529990D01*
X1531990Y562999D01*
Y570997D01*
X1529990Y572996D01*
X1525992D01*
X1523992Y570997D01*
Y568997D01*
X1525992Y566998D01*
X1531990D01*
X1492500Y802500D02*
Y814496D01*
X1498498D01*
X1500497Y812497D01*
Y808498D01*
X1498498Y806499D01*
X1492500D01*
X1496499D02*
X1500497Y802500D01*
X1510494D02*
Y814496D01*
X1504496Y808498D01*
X1512493D01*
X1516492Y812497D02*
X1518492Y814496D01*
X1522490D01*
X1524490Y812497D01*
Y810497D01*
X1522490Y808498D01*
X1524490Y806499D01*
Y804499D01*
X1522490Y802500D01*
X1518492D01*
X1516492Y804499D01*
Y806499D01*
X1518492Y808498D01*
X1516492Y810497D01*
Y812497D01*
X1518492Y808498D02*
X1522490D01*
X669900Y943204D02*
X657904D01*
Y949202D01*
X659903Y951201D01*
X663902D01*
X665901Y949202D01*
Y943204D01*
Y947203D02*
X669900Y951201D01*
X657904Y963197D02*
X659903Y959199D01*
X663902Y955200D01*
X667901D01*
X669900Y957199D01*
Y961198D01*
X667901Y963197D01*
X665901D01*
X663902Y961198D01*
Y955200D01*
X657904Y967196D02*
Y975194D01*
X659903D01*
X667901Y967196D01*
X669900D01*
X611226Y1008736D02*
Y1020732D01*
X617224D01*
X619223Y1018733D01*
Y1014734D01*
X617224Y1012735D01*
X611226D01*
X615225D02*
X619223Y1008736D01*
X631219Y1020732D02*
X627221Y1018733D01*
X623222Y1014734D01*
Y1010735D01*
X625221Y1008736D01*
X629220D01*
X631219Y1010735D01*
Y1012735D01*
X629220Y1014734D01*
X623222D01*
X643216Y1020732D02*
X639217Y1018733D01*
X635218Y1014734D01*
Y1010735D01*
X637218Y1008736D01*
X641216D01*
X643216Y1010735D01*
Y1012735D01*
X641216Y1014734D01*
X635218D01*
X393294Y1018896D02*
Y1030892D01*
X399292D01*
X401291Y1028893D01*
Y1024894D01*
X399292Y1022895D01*
X393294D01*
X397293D02*
X401291Y1018896D01*
X413288Y1030892D02*
X409289Y1028893D01*
X405290Y1024894D01*
Y1020895D01*
X407290Y1018896D01*
X411288D01*
X413288Y1020895D01*
Y1022895D01*
X411288Y1024894D01*
X405290D01*
X425284Y1030892D02*
X417286D01*
Y1024894D01*
X421285Y1026893D01*
X423284D01*
X425284Y1024894D01*
Y1020895D01*
X423284Y1018896D01*
X419286D01*
X417286Y1020895D01*
X606654Y860908D02*
Y872904D01*
X612652D01*
X614651Y870905D01*
Y866906D01*
X612652Y864907D01*
X606654D01*
X610653D02*
X614651Y860908D01*
X626647Y872904D02*
X622649Y870905D01*
X618650Y866906D01*
Y862907D01*
X620649Y860908D01*
X624648D01*
X626647Y862907D01*
Y864907D01*
X624648Y866906D01*
X618650D01*
X636644Y860908D02*
Y872904D01*
X630646Y866906D01*
X638644D01*
X636626Y821538D02*
X624630D01*
Y827536D01*
X626629Y829535D01*
X630628D01*
X632627Y827536D01*
Y821538D01*
Y825537D02*
X636626Y829535D01*
X624630Y841532D02*
X626629Y837533D01*
X630628Y833534D01*
X634627D01*
X636626Y835534D01*
Y839532D01*
X634627Y841532D01*
X632627D01*
X630628Y839532D01*
Y833534D01*
X626629Y845530D02*
X624630Y847530D01*
Y851528D01*
X626629Y853528D01*
X628629D01*
X630628Y851528D01*
Y849529D01*
Y851528D01*
X632627Y853528D01*
X634627D01*
X636626Y851528D01*
Y847530D01*
X634627Y845530D01*
X577698Y807060D02*
X565702D01*
Y813058D01*
X567701Y815057D01*
X571700D01*
X573699Y813058D01*
Y807060D01*
Y811059D02*
X577698Y815057D01*
X565702Y827054D02*
X567701Y823055D01*
X571700Y819056D01*
X575699D01*
X577698Y821056D01*
Y825054D01*
X575699Y827054D01*
X573699D01*
X571700Y825054D01*
Y819056D01*
X577698Y839050D02*
Y831052D01*
X569701Y839050D01*
X567701D01*
X565702Y837050D01*
Y833052D01*
X567701Y831052D01*
X861670Y888340D02*
X849674D01*
Y894338D01*
X851673Y896337D01*
X855672D01*
X857671Y894338D01*
Y888340D01*
Y892339D02*
X861670Y896337D01*
X849674Y908334D02*
X851673Y904335D01*
X855672Y900336D01*
X859671D01*
X861670Y902336D01*
Y906334D01*
X859671Y908334D01*
X857671D01*
X855672Y906334D01*
Y900336D01*
X861670Y912332D02*
Y916331D01*
Y914332D01*
X849674D01*
X851673Y912332D01*
X888086Y850494D02*
X876090D01*
Y856492D01*
X878089Y858491D01*
X882088D01*
X884087Y856492D01*
Y850494D01*
Y854493D02*
X888086Y858491D01*
X876090Y870488D02*
X878089Y866489D01*
X882088Y862490D01*
X886087D01*
X888086Y864490D01*
Y868488D01*
X886087Y870488D01*
X884087D01*
X882088Y868488D01*
Y862490D01*
X878089Y874486D02*
X876090Y876486D01*
Y880484D01*
X878089Y882484D01*
X886087D01*
X888086Y880484D01*
Y876486D01*
X886087Y874486D01*
X878089D01*
X1516000Y1122000D02*
X1504004D01*
Y1127998D01*
X1506003Y1129997D01*
X1510002D01*
X1512001Y1127998D01*
Y1122000D01*
Y1125999D02*
X1516000Y1129997D01*
X1504004Y1141994D02*
Y1133996D01*
X1510002D01*
X1508003Y1137995D01*
Y1139994D01*
X1510002Y1141994D01*
X1514001D01*
X1516000Y1139994D01*
Y1135995D01*
X1514001Y1133996D01*
Y1145992D02*
X1516000Y1147992D01*
Y1151990D01*
X1514001Y1153990D01*
X1506003D01*
X1504004Y1151990D01*
Y1147992D01*
X1506003Y1145992D01*
X1508003D01*
X1510002Y1147992D01*
Y1153990D01*
X1492000Y1123000D02*
X1480004D01*
Y1128998D01*
X1482003Y1130997D01*
X1486002D01*
X1488001Y1128998D01*
Y1123000D01*
Y1126999D02*
X1492000Y1130997D01*
X1480004Y1142993D02*
Y1134996D01*
X1486002D01*
X1484003Y1138995D01*
Y1140994D01*
X1486002Y1142993D01*
X1490001D01*
X1492000Y1140994D01*
Y1136995D01*
X1490001Y1134996D01*
X1482003Y1146992D02*
X1480004Y1148992D01*
Y1152990D01*
X1482003Y1154990D01*
X1484003D01*
X1486002Y1152990D01*
X1488001Y1154990D01*
X1490001D01*
X1492000Y1152990D01*
Y1148992D01*
X1490001Y1146992D01*
X1488001D01*
X1486002Y1148992D01*
X1484003Y1146992D01*
X1482003D01*
X1486002Y1148992D02*
Y1152990D01*
X1273404Y1098144D02*
X1261408D01*
Y1104142D01*
X1263407Y1106141D01*
X1267406D01*
X1269405Y1104142D01*
Y1098144D01*
Y1102143D02*
X1273404Y1106141D01*
X1261408Y1118138D02*
Y1110140D01*
X1267406D01*
X1265407Y1114139D01*
Y1116138D01*
X1267406Y1118138D01*
X1271405D01*
X1273404Y1116138D01*
Y1112140D01*
X1271405Y1110140D01*
X1261408Y1122136D02*
Y1130134D01*
X1263407D01*
X1271405Y1122136D01*
X1273404D01*
X1469000Y1114000D02*
X1457004D01*
Y1119998D01*
X1459003Y1121997D01*
X1463002D01*
X1465001Y1119998D01*
Y1114000D01*
Y1117999D02*
X1469000Y1121997D01*
X1457004Y1133994D02*
Y1125996D01*
X1463002D01*
X1461003Y1129995D01*
Y1131994D01*
X1463002Y1133994D01*
X1467001D01*
X1469000Y1131994D01*
Y1127996D01*
X1467001Y1125996D01*
X1457004Y1145990D02*
X1459003Y1141991D01*
X1463002Y1137992D01*
X1467001D01*
X1469000Y1139992D01*
Y1143990D01*
X1467001Y1145990D01*
X1465001D01*
X1463002Y1143990D01*
Y1137992D01*
X1438504Y990956D02*
Y1002952D01*
X1444502D01*
X1446501Y1000953D01*
Y996954D01*
X1444502Y994955D01*
X1438504D01*
X1442503D02*
X1446501Y990956D01*
X1458497Y1002952D02*
X1450500D01*
Y996954D01*
X1454499Y998953D01*
X1456498D01*
X1458497Y996954D01*
Y992955D01*
X1456498Y990956D01*
X1452500D01*
X1450500Y992955D01*
X1470494Y1002952D02*
X1462496D01*
Y996954D01*
X1466495Y998953D01*
X1468494D01*
X1470494Y996954D01*
Y992955D01*
X1468494Y990956D01*
X1464496D01*
X1462496Y992955D01*
X1549248Y1046836D02*
X1537252D01*
Y1052834D01*
X1539251Y1054833D01*
X1543250D01*
X1545249Y1052834D01*
Y1046836D01*
Y1050835D02*
X1549248Y1054833D01*
X1537252Y1066830D02*
Y1058832D01*
X1543250D01*
X1541251Y1062831D01*
Y1064830D01*
X1543250Y1066830D01*
X1547249D01*
X1549248Y1064830D01*
Y1060832D01*
X1547249Y1058832D01*
X1549248Y1076826D02*
X1537252D01*
X1543250Y1070828D01*
Y1078826D01*
X1502000Y960000D02*
X1490004D01*
Y965998D01*
X1492003Y967997D01*
X1496002D01*
X1498001Y965998D01*
Y960000D01*
Y963999D02*
X1502000Y967997D01*
X1490004Y979994D02*
Y971996D01*
X1496002D01*
X1494003Y975995D01*
Y977994D01*
X1496002Y979994D01*
X1500001D01*
X1502000Y977994D01*
Y973996D01*
X1500001Y971996D01*
X1492003Y983992D02*
X1490004Y985992D01*
Y989990D01*
X1492003Y991990D01*
X1494003D01*
X1496002Y989990D01*
Y987991D01*
Y989990D01*
X1498001Y991990D01*
X1500001D01*
X1502000Y989990D01*
Y985992D01*
X1500001Y983992D01*
X1550010Y999846D02*
X1538014D01*
Y1005844D01*
X1540013Y1007843D01*
X1544012D01*
X1546011Y1005844D01*
Y999846D01*
Y1003845D02*
X1550010Y1007843D01*
X1540013Y1011842D02*
X1538014Y1013841D01*
Y1017840D01*
X1540013Y1019839D01*
X1542013D01*
X1544012Y1017840D01*
Y1015841D01*
Y1017840D01*
X1546011Y1019839D01*
X1548011D01*
X1550010Y1017840D01*
Y1013841D01*
X1548011Y1011842D01*
X1550010Y1031836D02*
Y1023838D01*
X1542013Y1031836D01*
X1540013D01*
X1538014Y1029836D01*
Y1025838D01*
X1540013Y1023838D01*
X1605657Y834702D02*
X1601659D01*
X1603658D01*
Y824705D01*
X1601659Y822706D01*
X1599659D01*
X1597660Y824705D01*
X1609656Y834702D02*
X1617654D01*
Y832703D01*
X1609656Y824705D01*
Y822706D01*
X1436218Y752000D02*
Y740004D01*
X1442216D01*
X1444215Y742003D01*
Y750001D01*
X1442216Y752000D01*
X1436218D01*
X1448214D02*
Y740004D01*
X1454212D01*
X1456212Y742003D01*
Y750001D01*
X1454212Y752000D01*
X1448214D01*
X1468208Y740004D02*
X1460210D01*
X1468208Y748001D01*
Y750001D01*
X1466208Y752000D01*
X1462210D01*
X1460210Y750001D01*
X1302991Y1019495D02*
X1300992Y1021494D01*
X1296993D01*
X1294994Y1019495D01*
Y1011497D01*
X1296993Y1009498D01*
X1300992D01*
X1302991Y1011497D01*
X1314987Y1021494D02*
X1306990D01*
Y1015496D01*
X1310989Y1017495D01*
X1312988D01*
X1314987Y1015496D01*
Y1011497D01*
X1312988Y1009498D01*
X1308990D01*
X1306990Y1011497D01*
X1318986Y1009498D02*
X1322985D01*
X1320986D01*
Y1021494D01*
X1318986Y1019495D01*
X1305571Y1080233D02*
X1303572Y1078234D01*
Y1074235D01*
X1305571Y1072236D01*
X1313569D01*
X1315568Y1074235D01*
Y1078234D01*
X1313569Y1080233D01*
X1303572Y1092230D02*
Y1084232D01*
X1309570D01*
X1307571Y1088231D01*
Y1090230D01*
X1309570Y1092230D01*
X1313569D01*
X1315568Y1090230D01*
Y1086232D01*
X1313569Y1084232D01*
X1305571Y1096228D02*
X1303572Y1098228D01*
Y1102226D01*
X1305571Y1104226D01*
X1313569D01*
X1315568Y1102226D01*
Y1098228D01*
X1313569Y1096228D01*
X1305571D01*
X1250453Y1067279D02*
X1248454Y1065280D01*
Y1061281D01*
X1250453Y1059282D01*
X1258451D01*
X1260450Y1061281D01*
Y1065280D01*
X1258451Y1067279D01*
X1260450Y1077276D02*
X1248454D01*
X1254452Y1071278D01*
Y1079276D01*
X1260450Y1083274D02*
Y1087273D01*
Y1085274D01*
X1248454D01*
X1250453Y1083274D01*
X754003Y438997D02*
X752004Y436998D01*
Y432999D01*
X754003Y431000D01*
X762001D01*
X764000Y432999D01*
Y436998D01*
X762001Y438997D01*
X764000Y442996D02*
Y446995D01*
Y444995D01*
X752004D01*
X754003Y442996D01*
X774003Y437997D02*
X772004Y435998D01*
Y431999D01*
X774003Y430000D01*
X782001D01*
X784000Y431999D01*
Y435998D01*
X782001Y437997D01*
X784000Y449994D02*
Y441996D01*
X776003Y449994D01*
X774003D01*
X772004Y447994D01*
Y443996D01*
X774003Y441996D01*
X766043Y483881D02*
X768042Y481882D01*
X772041D01*
X774040Y483881D01*
Y491879D01*
X772041Y493878D01*
X768042D01*
X766043Y491879D01*
X762044Y483881D02*
X760044Y481882D01*
X756046D01*
X754046Y483881D01*
Y485881D01*
X756046Y487880D01*
X758045D01*
X756046D01*
X754046Y489879D01*
Y491879D01*
X756046Y493878D01*
X760044D01*
X762044Y491879D01*
X738857Y535879D02*
X736858Y537878D01*
X732859D01*
X730860Y535879D01*
Y527881D01*
X732859Y525882D01*
X736858D01*
X738857Y527881D01*
X748854Y525882D02*
Y537878D01*
X742856Y531880D01*
X750854D01*
X611997Y747997D02*
X609998Y749996D01*
X605999D01*
X604000Y747997D01*
Y739999D01*
X605999Y738000D01*
X609998D01*
X611997Y739999D01*
X623993Y749996D02*
X615996D01*
Y743998D01*
X619995Y745997D01*
X621994D01*
X623993Y743998D01*
Y739999D01*
X621994Y738000D01*
X617995D01*
X615996Y739999D01*
X772003Y333997D02*
X770004Y331998D01*
Y327999D01*
X772003Y326000D01*
X780001D01*
X782000Y327999D01*
Y331998D01*
X780001Y333997D01*
X770004Y345993D02*
X772003Y341995D01*
X776002Y337996D01*
X780001D01*
X782000Y339995D01*
Y343994D01*
X780001Y345993D01*
X778001D01*
X776002Y343994D01*
Y337996D01*
X753003Y333997D02*
X751004Y331998D01*
Y327999D01*
X753003Y326000D01*
X761001D01*
X763000Y327999D01*
Y331998D01*
X761001Y333997D01*
X751004Y337996D02*
Y345993D01*
X753003D01*
X761001Y337996D01*
X763000D01*
X641003Y332997D02*
X639004Y330998D01*
Y326999D01*
X641003Y325000D01*
X649001D01*
X651000Y326999D01*
Y330998D01*
X649001Y332997D01*
X641003Y336996D02*
X639004Y338996D01*
Y342994D01*
X641003Y344994D01*
X643003D01*
X645002Y342994D01*
X647001Y344994D01*
X649001D01*
X651000Y342994D01*
Y338996D01*
X649001Y336996D01*
X647001D01*
X645002Y338996D01*
X643003Y336996D01*
X641003D01*
X645002Y338996D02*
Y342994D01*
X663003Y332997D02*
X661004Y330998D01*
Y326999D01*
X663003Y325000D01*
X671001D01*
X673000Y326999D01*
Y330998D01*
X671001Y332997D01*
Y336996D02*
X673000Y338996D01*
Y342994D01*
X671001Y344994D01*
X663003D01*
X661004Y342994D01*
Y338996D01*
X663003Y336996D01*
X665003D01*
X667002Y338996D01*
Y344994D01*
X622997Y769997D02*
X620998Y771996D01*
X616999D01*
X615000Y769997D01*
Y761999D01*
X616999Y760000D01*
X620998D01*
X622997Y761999D01*
X626996Y760000D02*
X630995D01*
X628996D01*
Y771996D01*
X626996Y769997D01*
X636993D02*
X638992Y771996D01*
X642991D01*
X644990Y769997D01*
Y761999D01*
X642991Y760000D01*
X638992D01*
X636993Y761999D01*
Y769997D01*
X625497Y794997D02*
X623498Y796996D01*
X619499D01*
X617500Y794997D01*
Y786999D01*
X619499Y785000D01*
X623498D01*
X625497Y786999D01*
X629496Y785000D02*
X633495D01*
X631496D01*
Y796996D01*
X629496Y794997D01*
X639493Y785000D02*
X643492D01*
X641492D01*
Y796996D01*
X639493Y794997D01*
X1004327Y363191D02*
X1002328Y361192D01*
Y357193D01*
X1004327Y355194D01*
X1012325D01*
X1014324Y357193D01*
Y361192D01*
X1012325Y363191D01*
X1014324Y367190D02*
Y371189D01*
Y369189D01*
X1002328D01*
X1004327Y367190D01*
X1014324Y385184D02*
Y377187D01*
X1006327Y385184D01*
X1004327D01*
X1002328Y383185D01*
Y379186D01*
X1004327Y377187D01*
X984769Y363191D02*
X982770Y361192D01*
Y357193D01*
X984769Y355194D01*
X992767D01*
X994766Y357193D01*
Y361192D01*
X992767Y363191D01*
X994766Y367190D02*
Y371189D01*
Y369189D01*
X982770D01*
X984769Y367190D01*
Y377187D02*
X982770Y379186D01*
Y383185D01*
X984769Y385184D01*
X986769D01*
X988768Y383185D01*
Y381186D01*
Y383185D01*
X990767Y385184D01*
X992767D01*
X994766Y383185D01*
Y379186D01*
X992767Y377187D01*
X914997Y386997D02*
X912998Y388996D01*
X908999D01*
X907000Y386997D01*
Y378999D01*
X908999Y377000D01*
X912998D01*
X914997Y378999D01*
X918996Y377000D02*
X922995D01*
X920995D01*
Y388996D01*
X918996Y386997D01*
X934991Y377000D02*
Y388996D01*
X928993Y382998D01*
X936990D01*
X988793Y411927D02*
X986794Y413926D01*
X982795D01*
X980796Y411927D01*
Y403929D01*
X982795Y401930D01*
X986794D01*
X988793Y403929D01*
X992792Y401930D02*
X996791D01*
X994791D01*
Y413926D01*
X992792Y411927D01*
X1010786Y413926D02*
X1002789D01*
Y407928D01*
X1006788Y409927D01*
X1008787D01*
X1010786Y407928D01*
Y403929D01*
X1008787Y401930D01*
X1004788D01*
X1002789Y403929D01*
X577997Y331997D02*
X575998Y333996D01*
X571999D01*
X570000Y331997D01*
Y323999D01*
X571999Y322000D01*
X575998D01*
X577997Y323999D01*
X581996Y322000D02*
X585995D01*
X583996D01*
Y333996D01*
X581996Y331997D01*
X599990Y333996D02*
X595992Y331997D01*
X591993Y327998D01*
Y323999D01*
X593992Y322000D01*
X597991D01*
X599990Y323999D01*
Y325999D01*
X597991Y327998D01*
X591993D01*
X578997Y352997D02*
X576998Y354996D01*
X572999D01*
X571000Y352997D01*
Y344999D01*
X572999Y343000D01*
X576998D01*
X578997Y344999D01*
X582996Y343000D02*
X586995D01*
X584995D01*
Y354996D01*
X582996Y352997D01*
X592993Y354996D02*
X600990D01*
Y352997D01*
X592993Y344999D01*
Y343000D01*
X576997Y374997D02*
X574998Y376996D01*
X570999D01*
X569000Y374997D01*
Y366999D01*
X570999Y365000D01*
X574998D01*
X576997Y366999D01*
X580996Y365000D02*
X584995D01*
X582995D01*
Y376996D01*
X580996Y374997D01*
X590993D02*
X592992Y376996D01*
X596991D01*
X598990Y374997D01*
Y372997D01*
X596991Y370998D01*
X598990Y368999D01*
Y366999D01*
X596991Y365000D01*
X592992D01*
X590993Y366999D01*
Y368999D01*
X592992Y370998D01*
X590993Y372997D01*
Y374997D01*
X592992Y370998D02*
X596991D01*
X1674339Y315915D02*
X1672340Y317914D01*
X1668341D01*
X1666342Y315915D01*
Y307917D01*
X1668341Y305918D01*
X1672340D01*
X1674339Y307917D01*
X1678338Y305918D02*
X1682337D01*
X1680338D01*
Y317914D01*
X1678338Y315915D01*
X1688335Y307917D02*
X1690334Y305918D01*
X1694333D01*
X1696332Y307917D01*
Y315915D01*
X1694333Y317914D01*
X1690334D01*
X1688335Y315915D01*
Y313915D01*
X1690334Y311916D01*
X1696332D01*
X1700003Y347997D02*
X1698004Y345998D01*
Y341999D01*
X1700003Y340000D01*
X1708001D01*
X1710000Y341999D01*
Y345998D01*
X1708001Y347997D01*
X1710000Y359994D02*
Y351996D01*
X1702003Y359994D01*
X1700003D01*
X1698004Y357994D01*
Y353996D01*
X1700003Y351996D01*
Y363992D02*
X1698004Y365992D01*
Y369990D01*
X1700003Y371990D01*
X1708001D01*
X1710000Y369990D01*
Y365992D01*
X1708001Y363992D01*
X1700003D01*
X1689325Y399735D02*
X1687326Y401734D01*
X1683327D01*
X1681328Y399735D01*
Y391737D01*
X1683327Y389738D01*
X1687326D01*
X1689325Y391737D01*
X1701322Y389738D02*
X1693324D01*
X1701322Y397735D01*
Y399735D01*
X1699322Y401734D01*
X1695323D01*
X1693324Y399735D01*
X1705320Y389738D02*
X1709319D01*
X1707320D01*
Y401734D01*
X1705320Y399735D01*
X390369Y963361D02*
X388370Y965360D01*
X384371D01*
X382372Y963361D01*
Y955363D01*
X384371Y953364D01*
X388370D01*
X390369Y955363D01*
X402365Y953364D02*
X394368D01*
X402365Y961361D01*
Y963361D01*
X400366Y965360D01*
X396367D01*
X394368Y963361D01*
X414362Y953364D02*
X406364D01*
X414362Y961361D01*
Y963361D01*
X412362Y965360D01*
X408364D01*
X406364Y963361D01*
X473935Y858459D02*
X471936Y860458D01*
X467937D01*
X465938Y858459D01*
Y850461D01*
X467937Y848462D01*
X471936D01*
X473935Y850461D01*
X485932Y848462D02*
X477934D01*
X485932Y856459D01*
Y858459D01*
X483932Y860458D01*
X479934D01*
X477934Y858459D01*
X489930D02*
X491930Y860458D01*
X495928D01*
X497928Y858459D01*
Y856459D01*
X495928Y854460D01*
X493929D01*
X495928D01*
X497928Y852461D01*
Y850461D01*
X495928Y848462D01*
X491930D01*
X489930Y850461D01*
X1538503Y484247D02*
X1536504Y482248D01*
Y478249D01*
X1538503Y476250D01*
X1546501D01*
X1548500Y478249D01*
Y482248D01*
X1546501Y484247D01*
X1548500Y496244D02*
Y488246D01*
X1540503Y496244D01*
X1538503D01*
X1536504Y494244D01*
Y490246D01*
X1538503Y488246D01*
X1548500Y506240D02*
X1536504D01*
X1542502Y500242D01*
Y508240D01*
X1401329Y325345D02*
X1399330Y323346D01*
Y319347D01*
X1401329Y317348D01*
X1409327D01*
X1411326Y319347D01*
Y323346D01*
X1409327Y325345D01*
X1411326Y337341D02*
Y329344D01*
X1403329Y337341D01*
X1401329D01*
X1399330Y335342D01*
Y331343D01*
X1401329Y329344D01*
X1399330Y349338D02*
Y341340D01*
X1405328D01*
X1403329Y345339D01*
Y347338D01*
X1405328Y349338D01*
X1409327D01*
X1411326Y347338D01*
Y343340D01*
X1409327Y341340D01*
X1429997Y311997D02*
X1427998Y313996D01*
X1423999D01*
X1422000Y311997D01*
Y303999D01*
X1423999Y302000D01*
X1427998D01*
X1429997Y303999D01*
X1441994Y302000D02*
X1433996D01*
X1441994Y309997D01*
Y311997D01*
X1439994Y313996D01*
X1435995D01*
X1433996Y311997D01*
X1453990Y313996D02*
X1449991Y311997D01*
X1445992Y307998D01*
Y303999D01*
X1447992Y302000D01*
X1451990D01*
X1453990Y303999D01*
Y305999D01*
X1451990Y307998D01*
X1445992D01*
X1513253Y475747D02*
X1511254Y473748D01*
Y469749D01*
X1513253Y467750D01*
X1521251D01*
X1523250Y469749D01*
Y473748D01*
X1521251Y475747D01*
X1523250Y487744D02*
Y479746D01*
X1515253Y487744D01*
X1513253D01*
X1511254Y485744D01*
Y481745D01*
X1513253Y479746D01*
X1511254Y491742D02*
Y499740D01*
X1513253D01*
X1521251Y491742D01*
X1523250D01*
X1407893Y409387D02*
X1405894Y411386D01*
X1401895D01*
X1399896Y409387D01*
Y401389D01*
X1401895Y399390D01*
X1405894D01*
X1407893Y401389D01*
X1419890Y399390D02*
X1411892D01*
X1419890Y407387D01*
Y409387D01*
X1417890Y411386D01*
X1413891D01*
X1411892Y409387D01*
X1423888D02*
X1425888Y411386D01*
X1429886D01*
X1431886Y409387D01*
Y407387D01*
X1429886Y405388D01*
X1431886Y403389D01*
Y401389D01*
X1429886Y399390D01*
X1425888D01*
X1423888Y401389D01*
Y403389D01*
X1425888Y405388D01*
X1423888Y407387D01*
Y409387D01*
X1425888Y405388D02*
X1429886D01*
X1525241Y405831D02*
X1523242Y407830D01*
X1519243D01*
X1517244Y405831D01*
Y397833D01*
X1519243Y395834D01*
X1523242D01*
X1525241Y397833D01*
X1537238Y395834D02*
X1529240D01*
X1537238Y403831D01*
Y405831D01*
X1535238Y407830D01*
X1531239D01*
X1529240Y405831D01*
X1541236Y397833D02*
X1543236Y395834D01*
X1547234D01*
X1549234Y397833D01*
Y405831D01*
X1547234Y407830D01*
X1543236D01*
X1541236Y405831D01*
Y403831D01*
X1543236Y401832D01*
X1549234D01*
X1575997Y307997D02*
X1573998Y309996D01*
X1569999D01*
X1568000Y307997D01*
Y299999D01*
X1569999Y298000D01*
X1573998D01*
X1575997Y299999D01*
X1579996Y307997D02*
X1581996Y309996D01*
X1585994D01*
X1587993Y307997D01*
Y305997D01*
X1585994Y303998D01*
X1583995D01*
X1585994D01*
X1587993Y301999D01*
Y299999D01*
X1585994Y298000D01*
X1581996D01*
X1579996Y299999D01*
X1591992Y307997D02*
X1593992Y309996D01*
X1597990D01*
X1599990Y307997D01*
Y299999D01*
X1597990Y298000D01*
X1593992D01*
X1591992Y299999D01*
Y307997D01*
X774997Y548997D02*
X772998Y550996D01*
X768999D01*
X767000Y548997D01*
Y540999D01*
X768999Y539000D01*
X772998D01*
X774997Y540999D01*
X778996Y548997D02*
X780995Y550996D01*
X784994D01*
X786993Y548997D01*
Y546997D01*
X784994Y544998D01*
X782995D01*
X784994D01*
X786993Y542999D01*
Y540999D01*
X784994Y539000D01*
X780995D01*
X778996Y540999D01*
X790992Y539000D02*
X794991D01*
X792992D01*
Y550996D01*
X790992Y548997D01*
X1003311Y499081D02*
X1001312Y497082D01*
Y493083D01*
X1003311Y491084D01*
X1011309D01*
X1013308Y493083D01*
Y497082D01*
X1011309Y499081D01*
X1003311Y503080D02*
X1001312Y505079D01*
Y509078D01*
X1003311Y511077D01*
X1005311D01*
X1007310Y509078D01*
Y507079D01*
Y509078D01*
X1009309Y511077D01*
X1011309D01*
X1013308Y509078D01*
Y505079D01*
X1011309Y503080D01*
X1013308Y523074D02*
Y515076D01*
X1005311Y523074D01*
X1003311D01*
X1001312Y521074D01*
Y517076D01*
X1003311Y515076D01*
X1417503Y473747D02*
X1415504Y471748D01*
Y467749D01*
X1417503Y465750D01*
X1425501D01*
X1427500Y467749D01*
Y471748D01*
X1425501Y473747D01*
X1417503Y477746D02*
X1415504Y479745D01*
Y483744D01*
X1417503Y485744D01*
X1419503D01*
X1421502Y483744D01*
Y481745D01*
Y483744D01*
X1423501Y485744D01*
X1425501D01*
X1427500Y483744D01*
Y479745D01*
X1425501Y477746D01*
X1417503Y489742D02*
X1415504Y491742D01*
Y495740D01*
X1417503Y497740D01*
X1419503D01*
X1421502Y495740D01*
Y493741D01*
Y495740D01*
X1423501Y497740D01*
X1425501D01*
X1427500Y495740D01*
Y491742D01*
X1425501Y489742D01*
X893329Y779243D02*
X891330Y777244D01*
Y773245D01*
X893329Y771246D01*
X901327D01*
X903326Y773245D01*
Y777244D01*
X901327Y779243D01*
X893329Y783242D02*
X891330Y785241D01*
Y789240D01*
X893329Y791239D01*
X895329D01*
X897328Y789240D01*
Y787241D01*
Y789240D01*
X899327Y791239D01*
X901327D01*
X903326Y789240D01*
Y785241D01*
X901327Y783242D01*
X903326Y801236D02*
X891330D01*
X897328Y795238D01*
Y803236D01*
X997215Y812517D02*
X995216Y810518D01*
Y806519D01*
X997215Y804520D01*
X1005213D01*
X1007212Y806519D01*
Y810518D01*
X1005213Y812517D01*
X997215Y816516D02*
X995216Y818515D01*
Y822514D01*
X997215Y824513D01*
X999215D01*
X1001214Y822514D01*
Y820515D01*
Y822514D01*
X1003213Y824513D01*
X1005213D01*
X1007212Y822514D01*
Y818515D01*
X1005213Y816516D01*
X995216Y836510D02*
Y828512D01*
X1001214D01*
X999215Y832511D01*
Y834510D01*
X1001214Y836510D01*
X1005213D01*
X1007212Y834510D01*
Y830512D01*
X1005213Y828512D01*
X1007589Y885637D02*
X1005590Y887636D01*
X1001591D01*
X999592Y885637D01*
Y877639D01*
X1001591Y875640D01*
X1005590D01*
X1007589Y877639D01*
X1011588Y885637D02*
X1013587Y887636D01*
X1017586D01*
X1019585Y885637D01*
Y883637D01*
X1017586Y881638D01*
X1015587D01*
X1017586D01*
X1019585Y879639D01*
Y877639D01*
X1017586Y875640D01*
X1013587D01*
X1011588Y877639D01*
X1031582Y887636D02*
X1027583Y885637D01*
X1023584Y881638D01*
Y877639D01*
X1025584Y875640D01*
X1029582D01*
X1031582Y877639D01*
Y879639D01*
X1029582Y881638D01*
X1023584D01*
X950693Y527751D02*
X948694Y529750D01*
X944695D01*
X942696Y527751D01*
Y519753D01*
X944695Y517754D01*
X948694D01*
X950693Y519753D01*
X960690Y517754D02*
Y529750D01*
X954692Y523752D01*
X962690D01*
X974686Y517754D02*
X966688D01*
X974686Y525751D01*
Y527751D01*
X972686Y529750D01*
X968688D01*
X966688Y527751D01*
X1180003Y1067997D02*
X1178004Y1065998D01*
Y1061999D01*
X1180003Y1060000D01*
X1188001D01*
X1190000Y1061999D01*
Y1065998D01*
X1188001Y1067997D01*
X1190000Y1077994D02*
X1178004D01*
X1184002Y1071996D01*
Y1079994D01*
X1180003Y1083992D02*
X1178004Y1085992D01*
Y1089990D01*
X1180003Y1091990D01*
X1182003D01*
X1184002Y1089990D01*
Y1087991D01*
Y1089990D01*
X1186001Y1091990D01*
X1188001D01*
X1190000Y1089990D01*
Y1085992D01*
X1188001Y1083992D01*
X505725Y850109D02*
X503726Y848110D01*
Y844111D01*
X505725Y842112D01*
X513723D01*
X515722Y844111D01*
Y848110D01*
X513723Y850109D01*
X515722Y860106D02*
X503726D01*
X509724Y854108D01*
Y862105D01*
X515722Y872102D02*
X503726D01*
X509724Y866104D01*
Y874102D01*
X553437Y857997D02*
X551438Y859996D01*
X547439D01*
X545440Y857997D01*
Y849999D01*
X547439Y848000D01*
X551438D01*
X553437Y849999D01*
X563434Y848000D02*
Y859996D01*
X557436Y853998D01*
X565434D01*
X577430Y859996D02*
X569432D01*
Y853998D01*
X573431Y855997D01*
X575430D01*
X577430Y853998D01*
Y849999D01*
X575430Y848000D01*
X571432D01*
X569432Y849999D01*
X545563Y1016701D02*
X543564Y1018700D01*
X539565D01*
X537566Y1016701D01*
Y1008703D01*
X539565Y1006704D01*
X543564D01*
X545563Y1008703D01*
X555560Y1006704D02*
Y1018700D01*
X549562Y1012702D01*
X557560D01*
X569556Y1018700D02*
X565557Y1016701D01*
X561558Y1012702D01*
Y1008703D01*
X563558Y1006704D01*
X567556D01*
X569556Y1008703D01*
Y1010703D01*
X567556Y1012702D01*
X561558D01*
X597419Y992603D02*
X595420Y990604D01*
Y986605D01*
X597419Y984606D01*
X605417D01*
X607416Y986605D01*
Y990604D01*
X605417Y992603D01*
X607416Y1002600D02*
X595420D01*
X601418Y996602D01*
Y1004600D01*
X595420Y1008598D02*
Y1016596D01*
X597419D01*
X605417Y1008598D01*
X607416D01*
X304997Y303997D02*
X302998Y305996D01*
X298999D01*
X297000Y303997D01*
Y295999D01*
X298999Y294000D01*
X302998D01*
X304997Y295999D01*
X314994Y294000D02*
Y305996D01*
X308996Y299998D01*
X316994D01*
X320992Y303997D02*
X322992Y305996D01*
X326990D01*
X328990Y303997D01*
Y301997D01*
X326990Y299998D01*
X328990Y297999D01*
Y295999D01*
X326990Y294000D01*
X322992D01*
X320992Y295999D01*
Y297999D01*
X322992Y299998D01*
X320992Y301997D01*
Y303997D01*
X322992Y299998D02*
X326990D01*
X972503Y987997D02*
X970504Y985998D01*
Y981999D01*
X972503Y980000D01*
X980501D01*
X982500Y981999D01*
Y985998D01*
X980501Y987997D01*
X982500Y997994D02*
X970504D01*
X976502Y991996D01*
Y999994D01*
X980501Y1003992D02*
X982500Y1005992D01*
Y1009990D01*
X980501Y1011990D01*
X972503D01*
X970504Y1009990D01*
Y1005992D01*
X972503Y1003992D01*
X974503D01*
X976502Y1005992D01*
Y1011990D01*
X1205000Y1041996D02*
Y1030000D01*
X1210998D01*
X1212997Y1031999D01*
Y1039997D01*
X1210998Y1041996D01*
X1205000D01*
X1216996Y1030000D02*
X1220995D01*
X1218996D01*
Y1041996D01*
X1216996Y1039997D01*
X554000Y436996D02*
Y425000D01*
X559998D01*
X561997Y426999D01*
Y434997D01*
X559998Y436996D01*
X554000D01*
X573993Y425000D02*
X565996D01*
X573993Y432997D01*
Y434997D01*
X571994Y436996D01*
X567995D01*
X565996Y434997D01*
X1584000Y447996D02*
Y436000D01*
X1589998D01*
X1591997Y437999D01*
Y445997D01*
X1589998Y447996D01*
X1584000D01*
X1595996Y445997D02*
X1597995Y447996D01*
X1601994D01*
X1603994Y445997D01*
Y443997D01*
X1601994Y441998D01*
X1599995D01*
X1601994D01*
X1603994Y439999D01*
Y437999D01*
X1601994Y436000D01*
X1597995D01*
X1595996Y437999D01*
X812000Y563996D02*
Y552000D01*
X817998D01*
X819997Y553999D01*
Y561997D01*
X817998Y563996D01*
X812000D01*
X823996Y552000D02*
Y559997D01*
X827995Y563996D01*
X831993Y559997D01*
Y552000D01*
Y557998D01*
X823996D01*
X835992Y552000D02*
X839991D01*
X837992D01*
Y563996D01*
X835992Y561997D01*
X447004Y765000D02*
X459000D01*
Y770998D01*
X457001Y772997D01*
X449003D01*
X447004Y770998D01*
Y765000D01*
X459000Y776996D02*
X451003D01*
X447004Y780995D01*
X451003Y784994D01*
X459000D01*
X453002D01*
Y776996D01*
X459000Y796990D02*
Y788992D01*
X451003Y796990D01*
X449003D01*
X447004Y794990D01*
Y790992D01*
X449003Y788992D01*
X441554Y407830D02*
Y395834D01*
X447552D01*
X449551Y397833D01*
Y405831D01*
X447552Y407830D01*
X441554D01*
X453550Y395834D02*
Y403831D01*
X457549Y407830D01*
X461548Y403831D01*
Y395834D01*
Y401832D01*
X453550D01*
X465546Y405831D02*
X467546Y407830D01*
X471544D01*
X473544Y405831D01*
Y403831D01*
X471544Y401832D01*
X469545D01*
X471544D01*
X473544Y399833D01*
Y397833D01*
X471544Y395834D01*
X467546D01*
X465546Y397833D01*
X1035406Y502318D02*
Y490322D01*
X1041404D01*
X1043403Y492321D01*
Y500319D01*
X1041404Y502318D01*
X1035406D01*
X1047402Y490322D02*
Y498319D01*
X1051401Y502318D01*
X1055399Y498319D01*
Y490322D01*
Y496320D01*
X1047402D01*
X1065396Y490322D02*
Y502318D01*
X1059398Y496320D01*
X1067396D01*
X1559000Y327996D02*
Y316000D01*
X1564998D01*
X1566997Y317999D01*
Y325997D01*
X1564998Y327996D01*
X1559000D01*
X1570996Y316000D02*
Y323997D01*
X1574995Y327996D01*
X1578994Y323997D01*
Y316000D01*
Y321998D01*
X1570996D01*
X1590990Y327996D02*
X1582992D01*
Y321998D01*
X1586991Y323997D01*
X1588990D01*
X1590990Y321998D01*
Y317999D01*
X1588990Y316000D01*
X1584992D01*
X1582992Y317999D01*
X640378Y831698D02*
X652374D01*
Y837696D01*
X650375Y839695D01*
X642377D01*
X640378Y837696D01*
Y831698D01*
X652374Y843694D02*
X644377D01*
X640378Y847693D01*
X644377Y851692D01*
X652374D01*
X646376D01*
Y843694D01*
X640378Y855690D02*
Y863688D01*
X642377D01*
X650375Y855690D01*
X652374D01*
X1394308Y1003968D02*
Y991972D01*
X1400306D01*
X1402305Y993971D01*
Y1001969D01*
X1400306Y1003968D01*
X1394308D01*
X1406304Y991972D02*
Y999969D01*
X1410303Y1003968D01*
X1414301Y999969D01*
Y991972D01*
Y997970D01*
X1406304D01*
X1418300Y1001969D02*
X1420300Y1003968D01*
X1424298D01*
X1426298Y1001969D01*
Y999969D01*
X1424298Y997970D01*
X1426298Y995971D01*
Y993971D01*
X1424298Y991972D01*
X1420300D01*
X1418300Y993971D01*
Y995971D01*
X1420300Y997970D01*
X1418300Y999969D01*
Y1001969D01*
X1420300Y997970D02*
X1424298D01*
X1108558Y975774D02*
Y963778D01*
X1114556D01*
X1116555Y965777D01*
Y973775D01*
X1114556Y975774D01*
X1108558D01*
X1120554Y963778D02*
Y971775D01*
X1124553Y975774D01*
X1128551Y971775D01*
Y963778D01*
Y969776D01*
X1120554D01*
X1132550Y963778D02*
X1136549D01*
X1134550D01*
Y975774D01*
X1132550Y973775D01*
X1142547D02*
X1144546Y975774D01*
X1148545D01*
X1150544Y973775D01*
Y965777D01*
X1148545Y963778D01*
X1144546D01*
X1142547Y965777D01*
Y973775D01*
X1457000Y486996D02*
Y475000D01*
X1462998D01*
X1464997Y476999D01*
Y484997D01*
X1462998Y486996D01*
X1457000D01*
X1468996D02*
Y475000D01*
X1474994D01*
X1476994Y476999D01*
Y484997D01*
X1474994Y486996D01*
X1468996D01*
X1480992Y475000D02*
X1484991D01*
X1482992D01*
Y486996D01*
X1480992Y484997D01*
X1133997Y1102996D02*
X1126000D01*
Y1096998D01*
X1129999D01*
X1126000D01*
Y1091000D01*
X1137996Y1102996D02*
Y1092999D01*
X1139995Y1091000D01*
X1143994D01*
X1145993Y1092999D01*
Y1102996D01*
X1149992Y1091000D02*
X1153991D01*
X1151992D01*
Y1102996D01*
X1149992Y1100997D01*
X235997Y915996D02*
X231999D01*
X233998D01*
Y905999D01*
X231999Y904000D01*
X229999D01*
X228000Y905999D01*
X239996Y913997D02*
X241996Y915996D01*
X245994D01*
X247994Y913997D01*
Y911997D01*
X245994Y909998D01*
X243995D01*
X245994D01*
X247994Y907999D01*
Y905999D01*
X245994Y904000D01*
X241996D01*
X239996Y905999D01*
X1688773Y1052821D02*
X1684774D01*
X1686774D01*
Y1042824D01*
X1684774Y1040825D01*
X1682775D01*
X1680775Y1042824D01*
X1698770Y1040825D02*
Y1052821D01*
X1692772Y1046823D01*
X1700769D01*
X510155Y1249992D02*
X506157D01*
X508156D01*
Y1239995D01*
X506157Y1237996D01*
X504157D01*
X502158Y1239995D01*
X522151Y1249992D02*
X514154D01*
Y1243994D01*
X518153Y1245993D01*
X520152D01*
X522151Y1243994D01*
Y1239995D01*
X520152Y1237996D01*
X516153D01*
X514154Y1239995D01*
X1418561Y288704D02*
X1414563D01*
X1416562D01*
Y278707D01*
X1414563Y276708D01*
X1412563D01*
X1410564Y278707D01*
X1430558Y288704D02*
X1426559Y286705D01*
X1422560Y282706D01*
Y278707D01*
X1424559Y276708D01*
X1428558D01*
X1430558Y278707D01*
Y280707D01*
X1428558Y282706D01*
X1422560D01*
X747000Y468996D02*
Y457000D01*
X754997D01*
X758996D02*
X762995D01*
X760995D01*
Y468996D01*
X758996Y466997D01*
X702000Y347996D02*
Y336000D01*
X709997D01*
X721993D02*
X713996D01*
X721993Y343997D01*
Y345997D01*
X719994Y347996D01*
X715995D01*
X713996Y345997D01*
X911396Y332334D02*
X923392D01*
Y340331D01*
X913395Y344330D02*
X911396Y346329D01*
Y350328D01*
X913395Y352327D01*
X915395D01*
X917394Y350328D01*
Y348329D01*
Y350328D01*
X919393Y352327D01*
X921393D01*
X923392Y350328D01*
Y346329D01*
X921393Y344330D01*
X1432500Y394496D02*
Y382500D01*
X1440497D01*
X1450494D02*
Y394496D01*
X1444496Y388498D01*
X1452493D01*
X501752Y818998D02*
Y830994D01*
X507750D01*
X509749Y828995D01*
Y824996D01*
X507750Y822997D01*
X501752D01*
X505751D02*
X509749Y818998D01*
X513748D02*
X517747D01*
X515747D01*
Y830994D01*
X513748Y828995D01*
X527500Y402500D02*
Y414496D01*
X533498D01*
X535497Y412497D01*
Y408498D01*
X533498Y406499D01*
X527500D01*
X531499D02*
X535497Y402500D01*
X547494D02*
X539496D01*
X547494Y410497D01*
Y412497D01*
X545494Y414496D01*
X541496D01*
X539496Y412497D01*
X1629000Y429500D02*
Y441496D01*
X1634998D01*
X1636997Y439497D01*
Y435498D01*
X1634998Y433499D01*
X1629000D01*
X1632999D02*
X1636997Y429500D01*
X1640996Y439497D02*
X1642995Y441496D01*
X1646994D01*
X1648994Y439497D01*
Y437497D01*
X1646994Y435498D01*
X1644995D01*
X1646994D01*
X1648994Y433499D01*
Y431499D01*
X1646994Y429500D01*
X1642995D01*
X1640996Y431499D01*
X435458Y473558D02*
Y485554D01*
X441456D01*
X443455Y483555D01*
Y479556D01*
X441456Y477557D01*
X435458D01*
X439457D02*
X443455Y473558D01*
X453452D02*
Y485554D01*
X447454Y479556D01*
X455452D01*
X368402Y605892D02*
Y617888D01*
X374400D01*
X376399Y615889D01*
Y611890D01*
X374400Y609891D01*
X368402D01*
X372401D02*
X376399Y605892D01*
X388396Y617888D02*
X380398D01*
Y611890D01*
X384397Y613889D01*
X386396D01*
X388396Y611890D01*
Y607891D01*
X386396Y605892D01*
X382397D01*
X380398Y607891D01*
X370942Y639420D02*
Y651416D01*
X376940D01*
X378939Y649417D01*
Y645418D01*
X376940Y643419D01*
X370942D01*
X374941D02*
X378939Y639420D01*
X390936Y651416D02*
X386937Y649417D01*
X382938Y645418D01*
Y641419D01*
X384938Y639420D01*
X388936D01*
X390936Y641419D01*
Y643419D01*
X388936Y645418D01*
X382938D01*
X436220Y507086D02*
Y519082D01*
X442218D01*
X444217Y517083D01*
Y513084D01*
X442218Y511085D01*
X436220D01*
X440219D02*
X444217Y507086D01*
X448216Y519082D02*
X456213D01*
Y517083D01*
X448216Y509085D01*
Y507086D01*
X436220Y540614D02*
Y552610D01*
X442218D01*
X444217Y550611D01*
Y546612D01*
X442218Y544613D01*
X436220D01*
X440219D02*
X444217Y540614D01*
X448216Y550611D02*
X450215Y552610D01*
X454214D01*
X456213Y550611D01*
Y548611D01*
X454214Y546612D01*
X456213Y544613D01*
Y542613D01*
X454214Y540614D01*
X450215D01*
X448216Y542613D01*
Y544613D01*
X450215Y546612D01*
X448216Y548611D01*
Y550611D01*
X450215Y546612D02*
X454214D01*
X437000Y569000D02*
Y580996D01*
X442998D01*
X444997Y578997D01*
Y574998D01*
X442998Y572999D01*
X437000D01*
X440999D02*
X444997Y569000D01*
X448996Y570999D02*
X450995Y569000D01*
X454994D01*
X456993Y570999D01*
Y578997D01*
X454994Y580996D01*
X450995D01*
X448996Y578997D01*
Y576997D01*
X450995Y574998D01*
X456993D01*
X392024Y732892D02*
X380028D01*
Y738890D01*
X382027Y740889D01*
X386026D01*
X388025Y738890D01*
Y732892D01*
Y736891D02*
X392024Y740889D01*
Y744888D02*
Y748887D01*
Y746888D01*
X380028D01*
X382027Y744888D01*
Y754885D02*
X380028Y756884D01*
Y760883D01*
X382027Y762882D01*
X390025D01*
X392024Y760883D01*
Y756884D01*
X390025Y754885D01*
X382027D01*
X432002Y694000D02*
Y705996D01*
X438000D01*
X439999Y703997D01*
Y699998D01*
X438000Y697999D01*
X432002D01*
X436000D02*
X439999Y694000D01*
X443998D02*
X447996D01*
X445997D01*
Y705996D01*
X443998Y703997D01*
X453994Y694000D02*
X457993D01*
X455994D01*
Y705996D01*
X453994Y703997D01*
X673822Y695376D02*
X661826D01*
Y701374D01*
X663825Y703373D01*
X667824D01*
X669823Y701374D01*
Y695376D01*
Y699375D02*
X673822Y703373D01*
Y707372D02*
Y711371D01*
Y709371D01*
X661826D01*
X663825Y707372D01*
X673822Y725366D02*
Y717369D01*
X665825Y725366D01*
X663825D01*
X661826Y723367D01*
Y719368D01*
X663825Y717369D01*
X819760Y944220D02*
X807764D01*
Y950218D01*
X809763Y952217D01*
X813762D01*
X815761Y950218D01*
Y944220D01*
Y948219D02*
X819760Y952217D01*
Y956216D02*
Y960215D01*
Y958215D01*
X807764D01*
X809763Y956216D01*
Y966213D02*
X807764Y968212D01*
Y972211D01*
X809763Y974210D01*
X811763D01*
X813762Y972211D01*
Y970212D01*
Y972211D01*
X815761Y974210D01*
X817761D01*
X819760Y972211D01*
Y968212D01*
X817761Y966213D01*
X1095858Y944728D02*
X1083862D01*
Y950726D01*
X1085861Y952725D01*
X1089860D01*
X1091859Y950726D01*
Y944728D01*
Y948727D02*
X1095858Y952725D01*
Y956724D02*
Y960723D01*
Y958724D01*
X1083862D01*
X1085861Y956724D01*
X1095858Y972719D02*
X1083862D01*
X1089860Y966721D01*
Y974718D01*
X839318Y959460D02*
Y971456D01*
X845316D01*
X847315Y969457D01*
Y965458D01*
X845316Y963459D01*
X839318D01*
X843317D02*
X847315Y959460D01*
X851314D02*
X855313D01*
X853314D01*
Y971456D01*
X851314Y969457D01*
X869308Y971456D02*
X861311D01*
Y965458D01*
X865310Y967457D01*
X867309D01*
X869308Y965458D01*
Y961459D01*
X867309Y959460D01*
X863310D01*
X861311Y961459D01*
X886308Y927456D02*
X874312D01*
Y933454D01*
X876311Y935453D01*
X880310D01*
X882309Y933454D01*
Y927456D01*
Y931455D02*
X886308Y935453D01*
Y939452D02*
Y943451D01*
Y941451D01*
X874312D01*
X876311Y939452D01*
X874312Y957446D02*
X876311Y953448D01*
X880310Y949449D01*
X884309D01*
X886308Y951448D01*
Y955447D01*
X884309Y957446D01*
X882309D01*
X880310Y955447D01*
Y949449D01*
X957500Y982500D02*
X945504D01*
Y988498D01*
X947503Y990497D01*
X951502D01*
X953501Y988498D01*
Y982500D01*
Y986499D02*
X957500Y990497D01*
Y994496D02*
Y998495D01*
Y996496D01*
X945504D01*
X947503Y994496D01*
X945504Y1004493D02*
Y1012490D01*
X947503D01*
X955501Y1004493D01*
X957500D01*
X923900Y940664D02*
X911904D01*
Y946662D01*
X913903Y948661D01*
X917902D01*
X919901Y946662D01*
Y940664D01*
Y944663D02*
X923900Y948661D01*
Y952660D02*
Y956659D01*
Y954660D01*
X911904D01*
X913903Y952660D01*
Y962657D02*
X911904Y964656D01*
Y968655D01*
X913903Y970654D01*
X915903D01*
X917902Y968655D01*
X919901Y970654D01*
X921901D01*
X923900Y968655D01*
Y964656D01*
X921901Y962657D01*
X919901D01*
X917902Y964656D01*
X915903Y962657D01*
X913903D01*
X917902Y964656D02*
Y968655D01*
X1174090Y938378D02*
X1162094D01*
Y944376D01*
X1164093Y946375D01*
X1168092D01*
X1170091Y944376D01*
Y938378D01*
Y942377D02*
X1174090Y946375D01*
Y950374D02*
Y954373D01*
Y952374D01*
X1162094D01*
X1164093Y950374D01*
X1172091Y960371D02*
X1174090Y962370D01*
Y966369D01*
X1172091Y968368D01*
X1164093D01*
X1162094Y966369D01*
Y962370D01*
X1164093Y960371D01*
X1166093D01*
X1168092Y962370D01*
Y968368D01*
X1221000Y969000D02*
Y980996D01*
X1226998D01*
X1228997Y978997D01*
Y974998D01*
X1226998Y972999D01*
X1221000D01*
X1224999D02*
X1228997Y969000D01*
X1240993D02*
X1232996D01*
X1240993Y976997D01*
Y978997D01*
X1238994Y980996D01*
X1234995D01*
X1232996Y978997D01*
X1244992D02*
X1246992Y980996D01*
X1250990D01*
X1252990Y978997D01*
Y970999D01*
X1250990Y969000D01*
X1246992D01*
X1244992Y970999D01*
Y978997D01*
X1523000Y366000D02*
Y377996D01*
X1528998D01*
X1530997Y375997D01*
Y371998D01*
X1528998Y369999D01*
X1523000D01*
X1526999D02*
X1530997Y366000D01*
X1542993D02*
X1534996D01*
X1542993Y373997D01*
Y375997D01*
X1540994Y377996D01*
X1536996D01*
X1534996Y375997D01*
X1546992Y366000D02*
X1550991D01*
X1548992D01*
Y377996D01*
X1546992Y375997D01*
X1522000Y342000D02*
Y353996D01*
X1527998D01*
X1529997Y351997D01*
Y347998D01*
X1527998Y345999D01*
X1522000D01*
X1525999D02*
X1529997Y342000D01*
X1541994D02*
X1533996D01*
X1541994Y349997D01*
Y351997D01*
X1539994Y353996D01*
X1535995D01*
X1533996Y351997D01*
X1553990Y342000D02*
X1545992D01*
X1553990Y349997D01*
Y351997D01*
X1551990Y353996D01*
X1547992D01*
X1545992Y351997D01*
X1568000Y244000D02*
Y255996D01*
X1573998D01*
X1575997Y253997D01*
Y249998D01*
X1573998Y247999D01*
X1568000D01*
X1571999D02*
X1575997Y244000D01*
X1587993D02*
X1579996D01*
X1587993Y251997D01*
Y253997D01*
X1585994Y255996D01*
X1581996D01*
X1579996Y253997D01*
X1591992D02*
X1593992Y255996D01*
X1597990D01*
X1599990Y253997D01*
Y251997D01*
X1597990Y249998D01*
X1595991D01*
X1597990D01*
X1599990Y247999D01*
Y245999D01*
X1597990Y244000D01*
X1593992D01*
X1591992Y245999D01*
X645000Y487000D02*
Y498996D01*
X650998D01*
X652997Y496997D01*
Y492998D01*
X650998Y490999D01*
X645000D01*
X648999D02*
X652997Y487000D01*
X664994D02*
X656996D01*
X664994Y494997D01*
Y496997D01*
X662994Y498996D01*
X658996D01*
X656996Y496997D01*
X674990Y487000D02*
Y498996D01*
X668992Y492998D01*
X676990D01*
X477000Y722000D02*
Y733996D01*
X482998D01*
X484997Y731997D01*
Y727998D01*
X482998Y725999D01*
X477000D01*
X480999D02*
X484997Y722000D01*
X496993D02*
X488996D01*
X496993Y729997D01*
Y731997D01*
X494994Y733996D01*
X490995D01*
X488996Y731997D01*
X508990Y733996D02*
X500992D01*
Y727998D01*
X504991Y729997D01*
X506990D01*
X508990Y727998D01*
Y723999D01*
X506990Y722000D01*
X502992D01*
X500992Y723999D01*
X670000Y431000D02*
X658004D01*
Y436998D01*
X660003Y438997D01*
X664002D01*
X666001Y436998D01*
Y431000D01*
Y434999D02*
X670000Y438997D01*
Y450993D02*
Y442996D01*
X662003Y450993D01*
X660003D01*
X658004Y448994D01*
Y444995D01*
X660003Y442996D01*
X658004Y462990D02*
X660003Y458991D01*
X664002Y454992D01*
X668001D01*
X670000Y456992D01*
Y460990D01*
X668001Y462990D01*
X666001D01*
X664002Y460990D01*
Y454992D01*
X966572Y427584D02*
Y439580D01*
X972570D01*
X974569Y437581D01*
Y433582D01*
X972570Y431583D01*
X966572D01*
X970571D02*
X974569Y427584D01*
X986565D02*
X978568D01*
X986565Y435581D01*
Y437581D01*
X984566Y439580D01*
X980567D01*
X978568Y437581D01*
X990564Y439580D02*
X998562D01*
Y437581D01*
X990564Y429583D01*
Y427584D01*
X462636Y267056D02*
Y279052D01*
X468634D01*
X470633Y277053D01*
Y273054D01*
X468634Y271055D01*
X462636D01*
X466635D02*
X470633Y267056D01*
X482630D02*
X474632D01*
X482630Y275053D01*
Y277053D01*
X480630Y279052D01*
X476632D01*
X474632Y277053D01*
X486628D02*
X488628Y279052D01*
X492626D01*
X494626Y277053D01*
Y275053D01*
X492626Y273054D01*
X494626Y271055D01*
Y269055D01*
X492626Y267056D01*
X488628D01*
X486628Y269055D01*
Y271055D01*
X488628Y273054D01*
X486628Y275053D01*
Y277053D01*
X488628Y273054D02*
X492626D01*
X1658000Y435000D02*
Y446996D01*
X1663998D01*
X1665997Y444997D01*
Y440998D01*
X1663998Y438999D01*
X1658000D01*
X1661999D02*
X1665997Y435000D01*
X1677993D02*
X1669996D01*
X1677993Y442997D01*
Y444997D01*
X1675994Y446996D01*
X1671996D01*
X1669996Y444997D01*
X1681992Y436999D02*
X1683992Y435000D01*
X1687990D01*
X1689990Y436999D01*
Y444997D01*
X1687990Y446996D01*
X1683992D01*
X1681992Y444997D01*
Y442997D01*
X1683992Y440998D01*
X1689990D01*
X351130Y989178D02*
Y1001174D01*
X357128D01*
X359127Y999175D01*
Y995176D01*
X357128Y993177D01*
X351130D01*
X355129D02*
X359127Y989178D01*
X363126Y999175D02*
X365126Y1001174D01*
X369124D01*
X371124Y999175D01*
Y997175D01*
X369124Y995176D01*
X367125D01*
X369124D01*
X371124Y993177D01*
Y991177D01*
X369124Y989178D01*
X365126D01*
X363126Y991177D01*
X375122Y999175D02*
X377122Y1001174D01*
X381120D01*
X383120Y999175D01*
Y991177D01*
X381120Y989178D01*
X377122D01*
X375122Y991177D01*
Y999175D01*
X828650Y796392D02*
Y808388D01*
X834648D01*
X836647Y806389D01*
Y802390D01*
X834648Y800391D01*
X828650D01*
X832649D02*
X836647Y796392D01*
X840646Y806389D02*
X842645Y808388D01*
X846644D01*
X848643Y806389D01*
Y804389D01*
X846644Y802390D01*
X844645D01*
X846644D01*
X848643Y800391D01*
Y798391D01*
X846644Y796392D01*
X842645D01*
X840646Y798391D01*
X852642Y806389D02*
X854642Y808388D01*
X858640D01*
X860640Y806389D01*
Y804389D01*
X858640Y802390D01*
X856641D01*
X858640D01*
X860640Y800391D01*
Y798391D01*
X858640Y796392D01*
X854642D01*
X852642Y798391D01*
X799440Y942696D02*
X787444D01*
Y948694D01*
X789443Y950693D01*
X793442D01*
X795441Y948694D01*
Y942696D01*
Y946695D02*
X799440Y950693D01*
X789443Y954692D02*
X787444Y956692D01*
Y960690D01*
X789443Y962690D01*
X791443D01*
X793442Y960690D01*
Y958691D01*
Y960690D01*
X795441Y962690D01*
X797441D01*
X799440Y960690D01*
Y956692D01*
X797441Y954692D01*
X799440Y972686D02*
X787444D01*
X793442Y966688D01*
Y974686D01*
X770484Y942696D02*
X758488D01*
Y948694D01*
X760487Y950693D01*
X764486D01*
X766485Y948694D01*
Y942696D01*
Y946695D02*
X770484Y950693D01*
X760487Y954692D02*
X758488Y956692D01*
Y960690D01*
X760487Y962690D01*
X762487D01*
X764486Y960690D01*
Y958691D01*
Y960690D01*
X766485Y962690D01*
X768485D01*
X770484Y960690D01*
Y956692D01*
X768485Y954692D01*
X758488Y974686D02*
Y966688D01*
X764486D01*
X762487Y970687D01*
Y972686D01*
X764486Y974686D01*
X768485D01*
X770484Y972686D01*
Y968688D01*
X768485Y966688D01*
X743814Y943204D02*
X731818D01*
Y949202D01*
X733817Y951201D01*
X737816D01*
X739815Y949202D01*
Y943204D01*
Y947203D02*
X743814Y951201D01*
X733817Y955200D02*
X731818Y957199D01*
Y961198D01*
X733817Y963197D01*
X735817D01*
X737816Y961198D01*
Y959199D01*
Y961198D01*
X739815Y963197D01*
X741815D01*
X743814Y961198D01*
Y957199D01*
X741815Y955200D01*
X731818Y975194D02*
X733817Y971195D01*
X737816Y967196D01*
X741815D01*
X743814Y969196D01*
Y973194D01*
X741815Y975194D01*
X739815D01*
X737816Y973194D01*
Y967196D01*
X721716Y942696D02*
X709720D01*
Y948694D01*
X711719Y950693D01*
X715718D01*
X717717Y948694D01*
Y942696D01*
Y946695D02*
X721716Y950693D01*
X711719Y954692D02*
X709720Y956692D01*
Y960690D01*
X711719Y962690D01*
X713719D01*
X715718Y960690D01*
Y958691D01*
Y960690D01*
X717717Y962690D01*
X719717D01*
X721716Y960690D01*
Y956692D01*
X719717Y954692D01*
X709720Y966688D02*
Y974686D01*
X711719D01*
X719717Y966688D01*
X721716D01*
X704698Y942696D02*
X692702D01*
Y948694D01*
X694701Y950693D01*
X698700D01*
X700699Y948694D01*
Y942696D01*
Y946695D02*
X704698Y950693D01*
X694701Y954692D02*
X692702Y956692D01*
Y960690D01*
X694701Y962690D01*
X696701D01*
X698700Y960690D01*
Y958691D01*
Y960690D01*
X700699Y962690D01*
X702699D01*
X704698Y960690D01*
Y956692D01*
X702699Y954692D01*
X694701Y966688D02*
X692702Y968688D01*
Y972686D01*
X694701Y974686D01*
X696701D01*
X698700Y972686D01*
X700699Y974686D01*
X702699D01*
X704698Y972686D01*
Y968688D01*
X702699Y966688D01*
X700699D01*
X698700Y968688D01*
X696701Y966688D01*
X694701D01*
X698700Y968688D02*
Y972686D01*
X688442Y942442D02*
X676446D01*
Y948440D01*
X678445Y950439D01*
X682444D01*
X684443Y948440D01*
Y942442D01*
Y946441D02*
X688442Y950439D01*
X678445Y954438D02*
X676446Y956438D01*
Y960436D01*
X678445Y962436D01*
X680445D01*
X682444Y960436D01*
Y958437D01*
Y960436D01*
X684443Y962436D01*
X686443D01*
X688442Y960436D01*
Y956438D01*
X686443Y954438D01*
Y966434D02*
X688442Y968434D01*
Y972432D01*
X686443Y974432D01*
X678445D01*
X676446Y972432D01*
Y968434D01*
X678445Y966434D01*
X680445D01*
X682444Y968434D01*
Y974432D01*
X652628Y865226D02*
X640632D01*
Y871224D01*
X642631Y873223D01*
X646630D01*
X648629Y871224D01*
Y865226D01*
Y869225D02*
X652628Y873223D01*
Y883220D02*
X640632D01*
X646630Y877222D01*
Y885219D01*
X642631Y889218D02*
X640632Y891218D01*
Y895216D01*
X642631Y897216D01*
X650629D01*
X652628Y895216D01*
Y891218D01*
X650629Y889218D01*
X642631D01*
X814680Y700126D02*
X802684D01*
Y706124D01*
X804683Y708123D01*
X808682D01*
X810681Y706124D01*
Y700126D01*
Y704125D02*
X814680Y708123D01*
Y718120D02*
X802684D01*
X808682Y712122D01*
Y720119D01*
X814680Y724118D02*
Y728117D01*
Y726118D01*
X802684D01*
X804683Y724118D01*
X792370Y700126D02*
X780374D01*
Y706124D01*
X782374Y708123D01*
X786372D01*
X788372Y706124D01*
Y700126D01*
Y704125D02*
X792370Y708123D01*
Y718120D02*
X780374D01*
X786372Y712122D01*
Y720119D01*
X792370Y732116D02*
Y724118D01*
X784373Y732116D01*
X782374D01*
X780374Y730116D01*
Y726118D01*
X782374Y724118D01*
X952500Y897500D02*
Y909496D01*
X958498D01*
X960497Y907497D01*
Y903498D01*
X958498Y901499D01*
X952500D01*
X956499D02*
X960497Y897500D01*
X970494D02*
Y909496D01*
X964496Y903498D01*
X972494D01*
X976492Y907497D02*
X978492Y909496D01*
X982490D01*
X984490Y907497D01*
Y905497D01*
X982490Y903498D01*
X980491D01*
X982490D01*
X984490Y901499D01*
Y899499D01*
X982490Y897500D01*
X978492D01*
X976492Y899499D01*
X770061Y700126D02*
X758064D01*
Y706124D01*
X760064Y708123D01*
X764063D01*
X766062Y706124D01*
Y700126D01*
Y704125D02*
X770061Y708123D01*
Y718120D02*
X758064D01*
X764063Y712122D01*
Y720119D01*
X770061Y730116D02*
X758064D01*
X764063Y724118D01*
Y732116D01*
X747751Y700126D02*
X735755D01*
Y706124D01*
X737754Y708123D01*
X741753D01*
X743752Y706124D01*
Y700126D01*
Y704125D02*
X747751Y708123D01*
Y718120D02*
X735755D01*
X741753Y712122D01*
Y720119D01*
X735755Y732116D02*
Y724118D01*
X741753D01*
X739754Y728117D01*
Y730116D01*
X741753Y732116D01*
X745752D01*
X747751Y730116D01*
Y726118D01*
X745752Y724118D01*
X725441Y700126D02*
X713445D01*
Y706124D01*
X715444Y708123D01*
X719443D01*
X721443Y706124D01*
Y700126D01*
Y704125D02*
X725441Y708123D01*
Y718120D02*
X713445D01*
X719443Y712122D01*
Y720119D01*
X713445Y732116D02*
X715444Y728117D01*
X719443Y724118D01*
X723442D01*
X725441Y726118D01*
Y730116D01*
X723442Y732116D01*
X721443D01*
X719443Y730116D01*
Y724118D01*
X703132Y700126D02*
X691135D01*
Y706124D01*
X693135Y708123D01*
X697134D01*
X699133Y706124D01*
Y700126D01*
Y704125D02*
X703132Y708123D01*
Y718120D02*
X691135D01*
X697134Y712122D01*
Y720119D01*
X691135Y724118D02*
Y732116D01*
X693135D01*
X701132Y724118D01*
X703132D01*
X279756Y933552D02*
Y945548D01*
X285754D01*
X287753Y943549D01*
Y939550D01*
X285754Y937551D01*
X279756D01*
X283755D02*
X287753Y933552D01*
X299750Y945548D02*
X291752D01*
Y939550D01*
X295751Y941549D01*
X297750D01*
X299750Y939550D01*
Y935551D01*
X297750Y933552D01*
X293752D01*
X291752Y935551D01*
X303748Y933552D02*
X307747D01*
X305748D01*
Y945548D01*
X303748Y943549D01*
X393294Y1044804D02*
Y1056800D01*
X399292D01*
X401291Y1054801D01*
Y1050802D01*
X399292Y1048803D01*
X393294D01*
X397293D02*
X401291Y1044804D01*
X413288Y1056800D02*
X405290D01*
Y1050802D01*
X409289Y1052801D01*
X411288D01*
X413288Y1050802D01*
Y1046803D01*
X411288Y1044804D01*
X407290D01*
X405290Y1046803D01*
X425284Y1044804D02*
X417286D01*
X425284Y1052801D01*
Y1054801D01*
X423284Y1056800D01*
X419286D01*
X417286Y1054801D01*
X685004Y452000D02*
Y459997D01*
Y455999D01*
X697000D01*
Y463996D02*
X685004D01*
Y469994D01*
X687003Y471993D01*
X691002D01*
X693001Y469994D01*
Y463996D01*
X697000Y475992D02*
Y479991D01*
Y477992D01*
X685004D01*
X687003Y475992D01*
X506000Y700996D02*
X513997D01*
X509999D01*
Y689000D01*
X517996D02*
Y700996D01*
X523994D01*
X525993Y698997D01*
Y694998D01*
X523994Y692999D01*
X517996D01*
X537990Y689000D02*
X529992D01*
X537990Y696997D01*
Y698997D01*
X535990Y700996D01*
X531992D01*
X529992Y698997D01*
X608004Y426000D02*
Y433997D01*
Y429999D01*
X620000D01*
Y437996D02*
X608004D01*
Y443994D01*
X610003Y445993D01*
X614002D01*
X616001Y443994D01*
Y437996D01*
X610003Y449992D02*
X608004Y451992D01*
Y455990D01*
X610003Y457990D01*
X612003D01*
X614002Y455990D01*
Y453991D01*
Y455990D01*
X616001Y457990D01*
X618001D01*
X620000Y455990D01*
Y451992D01*
X618001Y449992D01*
X373004Y334000D02*
Y341997D01*
Y337999D01*
X385000D01*
Y345996D02*
X373004D01*
Y351994D01*
X375003Y353993D01*
X379002D01*
X381001Y351994D01*
Y345996D01*
X385000Y363990D02*
X373004D01*
X379002Y357992D01*
Y365990D01*
X912004Y446000D02*
Y453997D01*
Y449999D01*
X924000D01*
Y457996D02*
X912004D01*
Y463994D01*
X914003Y465993D01*
X918002D01*
X920001Y463994D01*
Y457996D01*
X912004Y477990D02*
Y469992D01*
X918002D01*
X916003Y473991D01*
Y475990D01*
X918002Y477990D01*
X922001D01*
X924000Y475990D01*
Y471992D01*
X922001Y469992D01*
X1606000Y470996D02*
X1613997D01*
X1609999D01*
Y459000D01*
X1617996D02*
Y470996D01*
X1623994D01*
X1625993Y468997D01*
Y464998D01*
X1623994Y462999D01*
X1617996D01*
X1637990Y470996D02*
X1633991Y468997D01*
X1629992Y464998D01*
Y460999D01*
X1631992Y459000D01*
X1635990D01*
X1637990Y460999D01*
Y462999D01*
X1635990Y464998D01*
X1629992D01*
X512362Y913232D02*
Y921229D01*
Y917231D01*
X524358D01*
Y925228D02*
X512362D01*
Y931226D01*
X514361Y933225D01*
X518360D01*
X520359Y931226D01*
Y925228D01*
X512362Y937224D02*
Y945222D01*
X514361D01*
X522359Y937224D01*
X524358D01*
X1396500Y980496D02*
X1404497D01*
X1400499D01*
Y968500D01*
X1408496D02*
Y980496D01*
X1414494D01*
X1416494Y978497D01*
Y974498D01*
X1414494Y972499D01*
X1408496D01*
X1420492Y978497D02*
X1422492Y980496D01*
X1426490D01*
X1428490Y978497D01*
Y976497D01*
X1426490Y974498D01*
X1428490Y972499D01*
Y970499D01*
X1426490Y968500D01*
X1422492D01*
X1420492Y970499D01*
Y972499D01*
X1422492Y974498D01*
X1420492Y976497D01*
Y978497D01*
X1422492Y974498D02*
X1426490D01*
X1361000Y1133996D02*
X1368997D01*
X1364999D01*
Y1122000D01*
X1372996D02*
Y1133996D01*
X1378994D01*
X1380993Y1131997D01*
Y1127998D01*
X1378994Y1125999D01*
X1372996D01*
X1384992Y1123999D02*
X1386992Y1122000D01*
X1390990D01*
X1392990Y1123999D01*
Y1131997D01*
X1390990Y1133996D01*
X1386992D01*
X1384992Y1131997D01*
Y1129997D01*
X1386992Y1127998D01*
X1392990D01*
X921004Y850000D02*
Y857997D01*
Y853999D01*
X933000D01*
Y861996D02*
X921004D01*
Y867994D01*
X923003Y869994D01*
X927002D01*
X929001Y867994D01*
Y861996D01*
X933000Y873992D02*
Y877991D01*
Y875992D01*
X921004D01*
X923003Y873992D01*
Y883989D02*
X921004Y885988D01*
Y889987D01*
X923003Y891986D01*
X931001D01*
X933000Y889987D01*
Y885988D01*
X931001Y883989D01*
X923003D01*
X1093000Y1035996D02*
X1100997D01*
X1096999D01*
Y1024000D01*
X1104996D02*
Y1035996D01*
X1110994D01*
X1112993Y1033997D01*
Y1029998D01*
X1110994Y1027999D01*
X1104996D01*
X1116992Y1024000D02*
X1120991D01*
X1118992D01*
Y1035996D01*
X1116992Y1033997D01*
X1126989Y1024000D02*
X1130988D01*
X1128988D01*
Y1035996D01*
X1126989Y1033997D01*
X483914Y912470D02*
Y920467D01*
Y916469D01*
X495910D01*
Y924466D02*
X483914D01*
Y930464D01*
X485913Y932464D01*
X489912D01*
X491911Y930464D01*
Y924466D01*
X495910Y936462D02*
Y940461D01*
Y938462D01*
X483914D01*
X485913Y936462D01*
X495910Y954456D02*
Y946459D01*
X487913Y954456D01*
X485913D01*
X483914Y952457D01*
Y948458D01*
X485913Y946459D01*
X1216000Y916338D02*
X1223997D01*
X1219999D01*
Y904342D01*
X1227996D02*
Y916338D01*
X1233994D01*
X1235993Y914339D01*
Y910340D01*
X1233994Y908341D01*
X1227996D01*
X1239992Y904342D02*
X1243991D01*
X1241992D01*
Y916338D01*
X1239992Y914339D01*
X1257986Y916338D02*
X1253988Y914339D01*
X1249989Y910340D01*
Y906341D01*
X1251988Y904342D01*
X1255987D01*
X1257986Y906341D01*
Y908341D01*
X1255987Y910340D01*
X1249989D01*
X1127000Y815996D02*
Y805999D01*
X1128999Y804000D01*
X1132998D01*
X1134997Y805999D01*
Y815996D01*
X1138996Y804000D02*
X1142995D01*
X1140995D01*
Y815996D01*
X1138996Y813997D01*
M02*
