M48
;Layer_Color=9474304
;FILE_FORMAT=4:4
METRIC,TZ
;TYPE=PLATED
T1F00S00C0.5000
T2F00S00C0.7112
T3F00S00C0.8000
T4F00S00C0.8128
T5F00S00C0.9000
T6F00S00C1.0000
T7F00S00C1.1000
T8F00S00C1.2000
T9F00S00C3.2000
;TYPE=NON_PLATED
T10F00S00C0.9000
%
T01
X278000Y318000
X405000Y319000
X465500Y312000
X485500Y311000
X463000Y342750
X407000Y390000
X554000Y357250
X620000Y351000
X686000Y337000
X740000Y342000
X790000Y220000
X660000
X798000Y335000
X974000Y360000
X1027000Y351000
X1061000Y337000
X1078000Y323000
X1095500Y346250
X940000Y220000
X1409000Y310000
Y389000
X1462250Y388500
X1505250Y338250
X1511000Y310000
X1487250Y311750
X1613000Y284000
X1615000Y230000
X1621200Y348200
X1677000Y400000
X1554160Y429160
X1540000Y430000
X1523000Y417000
X1503000Y437250
X1498750Y454250
X1438500Y451750
X1446000Y487000
X1405500Y430750
X1379000Y548000
X1477000Y594000
X1501000Y638000
X1500000Y656000
X1500000Y685000
X1501000Y703000
X1488000Y752000
X1444000Y714000
X1553000Y728000
X1572000Y716000
X1548000Y625000
Y612700
X1536000Y547000
X1254000Y482000
X1094000Y451000
X1077000Y465000
X1057000Y451000
X986000Y474000
X996000Y580000
X943000
Y645000
Y684940
X996000
Y644000
X1064000Y684940
X1080000Y580000
X886000Y558000
X877500Y542500
X855000Y580000
X832500Y592500
X854000Y644000
X853000Y684940
Y758000
Y780000
X808500Y746500
X909000Y720000
X947500Y737500
X785000Y745000
X765000
X742500
X720000
X697500Y745000
X658000Y743000
X647500Y730000
X617500Y720000
X591000Y725000
X572500Y722500
X517000Y728000
X522500Y762500
X456000Y750000
X438000Y760000
X419000Y722750
X420000Y652500
X470000Y632500
X492000Y662000
X469000Y565000
X464000Y548000
X458000Y514000
X513000Y515000
X512000Y547000
X534000Y580000
X594000
X596000Y644000
X631000Y684940
X674000
X711000
X713000Y644000
X673000
X674000Y580000
X714000
X761000Y512000
X784000Y488000
X773000Y459000
X647500Y470000
X617500Y512500
X612500Y412500
X554000Y413000
X514000Y467000
X607000Y764000
X367500Y935000
X275000Y920000
X399000Y980000
X418000Y979000
X439000Y993000
X460000Y980000
X527500Y955000
X572518Y948036
X585000Y946000
X572500Y887500
X571000Y850000
X518250Y836500
X512000Y809000
X645000Y825000
X660000Y797500
X690500Y804000
X695046Y860654
X694792Y880466
X731368
X731622Y860654
X766928
X766674Y880466
X792000Y845000
X803080Y860401
X886625Y839999
Y899999
X908000Y888000
X905000Y970000
X877500
X832500Y965000
X1000000Y966000
X1066000Y984000
X1068500Y1004500
X1002000Y852000
X962000Y799000
X1209000Y946000
X1223000Y1003000
X1257500Y1007500
X1280000Y1043000
X1353000Y1052000
X1318998Y997998
X1479000Y1007800
X1452000Y1056000
X1523000Y1078250
T02
X947500Y472500
X492500Y465000
X500000Y580000
X362000Y768000
T03
X850000Y239000
X875000
X900000
X900000Y293000
X875000
X850000
X1201000Y327400
Y352800
Y378200
X1353400
Y352800
Y327400
Y403600
Y429000
Y454400
Y479800
Y505200
Y530600
Y556000
Y581400
Y606800
Y632200
Y657600
Y683000
Y708400
Y733800
Y759200
Y784600
X1201000
Y759200
Y733800
Y708400
Y683000
Y657600
Y632200
Y606800
Y581400
Y556000
Y530600
Y505200
Y479800
Y454400
Y429000
Y403600
Y810000
X1353400
T04
X807000Y373200
X883200
X807000Y398600
Y424000
Y500200
Y525600
X883200
T05
X1614552Y605300
Y632700
Y660100
Y687500
Y714900
X1643000Y701200
Y673800
Y646400
Y619000
T06
X380000Y395000
X1579000Y464000
X920000Y507500
X691000Y412000
X615000Y475000
X492500Y695000
X327700Y685400
Y657700
Y630000
Y602300
Y574600
Y546900
Y519200
Y491500
Y463800
X302300Y477650
Y505350
Y533050
Y560750
Y588450
Y616150
Y643850
Y671550
Y699250
Y726950
Y754650
Y782350
X327700Y768500
Y740800
Y713100
Y796200
X490000Y890000
X520000Y992700
X600950Y1039600
X628650
X656350
X684050
X711750
X739450
X767150
X781000Y1065000
X753300
X725600
X697900
X670200
X642500
X614800
X808700
X836400
X864100
X891800
X919500
X905650Y1039600
X877950
X850250
X822550
X794850
X933350
X1060000Y1030000
X927500Y815000
X1364000Y973000
X1330000Y1127500
X1621074Y1008624
X1646474
Y983224
X1621074
Y957824
X1646474
Y932424
X1621074
Y907024
X1646474
T07
X329000Y245000
X380000Y295000
X615000Y375000
X1310000Y258000
X1636000Y297000
X1679000Y464000
X1574000Y495000
X1442000Y533000
X1087000Y509000
X920000Y407500
X1043000Y755000
X592500Y695000
X592000Y505000
X691000Y512000
X430000Y428000
X330000Y1035000
X490000Y990000
X520000Y892700
X927500Y915000
X1039000Y967000
X1160000Y1030000
X1258164Y878688
X1464000Y973000
X1430000Y1127500
T08
X1004000Y247500
X1029400
X1054800
X1080200
X1105600
X1131000
X252500Y964200
Y989600
Y1015000
Y1040400
T09
X242000Y249000
X315000Y394800
X1678000Y249000
X1628776Y535150
Y785050
X315000Y865200
X242000Y1121000
X531950Y1052300
X1002350
X1678000Y1121000
T10
X1473000Y259000
X1517000
M30
