G04*
G04 #@! TF.GenerationSoftware,Altium Limited,Altium Designer,18.0.12 (696)*
G04*
G04 Layer_Physical_Order=2*
G04 Layer_Color=36540*
%FSLAX44Y44*%
%MOMM*%
G71*
G01*
G75*
%ADD88R,1.6000X1.6000*%
%ADD89C,1.9000*%
%ADD94C,1.5240*%
%ADD96C,1.7000*%
%ADD97C,1.6000*%
%ADD100C,1.4000*%
%ADD103C,0.9000*%
%ADD104C,1.0000*%
G36*
X1710000Y210000D02*
X210000D01*
Y1160000D01*
X1710000D01*
Y210000D01*
D02*
G37*
%LPC*%
G36*
X1331270Y1137964D02*
Y1128770D01*
X1340464D01*
X1340269Y1130251D01*
X1339207Y1132815D01*
X1337517Y1135017D01*
X1335316Y1136707D01*
X1332751Y1137769D01*
X1331270Y1137964D01*
D02*
G37*
G36*
X1328730Y1137964D02*
X1327249Y1137769D01*
X1324684Y1136707D01*
X1322483Y1135017D01*
X1320793Y1132815D01*
X1319731Y1130251D01*
X1319536Y1128770D01*
X1328730D01*
Y1137964D01*
D02*
G37*
G36*
Y1126230D02*
X1319536D01*
X1319731Y1124749D01*
X1320793Y1122185D01*
X1322483Y1119983D01*
X1324684Y1118293D01*
X1327249Y1117231D01*
X1328730Y1117036D01*
Y1126230D01*
D02*
G37*
G36*
X1340464D02*
X1331270D01*
Y1117036D01*
X1332751Y1117231D01*
X1335316Y1118293D01*
X1337517Y1119983D01*
X1339207Y1122185D01*
X1340269Y1124749D01*
X1340464Y1126230D01*
D02*
G37*
G36*
X1441000Y1138500D02*
X1419000D01*
Y1116500D01*
X1441000D01*
Y1138500D01*
D02*
G37*
G36*
X1678000Y1143107D02*
X1673687Y1142682D01*
X1669540Y1141424D01*
X1665718Y1139381D01*
X1662368Y1136632D01*
X1659619Y1133282D01*
X1657576Y1129460D01*
X1656318Y1125313D01*
X1655894Y1121000D01*
X1656318Y1116687D01*
X1657576Y1112540D01*
X1659619Y1108718D01*
X1662368Y1105368D01*
X1665718Y1102619D01*
X1669540Y1100576D01*
X1673687Y1099318D01*
X1678000Y1098894D01*
X1682313Y1099318D01*
X1686460Y1100576D01*
X1690282Y1102619D01*
X1693632Y1105368D01*
X1696381Y1108718D01*
X1698424Y1112540D01*
X1699682Y1116687D01*
X1700106Y1121000D01*
X1699682Y1125313D01*
X1698424Y1129460D01*
X1696381Y1133282D01*
X1693632Y1136632D01*
X1690282Y1139381D01*
X1686460Y1141424D01*
X1682313Y1142682D01*
X1678000Y1143107D01*
D02*
G37*
G36*
X242000D02*
X237687Y1142682D01*
X233540Y1141424D01*
X229718Y1139381D01*
X226368Y1136632D01*
X223619Y1133282D01*
X221576Y1129460D01*
X220318Y1125313D01*
X219894Y1121000D01*
X220318Y1116687D01*
X221576Y1112540D01*
X223619Y1108718D01*
X226368Y1105368D01*
X229718Y1102619D01*
X233540Y1100576D01*
X237687Y1099318D01*
X242000Y1098894D01*
X246313Y1099318D01*
X250460Y1100576D01*
X254282Y1102619D01*
X257632Y1105368D01*
X260381Y1108718D01*
X262424Y1112540D01*
X263682Y1116687D01*
X264106Y1121000D01*
X263682Y1125313D01*
X262424Y1129460D01*
X260381Y1133282D01*
X257632Y1136632D01*
X254282Y1139381D01*
X250460Y1141424D01*
X246313Y1142682D01*
X242000Y1143107D01*
D02*
G37*
G36*
X1523000Y1086319D02*
X1520912Y1086044D01*
X1518965Y1085238D01*
X1517294Y1083956D01*
X1516012Y1082284D01*
X1515206Y1080338D01*
X1514931Y1078250D01*
X1515206Y1076162D01*
X1516012Y1074215D01*
X1517294Y1072544D01*
X1518965Y1071262D01*
X1520912Y1070456D01*
X1523000Y1070181D01*
X1525088Y1070456D01*
X1527034Y1071262D01*
X1528706Y1072544D01*
X1529988Y1074215D01*
X1530794Y1076162D01*
X1531069Y1078250D01*
X1530794Y1080338D01*
X1529988Y1082284D01*
X1528706Y1083956D01*
X1527034Y1085238D01*
X1525088Y1086044D01*
X1523000Y1086319D01*
D02*
G37*
G36*
X893070Y1075968D02*
Y1066270D01*
X902768D01*
X902556Y1067882D01*
X901443Y1070568D01*
X899674Y1072874D01*
X897368Y1074643D01*
X894682Y1075756D01*
X893070Y1075968D01*
D02*
G37*
G36*
X865370D02*
Y1066270D01*
X875068D01*
X874856Y1067882D01*
X873743Y1070568D01*
X871974Y1072874D01*
X869668Y1074643D01*
X866982Y1075756D01*
X865370Y1075968D01*
D02*
G37*
G36*
X837670D02*
Y1066270D01*
X847368D01*
X847156Y1067882D01*
X846043Y1070568D01*
X844274Y1072874D01*
X841968Y1074643D01*
X839282Y1075756D01*
X837670Y1075968D01*
D02*
G37*
G36*
X862830D02*
X861218Y1075756D01*
X858532Y1074643D01*
X856226Y1072874D01*
X854457Y1070568D01*
X853344Y1067882D01*
X853132Y1066270D01*
X862830D01*
Y1075968D01*
D02*
G37*
G36*
X835130D02*
X833518Y1075756D01*
X830832Y1074643D01*
X828526Y1072874D01*
X826757Y1070568D01*
X825644Y1067882D01*
X825432Y1066270D01*
X835130D01*
Y1075968D01*
D02*
G37*
G36*
X890530Y1075968D02*
X888918Y1075756D01*
X886232Y1074643D01*
X883926Y1072874D01*
X882157Y1070568D01*
X881044Y1067882D01*
X880832Y1066270D01*
X890530D01*
Y1075968D01*
D02*
G37*
G36*
X902768Y1063730D02*
X893070D01*
Y1054032D01*
X894682Y1054244D01*
X897368Y1055357D01*
X899674Y1057126D01*
X901443Y1059432D01*
X902556Y1062118D01*
X902768Y1063730D01*
D02*
G37*
G36*
X847368D02*
X837670D01*
Y1054032D01*
X839282Y1054244D01*
X841968Y1055357D01*
X844274Y1057126D01*
X846043Y1059432D01*
X847156Y1062118D01*
X847368Y1063730D01*
D02*
G37*
G36*
X875068D02*
X865370D01*
Y1054032D01*
X866982Y1054244D01*
X869668Y1055357D01*
X871974Y1057126D01*
X873743Y1059432D01*
X874856Y1062118D01*
X875068Y1063730D01*
D02*
G37*
G36*
X862830D02*
X853132D01*
X853344Y1062118D01*
X854457Y1059432D01*
X856226Y1057126D01*
X858532Y1055357D01*
X861218Y1054244D01*
X862830Y1054032D01*
Y1063730D01*
D02*
G37*
G36*
X835130D02*
X825432D01*
X825644Y1062118D01*
X826757Y1059432D01*
X828526Y1057126D01*
X830832Y1055357D01*
X833518Y1054244D01*
X835130Y1054032D01*
Y1063730D01*
D02*
G37*
G36*
X890530D02*
X880832D01*
X881044Y1062118D01*
X882157Y1059432D01*
X883926Y1057126D01*
X886232Y1055357D01*
X888918Y1054244D01*
X890530Y1054032D01*
Y1063730D01*
D02*
G37*
G36*
X919500Y1076599D02*
X916498Y1076204D01*
X913700Y1075045D01*
X911298Y1073202D01*
X909455Y1070800D01*
X908296Y1068002D01*
X907901Y1065000D01*
X908296Y1061998D01*
X909455Y1059200D01*
X911298Y1056798D01*
X913700Y1054955D01*
X916498Y1053796D01*
X919500Y1053401D01*
X922502Y1053796D01*
X925300Y1054955D01*
X927702Y1056798D01*
X929545Y1059200D01*
X930704Y1061998D01*
X931099Y1065000D01*
X930704Y1068002D01*
X929545Y1070800D01*
X927702Y1073202D01*
X925300Y1075045D01*
X922502Y1076204D01*
X919500Y1076599D01*
D02*
G37*
G36*
X808700D02*
X805698Y1076204D01*
X802900Y1075045D01*
X800498Y1073202D01*
X798655Y1070800D01*
X797496Y1068002D01*
X797101Y1065000D01*
X797496Y1061998D01*
X798655Y1059200D01*
X800498Y1056798D01*
X802900Y1054955D01*
X805698Y1053796D01*
X808700Y1053401D01*
X811702Y1053796D01*
X814500Y1054955D01*
X816902Y1056798D01*
X818745Y1059200D01*
X819904Y1061998D01*
X820299Y1065000D01*
X819904Y1068002D01*
X818745Y1070800D01*
X816902Y1073202D01*
X814500Y1075045D01*
X811702Y1076204D01*
X808700Y1076599D01*
D02*
G37*
G36*
X781000D02*
X777998Y1076204D01*
X775200Y1075045D01*
X772798Y1073202D01*
X770955Y1070800D01*
X769796Y1068002D01*
X769401Y1065000D01*
X769796Y1061998D01*
X770955Y1059200D01*
X772798Y1056798D01*
X775200Y1054955D01*
X777998Y1053796D01*
X781000Y1053401D01*
X784002Y1053796D01*
X786800Y1054955D01*
X789202Y1056798D01*
X791045Y1059200D01*
X792204Y1061998D01*
X792599Y1065000D01*
X792204Y1068002D01*
X791045Y1070800D01*
X789202Y1073202D01*
X786800Y1075045D01*
X784002Y1076204D01*
X781000Y1076599D01*
D02*
G37*
G36*
X753300D02*
X750298Y1076204D01*
X747500Y1075045D01*
X745098Y1073202D01*
X743255Y1070800D01*
X742096Y1068002D01*
X741701Y1065000D01*
X742096Y1061998D01*
X743255Y1059200D01*
X745098Y1056798D01*
X747500Y1054955D01*
X750298Y1053796D01*
X753300Y1053401D01*
X756302Y1053796D01*
X759100Y1054955D01*
X761502Y1056798D01*
X763345Y1059200D01*
X764504Y1061998D01*
X764899Y1065000D01*
X764504Y1068002D01*
X763345Y1070800D01*
X761502Y1073202D01*
X759100Y1075045D01*
X756302Y1076204D01*
X753300Y1076599D01*
D02*
G37*
G36*
X725600D02*
X722598Y1076204D01*
X719800Y1075045D01*
X717398Y1073202D01*
X715555Y1070800D01*
X714396Y1068002D01*
X714001Y1065000D01*
X714396Y1061998D01*
X715555Y1059200D01*
X717398Y1056798D01*
X719800Y1054955D01*
X722598Y1053796D01*
X725600Y1053401D01*
X728602Y1053796D01*
X731400Y1054955D01*
X733802Y1056798D01*
X735645Y1059200D01*
X736804Y1061998D01*
X737199Y1065000D01*
X736804Y1068002D01*
X735645Y1070800D01*
X733802Y1073202D01*
X731400Y1075045D01*
X728602Y1076204D01*
X725600Y1076599D01*
D02*
G37*
G36*
X697900D02*
X694898Y1076204D01*
X692100Y1075045D01*
X689698Y1073202D01*
X687855Y1070800D01*
X686696Y1068002D01*
X686301Y1065000D01*
X686696Y1061998D01*
X687855Y1059200D01*
X689698Y1056798D01*
X692100Y1054955D01*
X694898Y1053796D01*
X697900Y1053401D01*
X700902Y1053796D01*
X703700Y1054955D01*
X706102Y1056798D01*
X707945Y1059200D01*
X709104Y1061998D01*
X709499Y1065000D01*
X709104Y1068002D01*
X707945Y1070800D01*
X706102Y1073202D01*
X703700Y1075045D01*
X700902Y1076204D01*
X697900Y1076599D01*
D02*
G37*
G36*
X670200D02*
X667198Y1076204D01*
X664400Y1075045D01*
X661998Y1073202D01*
X660155Y1070800D01*
X658996Y1068002D01*
X658601Y1065000D01*
X658996Y1061998D01*
X660155Y1059200D01*
X661998Y1056798D01*
X664400Y1054955D01*
X667198Y1053796D01*
X670200Y1053401D01*
X673202Y1053796D01*
X676000Y1054955D01*
X678402Y1056798D01*
X680245Y1059200D01*
X681404Y1061998D01*
X681799Y1065000D01*
X681404Y1068002D01*
X680245Y1070800D01*
X678402Y1073202D01*
X676000Y1075045D01*
X673202Y1076204D01*
X670200Y1076599D01*
D02*
G37*
G36*
X642500D02*
X639498Y1076204D01*
X636700Y1075045D01*
X634298Y1073202D01*
X632455Y1070800D01*
X631296Y1068002D01*
X630901Y1065000D01*
X631296Y1061998D01*
X632455Y1059200D01*
X634298Y1056798D01*
X636700Y1054955D01*
X639498Y1053796D01*
X642500Y1053401D01*
X645502Y1053796D01*
X648300Y1054955D01*
X650702Y1056798D01*
X652545Y1059200D01*
X653704Y1061998D01*
X654099Y1065000D01*
X653704Y1068002D01*
X652545Y1070800D01*
X650702Y1073202D01*
X648300Y1075045D01*
X645502Y1076204D01*
X642500Y1076599D01*
D02*
G37*
G36*
X614800D02*
X611798Y1076204D01*
X609000Y1075045D01*
X606598Y1073202D01*
X604755Y1070800D01*
X603596Y1068002D01*
X603201Y1065000D01*
X603596Y1061998D01*
X604755Y1059200D01*
X606598Y1056798D01*
X609000Y1054955D01*
X611798Y1053796D01*
X614800Y1053401D01*
X617802Y1053796D01*
X620600Y1054955D01*
X623002Y1056798D01*
X624845Y1059200D01*
X626004Y1061998D01*
X626399Y1065000D01*
X626004Y1068002D01*
X624845Y1070800D01*
X623002Y1073202D01*
X620600Y1075045D01*
X617802Y1076204D01*
X614800Y1076599D01*
D02*
G37*
G36*
X1452000Y1064069D02*
X1449912Y1063794D01*
X1447966Y1062988D01*
X1446294Y1061706D01*
X1445012Y1060034D01*
X1444206Y1058088D01*
X1443931Y1056000D01*
X1444206Y1053912D01*
X1445012Y1051965D01*
X1446294Y1050294D01*
X1447966Y1049012D01*
X1449912Y1048206D01*
X1452000Y1047931D01*
X1454088Y1048206D01*
X1456035Y1049012D01*
X1457706Y1050294D01*
X1458988Y1051965D01*
X1459794Y1053912D01*
X1460069Y1056000D01*
X1459794Y1058088D01*
X1458988Y1060034D01*
X1457706Y1061706D01*
X1456035Y1062988D01*
X1454088Y1063794D01*
X1452000Y1064069D01*
D02*
G37*
G36*
X1353000Y1060069D02*
X1350912Y1059794D01*
X1348965Y1058988D01*
X1347294Y1057706D01*
X1346012Y1056034D01*
X1345206Y1054088D01*
X1344931Y1052000D01*
X1345206Y1049912D01*
X1346012Y1047965D01*
X1347294Y1046294D01*
X1348965Y1045012D01*
X1350912Y1044206D01*
X1353000Y1043931D01*
X1355088Y1044206D01*
X1357034Y1045012D01*
X1358706Y1046294D01*
X1359988Y1047965D01*
X1360794Y1049912D01*
X1361069Y1052000D01*
X1360794Y1054088D01*
X1359988Y1056034D01*
X1358706Y1057706D01*
X1357034Y1058988D01*
X1355088Y1059794D01*
X1353000Y1060069D01*
D02*
G37*
G36*
X253770Y1052377D02*
Y1041670D01*
X264477D01*
X264230Y1043543D01*
X263017Y1046472D01*
X261087Y1048987D01*
X258572Y1050917D01*
X255643Y1052130D01*
X253770Y1052377D01*
D02*
G37*
G36*
X251230Y1052377D02*
X249357Y1052130D01*
X246428Y1050917D01*
X243913Y1048987D01*
X241983Y1046472D01*
X240770Y1043543D01*
X240523Y1041670D01*
X251230D01*
Y1052377D01*
D02*
G37*
G36*
X340540Y1045540D02*
X331270D01*
Y1036270D01*
X340540D01*
Y1045540D01*
D02*
G37*
G36*
X328730D02*
X319460D01*
Y1036270D01*
X328730D01*
Y1045540D01*
D02*
G37*
G36*
X1280000Y1051069D02*
X1277912Y1050794D01*
X1275965Y1049988D01*
X1274294Y1048706D01*
X1273012Y1047035D01*
X1272206Y1045088D01*
X1271931Y1043000D01*
X1272206Y1040912D01*
X1273012Y1038966D01*
X1274294Y1037294D01*
X1275965Y1036012D01*
X1277912Y1035206D01*
X1280000Y1034931D01*
X1282088Y1035206D01*
X1284034Y1036012D01*
X1285706Y1037294D01*
X1286988Y1038966D01*
X1287794Y1040912D01*
X1288069Y1043000D01*
X1287794Y1045088D01*
X1286988Y1047035D01*
X1285706Y1048706D01*
X1284034Y1049988D01*
X1282088Y1050794D01*
X1280000Y1051069D01*
D02*
G37*
G36*
X1061270Y1040464D02*
Y1031270D01*
X1070464D01*
X1070269Y1032751D01*
X1069207Y1035315D01*
X1067517Y1037517D01*
X1065315Y1039207D01*
X1062751Y1040269D01*
X1061270Y1040464D01*
D02*
G37*
G36*
X1058730D02*
X1057249Y1040269D01*
X1054685Y1039207D01*
X1052483Y1037517D01*
X1050793Y1035315D01*
X1049731Y1032751D01*
X1049536Y1031270D01*
X1058730D01*
Y1040464D01*
D02*
G37*
G36*
X1002350Y1074909D02*
X997940Y1074474D01*
X993698Y1073188D01*
X989790Y1071099D01*
X986364Y1068287D01*
X983552Y1064861D01*
X981462Y1060952D01*
X980176Y1056711D01*
X979742Y1052300D01*
X980176Y1047889D01*
X981462Y1043648D01*
X983552Y1039739D01*
X986364Y1036313D01*
X989790Y1033501D01*
X993698Y1031412D01*
X997940Y1030126D01*
X1002350Y1029691D01*
X1006761Y1030126D01*
X1011002Y1031412D01*
X1014911Y1033501D01*
X1018337Y1036313D01*
X1021149Y1039739D01*
X1023238Y1043648D01*
X1024525Y1047889D01*
X1024959Y1052300D01*
X1024525Y1056711D01*
X1023238Y1060952D01*
X1021149Y1064861D01*
X1018337Y1068287D01*
X1014911Y1071099D01*
X1011002Y1073188D01*
X1006761Y1074474D01*
X1002350Y1074909D01*
D02*
G37*
G36*
X531950D02*
X527539Y1074474D01*
X523298Y1073188D01*
X519389Y1071099D01*
X515963Y1068287D01*
X513152Y1064861D01*
X511062Y1060952D01*
X509776Y1056711D01*
X509341Y1052300D01*
X509776Y1047889D01*
X511062Y1043648D01*
X513152Y1039739D01*
X515963Y1036313D01*
X519389Y1033501D01*
X523298Y1031412D01*
X527539Y1030126D01*
X531950Y1029691D01*
X536361Y1030126D01*
X540602Y1031412D01*
X544511Y1033501D01*
X547937Y1036313D01*
X550749Y1039739D01*
X552838Y1043648D01*
X554124Y1047889D01*
X554559Y1052300D01*
X554124Y1056711D01*
X552838Y1060952D01*
X550749Y1064861D01*
X547937Y1068287D01*
X544511Y1071099D01*
X540602Y1073188D01*
X536361Y1074474D01*
X531950Y1074909D01*
D02*
G37*
G36*
X933350Y1051199D02*
X930348Y1050804D01*
X927550Y1049645D01*
X925148Y1047802D01*
X923305Y1045400D01*
X922146Y1042602D01*
X921751Y1039600D01*
X922146Y1036598D01*
X923305Y1033800D01*
X925148Y1031398D01*
X927550Y1029555D01*
X930348Y1028396D01*
X933350Y1028001D01*
X936352Y1028396D01*
X939150Y1029555D01*
X941552Y1031398D01*
X943395Y1033800D01*
X944554Y1036598D01*
X944949Y1039600D01*
X944554Y1042602D01*
X943395Y1045400D01*
X941552Y1047802D01*
X939150Y1049645D01*
X936352Y1050804D01*
X933350Y1051199D01*
D02*
G37*
G36*
X905650D02*
X902648Y1050804D01*
X899850Y1049645D01*
X897448Y1047802D01*
X895605Y1045400D01*
X894446Y1042602D01*
X894051Y1039600D01*
X894446Y1036598D01*
X895605Y1033800D01*
X897448Y1031398D01*
X899850Y1029555D01*
X902648Y1028396D01*
X905650Y1028001D01*
X908652Y1028396D01*
X911450Y1029555D01*
X913852Y1031398D01*
X915695Y1033800D01*
X916854Y1036598D01*
X917249Y1039600D01*
X916854Y1042602D01*
X915695Y1045400D01*
X913852Y1047802D01*
X911450Y1049645D01*
X908652Y1050804D01*
X905650Y1051199D01*
D02*
G37*
G36*
X877950D02*
X874948Y1050804D01*
X872150Y1049645D01*
X869748Y1047802D01*
X867905Y1045400D01*
X866746Y1042602D01*
X866351Y1039600D01*
X866746Y1036598D01*
X867905Y1033800D01*
X869748Y1031398D01*
X872150Y1029555D01*
X874948Y1028396D01*
X877950Y1028001D01*
X880952Y1028396D01*
X883750Y1029555D01*
X886152Y1031398D01*
X887995Y1033800D01*
X889154Y1036598D01*
X889549Y1039600D01*
X889154Y1042602D01*
X887995Y1045400D01*
X886152Y1047802D01*
X883750Y1049645D01*
X880952Y1050804D01*
X877950Y1051199D01*
D02*
G37*
G36*
X850250D02*
X847248Y1050804D01*
X844450Y1049645D01*
X842048Y1047802D01*
X840205Y1045400D01*
X839046Y1042602D01*
X838651Y1039600D01*
X839046Y1036598D01*
X840205Y1033800D01*
X842048Y1031398D01*
X844450Y1029555D01*
X847248Y1028396D01*
X850250Y1028001D01*
X853252Y1028396D01*
X856050Y1029555D01*
X858452Y1031398D01*
X860295Y1033800D01*
X861454Y1036598D01*
X861849Y1039600D01*
X861454Y1042602D01*
X860295Y1045400D01*
X858452Y1047802D01*
X856050Y1049645D01*
X853252Y1050804D01*
X850250Y1051199D01*
D02*
G37*
G36*
X822550D02*
X819548Y1050804D01*
X816750Y1049645D01*
X814348Y1047802D01*
X812505Y1045400D01*
X811346Y1042602D01*
X810951Y1039600D01*
X811346Y1036598D01*
X812505Y1033800D01*
X814348Y1031398D01*
X816750Y1029555D01*
X819548Y1028396D01*
X822550Y1028001D01*
X825552Y1028396D01*
X828350Y1029555D01*
X830752Y1031398D01*
X832595Y1033800D01*
X833754Y1036598D01*
X834149Y1039600D01*
X833754Y1042602D01*
X832595Y1045400D01*
X830752Y1047802D01*
X828350Y1049645D01*
X825552Y1050804D01*
X822550Y1051199D01*
D02*
G37*
G36*
X794850D02*
X791848Y1050804D01*
X789050Y1049645D01*
X786648Y1047802D01*
X784805Y1045400D01*
X783646Y1042602D01*
X783251Y1039600D01*
X783646Y1036598D01*
X784805Y1033800D01*
X786648Y1031398D01*
X789050Y1029555D01*
X791848Y1028396D01*
X794850Y1028001D01*
X797852Y1028396D01*
X800650Y1029555D01*
X803052Y1031398D01*
X804895Y1033800D01*
X806054Y1036598D01*
X806449Y1039600D01*
X806054Y1042602D01*
X804895Y1045400D01*
X803052Y1047802D01*
X800650Y1049645D01*
X797852Y1050804D01*
X794850Y1051199D01*
D02*
G37*
G36*
X767150D02*
X764148Y1050804D01*
X761350Y1049645D01*
X758948Y1047802D01*
X757105Y1045400D01*
X755946Y1042602D01*
X755551Y1039600D01*
X755946Y1036598D01*
X757105Y1033800D01*
X758948Y1031398D01*
X761350Y1029555D01*
X764148Y1028396D01*
X767150Y1028001D01*
X770152Y1028396D01*
X772950Y1029555D01*
X775352Y1031398D01*
X777195Y1033800D01*
X778354Y1036598D01*
X778749Y1039600D01*
X778354Y1042602D01*
X777195Y1045400D01*
X775352Y1047802D01*
X772950Y1049645D01*
X770152Y1050804D01*
X767150Y1051199D01*
D02*
G37*
G36*
X739450D02*
X736448Y1050804D01*
X733650Y1049645D01*
X731248Y1047802D01*
X729405Y1045400D01*
X728246Y1042602D01*
X727851Y1039600D01*
X728246Y1036598D01*
X729405Y1033800D01*
X731248Y1031398D01*
X733650Y1029555D01*
X736448Y1028396D01*
X739450Y1028001D01*
X742452Y1028396D01*
X745250Y1029555D01*
X747652Y1031398D01*
X749495Y1033800D01*
X750654Y1036598D01*
X751049Y1039600D01*
X750654Y1042602D01*
X749495Y1045400D01*
X747652Y1047802D01*
X745250Y1049645D01*
X742452Y1050804D01*
X739450Y1051199D01*
D02*
G37*
G36*
X711750D02*
X708748Y1050804D01*
X705950Y1049645D01*
X703548Y1047802D01*
X701705Y1045400D01*
X700546Y1042602D01*
X700151Y1039600D01*
X700546Y1036598D01*
X701705Y1033800D01*
X703548Y1031398D01*
X705950Y1029555D01*
X708748Y1028396D01*
X711750Y1028001D01*
X714752Y1028396D01*
X717550Y1029555D01*
X719952Y1031398D01*
X721795Y1033800D01*
X722954Y1036598D01*
X723349Y1039600D01*
X722954Y1042602D01*
X721795Y1045400D01*
X719952Y1047802D01*
X717550Y1049645D01*
X714752Y1050804D01*
X711750Y1051199D01*
D02*
G37*
G36*
X684050D02*
X681048Y1050804D01*
X678250Y1049645D01*
X675848Y1047802D01*
X674005Y1045400D01*
X672846Y1042602D01*
X672451Y1039600D01*
X672846Y1036598D01*
X674005Y1033800D01*
X675848Y1031398D01*
X678250Y1029555D01*
X681048Y1028396D01*
X684050Y1028001D01*
X687052Y1028396D01*
X689850Y1029555D01*
X692252Y1031398D01*
X694095Y1033800D01*
X695254Y1036598D01*
X695649Y1039600D01*
X695254Y1042602D01*
X694095Y1045400D01*
X692252Y1047802D01*
X689850Y1049645D01*
X687052Y1050804D01*
X684050Y1051199D01*
D02*
G37*
G36*
X656350D02*
X653348Y1050804D01*
X650550Y1049645D01*
X648148Y1047802D01*
X646305Y1045400D01*
X645146Y1042602D01*
X644751Y1039600D01*
X645146Y1036598D01*
X646305Y1033800D01*
X648148Y1031398D01*
X650550Y1029555D01*
X653348Y1028396D01*
X656350Y1028001D01*
X659352Y1028396D01*
X662150Y1029555D01*
X664552Y1031398D01*
X666395Y1033800D01*
X667554Y1036598D01*
X667949Y1039600D01*
X667554Y1042602D01*
X666395Y1045400D01*
X664552Y1047802D01*
X662150Y1049645D01*
X659352Y1050804D01*
X656350Y1051199D01*
D02*
G37*
G36*
X628650D02*
X625648Y1050804D01*
X622850Y1049645D01*
X620448Y1047802D01*
X618605Y1045400D01*
X617446Y1042602D01*
X617051Y1039600D01*
X617446Y1036598D01*
X618605Y1033800D01*
X620448Y1031398D01*
X622850Y1029555D01*
X625648Y1028396D01*
X628650Y1028001D01*
X631652Y1028396D01*
X634450Y1029555D01*
X636852Y1031398D01*
X638695Y1033800D01*
X639854Y1036598D01*
X640249Y1039600D01*
X639854Y1042602D01*
X638695Y1045400D01*
X636852Y1047802D01*
X634450Y1049645D01*
X631652Y1050804D01*
X628650Y1051199D01*
D02*
G37*
G36*
X600950D02*
X597948Y1050804D01*
X595150Y1049645D01*
X592748Y1047802D01*
X590905Y1045400D01*
X589746Y1042602D01*
X589351Y1039600D01*
X589746Y1036598D01*
X590905Y1033800D01*
X592748Y1031398D01*
X595150Y1029555D01*
X597948Y1028396D01*
X600950Y1028001D01*
X603952Y1028396D01*
X606750Y1029555D01*
X609152Y1031398D01*
X610995Y1033800D01*
X612154Y1036598D01*
X612549Y1039600D01*
X612154Y1042602D01*
X610995Y1045400D01*
X609152Y1047802D01*
X606750Y1049645D01*
X603952Y1050804D01*
X600950Y1051199D01*
D02*
G37*
G36*
X340540Y1033730D02*
X331270D01*
Y1024460D01*
X340540D01*
Y1033730D01*
D02*
G37*
G36*
X328730D02*
X319460D01*
Y1024460D01*
X328730D01*
Y1033730D01*
D02*
G37*
G36*
X1070464Y1028730D02*
X1061270D01*
Y1019536D01*
X1062751Y1019731D01*
X1065315Y1020793D01*
X1067517Y1022483D01*
X1069207Y1024685D01*
X1070269Y1027249D01*
X1070464Y1028730D01*
D02*
G37*
G36*
X1058730D02*
X1049536D01*
X1049731Y1027249D01*
X1050793Y1024685D01*
X1052483Y1022483D01*
X1054685Y1020793D01*
X1057249Y1019731D01*
X1058730Y1019536D01*
Y1028730D01*
D02*
G37*
G36*
X1171000Y1041000D02*
X1149000D01*
Y1019000D01*
X1171000D01*
Y1041000D01*
D02*
G37*
G36*
X264477Y1039130D02*
X252500D01*
X240523D01*
X240770Y1037257D01*
X241983Y1034328D01*
X243913Y1031813D01*
X246428Y1029883D01*
X248920Y1028851D01*
X249147Y1027700D01*
X248920Y1026549D01*
X246428Y1025517D01*
X243913Y1023587D01*
X241983Y1021072D01*
X240770Y1018143D01*
X240523Y1016270D01*
X252500D01*
X264477D01*
X264230Y1018143D01*
X263017Y1021072D01*
X261087Y1023587D01*
X258572Y1025517D01*
X256080Y1026549D01*
X255853Y1027700D01*
X256080Y1028851D01*
X258572Y1029883D01*
X261087Y1031813D01*
X263017Y1034328D01*
X264230Y1037257D01*
X264477Y1039130D01*
D02*
G37*
G36*
X1479000Y1015869D02*
X1476912Y1015594D01*
X1474966Y1014788D01*
X1473294Y1013506D01*
X1472012Y1011834D01*
X1471206Y1009888D01*
X1470931Y1007800D01*
X1471206Y1005712D01*
X1472012Y1003765D01*
X1473294Y1002094D01*
X1474966Y1000812D01*
X1476912Y1000006D01*
X1479000Y999731D01*
X1481088Y1000006D01*
X1483035Y1000812D01*
X1484706Y1002094D01*
X1485988Y1003765D01*
X1486794Y1005712D01*
X1487069Y1007800D01*
X1486794Y1009888D01*
X1485988Y1011834D01*
X1484706Y1013506D01*
X1483035Y1014788D01*
X1481088Y1015594D01*
X1479000Y1015869D01*
D02*
G37*
G36*
X1257500Y1015569D02*
X1255412Y1015294D01*
X1253465Y1014488D01*
X1251794Y1013206D01*
X1250512Y1011535D01*
X1249706Y1009588D01*
X1249431Y1007500D01*
X1249706Y1005412D01*
X1250512Y1003465D01*
X1251794Y1001794D01*
X1253465Y1000512D01*
X1255412Y999706D01*
X1257500Y999431D01*
X1259588Y999706D01*
X1261535Y1000512D01*
X1263206Y1001794D01*
X1264488Y1003465D01*
X1265294Y1005412D01*
X1265569Y1007500D01*
X1265294Y1009588D01*
X1264488Y1011535D01*
X1263206Y1013206D01*
X1261535Y1014488D01*
X1259588Y1015294D01*
X1257500Y1015569D01*
D02*
G37*
G36*
X1646474Y1019719D02*
X1643602Y1019341D01*
X1640926Y1018233D01*
X1638629Y1016469D01*
X1636865Y1014172D01*
X1635757Y1011496D01*
X1635379Y1008624D01*
X1635757Y1005753D01*
X1636865Y1003077D01*
X1638629Y1000779D01*
X1640926Y999016D01*
X1643602Y997907D01*
X1646474Y997529D01*
X1649345Y997907D01*
X1652021Y999016D01*
X1654319Y1000779D01*
X1656082Y1003077D01*
X1657191Y1005753D01*
X1657569Y1008624D01*
X1657191Y1011496D01*
X1656082Y1014172D01*
X1654319Y1016469D01*
X1652021Y1018233D01*
X1649345Y1019341D01*
X1646474Y1019719D01*
D02*
G37*
G36*
X1621074D02*
X1618202Y1019341D01*
X1615526Y1018233D01*
X1613228Y1016469D01*
X1611465Y1014172D01*
X1610357Y1011496D01*
X1609979Y1008624D01*
X1610357Y1005753D01*
X1611465Y1003077D01*
X1613228Y1000779D01*
X1615526Y999016D01*
X1618202Y997907D01*
X1621074Y997529D01*
X1623945Y997907D01*
X1626621Y999016D01*
X1628919Y1000779D01*
X1630682Y1003077D01*
X1631791Y1005753D01*
X1632169Y1008624D01*
X1631791Y1011496D01*
X1630682Y1014172D01*
X1628919Y1016469D01*
X1626621Y1018233D01*
X1623945Y1019341D01*
X1621074Y1019719D01*
D02*
G37*
G36*
X1068500Y1012569D02*
X1066412Y1012294D01*
X1064465Y1011488D01*
X1062794Y1010206D01*
X1061512Y1008534D01*
X1060706Y1006588D01*
X1060431Y1004500D01*
X1060706Y1002412D01*
X1061512Y1000465D01*
X1062794Y998794D01*
X1064465Y997512D01*
X1066412Y996706D01*
X1068500Y996431D01*
X1070588Y996706D01*
X1072534Y997512D01*
X1074206Y998794D01*
X1075488Y1000465D01*
X1076294Y1002412D01*
X1076569Y1004500D01*
X1076294Y1006588D01*
X1075488Y1008534D01*
X1074206Y1010206D01*
X1072534Y1011488D01*
X1070588Y1012294D01*
X1068500Y1012569D01*
D02*
G37*
G36*
X1223000Y1011069D02*
X1220912Y1010794D01*
X1218966Y1009988D01*
X1217294Y1008706D01*
X1216012Y1007035D01*
X1215206Y1005088D01*
X1214931Y1003000D01*
X1215206Y1000912D01*
X1216012Y998966D01*
X1217294Y997294D01*
X1218966Y996012D01*
X1220912Y995206D01*
X1223000Y994931D01*
X1225088Y995206D01*
X1227035Y996012D01*
X1228706Y997294D01*
X1229988Y998966D01*
X1230794Y1000912D01*
X1231069Y1003000D01*
X1230794Y1005088D01*
X1229988Y1007035D01*
X1228706Y1008706D01*
X1227035Y1009988D01*
X1225088Y1010794D01*
X1223000Y1011069D01*
D02*
G37*
G36*
X521270Y1003164D02*
Y993970D01*
X530464D01*
X530269Y995452D01*
X529207Y998016D01*
X527517Y1000217D01*
X525316Y1001907D01*
X522752Y1002969D01*
X521270Y1003164D01*
D02*
G37*
G36*
X518730Y1003164D02*
X517248Y1002969D01*
X514684Y1001907D01*
X512483Y1000217D01*
X510793Y998016D01*
X509731Y995452D01*
X509536Y993970D01*
X518730D01*
Y1003164D01*
D02*
G37*
G36*
X1647744Y993688D02*
Y984494D01*
X1656938D01*
X1656743Y985976D01*
X1655681Y988540D01*
X1653991Y990742D01*
X1651789Y992431D01*
X1649225Y993493D01*
X1647744Y993688D01*
D02*
G37*
G36*
X1622344D02*
Y984494D01*
X1631538D01*
X1631342Y985976D01*
X1630280Y988540D01*
X1628591Y990742D01*
X1626389Y992431D01*
X1623825Y993493D01*
X1622344Y993688D01*
D02*
G37*
G36*
X1619804D02*
X1618322Y993493D01*
X1615758Y992431D01*
X1613557Y990742D01*
X1611867Y988540D01*
X1610805Y985976D01*
X1610610Y984494D01*
X1619804D01*
Y993688D01*
D02*
G37*
G36*
X1645204D02*
X1643722Y993493D01*
X1641158Y992431D01*
X1638957Y990742D01*
X1637267Y988540D01*
X1636205Y985976D01*
X1636010Y984494D01*
X1645204D01*
Y993688D01*
D02*
G37*
G36*
X518730Y991430D02*
X509536D01*
X509731Y989949D01*
X510793Y987384D01*
X512483Y985183D01*
X514684Y983493D01*
X517248Y982431D01*
X518730Y982236D01*
Y991430D01*
D02*
G37*
G36*
X530464D02*
X521270D01*
Y982236D01*
X522752Y982431D01*
X525316Y983493D01*
X527517Y985183D01*
X529207Y987384D01*
X530269Y989949D01*
X530464Y991430D01*
D02*
G37*
G36*
X501000Y1001000D02*
X479000D01*
Y979000D01*
X501000D01*
Y1001000D01*
D02*
G37*
G36*
X1365270Y983464D02*
Y974270D01*
X1374464D01*
X1374269Y975751D01*
X1373207Y978316D01*
X1371517Y980517D01*
X1369315Y982207D01*
X1366752Y983269D01*
X1365270Y983464D01*
D02*
G37*
G36*
X1362730Y983464D02*
X1361248Y983269D01*
X1358685Y982207D01*
X1356483Y980517D01*
X1354793Y978316D01*
X1353731Y975751D01*
X1353536Y974270D01*
X1362730D01*
Y983464D01*
D02*
G37*
G36*
X1656938Y981954D02*
X1647744D01*
Y972760D01*
X1649225Y972956D01*
X1651789Y974018D01*
X1653991Y975707D01*
X1655681Y977909D01*
X1656743Y980473D01*
X1656938Y981954D01*
D02*
G37*
G36*
X1631537D02*
X1622344D01*
Y972760D01*
X1623825Y972956D01*
X1626389Y974018D01*
X1628591Y975707D01*
X1630280Y977909D01*
X1631342Y980473D01*
X1631537Y981954D01*
D02*
G37*
G36*
X1619804D02*
X1610610D01*
X1610805Y980473D01*
X1611867Y977909D01*
X1613557Y975707D01*
X1615758Y974018D01*
X1618322Y972956D01*
X1619804Y972760D01*
Y981954D01*
D02*
G37*
G36*
X1645204D02*
X1636010D01*
X1636205Y980473D01*
X1637267Y977909D01*
X1638957Y975707D01*
X1641158Y974018D01*
X1643722Y972956D01*
X1645204Y972760D01*
Y981954D01*
D02*
G37*
G36*
X399000Y988069D02*
X396912Y987794D01*
X394966Y986988D01*
X393294Y985706D01*
X392012Y984035D01*
X391206Y982088D01*
X390931Y980000D01*
X391206Y977912D01*
X392012Y975965D01*
X393294Y974294D01*
X394966Y973012D01*
X396912Y972206D01*
X399000Y971931D01*
X401088Y972206D01*
X403035Y973012D01*
X404706Y974294D01*
X405988Y975965D01*
X406794Y977912D01*
X407069Y980000D01*
X406794Y982088D01*
X405988Y984035D01*
X404706Y985706D01*
X403035Y986988D01*
X401088Y987794D01*
X399000Y988069D01*
D02*
G37*
G36*
X418000Y987069D02*
X415912Y986794D01*
X413965Y985988D01*
X412294Y984706D01*
X411012Y983035D01*
X410206Y981088D01*
X409931Y979000D01*
X410206Y976912D01*
X411012Y974966D01*
X412294Y973294D01*
X413965Y972012D01*
X415912Y971206D01*
X418000Y970931D01*
X420088Y971206D01*
X422034Y972012D01*
X423706Y973294D01*
X424988Y974966D01*
X425794Y976912D01*
X426069Y979000D01*
X425794Y981088D01*
X424988Y983035D01*
X423706Y984706D01*
X422034Y985988D01*
X420088Y986794D01*
X418000Y987069D01*
D02*
G37*
G36*
X1049540Y977540D02*
X1040270D01*
Y968270D01*
X1049540D01*
Y977540D01*
D02*
G37*
G36*
X1037730D02*
X1028460D01*
Y968270D01*
X1037730D01*
Y977540D01*
D02*
G37*
G36*
X1374464Y971730D02*
X1365270D01*
Y962536D01*
X1366752Y962731D01*
X1369315Y963793D01*
X1371517Y965483D01*
X1373207Y967684D01*
X1374269Y970248D01*
X1374464Y971730D01*
D02*
G37*
G36*
X1362730D02*
X1353536D01*
X1353731Y970248D01*
X1354793Y967684D01*
X1356483Y965483D01*
X1358685Y963793D01*
X1361248Y962731D01*
X1362730Y962536D01*
Y971730D01*
D02*
G37*
G36*
X1475000Y984000D02*
X1453000D01*
Y962000D01*
X1475000D01*
Y984000D01*
D02*
G37*
G36*
X905000Y978069D02*
X902912Y977794D01*
X900965Y976988D01*
X899294Y975706D01*
X898012Y974035D01*
X897206Y972088D01*
X896931Y970000D01*
X897206Y967912D01*
X898012Y965965D01*
X899294Y964294D01*
X900965Y963012D01*
X902912Y962206D01*
X905000Y961931D01*
X907088Y962206D01*
X909035Y963012D01*
X910706Y964294D01*
X911988Y965965D01*
X912794Y967912D01*
X913069Y970000D01*
X912794Y972088D01*
X911988Y974035D01*
X910706Y975706D01*
X909035Y976988D01*
X907088Y977794D01*
X905000Y978069D01*
D02*
G37*
G36*
X877500D02*
X875412Y977794D01*
X873465Y976988D01*
X871794Y975706D01*
X870512Y974035D01*
X869706Y972088D01*
X869431Y970000D01*
X869706Y967912D01*
X870512Y965965D01*
X871794Y964294D01*
X873465Y963012D01*
X875412Y962206D01*
X877500Y961931D01*
X879588Y962206D01*
X881535Y963012D01*
X883206Y964294D01*
X884488Y965965D01*
X885294Y967912D01*
X885569Y970000D01*
X885294Y972088D01*
X884488Y974035D01*
X883206Y975706D01*
X881535Y976988D01*
X879588Y977794D01*
X877500Y978069D01*
D02*
G37*
G36*
X1647744Y968288D02*
Y959094D01*
X1656938D01*
X1656743Y960576D01*
X1655681Y963140D01*
X1653991Y965341D01*
X1651789Y967031D01*
X1649225Y968093D01*
X1647744Y968288D01*
D02*
G37*
G36*
X1645204D02*
X1643722Y968093D01*
X1641158Y967031D01*
X1638957Y965341D01*
X1637267Y963140D01*
X1636205Y960576D01*
X1636010Y959094D01*
X1645204D01*
Y968288D01*
D02*
G37*
G36*
X832500Y973069D02*
X830412Y972794D01*
X828465Y971988D01*
X826794Y970706D01*
X825512Y969035D01*
X824706Y967088D01*
X824431Y965000D01*
X824706Y962912D01*
X825512Y960965D01*
X826794Y959294D01*
X828465Y958012D01*
X830412Y957206D01*
X832500Y956931D01*
X834588Y957206D01*
X836535Y958012D01*
X838206Y959294D01*
X839488Y960965D01*
X840294Y962912D01*
X840569Y965000D01*
X840294Y967088D01*
X839488Y969035D01*
X838206Y970706D01*
X836535Y971988D01*
X834588Y972794D01*
X832500Y973069D01*
D02*
G37*
G36*
X1049540Y965730D02*
X1040270D01*
Y956460D01*
X1049540D01*
Y965730D01*
D02*
G37*
G36*
X1037730D02*
X1028460D01*
Y956460D01*
X1037730D01*
Y965730D01*
D02*
G37*
G36*
X264477Y1013730D02*
X252500D01*
X240523D01*
X240770Y1011857D01*
X241983Y1008928D01*
X243913Y1006413D01*
X246428Y1004483D01*
X248497Y1003626D01*
X248484Y1001467D01*
X246196Y1000519D01*
X243585Y998515D01*
X241581Y995904D01*
X240322Y992863D01*
X239892Y989600D01*
X240322Y986337D01*
X241581Y983296D01*
X243585Y980685D01*
X246196Y978681D01*
X247883Y977982D01*
Y975818D01*
X246196Y975119D01*
X243585Y973115D01*
X241581Y970504D01*
X240322Y967463D01*
X239892Y964200D01*
X240322Y960937D01*
X241581Y957896D01*
X243585Y955285D01*
X246196Y953281D01*
X249237Y952022D01*
X252500Y951592D01*
X255763Y952022D01*
X258804Y953281D01*
X261415Y955285D01*
X263419Y957896D01*
X264678Y960937D01*
X265108Y964200D01*
X264678Y967463D01*
X263419Y970504D01*
X261415Y973115D01*
X258804Y975119D01*
X257117Y975818D01*
Y977982D01*
X258804Y978681D01*
X261415Y980685D01*
X263419Y983296D01*
X264678Y986337D01*
X265108Y989600D01*
X264678Y992863D01*
X263419Y995904D01*
X261415Y998515D01*
X258804Y1000519D01*
X256516Y1001467D01*
X256503Y1003626D01*
X258572Y1004483D01*
X261087Y1006413D01*
X263017Y1008928D01*
X264230Y1011857D01*
X264477Y1013730D01*
D02*
G37*
G36*
X1656938Y956554D02*
X1647744D01*
Y947361D01*
X1649225Y947556D01*
X1651789Y948618D01*
X1653991Y950307D01*
X1655681Y952509D01*
X1656743Y955073D01*
X1656938Y956554D01*
D02*
G37*
G36*
X1645204D02*
X1636010D01*
X1636205Y955073D01*
X1637267Y952509D01*
X1638957Y950307D01*
X1641158Y948618D01*
X1643722Y947556D01*
X1645204Y947361D01*
Y956554D01*
D02*
G37*
G36*
X527500Y963069D02*
X525412Y962794D01*
X523465Y961988D01*
X521794Y960706D01*
X520512Y959035D01*
X519706Y957088D01*
X519431Y955000D01*
X519706Y952912D01*
X520512Y950965D01*
X521794Y949294D01*
X523465Y948012D01*
X525412Y947206D01*
X527500Y946931D01*
X529588Y947206D01*
X531535Y948012D01*
X533206Y949294D01*
X534488Y950965D01*
X535294Y952912D01*
X535569Y955000D01*
X535294Y957088D01*
X534488Y959035D01*
X533206Y960706D01*
X531535Y961988D01*
X529588Y962794D01*
X527500Y963069D01*
D02*
G37*
G36*
X1621074Y968919D02*
X1618202Y968541D01*
X1615526Y967433D01*
X1613228Y965669D01*
X1611465Y963372D01*
X1610357Y960696D01*
X1609979Y957824D01*
X1610357Y954953D01*
X1611465Y952277D01*
X1613228Y949979D01*
X1615526Y948216D01*
X1618202Y947107D01*
X1621074Y946729D01*
X1623945Y947107D01*
X1626621Y948216D01*
X1628919Y949979D01*
X1630682Y952277D01*
X1631791Y954953D01*
X1632169Y957824D01*
X1631791Y960696D01*
X1630682Y963372D01*
X1628919Y965669D01*
X1626621Y967433D01*
X1623945Y968541D01*
X1621074Y968919D01*
D02*
G37*
G36*
X572518Y956105D02*
X570430Y955831D01*
X568484Y955024D01*
X566813Y953742D01*
X565530Y952071D01*
X564724Y950125D01*
X564449Y948036D01*
X564724Y945948D01*
X565530Y944002D01*
X566813Y942331D01*
X568484Y941049D01*
X570430Y940242D01*
X572518Y939967D01*
X574607Y940242D01*
X576553Y941049D01*
X579132Y940507D01*
X579294Y940294D01*
X580965Y939012D01*
X582912Y938206D01*
X585000Y937931D01*
X587088Y938206D01*
X589035Y939012D01*
X590706Y940294D01*
X591988Y941965D01*
X592794Y943912D01*
X593069Y946000D01*
X592794Y948088D01*
X591988Y950034D01*
X590706Y951706D01*
X589035Y952988D01*
X587088Y953794D01*
X585000Y954069D01*
X582912Y953794D01*
X580965Y952988D01*
X578387Y953530D01*
X578224Y953742D01*
X576553Y955024D01*
X574607Y955831D01*
X572518Y956105D01*
D02*
G37*
G36*
X1647744Y942888D02*
Y933694D01*
X1656938D01*
X1656743Y935176D01*
X1655681Y937740D01*
X1653991Y939941D01*
X1651789Y941631D01*
X1649225Y942693D01*
X1647744Y942888D01*
D02*
G37*
G36*
X1645204D02*
X1643722Y942693D01*
X1641158Y941631D01*
X1638957Y939941D01*
X1637267Y937740D01*
X1636205Y935176D01*
X1636010Y933694D01*
X1645204D01*
Y942888D01*
D02*
G37*
G36*
X367500Y943069D02*
X365412Y942794D01*
X363465Y941988D01*
X361794Y940706D01*
X360512Y939035D01*
X359706Y937088D01*
X359431Y935000D01*
X359706Y932912D01*
X360512Y930965D01*
X361794Y929294D01*
X363465Y928012D01*
X365412Y927206D01*
X367500Y926931D01*
X369588Y927206D01*
X371535Y928012D01*
X373206Y929294D01*
X374488Y930965D01*
X375294Y932912D01*
X375569Y935000D01*
X375294Y937088D01*
X374488Y939035D01*
X373206Y940706D01*
X371535Y941988D01*
X369588Y942794D01*
X367500Y943069D01*
D02*
G37*
G36*
X1656938Y931154D02*
X1647744D01*
Y921961D01*
X1649225Y922156D01*
X1651789Y923218D01*
X1653991Y924907D01*
X1655681Y927109D01*
X1656743Y929673D01*
X1656938Y931154D01*
D02*
G37*
G36*
X1645204D02*
X1636010D01*
X1636205Y929673D01*
X1637267Y927109D01*
X1638957Y924907D01*
X1641158Y923218D01*
X1643722Y922156D01*
X1645204Y921961D01*
Y931154D01*
D02*
G37*
G36*
X1621074Y943519D02*
X1618202Y943141D01*
X1615526Y942033D01*
X1613228Y940269D01*
X1611465Y937972D01*
X1610357Y935296D01*
X1609979Y932424D01*
X1610357Y929553D01*
X1611465Y926877D01*
X1613228Y924579D01*
X1615526Y922816D01*
X1618202Y921707D01*
X1621074Y921329D01*
X1623945Y921707D01*
X1626621Y922816D01*
X1628919Y924579D01*
X1630682Y926877D01*
X1631791Y929553D01*
X1632169Y932424D01*
X1631791Y935296D01*
X1630682Y937972D01*
X1628919Y940269D01*
X1626621Y942033D01*
X1623945Y943141D01*
X1621074Y943519D01*
D02*
G37*
G36*
X938500Y926000D02*
X916500D01*
Y904000D01*
X938500D01*
Y926000D01*
D02*
G37*
G36*
X1646474Y918119D02*
X1643602Y917741D01*
X1640926Y916633D01*
X1638629Y914870D01*
X1636865Y912572D01*
X1635757Y909896D01*
X1635379Y907024D01*
X1635757Y904153D01*
X1636865Y901477D01*
X1638629Y899179D01*
X1640926Y897416D01*
X1643602Y896307D01*
X1646474Y895929D01*
X1649345Y896307D01*
X1652021Y897416D01*
X1654319Y899179D01*
X1656082Y901477D01*
X1657191Y904153D01*
X1657569Y907024D01*
X1657191Y909896D01*
X1656082Y912572D01*
X1654319Y914870D01*
X1652021Y916633D01*
X1649345Y917741D01*
X1646474Y918119D01*
D02*
G37*
G36*
X1621074D02*
X1618202Y917741D01*
X1615526Y916633D01*
X1613228Y914870D01*
X1611465Y912572D01*
X1610357Y909896D01*
X1609979Y907024D01*
X1610357Y904153D01*
X1611465Y901477D01*
X1613228Y899179D01*
X1615526Y897416D01*
X1618202Y896307D01*
X1621074Y895929D01*
X1623945Y896307D01*
X1626621Y897416D01*
X1628919Y899179D01*
X1630682Y901477D01*
X1631791Y904153D01*
X1632169Y907024D01*
X1631791Y909896D01*
X1630682Y912572D01*
X1628919Y914870D01*
X1626621Y916633D01*
X1623945Y917741D01*
X1621074Y918119D01*
D02*
G37*
G36*
X531000Y903700D02*
X509000D01*
Y881700D01*
X531000D01*
Y903700D01*
D02*
G37*
G36*
X1268704Y889228D02*
X1259434D01*
Y879958D01*
X1268704D01*
Y889228D01*
D02*
G37*
G36*
X1256894D02*
X1247624D01*
Y879958D01*
X1256894D01*
Y889228D01*
D02*
G37*
G36*
X908000Y896069D02*
X905912Y895794D01*
X903966Y894988D01*
X902294Y893706D01*
X901012Y892035D01*
X900206Y890088D01*
X899931Y888000D01*
X900206Y885912D01*
X901012Y883966D01*
X902294Y882294D01*
X903966Y881012D01*
X905912Y880206D01*
X908000Y879931D01*
X910088Y880206D01*
X912035Y881012D01*
X913706Y882294D01*
X914988Y883966D01*
X915794Y885912D01*
X916069Y888000D01*
X915794Y890088D01*
X914988Y892035D01*
X913706Y893706D01*
X912035Y894988D01*
X910088Y895794D01*
X908000Y896069D01*
D02*
G37*
G36*
X572500Y895569D02*
X570412Y895294D01*
X568465Y894488D01*
X566794Y893206D01*
X565512Y891535D01*
X564706Y889588D01*
X564431Y887500D01*
X564706Y885412D01*
X565512Y883465D01*
X566794Y881794D01*
X568465Y880512D01*
X570412Y879706D01*
X572500Y879431D01*
X574588Y879706D01*
X576535Y880512D01*
X578206Y881794D01*
X579488Y883465D01*
X580294Y885412D01*
X580569Y887500D01*
X580294Y889588D01*
X579488Y891535D01*
X578206Y893206D01*
X576535Y894488D01*
X574588Y895294D01*
X572500Y895569D01*
D02*
G37*
G36*
X490000Y901095D02*
X487128Y900717D01*
X484453Y899609D01*
X482155Y897845D01*
X480392Y895547D01*
X479283Y892872D01*
X478905Y890000D01*
X479283Y887128D01*
X480392Y884453D01*
X482155Y882155D01*
X484453Y880391D01*
X487128Y879283D01*
X490000Y878905D01*
X492872Y879283D01*
X495547Y880391D01*
X497845Y882155D01*
X499608Y884453D01*
X500717Y887128D01*
X501095Y890000D01*
X500717Y892872D01*
X499608Y895547D01*
X497845Y897845D01*
X495547Y899609D01*
X492872Y900717D01*
X490000Y901095D01*
D02*
G37*
G36*
X1268704Y877418D02*
X1259434D01*
Y868148D01*
X1268704D01*
Y877418D01*
D02*
G37*
G36*
X1256894D02*
X1247624D01*
Y868148D01*
X1256894D01*
Y877418D01*
D02*
G37*
G36*
X315000Y887809D02*
X310589Y887375D01*
X306348Y886088D01*
X302439Y883999D01*
X299013Y881187D01*
X296201Y877761D01*
X294112Y873852D01*
X292826Y869611D01*
X292391Y865200D01*
X292826Y860789D01*
X294112Y856548D01*
X296201Y852639D01*
X299013Y849213D01*
X302439Y846402D01*
X306348Y844312D01*
X310589Y843026D01*
X315000Y842591D01*
X319411Y843026D01*
X323652Y844312D01*
X327561Y846402D01*
X330987Y849213D01*
X333798Y852639D01*
X335888Y856548D01*
X337174Y860789D01*
X337609Y865200D01*
X337174Y869611D01*
X335888Y873852D01*
X333798Y877761D01*
X330987Y881187D01*
X327561Y883999D01*
X323652Y886088D01*
X319411Y887375D01*
X315000Y887809D01*
D02*
G37*
G36*
X571000Y858069D02*
X568912Y857794D01*
X566965Y856988D01*
X565294Y855706D01*
X564012Y854035D01*
X563206Y852088D01*
X562931Y850000D01*
X563206Y847912D01*
X564012Y845965D01*
X565294Y844294D01*
X566965Y843012D01*
X568912Y842206D01*
X571000Y841931D01*
X573088Y842206D01*
X575034Y843012D01*
X576706Y844294D01*
X577988Y845965D01*
X578794Y847912D01*
X579069Y850000D01*
X578794Y852088D01*
X577988Y854035D01*
X576706Y855706D01*
X575034Y856988D01*
X573088Y857794D01*
X571000Y858069D01*
D02*
G37*
G36*
X792000Y853069D02*
X789912Y852794D01*
X787965Y851988D01*
X786294Y850706D01*
X785012Y849035D01*
X784206Y847088D01*
X783931Y845000D01*
X784206Y842912D01*
X785012Y840965D01*
X786294Y839294D01*
X787965Y838012D01*
X789912Y837206D01*
X792000Y836931D01*
X794088Y837206D01*
X796034Y838012D01*
X797706Y839294D01*
X798988Y840965D01*
X799794Y842912D01*
X800069Y845000D01*
X799794Y847088D01*
X798988Y849035D01*
X797706Y850706D01*
X796034Y851988D01*
X794088Y852794D01*
X792000Y853069D01*
D02*
G37*
G36*
X518250Y844569D02*
X516162Y844294D01*
X514216Y843488D01*
X512544Y842206D01*
X511262Y840535D01*
X510456Y838588D01*
X510181Y836500D01*
X510456Y834412D01*
X511262Y832466D01*
X512544Y830794D01*
X514216Y829512D01*
X516162Y828706D01*
X518250Y828431D01*
X520338Y828706D01*
X522285Y829512D01*
X523956Y830794D01*
X525238Y832466D01*
X526044Y834412D01*
X526319Y836500D01*
X526044Y838588D01*
X525238Y840535D01*
X523956Y842206D01*
X522285Y843488D01*
X520338Y844294D01*
X518250Y844569D01*
D02*
G37*
G36*
X645000Y833069D02*
X642912Y832794D01*
X640965Y831988D01*
X639294Y830706D01*
X638012Y829035D01*
X637206Y827088D01*
X636931Y825000D01*
X637206Y822912D01*
X638012Y820965D01*
X639294Y819294D01*
X640965Y818012D01*
X642912Y817206D01*
X645000Y816931D01*
X647088Y817206D01*
X649035Y818012D01*
X650706Y819294D01*
X651988Y820965D01*
X652794Y822912D01*
X653069Y825000D01*
X652794Y827088D01*
X651988Y829035D01*
X650706Y830706D01*
X649035Y831988D01*
X647088Y832794D01*
X645000Y833069D01*
D02*
G37*
G36*
X927500Y826095D02*
X924628Y825717D01*
X921953Y824609D01*
X919655Y822845D01*
X917891Y820547D01*
X916783Y817872D01*
X916405Y815000D01*
X916783Y812128D01*
X917891Y809453D01*
X919655Y807155D01*
X921953Y805391D01*
X924628Y804283D01*
X927500Y803905D01*
X930372Y804283D01*
X933047Y805391D01*
X935345Y807155D01*
X937109Y809453D01*
X938217Y812128D01*
X938595Y815000D01*
X938217Y817872D01*
X937109Y820547D01*
X935345Y822845D01*
X933047Y824609D01*
X930372Y825717D01*
X927500Y826095D01*
D02*
G37*
G36*
X512000Y817069D02*
X509912Y816794D01*
X507966Y815988D01*
X506294Y814706D01*
X505012Y813035D01*
X504206Y811088D01*
X503931Y809000D01*
X504206Y806912D01*
X505012Y804966D01*
X506294Y803294D01*
X507966Y802012D01*
X509912Y801206D01*
X512000Y800931D01*
X514088Y801206D01*
X516035Y802012D01*
X517706Y803294D01*
X518988Y804966D01*
X519794Y806912D01*
X520069Y809000D01*
X519794Y811088D01*
X518988Y813035D01*
X517706Y814706D01*
X516035Y815988D01*
X514088Y816794D01*
X512000Y817069D01*
D02*
G37*
G36*
X1211000Y820000D02*
X1191000D01*
Y800000D01*
X1211000D01*
Y820000D01*
D02*
G37*
G36*
X1353400Y820086D02*
X1350789Y819743D01*
X1348357Y818735D01*
X1346268Y817132D01*
X1344665Y815043D01*
X1343657Y812610D01*
X1343314Y810000D01*
X1343657Y807390D01*
X1344665Y804957D01*
X1346268Y802868D01*
X1348357Y801265D01*
X1350789Y800257D01*
X1353400Y799914D01*
X1356010Y800257D01*
X1358443Y801265D01*
X1360532Y802868D01*
X1362135Y804957D01*
X1363143Y807390D01*
X1363486Y810000D01*
X1363143Y812610D01*
X1362135Y815043D01*
X1360532Y817132D01*
X1358443Y818735D01*
X1356010Y819743D01*
X1353400Y820086D01*
D02*
G37*
G36*
X690500Y812069D02*
X688412Y811794D01*
X686466Y810988D01*
X684794Y809706D01*
X683512Y808035D01*
X682706Y806088D01*
X682431Y804000D01*
X682706Y801912D01*
X683512Y799966D01*
X684794Y798294D01*
X686466Y797012D01*
X688412Y796206D01*
X690500Y795931D01*
X692588Y796206D01*
X694535Y797012D01*
X696206Y798294D01*
X697488Y799966D01*
X698294Y801912D01*
X698569Y804000D01*
X698294Y806088D01*
X697488Y808035D01*
X696206Y809706D01*
X694535Y810988D01*
X692588Y811794D01*
X690500Y812069D01*
D02*
G37*
G36*
X660000Y805569D02*
X657912Y805294D01*
X655965Y804488D01*
X654294Y803206D01*
X653012Y801535D01*
X652206Y799588D01*
X651931Y797500D01*
X652206Y795412D01*
X653012Y793465D01*
X654294Y791794D01*
X655965Y790512D01*
X657912Y789706D01*
X660000Y789431D01*
X662088Y789706D01*
X664035Y790512D01*
X665706Y791794D01*
X666988Y793465D01*
X667794Y795412D01*
X668069Y797500D01*
X667794Y799588D01*
X666988Y801535D01*
X665706Y803206D01*
X664035Y804488D01*
X662088Y805294D01*
X660000Y805569D01*
D02*
G37*
G36*
X1354670Y794055D02*
Y785870D01*
X1362855D01*
X1362695Y787091D01*
X1361733Y789411D01*
X1360204Y791404D01*
X1358211Y792933D01*
X1355891Y793894D01*
X1354670Y794055D01*
D02*
G37*
G36*
X1352130D02*
X1350910Y793894D01*
X1348589Y792933D01*
X1346596Y791404D01*
X1345067Y789411D01*
X1344106Y787091D01*
X1343945Y785870D01*
X1352130D01*
Y794055D01*
D02*
G37*
G36*
X327700Y807799D02*
X324698Y807404D01*
X321900Y806245D01*
X319498Y804402D01*
X317655Y802000D01*
X316496Y799202D01*
X316101Y796200D01*
X316496Y793198D01*
X317655Y790400D01*
X319498Y787998D01*
X321900Y786155D01*
X324698Y784996D01*
X327700Y784601D01*
X330702Y784996D01*
X333500Y786155D01*
X335902Y787998D01*
X337745Y790400D01*
X338904Y793198D01*
X339299Y796200D01*
X338904Y799202D01*
X337745Y802000D01*
X335902Y804402D01*
X333500Y806245D01*
X330702Y807404D01*
X327700Y807799D01*
D02*
G37*
G36*
X303570Y793318D02*
Y783620D01*
X313268D01*
X313056Y785232D01*
X311943Y787917D01*
X310174Y790224D01*
X307868Y791993D01*
X305182Y793106D01*
X303570Y793318D01*
D02*
G37*
G36*
X301030D02*
X299418Y793106D01*
X296732Y791993D01*
X294426Y790224D01*
X292657Y787917D01*
X291544Y785232D01*
X291332Y783620D01*
X301030D01*
Y793318D01*
D02*
G37*
G36*
X1362855Y783330D02*
X1354670D01*
Y775145D01*
X1355891Y775306D01*
X1358211Y776267D01*
X1360204Y777796D01*
X1361733Y779789D01*
X1362695Y782110D01*
X1362855Y783330D01*
D02*
G37*
G36*
X1352130D02*
X1343945D01*
X1344106Y782110D01*
X1345067Y779789D01*
X1346596Y777796D01*
X1348589Y776267D01*
X1350910Y775306D01*
X1352130Y775145D01*
Y783330D01*
D02*
G37*
G36*
X1201000Y794686D02*
X1198390Y794343D01*
X1195957Y793335D01*
X1193868Y791732D01*
X1192265Y789643D01*
X1191257Y787210D01*
X1190914Y784600D01*
X1191257Y781990D01*
X1192265Y779557D01*
X1193868Y777468D01*
X1195957Y775865D01*
X1198390Y774857D01*
X1201000Y774514D01*
X1203611Y774857D01*
X1206043Y775865D01*
X1208132Y777468D01*
X1209735Y779557D01*
X1210743Y781990D01*
X1211086Y784600D01*
X1210743Y787210D01*
X1209735Y789643D01*
X1208132Y791732D01*
X1206043Y793335D01*
X1203611Y794343D01*
X1201000Y794686D01*
D02*
G37*
G36*
X313268Y781080D02*
X303570D01*
Y771382D01*
X305182Y771594D01*
X307868Y772707D01*
X310174Y774476D01*
X311943Y776782D01*
X313056Y779468D01*
X313268Y781080D01*
D02*
G37*
G36*
X301030D02*
X291332D01*
X291544Y779468D01*
X292657Y776782D01*
X294426Y774476D01*
X296732Y772707D01*
X299418Y771594D01*
X301030Y771382D01*
Y781080D01*
D02*
G37*
G36*
X362000Y777431D02*
X359559Y777109D01*
X357285Y776167D01*
X355331Y774669D01*
X353833Y772715D01*
X352891Y770441D01*
X352569Y768000D01*
X352891Y765559D01*
X353833Y763285D01*
X355331Y761331D01*
X357285Y759833D01*
X359559Y758891D01*
X362000Y758569D01*
X364441Y758891D01*
X366715Y759833D01*
X368669Y761331D01*
X370167Y763285D01*
X371109Y765559D01*
X371431Y768000D01*
X371109Y770441D01*
X370167Y772715D01*
X368669Y774669D01*
X366715Y776167D01*
X364441Y777109D01*
X362000Y777431D01*
D02*
G37*
G36*
X327700Y780099D02*
X324698Y779704D01*
X321900Y778545D01*
X319498Y776702D01*
X317655Y774299D01*
X316496Y771502D01*
X316101Y768500D01*
X316496Y765498D01*
X317655Y762700D01*
X319498Y760298D01*
X321900Y758455D01*
X324698Y757296D01*
X327700Y756901D01*
X330702Y757296D01*
X333500Y758455D01*
X335902Y760298D01*
X337745Y762700D01*
X338904Y765498D01*
X339299Y768500D01*
X338904Y771502D01*
X337745Y774299D01*
X335902Y776702D01*
X333500Y778545D01*
X330702Y779704D01*
X327700Y780099D01*
D02*
G37*
G36*
X1053540Y765540D02*
X1044270D01*
Y756270D01*
X1053540D01*
Y765540D01*
D02*
G37*
G36*
X1041730D02*
X1032460D01*
Y756270D01*
X1041730D01*
Y765540D01*
D02*
G37*
G36*
X303570Y765618D02*
Y755920D01*
X313268D01*
X313056Y757532D01*
X311943Y760218D01*
X310174Y762524D01*
X307868Y764293D01*
X305182Y765406D01*
X303570Y765618D01*
D02*
G37*
G36*
X301030D02*
X299418Y765406D01*
X296732Y764293D01*
X294426Y762524D01*
X292657Y760218D01*
X291544Y757532D01*
X291332Y755920D01*
X301030D01*
Y765618D01*
D02*
G37*
G36*
X1628776Y815644D02*
X1623990Y815268D01*
X1619322Y814147D01*
X1614886Y812310D01*
X1610793Y809801D01*
X1607143Y806684D01*
X1604025Y803033D01*
X1601516Y798940D01*
X1599679Y794504D01*
X1598558Y789836D01*
X1598182Y785050D01*
X1598558Y780264D01*
X1599679Y775596D01*
X1601516Y771161D01*
X1604025Y767067D01*
X1607143Y763417D01*
X1610793Y760299D01*
X1614886Y757790D01*
X1619322Y755953D01*
X1623990Y754832D01*
X1628776Y754456D01*
X1633562Y754832D01*
X1638230Y755953D01*
X1642666Y757790D01*
X1646759Y760299D01*
X1650409Y763417D01*
X1653527Y767067D01*
X1656036Y771161D01*
X1657873Y775596D01*
X1658994Y780264D01*
X1659370Y785050D01*
X1658994Y789836D01*
X1657873Y794504D01*
X1656036Y798940D01*
X1653527Y803033D01*
X1650409Y806684D01*
X1646759Y809801D01*
X1642666Y812310D01*
X1638230Y814147D01*
X1633562Y815268D01*
X1628776Y815644D01*
D02*
G37*
G36*
X522500Y770569D02*
X520412Y770294D01*
X518465Y769488D01*
X516794Y768206D01*
X515512Y766535D01*
X514706Y764588D01*
X514431Y762500D01*
X514706Y760412D01*
X515512Y758465D01*
X516794Y756794D01*
X518465Y755512D01*
X520412Y754706D01*
X522500Y754431D01*
X524588Y754706D01*
X526535Y755512D01*
X528206Y756794D01*
X529488Y758465D01*
X530294Y760412D01*
X530569Y762500D01*
X530294Y764588D01*
X529488Y766535D01*
X528206Y768206D01*
X526535Y769488D01*
X524588Y770294D01*
X522500Y770569D01*
D02*
G37*
G36*
X1353400Y769286D02*
X1350789Y768943D01*
X1348357Y767935D01*
X1346268Y766332D01*
X1344665Y764243D01*
X1343657Y761811D01*
X1343314Y759200D01*
X1343657Y756590D01*
X1344665Y754157D01*
X1346268Y752068D01*
X1348357Y750465D01*
X1350789Y749457D01*
X1353400Y749114D01*
X1356010Y749457D01*
X1358443Y750465D01*
X1360532Y752068D01*
X1362135Y754157D01*
X1363143Y756590D01*
X1363486Y759200D01*
X1363143Y761811D01*
X1362135Y764243D01*
X1360532Y766332D01*
X1358443Y767935D01*
X1356010Y768943D01*
X1353400Y769286D01*
D02*
G37*
G36*
X1201000D02*
X1198390Y768943D01*
X1195957Y767935D01*
X1193868Y766332D01*
X1192265Y764243D01*
X1191257Y761811D01*
X1190914Y759200D01*
X1191257Y756590D01*
X1192265Y754157D01*
X1193868Y752068D01*
X1195957Y750465D01*
X1198390Y749457D01*
X1201000Y749114D01*
X1203611Y749457D01*
X1206043Y750465D01*
X1208132Y752068D01*
X1209735Y754157D01*
X1210743Y756590D01*
X1211086Y759200D01*
X1210743Y761811D01*
X1209735Y764243D01*
X1208132Y766332D01*
X1206043Y767935D01*
X1203611Y768943D01*
X1201000Y769286D01*
D02*
G37*
G36*
X1053540Y753730D02*
X1044270D01*
Y744460D01*
X1053540D01*
Y753730D01*
D02*
G37*
G36*
X1041730D02*
X1032460D01*
Y744460D01*
X1041730D01*
Y753730D01*
D02*
G37*
G36*
X1488000Y760069D02*
X1485912Y759794D01*
X1483965Y758988D01*
X1482294Y757706D01*
X1481012Y756034D01*
X1480206Y754088D01*
X1479931Y752000D01*
X1480206Y749912D01*
X1481012Y747965D01*
X1482294Y746294D01*
X1483965Y745012D01*
X1485912Y744206D01*
X1488000Y743931D01*
X1490088Y744206D01*
X1492034Y745012D01*
X1493706Y746294D01*
X1494988Y747965D01*
X1495794Y749912D01*
X1496069Y752000D01*
X1495794Y754088D01*
X1494988Y756034D01*
X1493706Y757706D01*
X1492034Y758988D01*
X1490088Y759794D01*
X1488000Y760069D01*
D02*
G37*
G36*
X313268Y753380D02*
X303570D01*
Y743682D01*
X305182Y743894D01*
X307868Y745006D01*
X310174Y746776D01*
X311943Y749082D01*
X313056Y751768D01*
X313268Y753380D01*
D02*
G37*
G36*
X301030D02*
X291332D01*
X291544Y751768D01*
X292657Y749082D01*
X294426Y746776D01*
X296732Y745006D01*
X299418Y743894D01*
X301030Y743682D01*
Y753380D01*
D02*
G37*
G36*
X808500Y754569D02*
X806412Y754294D01*
X804465Y753488D01*
X802794Y752206D01*
X801512Y750535D01*
X800706Y748588D01*
X800431Y746500D01*
X800706Y744412D01*
X801512Y742466D01*
X802794Y740794D01*
X804465Y739512D01*
X806412Y738706D01*
X808500Y738431D01*
X810588Y738706D01*
X812534Y739512D01*
X814206Y740794D01*
X815488Y742466D01*
X816294Y744412D01*
X816569Y746500D01*
X816294Y748588D01*
X815488Y750535D01*
X814206Y752206D01*
X812534Y753488D01*
X810588Y754294D01*
X808500Y754569D01*
D02*
G37*
G36*
X697500Y753069D02*
X695412Y752794D01*
X693465Y751988D01*
X691794Y750706D01*
X690512Y749035D01*
X689706Y747088D01*
X689431Y745000D01*
X689706Y742912D01*
X690512Y740965D01*
X691794Y739294D01*
X693465Y738012D01*
X695412Y737206D01*
X697500Y736931D01*
X699588Y737206D01*
X701535Y738012D01*
X703206Y739294D01*
X704488Y740965D01*
X705294Y742912D01*
X705569Y745000D01*
X705294Y747088D01*
X704488Y749035D01*
X703206Y750706D01*
X701535Y751988D01*
X699588Y752794D01*
X697500Y753069D01*
D02*
G37*
G36*
X785000Y753069D02*
X782912Y752794D01*
X780965Y751988D01*
X779294Y750706D01*
X778012Y749035D01*
X777206Y747088D01*
X776931Y745000D01*
X777206Y742912D01*
X778012Y740965D01*
X779294Y739294D01*
X780965Y738012D01*
X782912Y737206D01*
X785000Y736931D01*
X787088Y737206D01*
X789035Y738012D01*
X790706Y739294D01*
X791988Y740965D01*
X792794Y742912D01*
X793069Y745000D01*
X792794Y747088D01*
X791988Y749035D01*
X790706Y750706D01*
X789035Y751988D01*
X787088Y752794D01*
X785000Y753069D01*
D02*
G37*
G36*
X765000D02*
X762912Y752794D01*
X760965Y751988D01*
X759294Y750706D01*
X758012Y749035D01*
X757206Y747088D01*
X756931Y745000D01*
X757206Y742912D01*
X758012Y740965D01*
X759294Y739294D01*
X760965Y738012D01*
X762912Y737206D01*
X765000Y736931D01*
X767088Y737206D01*
X769035Y738012D01*
X770706Y739294D01*
X771988Y740965D01*
X772794Y742912D01*
X773069Y745000D01*
X772794Y747088D01*
X771988Y749035D01*
X770706Y750706D01*
X769035Y751988D01*
X767088Y752794D01*
X765000Y753069D01*
D02*
G37*
G36*
X742500D02*
X740412Y752794D01*
X738465Y751988D01*
X736794Y750706D01*
X735512Y749035D01*
X734706Y747088D01*
X734431Y745000D01*
X734706Y742912D01*
X735512Y740965D01*
X736794Y739294D01*
X738465Y738012D01*
X740412Y737206D01*
X742500Y736931D01*
X744588Y737206D01*
X746535Y738012D01*
X748206Y739294D01*
X749488Y740965D01*
X750294Y742912D01*
X750569Y745000D01*
X750294Y747088D01*
X749488Y749035D01*
X748206Y750706D01*
X746535Y751988D01*
X744588Y752794D01*
X742500Y753069D01*
D02*
G37*
G36*
X720000D02*
X717912Y752794D01*
X715965Y751988D01*
X714294Y750706D01*
X713012Y749035D01*
X712206Y747088D01*
X711931Y745000D01*
X712206Y742912D01*
X713012Y740965D01*
X714294Y739294D01*
X715965Y738012D01*
X717912Y737206D01*
X720000Y736931D01*
X722088Y737206D01*
X724035Y738012D01*
X725706Y739294D01*
X726988Y740965D01*
X727794Y742912D01*
X728069Y745000D01*
X727794Y747088D01*
X726988Y749035D01*
X725706Y750706D01*
X724035Y751988D01*
X722088Y752794D01*
X720000Y753069D01*
D02*
G37*
G36*
X947500Y745569D02*
X945412Y745294D01*
X943465Y744488D01*
X941794Y743206D01*
X940512Y741535D01*
X939706Y739588D01*
X939431Y737500D01*
X939706Y735412D01*
X940512Y733465D01*
X941794Y731794D01*
X943465Y730512D01*
X945412Y729706D01*
X947500Y729431D01*
X949588Y729706D01*
X951535Y730512D01*
X953206Y731794D01*
X954488Y733465D01*
X955294Y735412D01*
X955569Y737500D01*
X955294Y739588D01*
X954488Y741535D01*
X953206Y743206D01*
X951535Y744488D01*
X949588Y745294D01*
X947500Y745569D01*
D02*
G37*
G36*
X327700Y752399D02*
X324698Y752004D01*
X321900Y750845D01*
X319498Y749002D01*
X317655Y746600D01*
X316496Y743802D01*
X316101Y740800D01*
X316496Y737798D01*
X317655Y735000D01*
X319498Y732598D01*
X321900Y730755D01*
X324698Y729596D01*
X327700Y729201D01*
X330702Y729596D01*
X333500Y730755D01*
X335902Y732598D01*
X337745Y735000D01*
X338904Y737798D01*
X339299Y740800D01*
X338904Y743802D01*
X337745Y746600D01*
X335902Y749002D01*
X333500Y750845D01*
X330702Y752004D01*
X327700Y752399D01*
D02*
G37*
G36*
X303570Y737918D02*
Y728220D01*
X313268D01*
X313056Y729832D01*
X311943Y732517D01*
X310174Y734824D01*
X307868Y736593D01*
X305182Y737706D01*
X303570Y737918D01*
D02*
G37*
G36*
X301030D02*
X299418Y737706D01*
X296732Y736593D01*
X294426Y734824D01*
X292657Y732517D01*
X291544Y729832D01*
X291332Y728220D01*
X301030D01*
Y737918D01*
D02*
G37*
G36*
X1353400Y743886D02*
X1350789Y743543D01*
X1348357Y742535D01*
X1346268Y740932D01*
X1344665Y738843D01*
X1343657Y736411D01*
X1343314Y733800D01*
X1343657Y731189D01*
X1344665Y728757D01*
X1346268Y726668D01*
X1348357Y725065D01*
X1350789Y724057D01*
X1353400Y723714D01*
X1356010Y724057D01*
X1358443Y725065D01*
X1360532Y726668D01*
X1362135Y728757D01*
X1363143Y731189D01*
X1363486Y733800D01*
X1363143Y736411D01*
X1362135Y738843D01*
X1360532Y740932D01*
X1358443Y742535D01*
X1356010Y743543D01*
X1353400Y743886D01*
D02*
G37*
G36*
X1201000D02*
X1198390Y743543D01*
X1195957Y742535D01*
X1193868Y740932D01*
X1192265Y738843D01*
X1191257Y736411D01*
X1190914Y733800D01*
X1191257Y731189D01*
X1192265Y728757D01*
X1193868Y726668D01*
X1195957Y725065D01*
X1198390Y724057D01*
X1201000Y723714D01*
X1203611Y724057D01*
X1206043Y725065D01*
X1208132Y726668D01*
X1209735Y728757D01*
X1210743Y731189D01*
X1211086Y733800D01*
X1210743Y736411D01*
X1209735Y738843D01*
X1208132Y740932D01*
X1206043Y742535D01*
X1203611Y743543D01*
X1201000Y743886D01*
D02*
G37*
G36*
X647500Y738069D02*
X645412Y737794D01*
X643465Y736988D01*
X641794Y735706D01*
X640512Y734035D01*
X639706Y732088D01*
X639431Y730000D01*
X639706Y727912D01*
X640512Y725965D01*
X641794Y724294D01*
X643465Y723012D01*
X645412Y722206D01*
X647500Y721931D01*
X649588Y722206D01*
X651535Y723012D01*
X653206Y724294D01*
X654488Y725965D01*
X655294Y727912D01*
X655569Y730000D01*
X655294Y732088D01*
X654488Y734035D01*
X653206Y735706D01*
X651535Y736988D01*
X649588Y737794D01*
X647500Y738069D01*
D02*
G37*
G36*
X517000Y736069D02*
X514912Y735794D01*
X512966Y734988D01*
X511294Y733706D01*
X510012Y732035D01*
X509206Y730088D01*
X508931Y728000D01*
X509206Y725912D01*
X510012Y723966D01*
X511294Y722294D01*
X512966Y721012D01*
X514912Y720206D01*
X517000Y719931D01*
X519088Y720206D01*
X521035Y721012D01*
X522706Y722294D01*
X523988Y723966D01*
X524794Y725912D01*
X525069Y728000D01*
X524794Y730088D01*
X523988Y732035D01*
X522706Y733706D01*
X521035Y734988D01*
X519088Y735794D01*
X517000Y736069D01*
D02*
G37*
G36*
X1553000Y736069D02*
X1550912Y735794D01*
X1548965Y734988D01*
X1547294Y733706D01*
X1546012Y732035D01*
X1545206Y730088D01*
X1544931Y728000D01*
X1545206Y725912D01*
X1546012Y723966D01*
X1547294Y722294D01*
X1548965Y721012D01*
X1550912Y720206D01*
X1553000Y719931D01*
X1555088Y720206D01*
X1557034Y721012D01*
X1558706Y722294D01*
X1559988Y723966D01*
X1560794Y725912D01*
X1561069Y728000D01*
X1560794Y730088D01*
X1559988Y732035D01*
X1558706Y733706D01*
X1557034Y734988D01*
X1555088Y735794D01*
X1553000Y736069D01*
D02*
G37*
G36*
X313268Y725680D02*
X303570D01*
Y715982D01*
X305182Y716194D01*
X307868Y717307D01*
X310174Y719076D01*
X311943Y721382D01*
X313056Y724068D01*
X313268Y725680D01*
D02*
G37*
G36*
X301030D02*
X291332D01*
X291544Y724068D01*
X292657Y721382D01*
X294426Y719076D01*
X296732Y717307D01*
X299418Y716194D01*
X301030Y715982D01*
Y725680D01*
D02*
G37*
G36*
X419000Y730819D02*
X416912Y730544D01*
X414966Y729738D01*
X413294Y728456D01*
X412012Y726785D01*
X411206Y724838D01*
X410931Y722750D01*
X411206Y720662D01*
X412012Y718716D01*
X413294Y717044D01*
X414966Y715762D01*
X416912Y714956D01*
X419000Y714681D01*
X421088Y714956D01*
X423035Y715762D01*
X424706Y717044D01*
X425988Y718716D01*
X426794Y720662D01*
X427069Y722750D01*
X426794Y724838D01*
X425988Y726785D01*
X424706Y728456D01*
X423035Y729738D01*
X421088Y730544D01*
X419000Y730819D01*
D02*
G37*
G36*
X572500Y730569D02*
X570412Y730294D01*
X568465Y729488D01*
X566794Y728206D01*
X565512Y726535D01*
X564706Y724588D01*
X564431Y722500D01*
X564706Y720412D01*
X565512Y718465D01*
X566794Y716794D01*
X568465Y715512D01*
X570412Y714706D01*
X572500Y714431D01*
X574588Y714706D01*
X576535Y715512D01*
X578206Y716794D01*
X579488Y718465D01*
X580294Y720412D01*
X580569Y722500D01*
X580294Y724588D01*
X579488Y726535D01*
X578206Y728206D01*
X576535Y729488D01*
X574588Y730294D01*
X572500Y730569D01*
D02*
G37*
G36*
X909000Y728069D02*
X906912Y727794D01*
X904966Y726988D01*
X903294Y725706D01*
X902012Y724035D01*
X901206Y722088D01*
X900931Y720000D01*
X901206Y717912D01*
X902012Y715965D01*
X903294Y714294D01*
X904966Y713012D01*
X906912Y712206D01*
X909000Y711931D01*
X911088Y712206D01*
X913035Y713012D01*
X914706Y714294D01*
X915988Y715965D01*
X916794Y717912D01*
X917069Y720000D01*
X916794Y722088D01*
X915988Y724035D01*
X914706Y725706D01*
X913035Y726988D01*
X911088Y727794D01*
X909000Y728069D01*
D02*
G37*
G36*
X617500D02*
X615412Y727794D01*
X613465Y726988D01*
X611794Y725706D01*
X610512Y724035D01*
X609706Y722088D01*
X609431Y720000D01*
X609706Y717912D01*
X610512Y715965D01*
X611794Y714294D01*
X613465Y713012D01*
X615412Y712206D01*
X617500Y711931D01*
X619588Y712206D01*
X621535Y713012D01*
X623206Y714294D01*
X624488Y715965D01*
X625294Y717912D01*
X625569Y720000D01*
X625294Y722088D01*
X624488Y724035D01*
X623206Y725706D01*
X621535Y726988D01*
X619588Y727794D01*
X617500Y728069D01*
D02*
G37*
G36*
X1572000Y724069D02*
X1569912Y723794D01*
X1567966Y722988D01*
X1566294Y721706D01*
X1565012Y720034D01*
X1564206Y718088D01*
X1563931Y716000D01*
X1564206Y713912D01*
X1565012Y711965D01*
X1566294Y710294D01*
X1567966Y709012D01*
X1569912Y708206D01*
X1572000Y707931D01*
X1574088Y708206D01*
X1576035Y709012D01*
X1577706Y710294D01*
X1578988Y711965D01*
X1579794Y713912D01*
X1580069Y716000D01*
X1579794Y718088D01*
X1578988Y720034D01*
X1577706Y721706D01*
X1576035Y722988D01*
X1574088Y723794D01*
X1572000Y724069D01*
D02*
G37*
G36*
X1444000Y722069D02*
X1441912Y721794D01*
X1439966Y720988D01*
X1438294Y719706D01*
X1437012Y718035D01*
X1436206Y716088D01*
X1435931Y714000D01*
X1436206Y711912D01*
X1437012Y709966D01*
X1438294Y708294D01*
X1439966Y707012D01*
X1441912Y706206D01*
X1444000Y705931D01*
X1446088Y706206D01*
X1448035Y707012D01*
X1449706Y708294D01*
X1450988Y709966D01*
X1451794Y711912D01*
X1452069Y714000D01*
X1451794Y716088D01*
X1450988Y718035D01*
X1449706Y719706D01*
X1448035Y720988D01*
X1446088Y721794D01*
X1444000Y722069D01*
D02*
G37*
G36*
X1614552Y725491D02*
X1611811Y725130D01*
X1609257Y724072D01*
X1607063Y722389D01*
X1605380Y720195D01*
X1604322Y717641D01*
X1603961Y714900D01*
X1604322Y712159D01*
X1605380Y709605D01*
X1607063Y707411D01*
X1609257Y705728D01*
X1611811Y704670D01*
X1614552Y704309D01*
X1617293Y704670D01*
X1619847Y705728D01*
X1622041Y707411D01*
X1623724Y709605D01*
X1624782Y712159D01*
X1625143Y714900D01*
X1624782Y717641D01*
X1623724Y720195D01*
X1622041Y722389D01*
X1619847Y724072D01*
X1617293Y725130D01*
X1614552Y725491D01*
D02*
G37*
G36*
X327700Y724699D02*
X324698Y724304D01*
X321900Y723145D01*
X319498Y721302D01*
X317655Y718900D01*
X316496Y716102D01*
X316101Y713100D01*
X316496Y710098D01*
X317655Y707300D01*
X319498Y704898D01*
X321900Y703055D01*
X324698Y701896D01*
X327700Y701501D01*
X330702Y701896D01*
X333500Y703055D01*
X335902Y704898D01*
X337745Y707300D01*
X338904Y710098D01*
X339299Y713100D01*
X338904Y716102D01*
X337745Y718900D01*
X335902Y721302D01*
X333500Y723145D01*
X330702Y724304D01*
X327700Y724699D01*
D02*
G37*
G36*
X303570Y710218D02*
Y700520D01*
X313268D01*
X313056Y702132D01*
X311943Y704818D01*
X310174Y707124D01*
X307868Y708893D01*
X305182Y710006D01*
X303570Y710218D01*
D02*
G37*
G36*
X301030D02*
X299418Y710006D01*
X296732Y708893D01*
X294426Y707124D01*
X292657Y704818D01*
X291544Y702132D01*
X291332Y700520D01*
X301030D01*
Y710218D01*
D02*
G37*
G36*
X1353400Y718486D02*
X1350789Y718143D01*
X1348357Y717135D01*
X1346268Y715532D01*
X1344665Y713443D01*
X1343657Y711011D01*
X1343314Y708400D01*
X1343657Y705789D01*
X1344665Y703357D01*
X1346268Y701268D01*
X1348357Y699665D01*
X1350789Y698657D01*
X1353400Y698314D01*
X1356010Y698657D01*
X1358443Y699665D01*
X1360532Y701268D01*
X1362135Y703357D01*
X1363143Y705789D01*
X1363486Y708400D01*
X1363143Y711011D01*
X1362135Y713443D01*
X1360532Y715532D01*
X1358443Y717135D01*
X1356010Y718143D01*
X1353400Y718486D01*
D02*
G37*
G36*
X1201000D02*
X1198390Y718143D01*
X1195957Y717135D01*
X1193868Y715532D01*
X1192265Y713443D01*
X1191257Y711011D01*
X1190914Y708400D01*
X1191257Y705789D01*
X1192265Y703357D01*
X1193868Y701268D01*
X1195957Y699665D01*
X1198390Y698657D01*
X1201000Y698314D01*
X1203611Y698657D01*
X1206043Y699665D01*
X1208132Y701268D01*
X1209735Y703357D01*
X1210743Y705789D01*
X1211086Y708400D01*
X1210743Y711011D01*
X1209735Y713443D01*
X1208132Y715532D01*
X1206043Y717135D01*
X1203611Y718143D01*
X1201000Y718486D01*
D02*
G37*
G36*
X493770Y705464D02*
Y696270D01*
X502964D01*
X502769Y697751D01*
X501707Y700315D01*
X500017Y702517D01*
X497816Y704207D01*
X495252Y705269D01*
X493770Y705464D01*
D02*
G37*
G36*
X491230D02*
X489748Y705269D01*
X487184Y704207D01*
X484983Y702517D01*
X483293Y700315D01*
X482231Y697751D01*
X482036Y696270D01*
X491230D01*
Y705464D01*
D02*
G37*
G36*
X1643000Y711791D02*
X1640259Y711430D01*
X1637705Y710372D01*
X1635511Y708689D01*
X1633828Y706495D01*
X1632770Y703941D01*
X1632409Y701200D01*
X1632770Y698459D01*
X1633828Y695905D01*
X1635511Y693711D01*
X1637705Y692028D01*
X1640259Y690970D01*
X1643000Y690609D01*
X1645741Y690970D01*
X1648295Y692028D01*
X1650489Y693711D01*
X1652172Y695905D01*
X1653230Y698459D01*
X1653591Y701200D01*
X1653230Y703941D01*
X1652172Y706495D01*
X1650489Y708689D01*
X1648295Y710372D01*
X1645741Y711430D01*
X1643000Y711791D01*
D02*
G37*
G36*
X313268Y697980D02*
X303570D01*
Y688282D01*
X305182Y688494D01*
X307868Y689606D01*
X310174Y691376D01*
X311943Y693682D01*
X313056Y696368D01*
X313268Y697980D01*
D02*
G37*
G36*
X301030D02*
X291332D01*
X291544Y696368D01*
X292657Y693682D01*
X294426Y691376D01*
X296732Y689606D01*
X299418Y688494D01*
X301030Y688282D01*
Y697980D01*
D02*
G37*
G36*
X502964Y693730D02*
X493770D01*
Y684536D01*
X495252Y684731D01*
X497816Y685793D01*
X500017Y687483D01*
X501707Y689685D01*
X502769Y692249D01*
X502964Y693730D01*
D02*
G37*
G36*
X491230D02*
X482036D01*
X482231Y692249D01*
X483293Y689685D01*
X484983Y687483D01*
X487184Y685793D01*
X489748Y684731D01*
X491230Y684536D01*
Y693730D01*
D02*
G37*
G36*
X603500Y706000D02*
X581500D01*
Y684000D01*
X603500D01*
Y706000D01*
D02*
G37*
G36*
X1501000Y711069D02*
X1498912Y710794D01*
X1496965Y709988D01*
X1495294Y708706D01*
X1494012Y707035D01*
X1493206Y705088D01*
X1492931Y703000D01*
X1493206Y700912D01*
X1494012Y698966D01*
X1495294Y697294D01*
X1496965Y696012D01*
X1498912Y695206D01*
X1500202Y695036D01*
X1500000Y693069D01*
X1497912Y692794D01*
X1495966Y691988D01*
X1494294Y690706D01*
X1493012Y689035D01*
X1492206Y687088D01*
X1491931Y685000D01*
X1492206Y682912D01*
X1493012Y680965D01*
X1494294Y679294D01*
X1495966Y678012D01*
X1497912Y677206D01*
X1500000Y676931D01*
X1502088Y677206D01*
X1504034Y678012D01*
X1505706Y679294D01*
X1506988Y680965D01*
X1507794Y682912D01*
X1508069Y685000D01*
X1507794Y687088D01*
X1506988Y689035D01*
X1505706Y690706D01*
X1504034Y691988D01*
X1502088Y692794D01*
X1500798Y692964D01*
X1501000Y694931D01*
X1503088Y695206D01*
X1505034Y696012D01*
X1506706Y697294D01*
X1507988Y698966D01*
X1508794Y700912D01*
X1509069Y703000D01*
X1508794Y705088D01*
X1507988Y707035D01*
X1506706Y708706D01*
X1505034Y709988D01*
X1503088Y710794D01*
X1501000Y711069D01*
D02*
G37*
G36*
X1614552Y698091D02*
X1611811Y697730D01*
X1609257Y696672D01*
X1607063Y694989D01*
X1605380Y692795D01*
X1604322Y690241D01*
X1603961Y687500D01*
X1604322Y684759D01*
X1605380Y682205D01*
X1607063Y680011D01*
X1609257Y678328D01*
X1611811Y677270D01*
X1614552Y676909D01*
X1617293Y677270D01*
X1619847Y678328D01*
X1622041Y680011D01*
X1623724Y682205D01*
X1624782Y684759D01*
X1625143Y687500D01*
X1624782Y690241D01*
X1623724Y692795D01*
X1622041Y694989D01*
X1619847Y696672D01*
X1617293Y697730D01*
X1614552Y698091D01*
D02*
G37*
G36*
X327700Y696999D02*
X324698Y696604D01*
X321900Y695445D01*
X319498Y693602D01*
X317655Y691199D01*
X316496Y688402D01*
X316101Y685400D01*
X316496Y682398D01*
X317655Y679600D01*
X319498Y677198D01*
X321900Y675355D01*
X324698Y674196D01*
X327700Y673801D01*
X330702Y674196D01*
X333500Y675355D01*
X335902Y677198D01*
X337745Y679600D01*
X338904Y682398D01*
X339299Y685400D01*
X338904Y688402D01*
X337745Y691199D01*
X335902Y693602D01*
X333500Y695445D01*
X330702Y696604D01*
X327700Y696999D01*
D02*
G37*
G36*
X1353400Y693086D02*
X1350789Y692743D01*
X1348357Y691735D01*
X1346268Y690132D01*
X1344665Y688043D01*
X1343657Y685611D01*
X1343314Y683000D01*
X1343657Y680389D01*
X1344665Y677957D01*
X1346268Y675868D01*
X1348357Y674265D01*
X1350789Y673257D01*
X1353400Y672914D01*
X1356010Y673257D01*
X1358443Y674265D01*
X1360532Y675868D01*
X1362135Y677957D01*
X1363143Y680389D01*
X1363486Y683000D01*
X1363143Y685611D01*
X1362135Y688043D01*
X1360532Y690132D01*
X1358443Y691735D01*
X1356010Y692743D01*
X1353400Y693086D01*
D02*
G37*
G36*
X1201000D02*
X1198390Y692743D01*
X1195957Y691735D01*
X1193868Y690132D01*
X1192265Y688043D01*
X1191257Y685611D01*
X1190914Y683000D01*
X1191257Y680389D01*
X1192265Y677957D01*
X1193868Y675868D01*
X1195957Y674265D01*
X1198390Y673257D01*
X1201000Y672914D01*
X1203611Y673257D01*
X1206043Y674265D01*
X1208132Y675868D01*
X1209735Y677957D01*
X1210743Y680389D01*
X1211086Y683000D01*
X1210743Y685611D01*
X1209735Y688043D01*
X1208132Y690132D01*
X1206043Y691735D01*
X1203611Y692743D01*
X1201000Y693086D01*
D02*
G37*
G36*
X303570Y682518D02*
Y672820D01*
X313268D01*
X313056Y674432D01*
X311943Y677117D01*
X310174Y679424D01*
X307868Y681193D01*
X305182Y682306D01*
X303570Y682518D01*
D02*
G37*
G36*
X301030D02*
X299418Y682306D01*
X296732Y681193D01*
X294426Y679424D01*
X292657Y677117D01*
X291544Y674432D01*
X291332Y672820D01*
X301030D01*
Y682518D01*
D02*
G37*
G36*
X1643000Y684391D02*
X1640259Y684030D01*
X1637705Y682972D01*
X1635511Y681289D01*
X1633828Y679095D01*
X1632770Y676541D01*
X1632409Y673800D01*
X1632770Y671059D01*
X1633828Y668505D01*
X1635511Y666311D01*
X1637705Y664628D01*
X1640259Y663570D01*
X1643000Y663209D01*
X1645741Y663570D01*
X1648295Y664628D01*
X1650489Y666311D01*
X1652172Y668505D01*
X1653230Y671059D01*
X1653591Y673800D01*
X1653230Y676541D01*
X1652172Y679095D01*
X1650489Y681289D01*
X1648295Y682972D01*
X1645741Y684030D01*
X1643000Y684391D01*
D02*
G37*
G36*
X313268Y670280D02*
X303570D01*
Y660582D01*
X305182Y660794D01*
X307868Y661907D01*
X310174Y663676D01*
X311943Y665982D01*
X313056Y668668D01*
X313268Y670280D01*
D02*
G37*
G36*
X301030D02*
X291332D01*
X291544Y668668D01*
X292657Y665982D01*
X294426Y663676D01*
X296732Y661907D01*
X299418Y660794D01*
X301030Y660582D01*
Y670280D01*
D02*
G37*
G36*
X492000Y670069D02*
X489912Y669794D01*
X487966Y668988D01*
X486294Y667706D01*
X485012Y666034D01*
X484206Y664088D01*
X483931Y662000D01*
X484206Y659912D01*
X485012Y657965D01*
X486294Y656294D01*
X487966Y655012D01*
X489912Y654206D01*
X492000Y653931D01*
X494088Y654206D01*
X496035Y655012D01*
X497706Y656294D01*
X498988Y657965D01*
X499794Y659912D01*
X500069Y662000D01*
X499794Y664088D01*
X498988Y666034D01*
X497706Y667706D01*
X496035Y668988D01*
X494088Y669794D01*
X492000Y670069D01*
D02*
G37*
G36*
X1614552Y670691D02*
X1611811Y670330D01*
X1609257Y669272D01*
X1607063Y667589D01*
X1605380Y665395D01*
X1604322Y662841D01*
X1603961Y660100D01*
X1604322Y657359D01*
X1605380Y654805D01*
X1607063Y652611D01*
X1609257Y650928D01*
X1611811Y649870D01*
X1614552Y649509D01*
X1617293Y649870D01*
X1619847Y650928D01*
X1622041Y652611D01*
X1623724Y654805D01*
X1624782Y657359D01*
X1625143Y660100D01*
X1624782Y662841D01*
X1623724Y665395D01*
X1622041Y667589D01*
X1619847Y669272D01*
X1617293Y670330D01*
X1614552Y670691D01*
D02*
G37*
G36*
X1353400Y667686D02*
X1350789Y667343D01*
X1348357Y666335D01*
X1346268Y664732D01*
X1344665Y662643D01*
X1343657Y660210D01*
X1343314Y657600D01*
X1343657Y654989D01*
X1344665Y652557D01*
X1346268Y650468D01*
X1348357Y648865D01*
X1350789Y647857D01*
X1353400Y647514D01*
X1356010Y647857D01*
X1358443Y648865D01*
X1360532Y650468D01*
X1362135Y652557D01*
X1363143Y654989D01*
X1363486Y657600D01*
X1363143Y660210D01*
X1362135Y662643D01*
X1360532Y664732D01*
X1358443Y666335D01*
X1356010Y667343D01*
X1353400Y667686D01*
D02*
G37*
G36*
X1201000D02*
X1198390Y667343D01*
X1195957Y666335D01*
X1193868Y664732D01*
X1192265Y662643D01*
X1191257Y660210D01*
X1190914Y657600D01*
X1191257Y654989D01*
X1192265Y652557D01*
X1193868Y650468D01*
X1195957Y648865D01*
X1198390Y647857D01*
X1201000Y647514D01*
X1203611Y647857D01*
X1206043Y648865D01*
X1208132Y650468D01*
X1209735Y652557D01*
X1210743Y654989D01*
X1211086Y657600D01*
X1210743Y660210D01*
X1209735Y662643D01*
X1208132Y664732D01*
X1206043Y666335D01*
X1203611Y667343D01*
X1201000Y667686D01*
D02*
G37*
G36*
X327700Y669299D02*
X324698Y668904D01*
X321900Y667745D01*
X319498Y665902D01*
X317655Y663500D01*
X316496Y660702D01*
X316101Y657700D01*
X316496Y654698D01*
X317655Y651900D01*
X319498Y649498D01*
X321900Y647655D01*
X324698Y646496D01*
X327700Y646101D01*
X330702Y646496D01*
X333500Y647655D01*
X335902Y649498D01*
X337745Y651900D01*
X338904Y654698D01*
X339299Y657700D01*
X338904Y660702D01*
X337745Y663500D01*
X335902Y665902D01*
X333500Y667745D01*
X330702Y668904D01*
X327700Y669299D01*
D02*
G37*
G36*
X303570Y654818D02*
Y645120D01*
X313268D01*
X313056Y646732D01*
X311943Y649417D01*
X310174Y651724D01*
X307868Y653493D01*
X305182Y654606D01*
X303570Y654818D01*
D02*
G37*
G36*
X301030D02*
X299418Y654606D01*
X296732Y653493D01*
X294426Y651724D01*
X292657Y649417D01*
X291544Y646732D01*
X291332Y645120D01*
X301030D01*
Y654818D01*
D02*
G37*
G36*
X420000Y660569D02*
X417912Y660294D01*
X415965Y659488D01*
X414294Y658206D01*
X413012Y656535D01*
X412206Y654588D01*
X411931Y652500D01*
X412206Y650412D01*
X413012Y648465D01*
X414294Y646794D01*
X415965Y645512D01*
X417912Y644706D01*
X420000Y644431D01*
X422088Y644706D01*
X424035Y645512D01*
X425706Y646794D01*
X426988Y648465D01*
X427794Y650412D01*
X428069Y652500D01*
X427794Y654588D01*
X426988Y656535D01*
X425706Y658206D01*
X424035Y659488D01*
X422088Y660294D01*
X420000Y660569D01*
D02*
G37*
G36*
X1643000Y656991D02*
X1640259Y656630D01*
X1637705Y655572D01*
X1635511Y653889D01*
X1633828Y651695D01*
X1632770Y649141D01*
X1632409Y646400D01*
X1632770Y643659D01*
X1633828Y641105D01*
X1635511Y638911D01*
X1637705Y637228D01*
X1640259Y636170D01*
X1643000Y635809D01*
X1645741Y636170D01*
X1648295Y637228D01*
X1650489Y638911D01*
X1652172Y641105D01*
X1653230Y643659D01*
X1653591Y646400D01*
X1653230Y649141D01*
X1652172Y651695D01*
X1650489Y653889D01*
X1648295Y655572D01*
X1645741Y656630D01*
X1643000Y656991D01*
D02*
G37*
G36*
X301030Y642580D02*
X291332D01*
X291544Y640968D01*
X292657Y638282D01*
X294426Y635976D01*
X296732Y634207D01*
X299418Y633094D01*
X301030Y632882D01*
Y642580D01*
D02*
G37*
G36*
X313268D02*
X303570D01*
Y632882D01*
X305182Y633094D01*
X307868Y634207D01*
X310174Y635976D01*
X311943Y638282D01*
X313056Y640968D01*
X313268Y642580D01*
D02*
G37*
G36*
X1500000Y664069D02*
X1497912Y663794D01*
X1495966Y662988D01*
X1494294Y661706D01*
X1493012Y660034D01*
X1492206Y658088D01*
X1491931Y656000D01*
X1492206Y653912D01*
X1493012Y651965D01*
X1494294Y650294D01*
X1495966Y649012D01*
X1497912Y648206D01*
X1500000Y647931D01*
X1500202Y645964D01*
X1498912Y645794D01*
X1496965Y644988D01*
X1495294Y643706D01*
X1494012Y642035D01*
X1493206Y640088D01*
X1492931Y638000D01*
X1493206Y635912D01*
X1494012Y633965D01*
X1495294Y632294D01*
X1496965Y631012D01*
X1498912Y630206D01*
X1501000Y629931D01*
X1503088Y630206D01*
X1505034Y631012D01*
X1506706Y632294D01*
X1507988Y633965D01*
X1508794Y635912D01*
X1509069Y638000D01*
X1508794Y640088D01*
X1507988Y642035D01*
X1506706Y643706D01*
X1505034Y644988D01*
X1503088Y645794D01*
X1501000Y646069D01*
X1500798Y648036D01*
X1502088Y648206D01*
X1504034Y649012D01*
X1505706Y650294D01*
X1506988Y651965D01*
X1507794Y653912D01*
X1508069Y656000D01*
X1507794Y658088D01*
X1506988Y660034D01*
X1505706Y661706D01*
X1504034Y662988D01*
X1502088Y663794D01*
X1500000Y664069D01*
D02*
G37*
G36*
X470000Y640569D02*
X467912Y640294D01*
X465965Y639488D01*
X464294Y638206D01*
X463012Y636535D01*
X462206Y634588D01*
X461931Y632500D01*
X462206Y630412D01*
X463012Y628465D01*
X464294Y626794D01*
X465965Y625512D01*
X467912Y624706D01*
X470000Y624431D01*
X472088Y624706D01*
X474035Y625512D01*
X475706Y626794D01*
X476988Y628465D01*
X477794Y630412D01*
X478069Y632500D01*
X477794Y634588D01*
X476988Y636535D01*
X475706Y638206D01*
X474035Y639488D01*
X472088Y640294D01*
X470000Y640569D01*
D02*
G37*
G36*
X1353400Y642286D02*
X1350789Y641943D01*
X1348357Y640935D01*
X1346268Y639332D01*
X1344665Y637243D01*
X1343657Y634810D01*
X1343314Y632200D01*
X1343657Y629590D01*
X1344665Y627157D01*
X1346268Y625068D01*
X1348357Y623465D01*
X1350789Y622457D01*
X1353400Y622114D01*
X1356010Y622457D01*
X1358443Y623465D01*
X1360532Y625068D01*
X1362135Y627157D01*
X1363143Y629590D01*
X1363486Y632200D01*
X1363143Y634810D01*
X1362135Y637243D01*
X1360532Y639332D01*
X1358443Y640935D01*
X1356010Y641943D01*
X1353400Y642286D01*
D02*
G37*
G36*
X1201000D02*
X1198390Y641943D01*
X1195957Y640935D01*
X1193868Y639332D01*
X1192265Y637243D01*
X1191257Y634810D01*
X1190914Y632200D01*
X1191257Y629590D01*
X1192265Y627157D01*
X1193868Y625068D01*
X1195957Y623465D01*
X1198390Y622457D01*
X1201000Y622114D01*
X1203611Y622457D01*
X1206043Y623465D01*
X1208132Y625068D01*
X1209735Y627157D01*
X1210743Y629590D01*
X1211086Y632200D01*
X1210743Y634810D01*
X1209735Y637243D01*
X1208132Y639332D01*
X1206043Y640935D01*
X1203611Y641943D01*
X1201000Y642286D01*
D02*
G37*
G36*
X1614552Y643291D02*
X1611811Y642930D01*
X1609257Y641872D01*
X1607063Y640189D01*
X1605380Y637995D01*
X1604322Y635441D01*
X1603961Y632700D01*
X1604322Y629959D01*
X1605380Y627405D01*
X1607063Y625211D01*
X1609257Y623528D01*
X1611811Y622470D01*
X1614552Y622109D01*
X1617293Y622470D01*
X1619847Y623528D01*
X1622041Y625211D01*
X1623724Y627405D01*
X1624782Y629959D01*
X1625143Y632700D01*
X1624782Y635441D01*
X1623724Y637995D01*
X1622041Y640189D01*
X1619847Y641872D01*
X1617293Y642930D01*
X1614552Y643291D01*
D02*
G37*
G36*
X327700Y641599D02*
X324698Y641204D01*
X321900Y640045D01*
X319498Y638202D01*
X317655Y635799D01*
X316496Y633002D01*
X316101Y630000D01*
X316496Y626998D01*
X317655Y624200D01*
X319498Y621798D01*
X321900Y619955D01*
X324698Y618796D01*
X327700Y618401D01*
X330702Y618796D01*
X333500Y619955D01*
X335902Y621798D01*
X337745Y624200D01*
X338904Y626998D01*
X339299Y630000D01*
X338904Y633002D01*
X337745Y635799D01*
X335902Y638202D01*
X333500Y640045D01*
X330702Y641204D01*
X327700Y641599D01*
D02*
G37*
G36*
X303570Y627118D02*
Y617420D01*
X313268D01*
X313056Y619032D01*
X311943Y621717D01*
X310174Y624024D01*
X307868Y625793D01*
X305182Y626906D01*
X303570Y627118D01*
D02*
G37*
G36*
X301030D02*
X299418Y626906D01*
X296732Y625793D01*
X294426Y624024D01*
X292657Y621717D01*
X291544Y619032D01*
X291332Y617420D01*
X301030D01*
Y627118D01*
D02*
G37*
G36*
X1643000Y629591D02*
X1640259Y629230D01*
X1637705Y628172D01*
X1635511Y626489D01*
X1633828Y624295D01*
X1632770Y621741D01*
X1632409Y619000D01*
X1632770Y616259D01*
X1633828Y613705D01*
X1635511Y611511D01*
X1637705Y609828D01*
X1640259Y608770D01*
X1643000Y608409D01*
X1645741Y608770D01*
X1648295Y609828D01*
X1650489Y611511D01*
X1652172Y613705D01*
X1653230Y616259D01*
X1653591Y619000D01*
X1653230Y621741D01*
X1652172Y624295D01*
X1650489Y626489D01*
X1648295Y628172D01*
X1645741Y629230D01*
X1643000Y629591D01*
D02*
G37*
G36*
X313268Y614880D02*
X303570D01*
Y605182D01*
X305182Y605394D01*
X307868Y606507D01*
X310174Y608276D01*
X311943Y610582D01*
X313056Y613268D01*
X313268Y614880D01*
D02*
G37*
G36*
X301030D02*
X291332D01*
X291544Y613268D01*
X292657Y610582D01*
X294426Y608276D01*
X296732Y606507D01*
X299418Y605394D01*
X301030Y605182D01*
Y614880D01*
D02*
G37*
G36*
X1548000Y633069D02*
X1545912Y632794D01*
X1543965Y631988D01*
X1542294Y630706D01*
X1541012Y629035D01*
X1540206Y627088D01*
X1539931Y625000D01*
X1540206Y622912D01*
X1541012Y620965D01*
X1542294Y619294D01*
Y618406D01*
X1541012Y616735D01*
X1540206Y614788D01*
X1539931Y612700D01*
X1540206Y610612D01*
X1541012Y608666D01*
X1542294Y606994D01*
X1543965Y605712D01*
X1545912Y604906D01*
X1548000Y604631D01*
X1550088Y604906D01*
X1552034Y605712D01*
X1553706Y606994D01*
X1554988Y608666D01*
X1555794Y610612D01*
X1556069Y612700D01*
X1555794Y614788D01*
X1554988Y616735D01*
X1553706Y618406D01*
Y619294D01*
X1554988Y620965D01*
X1555794Y622912D01*
X1556069Y625000D01*
X1555794Y627088D01*
X1554988Y629035D01*
X1553706Y630706D01*
X1552034Y631988D01*
X1550088Y632794D01*
X1548000Y633069D01*
D02*
G37*
G36*
X1353400Y616886D02*
X1350789Y616543D01*
X1348357Y615535D01*
X1346268Y613932D01*
X1344665Y611843D01*
X1343657Y609411D01*
X1343314Y606800D01*
X1343657Y604189D01*
X1344665Y601757D01*
X1346268Y599668D01*
X1348357Y598065D01*
X1350789Y597057D01*
X1353400Y596714D01*
X1356010Y597057D01*
X1358443Y598065D01*
X1360532Y599668D01*
X1362135Y601757D01*
X1363143Y604189D01*
X1363486Y606800D01*
X1363143Y609411D01*
X1362135Y611843D01*
X1360532Y613932D01*
X1358443Y615535D01*
X1356010Y616543D01*
X1353400Y616886D01*
D02*
G37*
G36*
X1201000D02*
X1198390Y616543D01*
X1195957Y615535D01*
X1193868Y613932D01*
X1192265Y611843D01*
X1191257Y609411D01*
X1190914Y606800D01*
X1191257Y604189D01*
X1192265Y601757D01*
X1193868Y599668D01*
X1195957Y598065D01*
X1198390Y597057D01*
X1201000Y596714D01*
X1203611Y597057D01*
X1206043Y598065D01*
X1208132Y599668D01*
X1209735Y601757D01*
X1210743Y604189D01*
X1211086Y606800D01*
X1210743Y609411D01*
X1209735Y611843D01*
X1208132Y613932D01*
X1206043Y615535D01*
X1203611Y616543D01*
X1201000Y616886D01*
D02*
G37*
G36*
X1614552Y615891D02*
X1611811Y615530D01*
X1609257Y614472D01*
X1607063Y612789D01*
X1605380Y610595D01*
X1604322Y608041D01*
X1603961Y605300D01*
X1604322Y602559D01*
X1605380Y600005D01*
X1607063Y597811D01*
X1609257Y596128D01*
X1611811Y595070D01*
X1614552Y594709D01*
X1617293Y595070D01*
X1619847Y596128D01*
X1622041Y597811D01*
X1623724Y600005D01*
X1624782Y602559D01*
X1625143Y605300D01*
X1624782Y608041D01*
X1623724Y610595D01*
X1622041Y612789D01*
X1619847Y614472D01*
X1617293Y615530D01*
X1614552Y615891D01*
D02*
G37*
G36*
X327700Y613899D02*
X324698Y613504D01*
X321900Y612345D01*
X319498Y610502D01*
X317655Y608100D01*
X316496Y605302D01*
X316101Y602300D01*
X316496Y599298D01*
X317655Y596500D01*
X319498Y594098D01*
X321900Y592255D01*
X324698Y591096D01*
X327700Y590701D01*
X330702Y591096D01*
X333500Y592255D01*
X335902Y594098D01*
X337745Y596500D01*
X338904Y599298D01*
X339299Y602300D01*
X338904Y605302D01*
X337745Y608100D01*
X335902Y610502D01*
X333500Y612345D01*
X330702Y613504D01*
X327700Y613899D01*
D02*
G37*
G36*
X303570Y599418D02*
Y589720D01*
X313268D01*
X313056Y591332D01*
X311943Y594017D01*
X310174Y596324D01*
X307868Y598093D01*
X305182Y599206D01*
X303570Y599418D01*
D02*
G37*
G36*
X301030D02*
X299418Y599206D01*
X296732Y598093D01*
X294426Y596324D01*
X292657Y594017D01*
X291544Y591332D01*
X291332Y589720D01*
X301030D01*
Y599418D01*
D02*
G37*
G36*
X1477000Y602069D02*
X1474912Y601794D01*
X1472966Y600988D01*
X1471294Y599706D01*
X1470012Y598035D01*
X1469206Y596088D01*
X1468931Y594000D01*
X1469206Y591912D01*
X1470012Y589966D01*
X1471294Y588294D01*
X1472966Y587012D01*
X1474912Y586206D01*
X1477000Y585931D01*
X1479088Y586206D01*
X1481035Y587012D01*
X1482706Y588294D01*
X1483988Y589966D01*
X1484794Y591912D01*
X1485069Y594000D01*
X1484794Y596088D01*
X1483988Y598035D01*
X1482706Y599706D01*
X1481035Y600988D01*
X1479088Y601794D01*
X1477000Y602069D01*
D02*
G37*
G36*
X832500Y600569D02*
X830412Y600294D01*
X828465Y599488D01*
X826794Y598206D01*
X825512Y596535D01*
X824706Y594588D01*
X824431Y592500D01*
X824706Y590412D01*
X825512Y588465D01*
X826794Y586794D01*
X828465Y585512D01*
X830412Y584706D01*
X832500Y584431D01*
X834588Y584706D01*
X836535Y585512D01*
X838206Y586794D01*
X839488Y588465D01*
X840294Y590412D01*
X840569Y592500D01*
X840294Y594588D01*
X839488Y596535D01*
X838206Y598206D01*
X836535Y599488D01*
X834588Y600294D01*
X832500Y600569D01*
D02*
G37*
G36*
X313268Y587180D02*
X303570D01*
Y577482D01*
X305182Y577694D01*
X307868Y578806D01*
X310174Y580576D01*
X311943Y582882D01*
X313056Y585568D01*
X313268Y587180D01*
D02*
G37*
G36*
X301030D02*
X291332D01*
X291544Y585568D01*
X292657Y582882D01*
X294426Y580576D01*
X296732Y578806D01*
X299418Y577694D01*
X301030Y577482D01*
Y587180D01*
D02*
G37*
G36*
X1353400Y591486D02*
X1350789Y591143D01*
X1348357Y590135D01*
X1346268Y588532D01*
X1344665Y586443D01*
X1343657Y584011D01*
X1343314Y581400D01*
X1343657Y578789D01*
X1344665Y576357D01*
X1346268Y574268D01*
X1348357Y572665D01*
X1350789Y571657D01*
X1353400Y571314D01*
X1356010Y571657D01*
X1358443Y572665D01*
X1360532Y574268D01*
X1362135Y576357D01*
X1363143Y578789D01*
X1363486Y581400D01*
X1363143Y584011D01*
X1362135Y586443D01*
X1360532Y588532D01*
X1358443Y590135D01*
X1356010Y591143D01*
X1353400Y591486D01*
D02*
G37*
G36*
X1201000D02*
X1198390Y591143D01*
X1195957Y590135D01*
X1193868Y588532D01*
X1192265Y586443D01*
X1191257Y584011D01*
X1190914Y581400D01*
X1191257Y578789D01*
X1192265Y576357D01*
X1193868Y574268D01*
X1195957Y572665D01*
X1198390Y571657D01*
X1201000Y571314D01*
X1203611Y571657D01*
X1206043Y572665D01*
X1208132Y574268D01*
X1209735Y576357D01*
X1210743Y578789D01*
X1211086Y581400D01*
X1210743Y584011D01*
X1209735Y586443D01*
X1208132Y588532D01*
X1206043Y590135D01*
X1203611Y591143D01*
X1201000Y591486D01*
D02*
G37*
G36*
X500000Y589431D02*
X497559Y589109D01*
X495285Y588167D01*
X493331Y586669D01*
X491833Y584715D01*
X490891Y582441D01*
X490569Y580000D01*
X490891Y577559D01*
X491833Y575285D01*
X493331Y573331D01*
X495285Y571833D01*
X497559Y570891D01*
X500000Y570569D01*
X502441Y570891D01*
X504715Y571833D01*
X506669Y573331D01*
X508167Y575285D01*
X509109Y577559D01*
X509431Y580000D01*
X509109Y582441D01*
X508167Y584715D01*
X506669Y586669D01*
X504715Y588167D01*
X502441Y589109D01*
X500000Y589431D01*
D02*
G37*
G36*
X327700Y586199D02*
X324698Y585804D01*
X321900Y584645D01*
X319498Y582802D01*
X317655Y580400D01*
X316496Y577602D01*
X316101Y574600D01*
X316496Y571598D01*
X317655Y568800D01*
X319498Y566398D01*
X321900Y564555D01*
X324698Y563396D01*
X327700Y563001D01*
X330702Y563396D01*
X333500Y564555D01*
X335902Y566398D01*
X337745Y568800D01*
X338904Y571598D01*
X339299Y574600D01*
X338904Y577602D01*
X337745Y580400D01*
X335902Y582802D01*
X333500Y584645D01*
X330702Y585804D01*
X327700Y586199D01*
D02*
G37*
G36*
X469000Y573069D02*
X466912Y572794D01*
X464966Y571988D01*
X463294Y570706D01*
X462012Y569035D01*
X461206Y567088D01*
X460931Y565000D01*
X461206Y562912D01*
X462012Y560965D01*
X463294Y559294D01*
X464966Y558012D01*
X466912Y557206D01*
X469000Y556931D01*
X471088Y557206D01*
X473035Y558012D01*
X474706Y559294D01*
X475988Y560965D01*
X476794Y562912D01*
X477069Y565000D01*
X476794Y567088D01*
X475988Y569035D01*
X474706Y570706D01*
X473035Y571988D01*
X471088Y572794D01*
X469000Y573069D01*
D02*
G37*
G36*
X886000Y566069D02*
X883912Y565794D01*
X881965Y564988D01*
X880294Y563706D01*
X879012Y562034D01*
X878206Y560088D01*
X877931Y558000D01*
X878206Y555912D01*
X879012Y553965D01*
X880294Y552294D01*
X880657Y552016D01*
X879648Y550269D01*
X879588Y550294D01*
X877500Y550569D01*
X875412Y550294D01*
X873465Y549488D01*
X871794Y548206D01*
X870512Y546535D01*
X869706Y544588D01*
X869431Y542500D01*
X869706Y540412D01*
X870512Y538465D01*
X871794Y536794D01*
X873465Y535512D01*
X874713Y534995D01*
X875065Y534293D01*
X875304Y533215D01*
X875268Y532708D01*
X873923Y530956D01*
X872853Y528372D01*
X872488Y525600D01*
X872853Y522828D01*
X873923Y520244D01*
X875626Y518026D01*
X877844Y516323D01*
X880428Y515253D01*
X883200Y514888D01*
X885972Y515253D01*
X888556Y516323D01*
X890774Y518026D01*
X892477Y520244D01*
X893547Y522828D01*
X893912Y525600D01*
X893547Y528372D01*
X892477Y530956D01*
X890774Y533174D01*
X888556Y534877D01*
X885972Y535947D01*
X885158Y536054D01*
X884275Y538187D01*
X884488Y538465D01*
X885294Y540412D01*
X885569Y542500D01*
X885294Y544588D01*
X884488Y546535D01*
X883206Y548206D01*
X882843Y548484D01*
X883852Y550231D01*
X883912Y550206D01*
X886000Y549931D01*
X888088Y550206D01*
X890034Y551012D01*
X891706Y552294D01*
X892988Y553965D01*
X893794Y555912D01*
X894069Y558000D01*
X893794Y560088D01*
X892988Y562034D01*
X891706Y563706D01*
X890034Y564988D01*
X888088Y565794D01*
X886000Y566069D01*
D02*
G37*
G36*
X302300Y572349D02*
X299298Y571954D01*
X296500Y570795D01*
X294098Y568952D01*
X292255Y566549D01*
X291096Y563752D01*
X290701Y560750D01*
X291096Y557748D01*
X292255Y554950D01*
X294098Y552548D01*
X296500Y550705D01*
X299298Y549546D01*
X302300Y549151D01*
X305302Y549546D01*
X308100Y550705D01*
X310502Y552548D01*
X312345Y554950D01*
X313504Y557748D01*
X313899Y560750D01*
X313504Y563752D01*
X312345Y566549D01*
X310502Y568952D01*
X308100Y570795D01*
X305302Y571954D01*
X302300Y572349D01*
D02*
G37*
G36*
X328970Y557868D02*
Y548170D01*
X338668D01*
X338456Y549782D01*
X337343Y552467D01*
X335574Y554774D01*
X333268Y556543D01*
X330582Y557656D01*
X328970Y557868D01*
D02*
G37*
G36*
X326430D02*
X324818Y557656D01*
X322132Y556543D01*
X319826Y554774D01*
X318057Y552467D01*
X316944Y549782D01*
X316732Y548170D01*
X326430D01*
Y557868D01*
D02*
G37*
G36*
X1353400Y566086D02*
X1350789Y565743D01*
X1348357Y564735D01*
X1346268Y563132D01*
X1344665Y561043D01*
X1343657Y558610D01*
X1343314Y556000D01*
X1343657Y553390D01*
X1344665Y550957D01*
X1346268Y548868D01*
X1348357Y547265D01*
X1350789Y546257D01*
X1353400Y545914D01*
X1356010Y546257D01*
X1358443Y547265D01*
X1360532Y548868D01*
X1362135Y550957D01*
X1363143Y553390D01*
X1363486Y556000D01*
X1363143Y558610D01*
X1362135Y561043D01*
X1360532Y563132D01*
X1358443Y564735D01*
X1356010Y565743D01*
X1353400Y566086D01*
D02*
G37*
G36*
X1201000D02*
X1198390Y565743D01*
X1195957Y564735D01*
X1193868Y563132D01*
X1192265Y561043D01*
X1191257Y558610D01*
X1190914Y556000D01*
X1191257Y553390D01*
X1192265Y550957D01*
X1193868Y548868D01*
X1195957Y547265D01*
X1198390Y546257D01*
X1201000Y545914D01*
X1203611Y546257D01*
X1206043Y547265D01*
X1208132Y548868D01*
X1209735Y550957D01*
X1210743Y553390D01*
X1211086Y556000D01*
X1210743Y558610D01*
X1209735Y561043D01*
X1208132Y563132D01*
X1206043Y564735D01*
X1203611Y565743D01*
X1201000Y566086D01*
D02*
G37*
G36*
X1379000Y556069D02*
X1376912Y555794D01*
X1374966Y554988D01*
X1373294Y553706D01*
X1372012Y552034D01*
X1371206Y550088D01*
X1370931Y548000D01*
X1371206Y545912D01*
X1372012Y543965D01*
X1373294Y542294D01*
X1374966Y541012D01*
X1376912Y540206D01*
X1379000Y539931D01*
X1381088Y540206D01*
X1383035Y541012D01*
X1384706Y542294D01*
X1385988Y543965D01*
X1386794Y545912D01*
X1387069Y548000D01*
X1386794Y550088D01*
X1385988Y552034D01*
X1384706Y553706D01*
X1383035Y554988D01*
X1381088Y555794D01*
X1379000Y556069D01*
D02*
G37*
G36*
X1536000Y555069D02*
X1533912Y554794D01*
X1531965Y553988D01*
X1530294Y552706D01*
X1529012Y551035D01*
X1528206Y549088D01*
X1527931Y547000D01*
X1528206Y544912D01*
X1529012Y542966D01*
X1530294Y541294D01*
X1531965Y540012D01*
X1533912Y539206D01*
X1536000Y538931D01*
X1538088Y539206D01*
X1540034Y540012D01*
X1541706Y541294D01*
X1542988Y542966D01*
X1543794Y544912D01*
X1544069Y547000D01*
X1543794Y549088D01*
X1542988Y551035D01*
X1541706Y552706D01*
X1540034Y553988D01*
X1538088Y554794D01*
X1536000Y555069D01*
D02*
G37*
G36*
X338668Y545630D02*
X328970D01*
Y535932D01*
X330582Y536144D01*
X333268Y537257D01*
X335574Y539026D01*
X337343Y541332D01*
X338456Y544018D01*
X338668Y545630D01*
D02*
G37*
G36*
X326430D02*
X316732D01*
X316944Y544018D01*
X318057Y541332D01*
X319826Y539026D01*
X322132Y537257D01*
X324818Y536144D01*
X326430Y535932D01*
Y545630D01*
D02*
G37*
G36*
X1452540Y543540D02*
X1443270D01*
Y534270D01*
X1452540D01*
Y543540D01*
D02*
G37*
G36*
X1440730D02*
X1431460D01*
Y534270D01*
X1440730D01*
Y543540D01*
D02*
G37*
G36*
X1452540Y531730D02*
X1443270D01*
Y522460D01*
X1452540D01*
Y531730D01*
D02*
G37*
G36*
X1440730D02*
X1431460D01*
Y522460D01*
X1440730D01*
Y531730D01*
D02*
G37*
G36*
X302300Y544649D02*
X299298Y544254D01*
X296500Y543095D01*
X294098Y541252D01*
X292255Y538849D01*
X291096Y536052D01*
X290701Y533050D01*
X291096Y530048D01*
X292255Y527250D01*
X294098Y524848D01*
X296500Y523005D01*
X299298Y521846D01*
X302300Y521451D01*
X305302Y521846D01*
X308100Y523005D01*
X310502Y524848D01*
X312345Y527250D01*
X313504Y530048D01*
X313899Y533050D01*
X313504Y536052D01*
X312345Y538849D01*
X310502Y541252D01*
X308100Y543095D01*
X305302Y544254D01*
X302300Y544649D01*
D02*
G37*
G36*
X1353400Y540686D02*
X1350789Y540343D01*
X1348357Y539335D01*
X1346268Y537732D01*
X1344665Y535643D01*
X1343657Y533210D01*
X1343314Y530600D01*
X1343657Y527990D01*
X1344665Y525557D01*
X1346268Y523468D01*
X1348357Y521865D01*
X1350789Y520857D01*
X1353400Y520514D01*
X1356010Y520857D01*
X1358443Y521865D01*
X1360532Y523468D01*
X1362135Y525557D01*
X1363143Y527990D01*
X1363486Y530600D01*
X1363143Y533210D01*
X1362135Y535643D01*
X1360532Y537732D01*
X1358443Y539335D01*
X1356010Y540343D01*
X1353400Y540686D01*
D02*
G37*
G36*
X1201000D02*
X1198390Y540343D01*
X1195957Y539335D01*
X1193868Y537732D01*
X1192265Y535643D01*
X1191257Y533210D01*
X1190914Y530600D01*
X1191257Y527990D01*
X1192265Y525557D01*
X1193868Y523468D01*
X1195957Y521865D01*
X1198390Y520857D01*
X1201000Y520514D01*
X1203611Y520857D01*
X1206043Y521865D01*
X1208132Y523468D01*
X1209735Y525557D01*
X1210743Y527990D01*
X1211086Y530600D01*
X1210743Y533210D01*
X1209735Y535643D01*
X1208132Y537732D01*
X1206043Y539335D01*
X1203611Y540343D01*
X1201000Y540686D01*
D02*
G37*
G36*
X328970Y530168D02*
Y520470D01*
X338668D01*
X338456Y522082D01*
X337343Y524767D01*
X335574Y527074D01*
X333268Y528843D01*
X330582Y529956D01*
X328970Y530168D01*
D02*
G37*
G36*
X326430D02*
X324818Y529956D01*
X322132Y528843D01*
X319826Y527074D01*
X318057Y524767D01*
X316944Y522082D01*
X316732Y520470D01*
X326430D01*
Y530168D01*
D02*
G37*
G36*
X817620Y536220D02*
X796380D01*
Y514980D01*
X817620D01*
Y536220D01*
D02*
G37*
G36*
X1097540Y519540D02*
X1088270D01*
Y510270D01*
X1097540D01*
Y519540D01*
D02*
G37*
G36*
X1085730D02*
X1076460D01*
Y510270D01*
X1085730D01*
Y519540D01*
D02*
G37*
G36*
X921270Y517964D02*
Y508770D01*
X930464D01*
X930269Y510252D01*
X929207Y512816D01*
X927517Y515017D01*
X925315Y516707D01*
X922751Y517769D01*
X921270Y517964D01*
D02*
G37*
G36*
X918730Y517964D02*
X917249Y517769D01*
X914685Y516707D01*
X912483Y515017D01*
X910793Y512816D01*
X909731Y510252D01*
X909536Y508770D01*
X918730D01*
Y517964D01*
D02*
G37*
G36*
X338668Y517930D02*
X328970D01*
Y508232D01*
X330582Y508444D01*
X333268Y509557D01*
X335574Y511326D01*
X337343Y513632D01*
X338456Y516318D01*
X338668Y517930D01*
D02*
G37*
G36*
X326430D02*
X316732D01*
X316944Y516318D01*
X318057Y513632D01*
X319826Y511326D01*
X322132Y509557D01*
X324818Y508444D01*
X326430Y508232D01*
Y517930D01*
D02*
G37*
G36*
X602540Y515540D02*
X593270D01*
Y506270D01*
X602540D01*
Y515540D01*
D02*
G37*
G36*
X590730D02*
X581460D01*
Y506270D01*
X590730D01*
Y515540D01*
D02*
G37*
G36*
X1628776Y565744D02*
X1623990Y565368D01*
X1619322Y564247D01*
X1614886Y562410D01*
X1610793Y559901D01*
X1607143Y556783D01*
X1604025Y553133D01*
X1601516Y549039D01*
X1599679Y544604D01*
X1598558Y539936D01*
X1598182Y535150D01*
X1598558Y530364D01*
X1599679Y525696D01*
X1601516Y521260D01*
X1604025Y517167D01*
X1607143Y513517D01*
X1610793Y510399D01*
X1614886Y507890D01*
X1619322Y506053D01*
X1623990Y504932D01*
X1628776Y504556D01*
X1633562Y504932D01*
X1638230Y506053D01*
X1642666Y507890D01*
X1646759Y510399D01*
X1650409Y513517D01*
X1653527Y517167D01*
X1656036Y521260D01*
X1657873Y525696D01*
X1658994Y530364D01*
X1659370Y535150D01*
X1658994Y539936D01*
X1657873Y544604D01*
X1656036Y549039D01*
X1653527Y553133D01*
X1650409Y556783D01*
X1646759Y559901D01*
X1642666Y562410D01*
X1638230Y564247D01*
X1633562Y565368D01*
X1628776Y565744D01*
D02*
G37*
G36*
X617500Y520569D02*
X615412Y520294D01*
X613465Y519488D01*
X611794Y518206D01*
X610512Y516535D01*
X609706Y514588D01*
X609431Y512500D01*
X609706Y510412D01*
X610512Y508465D01*
X611794Y506794D01*
X613465Y505512D01*
X615412Y504706D01*
X617500Y504431D01*
X619588Y504706D01*
X621535Y505512D01*
X623206Y506794D01*
X624488Y508465D01*
X625294Y510412D01*
X625569Y512500D01*
X625294Y514588D01*
X624488Y516535D01*
X623206Y518206D01*
X621535Y519488D01*
X619588Y520294D01*
X617500Y520569D01*
D02*
G37*
G36*
X808270Y510280D02*
Y501470D01*
X817081D01*
X816898Y502852D01*
X815875Y505324D01*
X814246Y507446D01*
X812124Y509075D01*
X809652Y510098D01*
X808270Y510280D01*
D02*
G37*
G36*
X805730D02*
X804348Y510098D01*
X801876Y509075D01*
X799754Y507446D01*
X798125Y505324D01*
X797102Y502852D01*
X796919Y501470D01*
X805730D01*
Y510280D01*
D02*
G37*
G36*
X702000Y523000D02*
X680000D01*
Y501000D01*
X702000D01*
Y523000D01*
D02*
G37*
G36*
X1097540Y507730D02*
X1088270D01*
Y498460D01*
X1097540D01*
Y507730D01*
D02*
G37*
G36*
X1085730D02*
X1076460D01*
Y498460D01*
X1085730D01*
Y507730D01*
D02*
G37*
G36*
X930464Y506230D02*
X921270D01*
Y497036D01*
X922751Y497231D01*
X925315Y498293D01*
X927517Y499983D01*
X929207Y502184D01*
X930269Y504748D01*
X930464Y506230D01*
D02*
G37*
G36*
X918730D02*
X909536D01*
X909731Y504748D01*
X910793Y502184D01*
X912483Y499983D01*
X914685Y498293D01*
X917249Y497231D01*
X918730Y497036D01*
Y506230D01*
D02*
G37*
G36*
X1584540Y505540D02*
X1575270D01*
Y496270D01*
X1584540D01*
Y505540D01*
D02*
G37*
G36*
X1572730D02*
X1563460D01*
Y496270D01*
X1572730D01*
Y505540D01*
D02*
G37*
G36*
X1353400Y515286D02*
X1350789Y514943D01*
X1348357Y513935D01*
X1346268Y512332D01*
X1344665Y510243D01*
X1343657Y507811D01*
X1343314Y505200D01*
X1343657Y502589D01*
X1344665Y500157D01*
X1346268Y498068D01*
X1348357Y496465D01*
X1350789Y495457D01*
X1353400Y495114D01*
X1356010Y495457D01*
X1358443Y496465D01*
X1360532Y498068D01*
X1362135Y500157D01*
X1363143Y502589D01*
X1363486Y505200D01*
X1363143Y507811D01*
X1362135Y510243D01*
X1360532Y512332D01*
X1358443Y513935D01*
X1356010Y514943D01*
X1353400Y515286D01*
D02*
G37*
G36*
X1201000D02*
X1198390Y514943D01*
X1195957Y513935D01*
X1193868Y512332D01*
X1192265Y510243D01*
X1191257Y507811D01*
X1190914Y505200D01*
X1191257Y502589D01*
X1192265Y500157D01*
X1193868Y498068D01*
X1195957Y496465D01*
X1198390Y495457D01*
X1201000Y495114D01*
X1203611Y495457D01*
X1206043Y496465D01*
X1208132Y498068D01*
X1209735Y500157D01*
X1210743Y502589D01*
X1211086Y505200D01*
X1210743Y507811D01*
X1209735Y510243D01*
X1208132Y512332D01*
X1206043Y513935D01*
X1203611Y514943D01*
X1201000Y515286D01*
D02*
G37*
G36*
X602540Y503730D02*
X593270D01*
Y494460D01*
X602540D01*
Y503730D01*
D02*
G37*
G36*
X590730D02*
X581460D01*
Y494460D01*
X590730D01*
Y503730D01*
D02*
G37*
G36*
X302300Y516949D02*
X299298Y516554D01*
X296500Y515395D01*
X294098Y513552D01*
X292255Y511149D01*
X291096Y508352D01*
X290701Y505350D01*
X291096Y502348D01*
X292255Y499550D01*
X294098Y497148D01*
X296500Y495305D01*
X299298Y494146D01*
X302300Y493751D01*
X305302Y494146D01*
X308100Y495305D01*
X310502Y497148D01*
X312345Y499550D01*
X313504Y502348D01*
X313899Y505350D01*
X313504Y508352D01*
X312345Y511149D01*
X310502Y513552D01*
X308100Y515395D01*
X305302Y516554D01*
X302300Y516949D01*
D02*
G37*
G36*
X328970Y502468D02*
Y492770D01*
X338668D01*
X338456Y494382D01*
X337343Y497067D01*
X335574Y499374D01*
X333268Y501143D01*
X330582Y502256D01*
X328970Y502468D01*
D02*
G37*
G36*
X326430D02*
X324818Y502256D01*
X322132Y501143D01*
X319826Y499374D01*
X318057Y497067D01*
X316944Y494382D01*
X316732Y492770D01*
X326430D01*
Y502468D01*
D02*
G37*
G36*
X817081Y498930D02*
X808270D01*
Y490120D01*
X809652Y490302D01*
X812124Y491325D01*
X814246Y492954D01*
X815875Y495076D01*
X816898Y497548D01*
X817081Y498930D01*
D02*
G37*
G36*
X805730D02*
X796919D01*
X797102Y497548D01*
X798125Y495076D01*
X799754Y492954D01*
X801876Y491325D01*
X804348Y490302D01*
X805730Y490120D01*
Y498930D01*
D02*
G37*
G36*
X1584540Y493730D02*
X1575270D01*
Y484460D01*
X1584540D01*
Y493730D01*
D02*
G37*
G36*
X1572730D02*
X1563460D01*
Y484460D01*
X1572730D01*
Y493730D01*
D02*
G37*
G36*
X326430Y490230D02*
X316732D01*
X316944Y488618D01*
X318057Y485932D01*
X319826Y483626D01*
X322132Y481856D01*
X324818Y480744D01*
X326430Y480532D01*
Y490230D01*
D02*
G37*
G36*
X338668D02*
X328970D01*
Y480532D01*
X330582Y480744D01*
X333268Y481856D01*
X335574Y483626D01*
X337343Y485932D01*
X338456Y488618D01*
X338668Y490230D01*
D02*
G37*
G36*
X616270Y485464D02*
Y476270D01*
X625464D01*
X625269Y477752D01*
X624207Y480316D01*
X622517Y482517D01*
X620315Y484207D01*
X617752Y485269D01*
X616270Y485464D01*
D02*
G37*
G36*
X613730D02*
X612248Y485269D01*
X609684Y484207D01*
X607483Y482517D01*
X605793Y480316D01*
X604731Y477752D01*
X604536Y476270D01*
X613730D01*
Y485464D01*
D02*
G37*
G36*
X1254000Y490069D02*
X1251912Y489794D01*
X1249966Y488988D01*
X1248294Y487706D01*
X1247012Y486035D01*
X1246206Y484088D01*
X1245931Y482000D01*
X1246206Y479912D01*
X1247012Y477966D01*
X1248294Y476294D01*
X1249966Y475012D01*
X1251912Y474206D01*
X1254000Y473931D01*
X1256088Y474206D01*
X1258035Y475012D01*
X1259706Y476294D01*
X1260988Y477966D01*
X1261794Y479912D01*
X1262069Y482000D01*
X1261794Y484088D01*
X1260988Y486035D01*
X1259706Y487706D01*
X1258035Y488988D01*
X1256088Y489794D01*
X1254000Y490069D01*
D02*
G37*
G36*
X1353400Y489886D02*
X1350789Y489543D01*
X1348357Y488535D01*
X1346268Y486932D01*
X1344665Y484843D01*
X1343657Y482411D01*
X1343314Y479800D01*
X1343657Y477189D01*
X1344665Y474757D01*
X1346268Y472668D01*
X1348357Y471065D01*
X1350789Y470057D01*
X1353400Y469714D01*
X1356010Y470057D01*
X1358443Y471065D01*
X1360532Y472668D01*
X1362135Y474757D01*
X1363143Y477189D01*
X1363486Y479800D01*
X1363143Y482411D01*
X1362135Y484843D01*
X1360532Y486932D01*
X1358443Y488535D01*
X1356010Y489543D01*
X1353400Y489886D01*
D02*
G37*
G36*
X1201000D02*
X1198390Y489543D01*
X1195957Y488535D01*
X1193868Y486932D01*
X1192265Y484843D01*
X1191257Y482411D01*
X1190914Y479800D01*
X1191257Y477189D01*
X1192265Y474757D01*
X1193868Y472668D01*
X1195957Y471065D01*
X1198390Y470057D01*
X1201000Y469714D01*
X1203611Y470057D01*
X1206043Y471065D01*
X1208132Y472668D01*
X1209735Y474757D01*
X1210743Y477189D01*
X1211086Y479800D01*
X1210743Y482411D01*
X1209735Y484843D01*
X1208132Y486932D01*
X1206043Y488535D01*
X1203611Y489543D01*
X1201000Y489886D01*
D02*
G37*
G36*
X302300Y489249D02*
X299298Y488854D01*
X296500Y487695D01*
X294098Y485852D01*
X292255Y483450D01*
X291096Y480652D01*
X290701Y477650D01*
X291096Y474648D01*
X292255Y471850D01*
X294098Y469448D01*
X296500Y467605D01*
X299298Y466446D01*
X302300Y466051D01*
X305302Y466446D01*
X308100Y467605D01*
X310502Y469448D01*
X312345Y471850D01*
X313504Y474648D01*
X313899Y477650D01*
X313504Y480652D01*
X312345Y483450D01*
X310502Y485852D01*
X308100Y487695D01*
X305302Y488854D01*
X302300Y489249D01*
D02*
G37*
G36*
X986000Y482069D02*
X983912Y481794D01*
X981965Y480988D01*
X980294Y479706D01*
X979012Y478035D01*
X978206Y476088D01*
X977931Y474000D01*
X978206Y471912D01*
X979012Y469966D01*
X980294Y468294D01*
X981965Y467012D01*
X983912Y466206D01*
X986000Y465931D01*
X988088Y466206D01*
X990034Y467012D01*
X991706Y468294D01*
X992988Y469966D01*
X993794Y471912D01*
X994069Y474000D01*
X993794Y476088D01*
X992988Y478035D01*
X991706Y479706D01*
X990034Y480988D01*
X988088Y481794D01*
X986000Y482069D01*
D02*
G37*
G36*
X1580270Y474464D02*
Y465270D01*
X1589464D01*
X1589269Y466752D01*
X1588207Y469315D01*
X1586517Y471517D01*
X1584315Y473207D01*
X1581752Y474269D01*
X1580270Y474464D01*
D02*
G37*
G36*
X1577730Y474464D02*
X1576248Y474269D01*
X1573685Y473207D01*
X1571483Y471517D01*
X1569793Y469315D01*
X1568731Y466752D01*
X1568536Y465270D01*
X1577730D01*
Y474464D01*
D02*
G37*
G36*
X625464Y473730D02*
X616270D01*
Y464536D01*
X617752Y464731D01*
X620315Y465793D01*
X622517Y467483D01*
X624207Y469685D01*
X625269Y472248D01*
X625464Y473730D01*
D02*
G37*
G36*
X613730D02*
X604536D01*
X604731Y472248D01*
X605793Y469685D01*
X607483Y467483D01*
X609684Y465793D01*
X612248Y464731D01*
X613730Y464536D01*
Y473730D01*
D02*
G37*
G36*
X947500Y481931D02*
X945059Y481609D01*
X942785Y480667D01*
X940832Y479169D01*
X939333Y477215D01*
X938391Y474941D01*
X938069Y472500D01*
X938391Y470059D01*
X939333Y467785D01*
X940832Y465831D01*
X942785Y464333D01*
X945059Y463391D01*
X947500Y463069D01*
X949941Y463391D01*
X952215Y464333D01*
X954168Y465831D01*
X955667Y467785D01*
X956609Y470059D01*
X956931Y472500D01*
X956609Y474941D01*
X955667Y477215D01*
X954168Y479169D01*
X952215Y480667D01*
X949941Y481609D01*
X947500Y481931D01*
D02*
G37*
G36*
X647500Y478069D02*
X645412Y477794D01*
X643465Y476988D01*
X641794Y475706D01*
X640512Y474035D01*
X639706Y472088D01*
X639431Y470000D01*
X639706Y467912D01*
X640512Y465965D01*
X641794Y464294D01*
X643465Y463012D01*
X645412Y462206D01*
X647500Y461931D01*
X649588Y462206D01*
X651535Y463012D01*
X653206Y464294D01*
X654488Y465965D01*
X655294Y467912D01*
X655569Y470000D01*
X655294Y472088D01*
X654488Y474035D01*
X653206Y475706D01*
X651535Y476988D01*
X649588Y477794D01*
X647500Y478069D01*
D02*
G37*
G36*
X492500Y474431D02*
X490059Y474109D01*
X487785Y473167D01*
X485831Y471669D01*
X484333Y469715D01*
X483391Y467441D01*
X483069Y465000D01*
X483391Y462559D01*
X484333Y460285D01*
X485831Y458331D01*
X487785Y456833D01*
X490059Y455891D01*
X492500Y455569D01*
X494941Y455891D01*
X497215Y456833D01*
X499169Y458331D01*
X500667Y460285D01*
X501609Y462559D01*
X501931Y465000D01*
X501609Y467441D01*
X500667Y469715D01*
X499169Y471669D01*
X497215Y473167D01*
X494941Y474109D01*
X492500Y474431D01*
D02*
G37*
G36*
X1577730Y462730D02*
X1568536D01*
X1568731Y461249D01*
X1569793Y458685D01*
X1571483Y456483D01*
X1573685Y454793D01*
X1576248Y453731D01*
X1577730Y453536D01*
Y462730D01*
D02*
G37*
G36*
X1589464D02*
X1580270D01*
Y453536D01*
X1581752Y453731D01*
X1584315Y454793D01*
X1586517Y456483D01*
X1588207Y458685D01*
X1589269Y461249D01*
X1589464Y462730D01*
D02*
G37*
G36*
X1690000Y475000D02*
X1668000D01*
Y453000D01*
X1690000D01*
Y475000D01*
D02*
G37*
G36*
X327700Y475399D02*
X324698Y475004D01*
X321900Y473845D01*
X319498Y472002D01*
X317655Y469599D01*
X316496Y466802D01*
X316101Y463800D01*
X316496Y460798D01*
X317655Y458000D01*
X319498Y455598D01*
X321900Y453755D01*
X324698Y452596D01*
X327700Y452201D01*
X330702Y452596D01*
X333500Y453755D01*
X335902Y455598D01*
X337745Y458000D01*
X338904Y460798D01*
X339299Y463800D01*
X338904Y466802D01*
X337745Y469599D01*
X335902Y472002D01*
X333500Y473845D01*
X330702Y475004D01*
X327700Y475399D01*
D02*
G37*
G36*
X1353400Y464486D02*
X1350789Y464143D01*
X1348357Y463135D01*
X1346268Y461532D01*
X1344665Y459443D01*
X1343657Y457010D01*
X1343314Y454400D01*
X1343657Y451790D01*
X1344665Y449357D01*
X1346268Y447268D01*
X1348357Y445665D01*
X1350789Y444657D01*
X1353400Y444314D01*
X1356010Y444657D01*
X1358443Y445665D01*
X1360532Y447268D01*
X1362135Y449357D01*
X1363143Y451790D01*
X1363486Y454400D01*
X1363143Y457010D01*
X1362135Y459443D01*
X1360532Y461532D01*
X1358443Y463135D01*
X1356010Y464143D01*
X1353400Y464486D01*
D02*
G37*
G36*
X1201000D02*
X1198390Y464143D01*
X1195957Y463135D01*
X1193868Y461532D01*
X1192265Y459443D01*
X1191257Y457010D01*
X1190914Y454400D01*
X1191257Y451790D01*
X1192265Y449357D01*
X1193868Y447268D01*
X1195957Y445665D01*
X1198390Y444657D01*
X1201000Y444314D01*
X1203611Y444657D01*
X1206043Y445665D01*
X1208132Y447268D01*
X1209735Y449357D01*
X1210743Y451790D01*
X1211086Y454400D01*
X1210743Y457010D01*
X1209735Y459443D01*
X1208132Y461532D01*
X1206043Y463135D01*
X1203611Y464143D01*
X1201000Y464486D01*
D02*
G37*
G36*
X1438500Y459315D02*
X1436542Y459057D01*
X1434718Y458301D01*
X1433151Y457099D01*
X1431949Y455532D01*
X1431193Y453708D01*
X1430935Y451750D01*
X1431193Y449792D01*
X1431949Y447968D01*
X1433151Y446401D01*
X1434718Y445199D01*
X1436542Y444443D01*
X1438500Y444185D01*
X1440458Y444443D01*
X1442282Y445199D01*
X1443849Y446401D01*
X1445051Y447968D01*
X1445807Y449792D01*
X1446065Y451750D01*
X1445807Y453708D01*
X1445051Y455532D01*
X1443849Y457099D01*
X1442282Y458301D01*
X1440458Y459057D01*
X1438500Y459315D01*
D02*
G37*
G36*
X1503000Y444815D02*
X1501042Y444557D01*
X1499218Y443801D01*
X1497651Y442599D01*
X1496449Y441032D01*
X1495693Y439208D01*
X1495435Y437250D01*
X1495693Y435292D01*
X1496449Y433468D01*
X1497651Y431901D01*
X1499218Y430699D01*
X1501042Y429943D01*
X1503000Y429685D01*
X1504958Y429943D01*
X1506782Y430699D01*
X1508349Y431901D01*
X1509551Y433468D01*
X1510307Y435292D01*
X1510565Y437250D01*
X1510307Y439208D01*
X1509551Y441032D01*
X1508349Y442599D01*
X1506782Y443801D01*
X1504958Y444557D01*
X1503000Y444815D01*
D02*
G37*
G36*
X440540Y438540D02*
X431270D01*
Y429270D01*
X440540D01*
Y438540D01*
D02*
G37*
G36*
X428730D02*
X419460D01*
Y429270D01*
X428730D01*
Y438540D01*
D02*
G37*
G36*
X808270Y434081D02*
Y425270D01*
X817081D01*
X816898Y426652D01*
X815875Y429124D01*
X814246Y431246D01*
X812124Y432875D01*
X809652Y433899D01*
X808270Y434081D01*
D02*
G37*
G36*
X805730D02*
X804348Y433899D01*
X801876Y432875D01*
X799754Y431246D01*
X798125Y429124D01*
X797102Y426652D01*
X796919Y425270D01*
X805730D01*
Y434081D01*
D02*
G37*
G36*
X1540000Y438069D02*
X1537912Y437794D01*
X1535966Y436988D01*
X1534294Y435706D01*
X1533012Y434035D01*
X1532206Y432088D01*
X1531931Y430000D01*
X1532206Y427912D01*
X1533012Y425965D01*
X1534294Y424294D01*
X1535966Y423012D01*
X1537912Y422206D01*
X1540000Y421931D01*
X1542088Y422206D01*
X1544034Y423012D01*
X1545527Y424157D01*
X1545751Y424289D01*
X1548018Y424023D01*
X1548454Y423454D01*
X1550125Y422172D01*
X1552072Y421366D01*
X1554160Y421091D01*
X1556248Y421366D01*
X1558194Y422172D01*
X1559866Y423454D01*
X1561148Y425126D01*
X1561954Y427072D01*
X1562229Y429160D01*
X1561954Y431248D01*
X1561148Y433195D01*
X1559866Y434866D01*
X1558194Y436148D01*
X1556248Y436954D01*
X1554160Y437229D01*
X1552072Y436954D01*
X1550125Y436148D01*
X1548633Y435003D01*
X1548409Y434871D01*
X1546142Y435137D01*
X1545706Y435706D01*
X1544034Y436988D01*
X1542088Y437794D01*
X1540000Y438069D01*
D02*
G37*
G36*
X1353400Y439086D02*
X1350789Y438743D01*
X1348357Y437735D01*
X1346268Y436132D01*
X1344665Y434043D01*
X1343657Y431610D01*
X1343314Y429000D01*
X1343657Y426390D01*
X1344665Y423957D01*
X1346268Y421868D01*
X1348357Y420265D01*
X1350789Y419257D01*
X1353400Y418914D01*
X1356010Y419257D01*
X1358443Y420265D01*
X1360532Y421868D01*
X1362135Y423957D01*
X1363143Y426390D01*
X1363486Y429000D01*
X1363143Y431610D01*
X1362135Y434043D01*
X1360532Y436132D01*
X1358443Y437735D01*
X1356010Y438743D01*
X1353400Y439086D01*
D02*
G37*
G36*
X1201000D02*
X1198390Y438743D01*
X1195957Y437735D01*
X1193868Y436132D01*
X1192265Y434043D01*
X1191257Y431610D01*
X1190914Y429000D01*
X1191257Y426390D01*
X1192265Y423957D01*
X1193868Y421868D01*
X1195957Y420265D01*
X1198390Y419257D01*
X1201000Y418914D01*
X1203611Y419257D01*
X1206043Y420265D01*
X1208132Y421868D01*
X1209735Y423957D01*
X1210743Y426390D01*
X1211086Y429000D01*
X1210743Y431610D01*
X1209735Y434043D01*
X1208132Y436132D01*
X1206043Y437735D01*
X1203611Y438743D01*
X1201000Y439086D01*
D02*
G37*
G36*
X440540Y426730D02*
X431270D01*
Y417460D01*
X440540D01*
Y426730D01*
D02*
G37*
G36*
X428730D02*
X419460D01*
Y417460D01*
X428730D01*
Y426730D01*
D02*
G37*
G36*
X817081Y422730D02*
X808270D01*
Y413919D01*
X809652Y414101D01*
X812124Y415125D01*
X814246Y416754D01*
X815875Y418876D01*
X816898Y421348D01*
X817081Y422730D01*
D02*
G37*
G36*
X805730D02*
X796919D01*
X797102Y421348D01*
X798125Y418876D01*
X799754Y416754D01*
X801876Y415125D01*
X804348Y414101D01*
X805730Y413919D01*
Y422730D01*
D02*
G37*
G36*
X692270Y422464D02*
Y413270D01*
X701464D01*
X701269Y414752D01*
X700207Y417315D01*
X698517Y419517D01*
X696315Y421207D01*
X693752Y422269D01*
X692270Y422464D01*
D02*
G37*
G36*
X689730D02*
X688249Y422269D01*
X685685Y421207D01*
X683483Y419517D01*
X681793Y417315D01*
X680731Y414752D01*
X680536Y413270D01*
X689730D01*
Y422464D01*
D02*
G37*
G36*
X1523000Y425069D02*
X1520912Y424794D01*
X1518965Y423988D01*
X1517294Y422706D01*
X1516012Y421035D01*
X1515206Y419088D01*
X1514931Y417000D01*
X1515206Y414912D01*
X1516012Y412966D01*
X1517294Y411294D01*
X1518965Y410012D01*
X1520912Y409206D01*
X1523000Y408931D01*
X1525088Y409206D01*
X1527034Y410012D01*
X1528706Y411294D01*
X1529988Y412966D01*
X1530794Y414912D01*
X1531069Y417000D01*
X1530794Y419088D01*
X1529988Y421035D01*
X1528706Y422706D01*
X1527034Y423988D01*
X1525088Y424794D01*
X1523000Y425069D01*
D02*
G37*
G36*
X554000Y421069D02*
X551912Y420794D01*
X549966Y419988D01*
X548294Y418706D01*
X547012Y417034D01*
X546206Y415088D01*
X545931Y413000D01*
X546206Y410912D01*
X547012Y408965D01*
X548294Y407294D01*
X549966Y406012D01*
X551912Y405206D01*
X554000Y404931D01*
X556088Y405206D01*
X558035Y406012D01*
X559706Y407294D01*
X560988Y408965D01*
X561794Y410912D01*
X562069Y413000D01*
X561794Y415088D01*
X560988Y417034D01*
X559706Y418706D01*
X558035Y419988D01*
X556088Y420794D01*
X554000Y421069D01*
D02*
G37*
G36*
X612500Y420569D02*
X610412Y420294D01*
X608465Y419488D01*
X606794Y418206D01*
X605512Y416535D01*
X604706Y414588D01*
X604431Y412500D01*
X604706Y410412D01*
X605512Y408465D01*
X606794Y406794D01*
X608465Y405512D01*
X610412Y404706D01*
X612500Y404431D01*
X614588Y404706D01*
X616535Y405512D01*
X618206Y406794D01*
X619488Y408465D01*
X620294Y410412D01*
X620569Y412500D01*
X620294Y414588D01*
X619488Y416535D01*
X618206Y418206D01*
X616535Y419488D01*
X614588Y420294D01*
X612500Y420569D01*
D02*
G37*
G36*
X701464Y410730D02*
X692270D01*
Y401536D01*
X693752Y401731D01*
X696315Y402793D01*
X698517Y404483D01*
X700207Y406684D01*
X701269Y409249D01*
X701464Y410730D01*
D02*
G37*
G36*
X689730D02*
X680536D01*
X680731Y409249D01*
X681793Y406684D01*
X683483Y404483D01*
X685685Y402793D01*
X688249Y401731D01*
X689730Y401536D01*
Y410730D01*
D02*
G37*
G36*
X931000Y418500D02*
X909000D01*
Y396500D01*
X931000D01*
Y418500D01*
D02*
G37*
G36*
X381270Y405464D02*
Y396270D01*
X390464D01*
X390269Y397752D01*
X389207Y400316D01*
X387517Y402517D01*
X385316Y404207D01*
X382752Y405269D01*
X381270Y405464D01*
D02*
G37*
G36*
X378730D02*
X377248Y405269D01*
X374684Y404207D01*
X372483Y402517D01*
X370793Y400316D01*
X369731Y397752D01*
X369536Y396270D01*
X378730D01*
Y405464D01*
D02*
G37*
G36*
X1353400Y413686D02*
X1350789Y413343D01*
X1348357Y412335D01*
X1346268Y410732D01*
X1344665Y408643D01*
X1343657Y406211D01*
X1343314Y403600D01*
X1343657Y400989D01*
X1344665Y398557D01*
X1346268Y396468D01*
X1348357Y394865D01*
X1350789Y393857D01*
X1353400Y393514D01*
X1356010Y393857D01*
X1358443Y394865D01*
X1360532Y396468D01*
X1362135Y398557D01*
X1363143Y400989D01*
X1363486Y403600D01*
X1363143Y406211D01*
X1362135Y408643D01*
X1360532Y410732D01*
X1358443Y412335D01*
X1356010Y413343D01*
X1353400Y413686D01*
D02*
G37*
G36*
X1201000D02*
X1198390Y413343D01*
X1195957Y412335D01*
X1193868Y410732D01*
X1192265Y408643D01*
X1191257Y406211D01*
X1190914Y403600D01*
X1191257Y400989D01*
X1192265Y398557D01*
X1193868Y396468D01*
X1195957Y394865D01*
X1198390Y393857D01*
X1201000Y393514D01*
X1203611Y393857D01*
X1206043Y394865D01*
X1208132Y396468D01*
X1209735Y398557D01*
X1210743Y400989D01*
X1211086Y403600D01*
X1210743Y406211D01*
X1209735Y408643D01*
X1208132Y410732D01*
X1206043Y412335D01*
X1203611Y413343D01*
X1201000Y413686D01*
D02*
G37*
G36*
X1677000Y408069D02*
X1674912Y407794D01*
X1672966Y406988D01*
X1671294Y405706D01*
X1670012Y404035D01*
X1669206Y402088D01*
X1668931Y400000D01*
X1669206Y397912D01*
X1670012Y395965D01*
X1671294Y394294D01*
X1672966Y393012D01*
X1674912Y392206D01*
X1677000Y391931D01*
X1679088Y392206D01*
X1681035Y393012D01*
X1682706Y394294D01*
X1683988Y395965D01*
X1684794Y397912D01*
X1685069Y400000D01*
X1684794Y402088D01*
X1683988Y404035D01*
X1682706Y405706D01*
X1681035Y406988D01*
X1679088Y407794D01*
X1677000Y408069D01*
D02*
G37*
G36*
X807000Y409312D02*
X804228Y408947D01*
X801644Y407877D01*
X799426Y406174D01*
X797723Y403956D01*
X796653Y401372D01*
X796288Y398600D01*
X796653Y395828D01*
X797723Y393244D01*
X799426Y391026D01*
X801644Y389323D01*
X804228Y388253D01*
X807000Y387888D01*
X809772Y388253D01*
X812356Y389323D01*
X814574Y391026D01*
X816277Y393244D01*
X817347Y395828D01*
X817712Y398600D01*
X817347Y401372D01*
X816277Y403956D01*
X814574Y406174D01*
X812356Y407877D01*
X809772Y408947D01*
X807000Y409312D01*
D02*
G37*
G36*
X390464Y393730D02*
X381270D01*
Y384536D01*
X382752Y384731D01*
X385316Y385793D01*
X387517Y387483D01*
X389207Y389684D01*
X390269Y392248D01*
X390464Y393730D01*
D02*
G37*
G36*
X378730D02*
X369536D01*
X369731Y392248D01*
X370793Y389684D01*
X372483Y387483D01*
X374684Y385793D01*
X377248Y384731D01*
X378730Y384536D01*
Y393730D01*
D02*
G37*
G36*
X1462250Y396569D02*
X1460162Y396294D01*
X1458215Y395488D01*
X1456544Y394206D01*
X1455262Y392534D01*
X1454456Y390588D01*
X1454181Y388500D01*
X1454456Y386412D01*
X1455262Y384465D01*
X1456544Y382794D01*
X1458215Y381512D01*
X1460162Y380706D01*
X1462250Y380431D01*
X1464338Y380706D01*
X1466284Y381512D01*
X1467956Y382794D01*
X1469238Y384465D01*
X1470044Y386412D01*
X1470319Y388500D01*
X1470044Y390588D01*
X1469238Y392534D01*
X1467956Y394206D01*
X1466284Y395488D01*
X1464338Y396294D01*
X1462250Y396569D01*
D02*
G37*
G36*
X315000Y417409D02*
X310589Y416974D01*
X306348Y415688D01*
X302439Y413598D01*
X299013Y410787D01*
X296201Y407361D01*
X294112Y403452D01*
X292826Y399211D01*
X292391Y394800D01*
X292826Y390389D01*
X294112Y386148D01*
X296201Y382239D01*
X299013Y378813D01*
X302439Y376001D01*
X306348Y373912D01*
X310589Y372625D01*
X315000Y372191D01*
X319411Y372625D01*
X323652Y373912D01*
X327561Y376001D01*
X330987Y378813D01*
X333798Y382239D01*
X335888Y386148D01*
X337174Y390389D01*
X337609Y394800D01*
X337174Y399211D01*
X335888Y403452D01*
X333798Y407361D01*
X330987Y410787D01*
X327561Y413598D01*
X323652Y415688D01*
X319411Y416974D01*
X315000Y417409D01*
D02*
G37*
G36*
X1353400Y388286D02*
X1350789Y387943D01*
X1348357Y386935D01*
X1346268Y385332D01*
X1344665Y383243D01*
X1343657Y380811D01*
X1343314Y378200D01*
X1343657Y375589D01*
X1344665Y373157D01*
X1346268Y371068D01*
X1348357Y369465D01*
X1350789Y368457D01*
X1353400Y368114D01*
X1356010Y368457D01*
X1358443Y369465D01*
X1360532Y371068D01*
X1362135Y373157D01*
X1363143Y375589D01*
X1363486Y378200D01*
X1363143Y380811D01*
X1362135Y383243D01*
X1360532Y385332D01*
X1358443Y386935D01*
X1356010Y387943D01*
X1353400Y388286D01*
D02*
G37*
G36*
X1201000D02*
X1198390Y387943D01*
X1195957Y386935D01*
X1193868Y385332D01*
X1192265Y383243D01*
X1191257Y380811D01*
X1190914Y378200D01*
X1191257Y375589D01*
X1192265Y373157D01*
X1193868Y371068D01*
X1195957Y369465D01*
X1198390Y368457D01*
X1201000Y368114D01*
X1203611Y368457D01*
X1206043Y369465D01*
X1208132Y371068D01*
X1209735Y373157D01*
X1210743Y375589D01*
X1211086Y378200D01*
X1210743Y380811D01*
X1209735Y383243D01*
X1208132Y385332D01*
X1206043Y386935D01*
X1203611Y387943D01*
X1201000Y388286D01*
D02*
G37*
G36*
X626000Y386000D02*
X604000D01*
Y364000D01*
X626000D01*
Y386000D01*
D02*
G37*
G36*
X883200Y383912D02*
X880428Y383547D01*
X877844Y382477D01*
X875626Y380774D01*
X873923Y378556D01*
X872853Y375972D01*
X872488Y373200D01*
X872853Y370428D01*
X873923Y367844D01*
X875626Y365626D01*
X877844Y363923D01*
X880428Y362853D01*
X883200Y362488D01*
X885972Y362853D01*
X888556Y363923D01*
X890774Y365626D01*
X892477Y367844D01*
X893547Y370428D01*
X893912Y373200D01*
X893547Y375972D01*
X892477Y378556D01*
X890774Y380774D01*
X888556Y382477D01*
X885972Y383547D01*
X883200Y383912D01*
D02*
G37*
G36*
X807000D02*
X804228Y383547D01*
X801644Y382477D01*
X799426Y380774D01*
X797723Y378556D01*
X796653Y375972D01*
X796288Y373200D01*
X796653Y370428D01*
X797723Y367844D01*
X799426Y365626D01*
X801644Y363923D01*
X804228Y362853D01*
X807000Y362488D01*
X809772Y362853D01*
X812356Y363923D01*
X814574Y365626D01*
X816277Y367844D01*
X817347Y370428D01*
X817712Y373200D01*
X817347Y375972D01*
X816277Y378556D01*
X814574Y380774D01*
X812356Y382477D01*
X809772Y383547D01*
X807000Y383912D01*
D02*
G37*
G36*
X1202270Y362255D02*
Y354070D01*
X1210455D01*
X1210294Y355290D01*
X1209333Y357611D01*
X1207804Y359604D01*
X1205811Y361133D01*
X1203491Y362094D01*
X1202270Y362255D01*
D02*
G37*
G36*
X1199730D02*
X1198510Y362094D01*
X1196189Y361133D01*
X1194196Y359604D01*
X1192667Y357611D01*
X1191706Y355290D01*
X1191545Y354070D01*
X1199730D01*
Y362255D01*
D02*
G37*
G36*
X1210455Y351530D02*
X1202270D01*
Y343345D01*
X1203491Y343506D01*
X1205811Y344467D01*
X1207804Y345996D01*
X1209333Y347989D01*
X1210294Y350310D01*
X1210455Y351530D01*
D02*
G37*
G36*
X1199730D02*
X1191545D01*
X1191706Y350310D01*
X1192667Y347989D01*
X1194196Y345996D01*
X1196189Y344467D01*
X1198510Y343506D01*
X1199730Y343345D01*
Y351530D01*
D02*
G37*
G36*
X1353400Y362886D02*
X1350789Y362543D01*
X1348357Y361535D01*
X1346268Y359932D01*
X1344665Y357843D01*
X1343657Y355410D01*
X1343314Y352800D01*
X1343657Y350190D01*
X1344665Y347757D01*
X1346268Y345668D01*
X1348357Y344065D01*
X1350789Y343057D01*
X1353400Y342714D01*
X1356010Y343057D01*
X1358443Y344065D01*
X1360532Y345668D01*
X1362135Y347757D01*
X1363143Y350190D01*
X1363486Y352800D01*
X1363143Y355410D01*
X1362135Y357843D01*
X1360532Y359932D01*
X1358443Y361535D01*
X1356010Y362543D01*
X1353400Y362886D01*
D02*
G37*
G36*
X1621200Y356269D02*
X1619112Y355994D01*
X1617166Y355188D01*
X1615494Y353906D01*
X1614212Y352234D01*
X1613406Y350288D01*
X1613131Y348200D01*
X1613406Y346112D01*
X1614212Y344165D01*
X1615494Y342494D01*
X1617166Y341212D01*
X1619112Y340406D01*
X1621200Y340131D01*
X1623288Y340406D01*
X1625235Y341212D01*
X1626906Y342494D01*
X1628188Y344165D01*
X1628994Y346112D01*
X1629269Y348200D01*
X1628994Y350288D01*
X1628188Y352234D01*
X1626906Y353906D01*
X1625235Y355188D01*
X1623288Y355994D01*
X1621200Y356269D01*
D02*
G37*
G36*
X463000Y350819D02*
X460912Y350544D01*
X458965Y349738D01*
X457294Y348456D01*
X456012Y346785D01*
X455206Y344838D01*
X454931Y342750D01*
X455206Y340662D01*
X456012Y338716D01*
X457294Y337044D01*
X458965Y335762D01*
X460912Y334956D01*
X463000Y334681D01*
X465088Y334956D01*
X467034Y335762D01*
X468706Y337044D01*
X469988Y338716D01*
X470794Y340662D01*
X471069Y342750D01*
X470794Y344838D01*
X469988Y346785D01*
X468706Y348456D01*
X467034Y349738D01*
X465088Y350544D01*
X463000Y350819D01*
D02*
G37*
G36*
X1505250Y346319D02*
X1503162Y346044D01*
X1501216Y345238D01*
X1499544Y343956D01*
X1498262Y342285D01*
X1497456Y340338D01*
X1497181Y338250D01*
X1497456Y336162D01*
X1498262Y334216D01*
X1499544Y332544D01*
X1501216Y331262D01*
X1503162Y330456D01*
X1505250Y330181D01*
X1507338Y330456D01*
X1509285Y331262D01*
X1510956Y332544D01*
X1512238Y334216D01*
X1513044Y336162D01*
X1513319Y338250D01*
X1513044Y340338D01*
X1512238Y342285D01*
X1510956Y343956D01*
X1509285Y345238D01*
X1507338Y346044D01*
X1505250Y346319D01*
D02*
G37*
G36*
X1202270Y336855D02*
Y328670D01*
X1210455D01*
X1210294Y329891D01*
X1209333Y332211D01*
X1207804Y334204D01*
X1205811Y335733D01*
X1203491Y336694D01*
X1202270Y336855D01*
D02*
G37*
G36*
X1199730D02*
X1198510Y336694D01*
X1196189Y335733D01*
X1194196Y334204D01*
X1192667Y332211D01*
X1191706Y329891D01*
X1191545Y328670D01*
X1199730D01*
Y336855D01*
D02*
G37*
G36*
X1210455Y326130D02*
X1202270D01*
Y317945D01*
X1203491Y318106D01*
X1205811Y319067D01*
X1207804Y320596D01*
X1209333Y322589D01*
X1210294Y324910D01*
X1210455Y326130D01*
D02*
G37*
G36*
X1199730D02*
X1191545D01*
X1191706Y324910D01*
X1192667Y322589D01*
X1194196Y320596D01*
X1196189Y319067D01*
X1198510Y318106D01*
X1199730Y317945D01*
Y326130D01*
D02*
G37*
G36*
X1353400Y337486D02*
X1350789Y337143D01*
X1348357Y336135D01*
X1346268Y334532D01*
X1344665Y332443D01*
X1343657Y330010D01*
X1343314Y327400D01*
X1343657Y324790D01*
X1344665Y322357D01*
X1346268Y320268D01*
X1348357Y318665D01*
X1350789Y317657D01*
X1353400Y317314D01*
X1356010Y317657D01*
X1358443Y318665D01*
X1360532Y320268D01*
X1362135Y322357D01*
X1363143Y324790D01*
X1363486Y327400D01*
X1363143Y330010D01*
X1362135Y332443D01*
X1360532Y334532D01*
X1358443Y336135D01*
X1356010Y337143D01*
X1353400Y337486D01*
D02*
G37*
G36*
X465500Y320069D02*
X463412Y319794D01*
X461465Y318988D01*
X459794Y317706D01*
X458512Y316035D01*
X457706Y314088D01*
X457431Y312000D01*
X457706Y309912D01*
X458512Y307966D01*
X459794Y306294D01*
X461465Y305012D01*
X463412Y304206D01*
X465500Y303931D01*
X467588Y304206D01*
X469534Y305012D01*
X471206Y306294D01*
X472488Y307966D01*
X473294Y309912D01*
X473569Y312000D01*
X473294Y314088D01*
X472488Y316035D01*
X471206Y317706D01*
X469534Y318988D01*
X467588Y319794D01*
X465500Y320069D01*
D02*
G37*
G36*
X1487250Y319819D02*
X1485162Y319544D01*
X1483215Y318738D01*
X1481544Y317456D01*
X1480262Y315784D01*
X1479456Y313838D01*
X1479181Y311750D01*
X1479456Y309662D01*
X1480262Y307715D01*
X1481544Y306044D01*
X1483215Y304762D01*
X1485162Y303956D01*
X1487250Y303681D01*
X1489338Y303956D01*
X1491284Y304762D01*
X1492956Y306044D01*
X1494238Y307715D01*
X1495044Y309662D01*
X1495319Y311750D01*
X1495044Y313838D01*
X1494238Y315784D01*
X1492956Y317456D01*
X1491284Y318738D01*
X1489338Y319544D01*
X1487250Y319819D01*
D02*
G37*
G36*
X485500Y319069D02*
X483412Y318794D01*
X481465Y317988D01*
X479794Y316706D01*
X478512Y315035D01*
X477706Y313088D01*
X477431Y311000D01*
X477706Y308912D01*
X478512Y306966D01*
X479794Y305294D01*
X481465Y304012D01*
X483412Y303206D01*
X485500Y302931D01*
X487588Y303206D01*
X489534Y304012D01*
X491206Y305294D01*
X492488Y306966D01*
X493294Y308912D01*
X493569Y311000D01*
X493294Y313088D01*
X492488Y315035D01*
X491206Y316706D01*
X489534Y317988D01*
X487588Y318794D01*
X485500Y319069D01*
D02*
G37*
G36*
X1646540Y307540D02*
X1637270D01*
Y298270D01*
X1646540D01*
Y307540D01*
D02*
G37*
G36*
X1634730D02*
X1625460D01*
Y298270D01*
X1634730D01*
Y307540D01*
D02*
G37*
G36*
X1646540Y295730D02*
X1637270D01*
Y286460D01*
X1646540D01*
Y295730D01*
D02*
G37*
G36*
X1634730D02*
X1625460D01*
Y286460D01*
X1634730D01*
Y295730D01*
D02*
G37*
G36*
X391000Y306000D02*
X369000D01*
Y284000D01*
X391000D01*
Y306000D01*
D02*
G37*
G36*
X900000Y303591D02*
X897259Y303230D01*
X894705Y302172D01*
X892511Y300489D01*
X890828Y298295D01*
X889770Y295741D01*
X889409Y293000D01*
X889770Y290259D01*
X890828Y287705D01*
X892511Y285511D01*
X894705Y283828D01*
X897259Y282770D01*
X900000Y282409D01*
X902741Y282770D01*
X905295Y283828D01*
X907489Y285511D01*
X909172Y287705D01*
X910230Y290259D01*
X910591Y293000D01*
X910230Y295741D01*
X909172Y298295D01*
X907489Y300489D01*
X905295Y302172D01*
X902741Y303230D01*
X900000Y303591D01*
D02*
G37*
G36*
X875000D02*
X872259Y303230D01*
X869705Y302172D01*
X867511Y300489D01*
X865828Y298295D01*
X864770Y295741D01*
X864409Y293000D01*
X864770Y290259D01*
X865828Y287705D01*
X867511Y285511D01*
X869705Y283828D01*
X872259Y282770D01*
X875000Y282409D01*
X877741Y282770D01*
X880295Y283828D01*
X882489Y285511D01*
X884172Y287705D01*
X885230Y290259D01*
X885591Y293000D01*
X885230Y295741D01*
X884172Y298295D01*
X882489Y300489D01*
X880295Y302172D01*
X877741Y303230D01*
X875000Y303591D01*
D02*
G37*
G36*
X850000D02*
X847259Y303230D01*
X844705Y302172D01*
X842511Y300489D01*
X840828Y298295D01*
X839770Y295741D01*
X839409Y293000D01*
X839770Y290259D01*
X840828Y287705D01*
X842511Y285511D01*
X844705Y283828D01*
X847259Y282770D01*
X850000Y282409D01*
X852741Y282770D01*
X855295Y283828D01*
X857489Y285511D01*
X859172Y287705D01*
X860230Y290259D01*
X860591Y293000D01*
X860230Y295741D01*
X859172Y298295D01*
X857489Y300489D01*
X855295Y302172D01*
X852741Y303230D01*
X850000Y303591D01*
D02*
G37*
G36*
X1320540Y268540D02*
X1311270D01*
Y259270D01*
X1320540D01*
Y268540D01*
D02*
G37*
G36*
X1308730D02*
X1299460D01*
Y259270D01*
X1308730D01*
Y268540D01*
D02*
G37*
G36*
X1080200Y260108D02*
X1076937Y259678D01*
X1073896Y258419D01*
X1071285Y256415D01*
X1069281Y253804D01*
X1068582Y252117D01*
X1066418D01*
X1065719Y253804D01*
X1063715Y256415D01*
X1061104Y258419D01*
X1058063Y259678D01*
X1054800Y260108D01*
X1051537Y259678D01*
X1048496Y258419D01*
X1045885Y256415D01*
X1043881Y253804D01*
X1043182Y252117D01*
X1041018D01*
X1040319Y253804D01*
X1038315Y256415D01*
X1035704Y258419D01*
X1032663Y259678D01*
X1029400Y260108D01*
X1026137Y259678D01*
X1023096Y258419D01*
X1020485Y256415D01*
X1018481Y253804D01*
X1017782Y252117D01*
X1015618D01*
X1014919Y253804D01*
X1012915Y256415D01*
X1010304Y258419D01*
X1007263Y259678D01*
X1004000Y260108D01*
X1000737Y259678D01*
X997696Y258419D01*
X995085Y256415D01*
X993081Y253804D01*
X991822Y250763D01*
X991392Y247500D01*
X991822Y244237D01*
X993081Y241196D01*
X995085Y238585D01*
X997696Y236581D01*
X1000737Y235322D01*
X1004000Y234892D01*
X1007263Y235322D01*
X1010304Y236581D01*
X1012915Y238585D01*
X1014919Y241196D01*
X1015618Y242883D01*
X1017782D01*
X1018481Y241196D01*
X1020485Y238585D01*
X1023096Y236581D01*
X1026137Y235322D01*
X1029400Y234892D01*
X1032663Y235322D01*
X1035704Y236581D01*
X1038315Y238585D01*
X1040319Y241196D01*
X1041018Y242883D01*
X1043182D01*
X1043881Y241196D01*
X1045885Y238585D01*
X1048496Y236581D01*
X1051537Y235322D01*
X1054800Y234892D01*
X1058063Y235322D01*
X1061104Y236581D01*
X1063715Y238585D01*
X1065719Y241196D01*
X1066418Y242883D01*
X1068582D01*
X1069281Y241196D01*
X1071285Y238585D01*
X1073896Y236581D01*
X1076937Y235322D01*
X1080200Y234892D01*
X1083463Y235322D01*
X1086504Y236581D01*
X1089115Y238585D01*
X1091119Y241196D01*
X1092067Y243484D01*
X1094226Y243497D01*
X1095083Y241428D01*
X1097013Y238913D01*
X1099528Y236983D01*
X1102457Y235770D01*
X1104330Y235523D01*
Y247500D01*
Y259477D01*
X1102457Y259230D01*
X1099528Y258017D01*
X1097013Y256087D01*
X1095083Y253572D01*
X1094226Y251503D01*
X1092067Y251516D01*
X1091119Y253804D01*
X1089115Y256415D01*
X1086504Y258419D01*
X1083463Y259678D01*
X1080200Y260108D01*
D02*
G37*
G36*
X1517000Y266565D02*
X1515042Y266307D01*
X1513218Y265551D01*
X1511651Y264349D01*
X1510449Y262782D01*
X1509693Y260958D01*
X1509435Y259000D01*
X1509693Y257042D01*
X1510449Y255218D01*
X1511651Y253651D01*
X1513218Y252449D01*
X1515042Y251693D01*
X1517000Y251435D01*
X1518958Y251693D01*
X1520782Y252449D01*
X1522349Y253651D01*
X1523551Y255218D01*
X1524307Y257042D01*
X1524565Y259000D01*
X1524307Y260958D01*
X1523551Y262782D01*
X1522349Y264349D01*
X1520782Y265551D01*
X1518958Y266307D01*
X1517000Y266565D01*
D02*
G37*
G36*
X1473000D02*
X1471042Y266307D01*
X1469218Y265551D01*
X1467651Y264349D01*
X1466449Y262782D01*
X1465693Y260958D01*
X1465435Y259000D01*
X1465693Y257042D01*
X1466449Y255218D01*
X1467651Y253651D01*
X1469218Y252449D01*
X1471042Y251693D01*
X1473000Y251435D01*
X1474958Y251693D01*
X1476782Y252449D01*
X1478349Y253651D01*
X1479551Y255218D01*
X1480307Y257042D01*
X1480565Y259000D01*
X1480307Y260958D01*
X1479551Y262782D01*
X1478349Y264349D01*
X1476782Y265551D01*
X1474958Y266307D01*
X1473000Y266565D01*
D02*
G37*
G36*
X1129730Y259477D02*
X1127857Y259230D01*
X1124928Y258017D01*
X1122413Y256087D01*
X1120483Y253572D01*
X1119451Y251080D01*
X1118300Y250854D01*
X1117149Y251080D01*
X1116117Y253572D01*
X1114187Y256087D01*
X1111672Y258017D01*
X1108743Y259230D01*
X1106870Y259477D01*
Y247500D01*
Y235523D01*
X1108743Y235770D01*
X1111672Y236983D01*
X1114187Y238913D01*
X1116117Y241428D01*
X1117149Y243920D01*
X1118300Y244146D01*
X1119451Y243920D01*
X1120483Y241428D01*
X1122413Y238913D01*
X1124928Y236983D01*
X1127857Y235770D01*
X1129730Y235523D01*
Y247500D01*
Y259477D01*
D02*
G37*
G36*
X1132270D02*
Y248770D01*
X1142977D01*
X1142730Y250643D01*
X1141517Y253572D01*
X1139587Y256087D01*
X1137072Y258017D01*
X1134143Y259230D01*
X1132270Y259477D01*
D02*
G37*
G36*
X1320540Y256730D02*
X1311270D01*
Y247460D01*
X1320540D01*
Y256730D01*
D02*
G37*
G36*
X1308730D02*
X1299460D01*
Y247460D01*
X1308730D01*
Y256730D01*
D02*
G37*
G36*
X339540Y255540D02*
X330270D01*
Y246270D01*
X339540D01*
Y255540D01*
D02*
G37*
G36*
X327730D02*
X318460D01*
Y246270D01*
X327730D01*
Y255540D01*
D02*
G37*
G36*
X1142977Y246230D02*
X1132270D01*
Y235523D01*
X1134143Y235770D01*
X1137072Y236983D01*
X1139587Y238913D01*
X1141517Y241428D01*
X1142730Y244357D01*
X1142977Y246230D01*
D02*
G37*
G36*
X339540Y243730D02*
X330270D01*
Y234460D01*
X339540D01*
Y243730D01*
D02*
G37*
G36*
X327730D02*
X318460D01*
Y234460D01*
X327730D01*
Y243730D01*
D02*
G37*
G36*
X860500Y249500D02*
X839500D01*
Y228500D01*
X860500D01*
Y249500D01*
D02*
G37*
G36*
X900000Y249591D02*
X897259Y249230D01*
X894705Y248172D01*
X892511Y246489D01*
X890828Y244295D01*
X889770Y241741D01*
X889409Y239000D01*
X889770Y236259D01*
X890828Y233705D01*
X892511Y231511D01*
X894705Y229828D01*
X897259Y228770D01*
X900000Y228409D01*
X902741Y228770D01*
X905295Y229828D01*
X907489Y231511D01*
X909172Y233705D01*
X910230Y236259D01*
X910591Y239000D01*
X910230Y241741D01*
X909172Y244295D01*
X907489Y246489D01*
X905295Y248172D01*
X902741Y249230D01*
X900000Y249591D01*
D02*
G37*
G36*
X875000D02*
X872259Y249230D01*
X869705Y248172D01*
X867511Y246489D01*
X865828Y244295D01*
X864770Y241741D01*
X864409Y239000D01*
X864770Y236259D01*
X865828Y233705D01*
X867511Y231511D01*
X869705Y229828D01*
X872259Y228770D01*
X875000Y228409D01*
X877741Y228770D01*
X880295Y229828D01*
X882489Y231511D01*
X884172Y233705D01*
X885230Y236259D01*
X885591Y239000D01*
X885230Y241741D01*
X884172Y244295D01*
X882489Y246489D01*
X880295Y248172D01*
X877741Y249230D01*
X875000Y249591D01*
D02*
G37*
G36*
X1678000Y271106D02*
X1673687Y270682D01*
X1669540Y269424D01*
X1665718Y267381D01*
X1662368Y264632D01*
X1659619Y261282D01*
X1657576Y257460D01*
X1656318Y253313D01*
X1655894Y249000D01*
X1656318Y244687D01*
X1657576Y240540D01*
X1659619Y236718D01*
X1662368Y233368D01*
X1665718Y230619D01*
X1669540Y228576D01*
X1673687Y227318D01*
X1678000Y226894D01*
X1682313Y227318D01*
X1686460Y228576D01*
X1690282Y230619D01*
X1693632Y233368D01*
X1696381Y236718D01*
X1698424Y240540D01*
X1699682Y244687D01*
X1700106Y249000D01*
X1699682Y253313D01*
X1698424Y257460D01*
X1696381Y261282D01*
X1693632Y264632D01*
X1690282Y267381D01*
X1686460Y269424D01*
X1682313Y270682D01*
X1678000Y271106D01*
D02*
G37*
G36*
X242000D02*
X237687Y270682D01*
X233540Y269424D01*
X229718Y267381D01*
X226368Y264632D01*
X223619Y261282D01*
X221576Y257460D01*
X220318Y253313D01*
X219894Y249000D01*
X220318Y244687D01*
X221576Y240540D01*
X223619Y236718D01*
X226368Y233368D01*
X229718Y230619D01*
X233540Y228576D01*
X237687Y227318D01*
X242000Y226894D01*
X246313Y227318D01*
X250460Y228576D01*
X254282Y230619D01*
X257632Y233368D01*
X260381Y236718D01*
X262424Y240540D01*
X263682Y244687D01*
X264106Y249000D01*
X263682Y253313D01*
X262424Y257460D01*
X260381Y261282D01*
X257632Y264632D01*
X254282Y267381D01*
X250460Y269424D01*
X246313Y270682D01*
X242000Y271106D01*
D02*
G37*
%LPD*%
D88*
X1258164Y878688D02*
D03*
X330000Y1035000D02*
D03*
X430000Y428000D02*
D03*
X329000Y245000D02*
D03*
X1043000Y755000D02*
D03*
X1039000Y967000D02*
D03*
X1636000Y297000D02*
D03*
X1087000Y509000D02*
D03*
X592000Y505000D02*
D03*
X1310000Y258000D02*
D03*
X1442000Y533000D02*
D03*
X1574000Y495000D02*
D03*
D89*
X252500Y1015000D02*
D03*
Y1040400D02*
D03*
X1131000Y247500D02*
D03*
X1105600D02*
D03*
D94*
X807000Y500200D02*
D03*
Y424000D02*
D03*
D96*
X327700Y546900D02*
D03*
Y519200D02*
D03*
Y491500D02*
D03*
X302300Y782350D02*
D03*
Y754650D02*
D03*
Y726950D02*
D03*
Y699250D02*
D03*
Y671550D02*
D03*
Y643850D02*
D03*
Y616150D02*
D03*
Y588450D02*
D03*
X891800Y1065000D02*
D03*
X864100D02*
D03*
X836400D02*
D03*
D97*
X1646474Y983224D02*
D03*
X1621074D02*
D03*
X1646474Y957824D02*
D03*
Y932424D02*
D03*
X691000Y412000D02*
D03*
X492500Y695000D02*
D03*
X615000Y475000D02*
D03*
X380000Y395000D02*
D03*
X920000Y507500D02*
D03*
X1579000Y464000D02*
D03*
X520000Y992700D02*
D03*
X1364000Y973000D02*
D03*
X1330000Y1127500D02*
D03*
X1060000Y1030000D02*
D03*
D100*
X1353400Y784600D02*
D03*
X1201000Y352800D02*
D03*
Y327400D02*
D03*
D103*
X1498750Y454250D02*
D03*
X554000Y357250D02*
D03*
D104*
X803080Y860401D02*
D03*
X886625Y839999D02*
D03*
Y899999D02*
D03*
X855000Y580000D02*
D03*
X853000Y780000D02*
D03*
Y758000D02*
D03*
Y684940D02*
D03*
X854000Y644000D02*
D03*
X1318998Y997998D02*
D03*
X1061000Y337000D02*
D03*
X940000Y220000D02*
D03*
X790000D02*
D03*
X660000D02*
D03*
X514000Y467000D02*
D03*
X464000Y548000D02*
D03*
X458000Y514000D02*
D03*
X513000Y515000D02*
D03*
X594000Y580000D02*
D03*
X534000D02*
D03*
X512000Y547000D02*
D03*
X631000Y684940D02*
D03*
X596000Y644000D02*
D03*
X1064000Y684940D02*
D03*
X1080000Y580000D02*
D03*
X996000D02*
D03*
X943000D02*
D03*
X714000D02*
D03*
X674000D02*
D03*
X996000Y644000D02*
D03*
Y684940D02*
D03*
X943000Y645000D02*
D03*
Y684940D02*
D03*
X713000Y644000D02*
D03*
X673000D02*
D03*
X711000Y684940D02*
D03*
X674000D02*
D03*
X658000Y743000D02*
D03*
X962000Y799000D02*
D03*
X1002000Y852000D02*
D03*
X766674Y880466D02*
D03*
X766928Y860654D02*
D03*
X731622D02*
D03*
X731368Y880466D02*
D03*
X694792D02*
D03*
X695046Y860654D02*
D03*
X1078000Y323000D02*
D03*
X1077000Y465000D02*
D03*
X1446000Y487000D02*
D03*
X1405500Y430750D02*
D03*
X1409000Y389000D02*
D03*
Y310000D02*
D03*
X1615000Y230000D02*
D03*
X1613000Y284000D02*
D03*
X439000Y993000D02*
D03*
X438000Y760000D02*
D03*
X405000Y319000D02*
D03*
X407000Y390000D02*
D03*
X456000Y750000D02*
D03*
X275000Y920000D02*
D03*
X278000Y318000D02*
D03*
X1094000Y451000D02*
D03*
X1095500Y346250D02*
D03*
X1057000Y451000D02*
D03*
X974000Y360000D02*
D03*
X1027000Y351000D02*
D03*
X773000Y459000D02*
D03*
X761000Y512000D02*
D03*
X784000Y488000D02*
D03*
X798000Y335000D02*
D03*
X740000Y342000D02*
D03*
X686000Y337000D02*
D03*
X620000Y351000D02*
D03*
X1209000Y946000D02*
D03*
X1066000Y984000D02*
D03*
X607000Y764000D02*
D03*
X591000Y725000D02*
D03*
X1000000Y966000D02*
D03*
X460000Y980000D02*
D03*
X1511000Y310000D02*
D03*
M02*
