G04*
G04 #@! TF.GenerationSoftware,Altium Limited,Altium Designer,18.0.12 (696)*
G04*
G04 Layer_Color=0*
%FSLAX44Y44*%
%MOMM*%
G71*
G01*
G75*
%ADD24R,1.6540X1.3040*%
%ADD25R,1.3040X1.6540*%
%ADD45R,1.8040X1.8040*%
%ADD46C,2.1040*%
%ADD47C,1.7040*%
%ADD48R,1.7040X1.7040*%
%ADD49C,5.7040*%
%ADD50R,1.7280X1.7280*%
%ADD51C,1.7280*%
%ADD52C,4.1040*%
%ADD53C,1.9040*%
%ADD54C,1.8040*%
%ADD55C,0.9000*%
%ADD56R,1.8040X1.8040*%
%ADD57C,1.6040*%
%ADD58R,1.6040X1.6040*%
%ADD59C,4.0040*%
%ADD60C,1.1040*%
%ADD61C,1.2040*%
D24*
X572500Y985500D02*
D03*
Y967500D02*
D03*
X367500Y910500D02*
D03*
Y892500D02*
D03*
X1468000Y726000D02*
D03*
Y744000D02*
D03*
X1482000Y638000D02*
D03*
Y656000D02*
D03*
X1566000Y624000D02*
D03*
Y606000D02*
D03*
X1482000Y685000D02*
D03*
Y703000D02*
D03*
X1497500Y1074000D02*
D03*
Y1056000D02*
D03*
X1470000Y1074000D02*
D03*
Y1056000D02*
D03*
D25*
X1534000Y753000D02*
D03*
X1516000D02*
D03*
X591500Y872500D02*
D03*
X573500D02*
D03*
X1398500Y1067500D02*
D03*
X1416500D02*
D03*
X1398500Y1090000D02*
D03*
X1416500D02*
D03*
X1561000Y537000D02*
D03*
X1579000D02*
D03*
X1555000Y753000D02*
D03*
X1573000D02*
D03*
D45*
X1258164Y878688D02*
D03*
X330000Y1035000D02*
D03*
X430000Y428000D02*
D03*
X691000Y512000D02*
D03*
X615000Y375000D02*
D03*
X380000Y295000D02*
D03*
X920000Y407500D02*
D03*
X520000Y892700D02*
D03*
X927500Y915000D02*
D03*
X490000Y990000D02*
D03*
X329000Y245000D02*
D03*
X1043000Y755000D02*
D03*
X1039000Y967000D02*
D03*
X1636000Y297000D02*
D03*
X1087000Y509000D02*
D03*
X592000Y505000D02*
D03*
X1310000Y258000D02*
D03*
X1442000Y533000D02*
D03*
X1574000Y495000D02*
D03*
D46*
X252500Y964200D02*
D03*
Y989600D02*
D03*
Y1015000D02*
D03*
Y1040400D02*
D03*
X1131000Y247500D02*
D03*
X1105600D02*
D03*
X1080200D02*
D03*
X1054800D02*
D03*
X1029400D02*
D03*
X1004000D02*
D03*
D47*
X900000Y239000D02*
D03*
X900000Y293000D02*
D03*
X875000D02*
D03*
Y239000D02*
D03*
X850000Y293000D02*
D03*
X1643000Y646400D02*
D03*
X1614552Y714900D02*
D03*
Y687500D02*
D03*
Y660100D02*
D03*
Y632700D02*
D03*
Y605300D02*
D03*
X1643000Y619000D02*
D03*
Y673800D02*
D03*
Y701200D02*
D03*
D48*
X850000Y239000D02*
D03*
D49*
X1628776Y535150D02*
D03*
Y785050D02*
D03*
D50*
X807000Y525600D02*
D03*
D51*
Y500200D02*
D03*
Y424000D02*
D03*
Y398600D02*
D03*
Y373200D02*
D03*
X883200D02*
D03*
Y525600D02*
D03*
D52*
X315000Y865200D02*
D03*
Y394800D02*
D03*
X531950Y1052300D02*
D03*
X1002350D02*
D03*
D53*
X327700Y796200D02*
D03*
Y768500D02*
D03*
Y740800D02*
D03*
Y713100D02*
D03*
Y685400D02*
D03*
Y657700D02*
D03*
Y630000D02*
D03*
Y602300D02*
D03*
Y574600D02*
D03*
Y546900D02*
D03*
Y519200D02*
D03*
Y491500D02*
D03*
Y463800D02*
D03*
X302300Y782350D02*
D03*
Y754650D02*
D03*
Y726950D02*
D03*
Y699250D02*
D03*
Y671550D02*
D03*
Y643850D02*
D03*
Y616150D02*
D03*
Y588450D02*
D03*
Y560750D02*
D03*
Y533050D02*
D03*
Y505350D02*
D03*
Y477650D02*
D03*
X933350Y1039600D02*
D03*
X905650D02*
D03*
X877950D02*
D03*
X850250D02*
D03*
X822550D02*
D03*
X794850D02*
D03*
X767150D02*
D03*
X739450D02*
D03*
X711750D02*
D03*
X684050D02*
D03*
X656350D02*
D03*
X628650D02*
D03*
X600950D02*
D03*
X919500Y1065000D02*
D03*
X891800D02*
D03*
X864100D02*
D03*
X836400D02*
D03*
X808700D02*
D03*
X781000D02*
D03*
X753300D02*
D03*
X725600D02*
D03*
X697900D02*
D03*
X670200D02*
D03*
X642500D02*
D03*
X614800D02*
D03*
D54*
X1646474Y1008624D02*
D03*
X1621074D02*
D03*
X1646474Y983224D02*
D03*
X1621074D02*
D03*
X1646474Y957824D02*
D03*
X1621074D02*
D03*
Y932424D02*
D03*
X1646474D02*
D03*
X1621074Y907024D02*
D03*
X1646474D02*
D03*
X691000Y412000D02*
D03*
X492500Y695000D02*
D03*
X615000Y475000D02*
D03*
X380000Y395000D02*
D03*
X920000Y507500D02*
D03*
X1579000Y464000D02*
D03*
X520000Y992700D02*
D03*
X1364000Y973000D02*
D03*
X1330000Y1127500D02*
D03*
X927500Y815000D02*
D03*
X1060000Y1030000D02*
D03*
X490000Y890000D02*
D03*
D55*
X1473000Y259000D02*
D03*
X1517000D02*
D03*
D56*
X592500Y695000D02*
D03*
X1679000Y464000D02*
D03*
X1464000Y973000D02*
D03*
X1430000Y1127500D02*
D03*
X1160000Y1030000D02*
D03*
D57*
X1353400Y784600D02*
D03*
Y327400D02*
D03*
Y352800D02*
D03*
Y378200D02*
D03*
Y403600D02*
D03*
Y429000D02*
D03*
Y454400D02*
D03*
Y479800D02*
D03*
Y505200D02*
D03*
Y530600D02*
D03*
Y556000D02*
D03*
Y581400D02*
D03*
Y606800D02*
D03*
Y632200D02*
D03*
Y657600D02*
D03*
Y683000D02*
D03*
Y708400D02*
D03*
Y733800D02*
D03*
Y759200D02*
D03*
X1201000Y784600D02*
D03*
Y759200D02*
D03*
Y733800D02*
D03*
Y708400D02*
D03*
Y683000D02*
D03*
Y657600D02*
D03*
Y632200D02*
D03*
Y606800D02*
D03*
Y581400D02*
D03*
Y556000D02*
D03*
Y530600D02*
D03*
Y505200D02*
D03*
Y479800D02*
D03*
Y454400D02*
D03*
Y429000D02*
D03*
Y403600D02*
D03*
Y378200D02*
D03*
Y352800D02*
D03*
Y327400D02*
D03*
X1353400Y810000D02*
D03*
D58*
X1201000D02*
D03*
D59*
X242000Y1121000D02*
D03*
Y249000D02*
D03*
X1678000D02*
D03*
Y1121000D02*
D03*
D60*
X1498750Y454250D02*
D03*
X1503000Y437250D02*
D03*
X554000Y357250D02*
D03*
X1438500Y451750D02*
D03*
D61*
X1523000Y417000D02*
D03*
Y1078250D02*
D03*
X518250Y836500D02*
D03*
X572518Y948036D02*
D03*
X1068500Y1004500D02*
D03*
X1223000Y1003000D02*
D03*
X571000Y850000D02*
D03*
X512000Y809000D02*
D03*
X986000Y474000D02*
D03*
X554000Y413000D02*
D03*
X367500Y935000D02*
D03*
X572500Y887500D02*
D03*
X527500Y955000D02*
D03*
X1257500Y1007500D02*
D03*
X1488000Y752000D02*
D03*
X1353000Y1052000D02*
D03*
X1536000Y547000D02*
D03*
X1548000Y612700D02*
D03*
Y625000D02*
D03*
X1572000Y716000D02*
D03*
X1553000Y728000D02*
D03*
X1477000Y594000D02*
D03*
X1501000Y703000D02*
D03*
X1500000Y685000D02*
D03*
X1500000Y656000D02*
D03*
X1501000Y638000D02*
D03*
X1379000Y548000D02*
D03*
X1254000Y482000D02*
D03*
X1444000Y714000D02*
D03*
X1554160Y429160D02*
D03*
X1677000Y400000D02*
D03*
X1621200Y348200D02*
D03*
X908000Y888000D02*
D03*
X1479000Y1007800D02*
D03*
X1452000Y1056000D02*
D03*
M02*
